<?xml version="1.0" encoding="UTF-8"?>
<svg width="350px" height="350px" viewBox="0 0 350 350" version="1.1" xmlns="http://www.w3.org/2000/svg" xmlns:xlink="http://www.w3.org/1999/xlink">
	<defs>
		<rect id="path-1" x="0" y="0" width="350" height="350">
		</rect>
		<linearGradient x1="50%" y1="0%" x2="50%" y2="100%" id="linearGradient-3">
			<stop stop-color="#E4D3B4" offset="0%">
			</stop>
			<stop stop-color="#AA9979" offset="100%">
			</stop>
		</linearGradient>
		<linearGradient x1="50%" y1="0%" x2="50%" y2="100%" id="linearGradient-4">
			<stop stop-color="#E4D3B4" offset="0%">
			</stop>
			<stop stop-color="#AA9979" offset="100%">
			</stop>
		</linearGradient>
		<linearGradient x1="50%" y1="0%" x2="50%" y2="100%" id="linearGradient-5">
			<stop stop-color="#E4D3B4" offset="0%">
			</stop>
			<stop stop-color="#AA9979" offset="100%">
			</stop>
		</linearGradient>
		<linearGradient x1="50%" y1="0%" x2="50%" y2="100%" id="linearGradient-6">
			<stop stop-color="#E4D3B4" offset="0%">
			</stop>
			<stop stop-color="#AA9979" offset="100%">
			</stop>
		</linearGradient>
		<linearGradient x1="50%" y1="0%" x2="50%" y2="100%" id="linearGradient-7">
			<stop stop-color="#E4D3B4" offset="0%">
			</stop>
			<stop stop-color="#AA9979" offset="100%">
			</stop>
		</linearGradient>
		<linearGradient x1="50%" y1="0%" x2="50%" y2="100%" id="linearGradient-8">
			<stop stop-color="#E4D3B4" offset="0%">
			</stop>
			<stop stop-color="#AA9979" offset="100%">
			</stop>
		</linearGradient>
		<linearGradient x1="50%" y1="0%" x2="50%" y2="100%" id="linearGradient-9">
			<stop stop-color="#E4D3B4" offset="0%">
			</stop>
			<stop stop-color="#AA9979" offset="100%">
			</stop>
		</linearGradient>
		<linearGradient x1="50%" y1="0%" x2="50%" y2="100%" id="linearGradient-10">
			<stop stop-color="#E4D3B4" offset="0%">
			</stop>
			<stop stop-color="#AA9979" offset="100%">
			</stop>
		</linearGradient>
	</defs>
	<g id="Page-1" stroke="none" stroke-width="1" fill="none" fill-rule="evenodd">
		<g id="Group">
			<mask id="mask-2" fill="white">
				<use xlink:href="#path-1">
				</use>
			</mask>
			<use id="Mask" fill="#121A22" xlink:href="#path-1">
			</use>
			<g id="Splurge-logo1" mask="url(#mask-2)" fill="#172029" fill-rule="nonzero">
				<g transform="translate(36.000000, 30.000000)">
					<path d="M219.406932,108 C212.31843,114.206208 203.600867,118.701601 194,120.752899 C200.285094,127.299416 208.017391,132.475775 216.708262,135.84509 C222.429813,138.079577 228.577357,139.528642 235,140 C229.753555,133.322434 225.50572,125.854899 222.456326,117.806827 C221.222475,114.625251 220.210341,111.338695 219.406932,108" id="Fill-329">
					</path>
					<path d="M276.804955,286.048291 C273.905072,230.678391 238.852903,186.529441 183.332445,165.682244 C177.345532,163.428232 171.118258,161.463696 164.67705,159.775419 C157.9153,157.975888 150.908367,156.528156 143.660892,155.401151 L142.992842,155.289718 C128.876473,153.387683 114.706888,147.485323 105.33919,137.685497 C112.345945,150.24721 123.508859,160.149719 137.00593,165.517417 C111.59325,163.428232 91.5971137,142.139947 91.5971137,116.18774 C91.5971137,105.831108 94.7687878,96.2537902 100.212117,88.2801032 C103.000569,84.1729874 106.412605,80.5203527 110.305902,77.4111308 C110.680017,77.1170129 111.085383,76.7918223 111.51307,76.4710962 C115.593335,73.2238335 120.288256,70.6980261 125.361934,69.1167177 C126.889824,68.6088419 128.471286,68.2079342 130.083641,67.8782792 L130.137214,67.8782792 C131.638317,67.530945 133.143884,67.2680781 134.703024,67.0764639 C136.818783,66.7825245 138.970436,66.6489481 141.139767,66.6489481 C155.175778,66.6489481 167.84426,72.4709486 176.859986,81.8389727 C184.160855,89.4294313 189.074173,99.363012 190.334914,110.419134 C190.361522,110.445921 190.361522,110.50378 190.334914,110.530567 C192.615498,110.125195 194.842688,109.563924 196.989876,108.811039 C197.421849,108.677463 197.845073,108.5171 198.277225,108.352272 C205.845242,105.559312 212.500204,100.89539 217.685313,94.908562 C217.707456,94.908562 217.685313,94.8817753 217.685313,94.8817753 C218.941411,93.46083 220.09965,91.9595246 221.173065,90.3692874 C226.24228,82.8322237 229.217878,73.7317094 229.217878,63.9672421 C229.217878,58.1407772 228.175535,52.5325346 226.215493,47.3785945 C225.195472,44.6167069 223.908123,41.9575016 222.375769,39.4361586 C222.215409,39.1377548 222.028441,38.8436368 221.814507,38.5452329 C220.072864,35.9704951 217.974784,33.5071899 215.560447,31.1685322 C213.119502,28.8075523 210.571413,26.5803273 207.938857,24.4332838 C206.999016,23.6803989 206.032388,22.9543007 205.070225,22.2282024 C196.905231,16.0854758 187.86254,11.0429684 178.174121,7.30997352 C164.169361,1.94227552 148.819215,-0.659070431 132.769769,0.142744859 C74.5855043,3.06928138 28.1030937,51.5924999 27.4571872,109.826791 C27.1364661,139.351451 38.6513523,165.891538 58.5360581,185.861202 C63.1241907,190.476194 68.1442968,194.743494 73.5920904,198.610065 C75.8728529,200.244947 78.2337956,201.803933 80.6792044,203.278452 C95.8955973,212.592903 113.82044,219.002961 133.624966,221.742526 C135.264286,222.014322 136.903428,222.281474 138.538284,222.628987 C156.676881,226.174832 174.957982,233.631714 188.481839,245.734661 C175.385669,237.391317 159.955344,232.424527 143.366957,232.050406 C142.672121,232.023619 141.999428,232.023619 141.304592,232.023619 C138.970436,232.023619 136.631815,232.103801 134.324445,232.313094 C101.263389,234.896761 73.3472638,255.77521 60.709854,284.841103 C61.6764816,287.816749 62.8568636,290.716499 64.2243925,293.509637 C65.1910201,295.51864 66.2378279,297.478534 67.364816,299.385033 C76.2737542,314.441481 90.0960105,326.246024 106.626538,332.553578 C110.653409,334.13935 114.867248,335.373325 119.21484,336.237464 C113.980801,335.965668 108.884979,335.137244 103.971661,333.840947 C91.2496063,330.513324 79.815079,324.049871 70.5052395,315.296691 C64.923693,310.089356 60.1173415,304.080206 56.2820819,297.425139 C55.5293874,296.13777 54.8343727,294.850401 54.1618585,293.509637 C48.7897807,282.934426 45.7873959,270.991843 45.7873959,258.323161 C45.7873959,249.708022 47.181711,241.413787 49.7874804,233.658323 C30.1701017,246.759163 16.8066051,268.519609 15.2163929,293.509637 C15.087283,295.2022 15.0292461,296.890476 15.0292461,298.60554 C15.0292461,305.826342 16.0271243,312.806599 17.8757348,319.430594 C10.3075392,312.294259 4.19151712,303.652512 0,293.96394 C0.271612881,374.426194 69.5118257,438.941252 151.581059,431.399724 C226.001739,424.530899 280.693609,360.683901 276.804955,286.048291" id="Fill-330">
					</path>
				</g>
			</g>
			<g id="Group-11" mask="url(#mask-2)">
				<g transform="translate(11.000000, 19.000000)">
					<polygon id="Rectangle" stroke="none" fill="#D8D8D8" fill-rule="evenodd" transform="translate(82.557141, 74.556882) rotate(-52.000000) translate(-82.557141, -74.556882) " points="80.0238163 72.0220556 85.0844423 72.0280791 85.0904658 77.0917087 80.0298397 77.0856853">
					</polygon>
					<polygon id="Rectangle" stroke="none" fill="#6E7A84" fill-rule="evenodd" transform="translate(243.831885, 45.828016) rotate(-18.000000) translate(-243.831885, -45.828016) " points="240.789406 42.7915633 246.869986 42.7959419 246.874365 48.8644686 240.793785 48.86009">
					</polygon>
					<polygon id="Rectangle-Copy" stroke="none" fill="#6E7A84" fill-rule="evenodd" transform="translate(76.843549, 104.835768) rotate(-85.000000) translate(-76.843549, -104.835768) " points="73.303584 101.287245 80.382004 101.288754 80.3835132 108.384292 73.3050932 108.382783">
					</polygon>
					<ellipse id="Oval" stroke="#E4D3B4" stroke-width="1.5" fill="none" transform="translate(111.433473, 40.427378) rotate(-8.000000) translate(-111.433473, -40.427378) " cx="111.433473" cy="40.4273783" rx="2.29085729" ry="2.28369646">
					</ellipse>
					<ellipse id="Oval-Copy-2" stroke="#E4D3B4" stroke-width="1.5" fill="none" transform="translate(288.433473, 49.427378) rotate(-8.000000) translate(-288.433473, -49.427378) " cx="288.433473" cy="49.4273783" rx="2.29085729" ry="2.28369646">
					</ellipse>
					<ellipse id="Oval-Copy" stroke="#F4F6FD" stroke-width="1.5" fill="none" transform="translate(214.577964, 21.569838) rotate(-8.000000) translate(-214.577964, -21.569838) " cx="214.577964" cy="21.5698377" rx="3.30447639" ry="3.29492861">
					</ellipse>
					<path d="M273.417128,34.4314848 L276.194389,29.454332 C276.463504,28.97205 277.072631,28.7992435 277.554913,29.0683578 C277.72801,29.1649463 277.868496,29.3107993 277.958531,29.4873939 L280.492834,34.4581769 C280.743688,34.9502037 280.54818,35.5524281 280.056153,35.8032829 C279.915847,35.8748166 279.760629,35.9122001 279.60314,35.9123889 L274.291576,35.9187587 C273.739292,35.919421 273.29104,35.472243 273.290377,34.9199586 C273.290172,34.7489756 273.333812,34.5807957 273.417128,34.4314848 Z" id="Path-2" stroke="none" fill="#F4F6FD" fill-rule="evenodd" transform="translate(276.909668, 31.869429) rotate(39.000000) translate(-276.909668, -31.869429) ">
					</path>
					<path d="M261.175215,74.9524819 L262.819405,72.0059741 C263.088523,71.5236944 263.697652,71.350893 264.179931,71.6200114 C264.352538,71.7163284 264.49273,71.8616381 264.582798,72.0375865 L266.091602,74.9850287 C266.343261,75.4766444 266.148738,76.0791879 265.657122,76.3308472 C265.515991,76.4030927 265.359704,76.4407452 265.201156,76.4406982 L262.048163,76.4397639 C261.495878,76.4396002 261.048296,75.9917523 261.048459,75.4394676 C261.04851,75.2689882 261.092143,75.1013521 261.175215,74.9524819 Z" id="Path-2-Copy" stroke="none" fill="#D8D8D8" fill-rule="evenodd" transform="translate(263.591292, 73.407060) rotate(-7.000000) translate(-263.591292, -73.407060) ">
					</path>
					<path d="M65.0324082,50.983621 L66.6791058,48.031649 C66.9481567,47.5493316 67.557261,47.376445 68.0395784,47.6454959 C68.2127723,47.7421086 68.3533286,47.8880368 68.4433806,48.0647308 L69.9458871,51.0128507 C70.1966674,51.5049154 70.0010678,52.1071102 69.5090031,52.3578906 C69.3687388,52.4293761 69.2135784,52.4667353 69.0561484,52.4669278 L65.9069443,52.4707801 C65.35466,52.4714557 64.9063974,52.0242884 64.9057218,51.4720041 C64.9055127,51.3010574 64.9491298,51.1329111 65.0324082,50.983621 Z" id="Path-2-Copy-2" stroke="none" fill="#DEE3E8" fill-rule="evenodd" transform="translate(67.443802, 49.433780) rotate(-137.000000) translate(-67.443802, -49.433780) ">
					</path>
					<path d="M39.9976004,95.9128728 L41.6446435,92.9618033 C41.9138002,92.4795449 42.5229424,92.306792 43.0052008,92.5759487 C43.1782275,92.6725179 43.3186642,92.8183143 43.4086881,92.994835 L44.9118337,95.9422318 C45.1627475,96.4342284 44.9673113,97.0364764 44.4753146,97.2873902 C44.3349708,97.3589643 44.179702,97.3963671 44.0221609,97.3965508 L40.8719723,97.4002235 C40.3196879,97.4008674 39.871451,96.9536744 39.8708071,96.40139 C39.8706077,96.2303884 39.9142625,96.0621925 39.9976004,95.9128728 Z" id="Path-2-Copy-3" stroke="none" fill="#D8D8D8" fill-rule="evenodd" transform="translate(42.409464, 94.364114) rotate(36.000000) translate(-42.409464, -94.364114) ">
					</path>
					<g id="Group-7" stroke="none" stroke-width="1" fill="none" fill-rule="evenodd" transform="translate(18.924197, 63.373344) rotate(-8.000000) translate(-18.924197, -63.373344) translate(2.089080, 47.185456)">
						<rect id="Rectangle" fill="url(#linearGradient-3)" x="16.1793685" y="-0.157443999" width="2" height="9" rx="1">
						</rect>
						<path d="M25.5948191,3.68698914 L25.6197524,3.68695859 C26.1720367,3.68628174 26.6203003,4.13344797 26.6209771,4.6857323 C26.6209781,4.68654936 26.6209781,4.68736642 26.6209771,4.68818347 L26.6122611,11.7996191 C26.6115854,12.3509464 26.1648147,12.797717 25.6134874,12.7983927 L25.5885541,12.7984233 C25.0362698,12.7991001 24.5880061,12.3519339 24.5873293,11.7996495 C24.5873283,11.7988325 24.5873283,11.7980154 24.5873293,11.7971984 L24.5960453,4.68576276 C24.5967211,4.13443542 25.0434917,3.68766481 25.5948191,3.68698914 Z" id="Rectangle-Copy-4" fill="url(#linearGradient-4)" transform="translate(25.604153, 8.242691) rotate(44.000000) translate(-25.604153, -8.242691) ">
						</path>
						<path d="M8.01616945,4.57185194 L8.04110274,4.57182138 C8.59338707,4.57114454 9.04165068,5.01831076 9.04232752,5.5705951 C9.04232852,5.57141215 9.04232852,5.57222921 9.04232752,5.57304627 L9.03361148,12.6844819 C9.03293575,13.2358092 8.5861651,13.6825798 8.03483776,13.6832555 L8.00990447,13.6832861 C7.45762014,13.6839629 7.00935654,13.2367967 7.00867969,12.6845123 C7.00867869,12.6836953 7.00867869,12.6828782 7.00867969,12.6820612 L7.01739573,5.57062555 C7.01807146,5.01929821 7.46484211,4.57252761 8.01616945,4.57185194 Z" id="Rectangle-Copy-6" fill="url(#linearGradient-4)" transform="translate(8.025504, 9.127554) scale(-1, 1) rotate(44.000000) translate(-8.025504, -9.127554) ">
						</path>
						<path d="M29.2603493,14.2609093 L29.2828984,14.2609197 C29.8348239,14.2620927 30.2821847,14.709454 30.2833571,15.2613795 L30.2866253,22.3835703 C30.2877971,22.9358546 29.8402873,23.3837752 29.2880026,23.3840286 C29.2876964,23.3840288 29.2873901,23.3840288 29.2870843,23.3831103 L29.2645352,23.3830999 C28.7126097,23.3819268 28.2652489,22.9345656 28.2640765,22.3826401 L28.2608083,15.2604493 C28.2596365,14.708165 28.7071463,14.2602444 29.259431,14.259991 C29.2597372,14.2599908 29.2600435,14.2599908 29.2603493,14.2609093 Z" id="Rectangle-Copy-5" fill="url(#linearGradient-5)" transform="translate(29.273717, 18.822010) rotate(101.000000) translate(-29.273717, -18.822010) ">
						</path>
						<path d="M5.08387827,14.0870471 L5.10642729,14.0870575 C5.65835278,14.0882305 6.10571358,14.5355918 6.10688605,15.0875173 L6.11015421,22.2097081 C6.111326,22.7619923 5.66381625,23.209913 5.11153155,23.2101664 C5.11122529,23.2101666 5.11091903,23.2101666 5.11061319,23.2092481 L5.08806417,23.2092377 C4.53613868,23.2080646 4.08877788,22.7607034 4.08760541,22.2087779 L4.08433725,15.0865871 C4.08316546,14.5343028 4.53067522,14.0863822 5.08295991,14.0861288 C5.08326617,14.0861286 5.08357243,14.0861286 5.08387827,14.0870471 Z" id="Rectangle-Copy-7" fill="url(#linearGradient-5)" transform="translate(5.097246, 18.648148) scale(-1, 1) rotate(101.000000) translate(-5.097246, -18.648148) ">
						</path>
						<path d="M21.5744418,23.4393764 L21.6009519,23.4394006 C22.1525248,23.4399028 22.5995379,23.8869152 22.6000409,24.4384881 L22.6065207,31.5428387 C22.6070245,32.0951233 22.1597178,32.5432467 21.6074333,32.5437504 C21.6068257,32.543751 21.6062181,32.543751 21.6056106,32.5437504 L21.5791004,32.5437263 C21.0275275,32.543224 20.5805145,32.0962116 20.5800114,31.5446388 L20.5735316,24.4402881 C20.5730279,23.8880036 21.0203346,23.4398802 21.5726191,23.4393764 C21.5732266,23.4393759 21.5738342,23.4393759 21.5744418,23.4393764 Z" id="Rectangle-Copy-2" fill="url(#linearGradient-6)" transform="translate(21.590026, 27.991563) rotate(-24.000000) translate(-21.590026, -27.991563) ">
						</path>
						<path d="M10.4644134,23.1470789 L10.4909236,23.1471031 C11.0424964,23.1476053 11.4895095,23.5946177 11.4900126,24.1461906 L11.4964924,31.2505412 C11.4969961,31.8028258 11.0496894,32.2509492 10.4974049,32.2514529 C10.4967973,32.2514535 10.4961897,32.2514535 10.4955822,32.2514529 L10.469072,32.2514288 C9.91749915,32.2509265 9.47048609,31.8039141 9.46998301,31.2523413 L9.4635032,24.1479906 C9.46299947,23.5957061 9.91030617,23.1475827 10.4625907,23.147079 C10.4631983,23.1470784 10.4638058,23.1470784 10.4644134,23.1470789 Z" id="Rectangle-Copy-3" fill="url(#linearGradient-6)" transform="translate(10.479998, 27.699266) scale(-1, 1) rotate(-24.000000) translate(-10.479998, -27.699266) ">
						</path>
					</g>
					<g id="Group-7-Copy" stroke="none" stroke-width="1" fill="none" fill-rule="evenodd" transform="translate(305.776360, 14.346244) rotate(-8.000000) translate(-305.776360, -14.346244) translate(292.631192, 1.706444)">
						<rect id="Rectangle" fill="url(#linearGradient-7)" x="12.0753538" y="0.302951418" width="2" height="7" rx="1">
						</rect>
						<path d="M20.0239818,2.97956036 C20.4595239,2.97902659 20.8130333,3.33167057 20.8135671,3.76721274 C20.8135679,3.76785708 20.8135679,3.76850143 20.8135671,3.76914578 L20.8067853,9.30241665 C20.8062498,9.73934082 20.4521863,10.0934043 20.0152621,10.0939398 C19.5797199,10.0944735 19.2262106,9.74182956 19.2256768,9.30628739 C19.225676,9.30564304 19.225676,9.3049987 19.2256768,9.30435435 L19.2324586,3.77108348 C19.2329941,3.3341593 19.5870576,2.98009582 20.0239818,2.97956036 Z" id="Rectangle-Copy-4" fill="url(#linearGradient-8)" transform="translate(20.019622, 6.536750) rotate(44.000000) translate(-20.019622, -6.536750) ">
						</path>
						<path d="M6.36960357,3.55602075 C6.80514574,3.55548698 7.15865513,3.90813097 7.1591889,4.34367313 C7.15918969,4.34431748 7.15918969,4.34496183 7.1591889,4.34560617 L7.15240712,9.87887705 C7.15187161,10.3158012 6.79780809,10.6698647 6.36088392,10.6704002 C5.92534175,10.6709339 5.57183236,10.31829 5.57129858,9.88274779 C5.5712978,9.88210344 5.5712978,9.88145909 5.57129859,9.88081475 L5.57808037,4.34754387 C5.57861588,3.9106197 5.9326794,3.55655622 6.36960357,3.55602075 Z" id="Rectangle-Copy-6" fill="url(#linearGradient-8)" transform="translate(6.365244, 7.113210) scale(-1, 1) rotate(44.000000) translate(-6.365244, -7.113210) ">
						</path>
						<path d="M22.7821414,11.0695608 C23.2183547,11.0697614 23.5719251,11.4233323 23.5721253,11.8595455 L23.5746691,17.4030759 C23.574869,17.8387714 23.2218301,18.1921344 22.7861346,18.1923343 C22.785893,18.1923344 22.7856514,18.1923344 22.7854098,18.1923343 C22.3491966,18.1921337 21.9956261,17.8385629 21.9954259,17.4023496 L21.9928821,11.8588192 C21.9926822,11.4231237 22.3457211,11.0697607 22.7814166,11.0695608 C22.7816582,11.0695607 22.7818998,11.0695607 22.7821414,11.0695608 Z" id="Rectangle-Copy-5" fill="url(#linearGradient-9)" transform="translate(22.783776, 14.630948) rotate(101.000000) translate(-22.783776, -14.630948) ">
						</path>
						<path d="M3.58587497,11.3316681 C4.02208823,11.3318687 4.37565872,11.6854396 4.37585889,12.1216528 L4.37840265,17.6651832 C4.37860257,18.1008787 4.02556369,18.4542417 3.58986822,18.4544416 C3.58962661,18.4544417 3.589385,18.4544417 3.5891434,18.4544416 C3.15293013,18.454241 2.79935964,18.1006701 2.79915948,17.6644569 L2.79661572,12.1209265 C2.79641579,11.685231 3.14945468,11.331868 3.58515014,11.3316681 C3.58539175,11.331668 3.58563336,11.331668 3.58587497,11.3316681 Z" id="Rectangle-Copy-7" fill="url(#linearGradient-9)" transform="translate(3.587509, 14.893055) scale(-1, 1) rotate(101.000000) translate(-3.587509, -14.893055) ">
						</path>
						<path d="M16.750809,17.7617365 C17.1879928,17.7621346 17.542301,18.1164423 17.5426998,18.553626 L17.5477405,24.0801336 C17.5481383,24.5162885 17.1948873,24.8701844 16.7587324,24.8705822 C16.7582526,24.8705827 16.7577728,24.8705827 16.757293,24.8705822 C16.3201092,24.8701841 15.965801,24.5158764 15.9654022,24.0786927 L15.9603615,18.5521852 C15.9599637,18.1160302 16.3132147,17.7621343 16.7493696,17.7617365 C16.7498494,17.761736 16.7503292,17.761736 16.750809,17.7617365 Z" id="Rectangle-Copy-2" fill="url(#linearGradient-10)" transform="translate(16.754051, 21.316159) rotate(-24.000000) translate(-16.754051, -21.316159) ">
						</path>
						<path d="M8.84570916,17.8630312 C9.28289288,17.8634293 9.63720115,18.2177371 9.6375999,18.6549208 L9.64264057,24.1814283 C9.64303839,24.6175832 9.28978744,24.9714792 8.8536325,24.971877 C8.85315269,24.9718774 8.85267288,24.9718774 8.85219308,24.971877 C8.41500937,24.9714789 8.06070109,24.6171711 8.06030234,24.1799874 L8.05526167,18.6534799 C8.05486385,18.217325 8.4081148,17.863429 8.84426974,17.8630312 C8.84474955,17.8630308 8.84522936,17.8630308 8.84570916,17.8630312 Z" id="Rectangle-Copy-3" fill="url(#linearGradient-10)" transform="translate(8.848951, 21.417454) scale(-1, 1) rotate(-24.000000) translate(-8.848951, -21.417454) ">
						</path>
					</g>
				</g>
			</g>
		</g>
	</g>
</svg>
