<?xml version="1.0" encoding="UTF-8"?>
<svg width="20px" height="20px" viewBox="0 0 20 20" version="1.1" xmlns="http://www.w3.org/2000/svg" xmlns:xlink="http://www.w3.org/1999/xlink">
    <!-- Generator: Sketch 64 (93537) - https://sketch.com -->
    <title>/salary</title>
    <desc>Created with Sketch.</desc>
    <defs>
        <linearGradient x1="50%" y1="0%" x2="50%" y2="100%" id="linearGradient-1">
            <stop stop-color="#E4D3B4" offset="0%"></stop>
            <stop stop-color="#AA9979" offset="100%"></stop>
        </linearGradient>
        <linearGradient x1="50%" y1="0%" x2="50%" y2="100%" id="linearGradient-2">
            <stop stop-color="#E4D3B4" offset="0%"></stop>
            <stop stop-color="#AA9979" offset="100%"></stop>
        </linearGradient>
    </defs>
    <g id="Achievements" stroke="none" stroke-width="1" fill="none" fill-rule="evenodd">
        <g id="Profile-Menu" transform="translate(-1146.000000, -284.000000)">
            <g id="Group-7" transform="translate(1124.000000, 77.674130)">
                <g id="salary" transform="translate(22.000000, 206.325870)">
                    <path d="M19.7593689,12.640686 C19.3348694,12.0106506 18.6572266,11.6127014 17.9000855,11.5489197 C17.1430969,11.4851379 16.4083863,11.7642212 15.884552,12.3146057 L13.3738709,14.9520874 C12.9794312,13.7995911 11.8855286,12.96875 10.6010437,12.96875 L8.48022461,12.96875 C7.81356812,12.220459 6.87408445,11.796875 5.859375,11.796875 C4.88235473,11.796875 3.94134523,12.2084045 3.27774047,12.9260254 C2.55355836,13.709259 1.66366578,14.140625 0.772247305,14.140625 L0,14.140625 L0,20 L14.3981934,20 L20,12.9978943 L19.7593689,12.640686 Z M13.8349914,18.828125 L1.171875,18.828125 L1.171875,15.2923584 C2.25265504,15.183258 3.29330445,14.6353149 4.13818359,13.7216187 C4.58068848,13.243103 5.2079773,12.96875 5.859375,12.96875 C6.60354613,12.96875 7.28713988,13.3105469 7.73483277,13.9065552 L7.91061402,14.140625 L10.6010437,14.140625 C11.3648987,14.140625 12.0166016,14.6304321 12.2584534,15.3125 L8.203125,15.3125 L8.203125,16.484375 L13.5333252,16.484375 L16.7333984,13.1225586 C17.0109558,12.8308105 17.4005127,12.6828003 17.8018188,12.7166748 C18.0622864,12.7384949 18.3047485,12.835083 18.5046387,12.9911804 L13.8349914,18.828125 Z" id="Shape" fill="url(#linearGradient-1)"></path>
                    <path d="M11.71875,11.796875 C13.6572266,11.796875 15.234375,10.2197266 15.234375,8.28125 C15.234375,6.34277344 13.6572266,4.765625 11.71875,4.765625 C9.78027344,4.765625 8.203125,6.34277344 8.203125,8.28125 C8.203125,10.2197266 9.78027344,11.796875 11.71875,11.796875 Z M11.71875,5.9375 C13.0110168,5.9375 14.0625,6.98883055 14.0625,8.28125 C14.0625,9.57351684 13.0110168,10.625 11.71875,10.625 C10.4263305,10.625 9.375,9.57351684 9.375,8.28125 C9.375,6.98883055 10.4263305,5.9375 11.71875,5.9375 Z" id="Shape" fill="url(#linearGradient-2)"></path>
                    <path d="M16.40625,5.9375 C17.6985168,5.9375 18.75,4.88601684 18.75,3.59375 C18.75,2.30133055 17.6985168,1.25 16.40625,1.25 C15.1138305,1.25 14.0625,2.30133055 14.0625,3.59375 C14.0625,4.88601684 15.1138305,5.9375 16.40625,5.9375 Z M16.40625,2.421875 C17.0524597,2.421875 17.578125,2.94754027 17.578125,3.59375 C17.578125,4.23995973 17.0524597,4.765625 16.40625,4.765625 C15.7600403,4.765625 15.234375,4.23995973 15.234375,3.59375 C15.234375,2.94754027 15.7600403,2.421875 16.40625,2.421875 Z" id="Shape" fill="url(#linearGradient-2)"></path>
                    <path d="M11.1328125,3.515625 C12.1020508,3.515625 12.890625,2.72705078 12.890625,1.7578125 C12.890625,0.788574219 12.1020508,0 11.1328125,0 C10.1635742,0 9.375,0.788574219 9.375,1.7578125 C9.375,2.72705078 10.1635742,3.515625 11.1328125,3.515625 Z M11.1328125,1.171875 C11.4558411,1.171875 11.71875,1.43478395 11.71875,1.7578125 C11.71875,2.08084105 11.4558411,2.34375 11.1328125,2.34375 C10.8096313,2.34375 10.546875,2.08084105 10.546875,1.7578125 C10.546875,1.43478395 10.8096313,1.171875 11.1328125,1.171875 Z" id="Shape" fill="url(#linearGradient-2)"></path>
                </g>
            </g>
        </g>
    </g>
</svg>