<?xml version="1.0" encoding="UTF-8"?>
<svg width="33px" height="33px" viewBox="0 0 33 33" version="1.1" xmlns="http://www.w3.org/2000/svg" xmlns:xlink="http://www.w3.org/1999/xlink">
    <!-- Generator: Sketch 64 (93537) - https://sketch.com -->
    <title>Group 13</title>
    <desc>Created with Sketch.</desc>
    <defs>
        <linearGradient x1="50%" y1="0%" x2="50%" y2="100%" id="linearGradient-1">
            <stop stop-color="#E4D3B4" offset="0%"></stop>
            <stop stop-color="#AA9979" offset="100%"></stop>
        </linearGradient>
    </defs>
    <g id="New" stroke="none" stroke-width="1" fill="none" fill-rule="evenodd">
        <g id="More---My-Profile" transform="translate(-312.000000, -314.000000)">
            <g id="Group-11" transform="translate(11.000000, 298.000000)">
                <g id="Group-22" transform="translate(264.000000, 11.000000)">
                    <g id="Group-13" transform="translate(37.000000, 5.000000)">
                        <circle id="Oval" fill="#161F27" cx="16.5" cy="16.5" r="16.5"></circle>
                        <path d="M16.5,4 C23.3929199,4 29,9.60805664 29,16.5 C29,23.3919434 23.3929199,29 16.5,29 C9.60708008,29 4,23.3929199 4,16.5 C4,9.60708008 9.60708008,4 16.5,4 Z M16.5,5.93647461 C10.6760254,5.93647461 5.93647461,10.6750488 5.93647461,16.5 C5.93647461,22.3249512 10.6760254,27.0635254 16.5,27.0635254 C22.3249512,27.0635254 27.0635254,22.3249512 27.0635254,16.5 C27.0635254,10.6750488 22.3239746,5.93647461 16.5,5.93647461 Z M16.5,10.603418 C17.0354492,10.603418 17.4682617,11.037207 17.4682617,11.5716797 L17.4682617,11.5716797 L17.4682617,15.4446289 L21.3412109,15.4446289 C21.8766602,15.4446289 22.3094727,15.878418 22.3094727,16.4128906 C22.3094727,16.9473633 21.8766602,17.3811523 21.3412109,17.3811523 L21.3412109,17.3811523 L17.4682617,17.3811523 L17.4682617,21.2541016 C17.4682617,21.7885742 17.0354492,22.2223633 16.5,22.2223633 C15.9645508,22.2223633 15.5317383,21.7885742 15.5317383,21.2541016 L15.5317383,21.2541016 L15.5317383,17.3811523 L11.6587891,17.3811523 C11.1233398,17.3811523 10.6905273,16.9473633 10.6905273,16.4128906 C10.6905273,15.878418 11.1233398,15.4446289 11.6587891,15.4446289 L11.6587891,15.4446289 L15.5317383,15.4446289 L15.5317383,11.5716797 C15.5317383,11.037207 15.9645508,10.603418 16.5,10.603418 Z" id="Combined-Shape" fill="url(#linearGradient-1)" fill-rule="nonzero"></path>
                    </g>
                </g>
            </g>
        </g>
    </g>
</svg>