<?xml version="1.0" encoding="UTF-8"?>
<svg width="22px" height="19px" viewBox="0 0 22 19" version="1.1" xmlns="http://www.w3.org/2000/svg" xmlns:xlink="http://www.w3.org/1999/xlink">
	<g stroke="none" stroke-width="1" fill="none" fill-rule="evenodd">
		<g transform="translate(-14.000000, -39.000000)">
			<g>
				<g transform="translate(14.000000, 39.000000)" fill="#DEE3E8" fill-rule="nonzero">
					<path d="M21.0833333,8.25 L2.79629167,8.25 L9.79870833,1.58033333 C10.165375,1.23108333 10.1795833,0.650833333 9.83033333,0.284166667 C9.48154167,-0.0820416667 8.90129167,-0.0967083333 8.53416667,0.252541667 L0.537166667,7.87004167 C0.191125,8.21654167 -1.6283271e-15,8.67670833 -1.6283271e-15,9.16666667 C-1.6283271e-15,9.65616667 0.191125,10.1167917 0.553208333,10.4784167 L8.534625,18.0803333 C8.712,18.2494583 8.93933333,18.3333333 9.16666667,18.3333333 C9.40866667,18.3333333 9.65066667,18.238 9.83079167,18.0487083 C10.1800417,17.6820417 10.1658333,17.10225 9.79916667,16.753 L2.76741667,10.0833333 L21.0833333,10.0833333 C21.5893333,10.0833333 22,9.67266667 22,9.16666667 C22,8.66066667 21.5893333,8.25 21.0833333,8.25 L21.0833333,8.25 Z" id="Path">
					</path>
				</g>
			</g>
		</g>
	</g>
</svg>
