<?xml version="1.0" encoding="UTF-8"?>
<svg width="30px" height="20px" viewBox="0 0 30 20" version="1.1" xmlns="http://www.w3.org/2000/svg" xmlns:xlink="http://www.w3.org/1999/xlink">
    <title>Group 3 Copy 3</title>
    <g id="Logo-&amp;-Iconography" stroke="none" stroke-width="1" fill="none" fill-rule="evenodd">
        <g id="Iconography-Studies" transform="translate(-437.000000, -622.000000)">
            <g id="Group-2" transform="translate(437.500000, 622.000000)">
                <path d="M18.9429204,2.91492593 C18.9800269,2.98275024 19,3.06056935 19,3.14305343 L19.0005326,3.70528974 C18.4190348,3.88121255 17.8276363,4.13541259 17.25,4.46891109 C15.2667705,5.61392916 14.0119566,7.36682101 13.928603,8.8775492 C13.3169896,8.95732628 12.66947,9 12,9 C8.94082273,9 6.33998801,8.10893875 5.38766124,6.86723182 C5.16611921,6.81797761 5,6.61889732 5,6.38101781 L5,3.14305343 C5,3.06056935 5.01997313,2.98275024 5.05534682,2.91416867 C5.49790287,3.95680546 8.43830676,4.76203562 12,4.76203562 C15.5616932,4.76203562 18.5020971,3.95680546 18.9429204,2.91492593 Z" id="Combined-Shape" fill="#E4D3B4"></path>
                <ellipse id="Oval" stroke="#E4D3B4" stroke-width="1.5" cx="12" cy="3" rx="6.25" ry="2.25"></ellipse>
                <path d="M13.8727533,9.0473208 C13.9080553,9.08683023 13.9372453,9.13210297 13.9587235,9.18157226 C13.3527798,9.9844902 13,10.9547923 13,12 C13,12.4518036 13.0659171,12.8896111 13.1894853,13.305908 C12.0176529,14.31337 9.68542026,15 7,15 C3.13400675,15 0,13.576949 0,11.8215267 C0,11.7274013 0.00901053675,11.6342314 0.026661311,11.5421853 C0.00942862421,11.4921604 6.94036202e-18,11.4376902 0,11.3810178 L0,9.38101781 C-1.57189622e-17,9.25266274 0.0483650694,9.13560395 0.12786508,9.04707154 C0.750667117,10.0242393 3.59070376,10.7620356 7,10.7620356 C10.4092962,10.7620356 13.2493329,10.0242393 13.8727533,9.0473208 Z" id="Combined-Shape" fill="#E4D3B4"></path>
                <ellipse id="Oval-Copy-3" stroke="#E4D3B4" cx="6.5" cy="9" rx="6" ry="2.5"></ellipse>
                <ellipse id="Oval-Copy-5" stroke="#E4D3B4" stroke-width="1.5" cx="6.5" cy="9" rx="5.75" ry="2.25"></ellipse>
                <path d="M13,13.5470715 C13,15.9531837 14.8259778,17.9984281 17.3693653,18.7447858 C16.0860282,19.5122195 14.1569414,20 12,20 C8.13400675,20 5,18.4329966 5,16.5 C5,16.4262267 5.00456496,16.3529864 5.01356133,16.2803461 C5.00454467,16.2442968 5,16.2060124 5,16.1666667 L5,12.5 C5,12.2238576 5.22385763,12 5.5,12 L13.2611714,11.9985763 C13.0911805,12.4897434 13,13.0093975 13,13.5470715 Z" id="Combined-Shape" fill="#E4D3B4"></path>
                <circle id="Oval" stroke="#E4D3B4" stroke-width="1.5" cx="20.5" cy="11.5" r="7.75"></circle>
                <path d="M22.0612127,10.9518929 C21.9028223,10.8945618 21.7383665,10.844805 21.5680676,10.8017522 C21.389006,10.7558914 21.2038824,10.7188968 21.0122379,10.6901224 L20.9944899,10.6875285 C20.6213159,10.639067 20.2465709,10.488498 19.9987627,10.2392789 C20.1841157,10.559023 20.4793284,10.8112712 20.8363255,10.9477794 C20.1641188,10.8945618 19.6354742,10.3528566 19.6354742,9.69194735 C19.6354742,9.42801471 19.7190525,9.18398682 19.863289,8.98128127 C19.9369783,8.87657307 20.0270705,8.78376694 20.1299679,8.70415471 C20.1398534,8.69679794 20.1506392,8.68857767 20.1620958,8.68035739 C20.2697135,8.59771611 20.394179,8.53346335 20.528304,8.49322549 C20.5685203,8.48002818 20.6105337,8.46985992 20.6529954,8.46163965 C20.6943345,8.45277005 20.7341024,8.44606261 20.7749895,8.44130314 C20.8311568,8.4337322 20.8879984,8.43027139 20.9455143,8.43027139 C21.3168877,8.43027139 21.6516424,8.57846068 21.890017,8.81707978 C22.0832291,9.01048738 22.2130892,9.26316729 22.2463398,9.54483914 C22.3067755,9.53748237 22.3656365,9.52320398 22.4222522,9.50394855 C22.4337123,9.50048774 22.4451689,9.4963776 22.456403,9.49226746 C22.6565808,9.42131066 22.8327227,9.30232408 22.9695451,9.14980707 C23.0027956,9.11303002 23.0333489,9.07473673 23.0618827,9.03449887 C23.1960077,8.84239333 23.2746433,8.61069585 23.2746433,8.36190849 C23.2746433,8.2137192 23.2470098,8.0709353 23.1953369,7.9396183 C23.1683742,7.86931083 23.1342268,7.80159726 23.0937846,7.7373445 C23.0895161,7.72977356 23.0845734,7.72220261 23.0787339,7.71484584 C23.0326745,7.64908025 22.9774076,7.58634373 22.9136002,7.52685043 C22.8488961,7.46692539 22.7814982,7.410026 22.7120738,7.35529557 C22.6871376,7.33625772 22.6615236,7.31765162 22.636139,7.29926309 C22.4202327,7.14285352 22.1809613,7.01434801 21.9250647,6.91937632 C21.5543621,6.7828681 21.1486119,6.71645319 20.7242169,6.73700387 C19.1854652,6.81120731 17.9563096,8.0469238 17.9392359,9.52991142 C17.9306956,10.2814647 18.2353454,10.9572983 18.7610702,11.4659082 C18.8826159,11.5833785 19.0149439,11.6919793 19.1591804,11.7904118 C19.2196161,11.8321659 19.2820747,11.8717544 19.3465529,11.9093984 C19.7489314,12.1465012 20.2229834,12.3098358 20.7466817,12.379715 C20.7900437,12.386419 20.8334022,12.3931264 20.8767642,12.401996 C21.3564297,12.4922083 21.8396893,12.6823692 22.1973607,12.9904323 C21.8509234,12.7777727 21.4429278,12.6514327 21.0043754,12.642128 C20.9859531,12.6412645 20.9682051,12.6412645 20.9497827,12.6412645 C20.8879984,12.6412645 20.826214,12.6432124 20.765104,12.6488354 C19.8909225,12.7143868 19.152889,13.2461413 18.8183602,13.9860135 C18.8441967,14.0619473 18.8752018,14.1359332 18.9115981,14.2068934 C18.9372086,14.258163 18.9648421,14.3081374 18.9947245,14.3563813 C19.2301759,14.7399465 19.5954838,15.0404386 20.0329135,15.2013935 C20.1391791,15.2414137 20.2506169,15.2729996 20.3656452,15.2948489 C20.2272518,15.2879273 20.0924489,15.2667273 19.9625923,15.2340604 C19.6260406,15.1492535 19.3238622,14.9846237 19.077625,14.7617958 C18.9300204,14.6291802 18.8028576,14.4762314 18.7015313,14.3066245 C18.6815379,14.27374 18.6631156,14.2410731 18.645364,14.2068934 C18.5033765,13.9377695 18.4240666,13.633599 18.4240666,13.3108258 C18.4240666,13.0916763 18.4609148,12.8805329 18.5296614,12.6830186 C18.0109023,13.0163918 17.6575028,13.5706449 17.6157119,14.2068934 C17.6121178,14.2499427 17.6105467,14.2929955 17.6105467,14.3369117 C17.6105467,14.5205794 17.6370575,14.6981924 17.6858106,14.8671533 C17.4858553,14.6852126 17.3238708,14.4651996 17.2133333,14.2185745 C17.2202991,16.2672821 19.0515661,17.9101435 21.2216304,17.7180379 C23.1897198,17.5432365 24.6359044,15.9174649 24.533007,14.01695 C24.4563944,12.6070847 23.5294172,11.482998 22.0612127,10.9518929 Z" id="Fill-348" fill="#E4D3B4"></path>
                <path d="M22.1820861,10.0069178 C22.3607727,10.1777943 22.5806361,10.3130209 22.8281966,10.4010675 C22.990747,10.4593337 23.1658195,10.4971597 23.3483585,10.5097695 C23.1992915,10.3351966 23.0784024,10.1401869 22.9914698,9.92995734 C22.9565484,9.84690887 22.9276515,9.76103507 22.9047755,9.67385621 C22.7032129,9.83582276 22.4554139,9.95321939 22.1820861,10.0069178 Z" id="Fill-346" fill="#E4D3B4"></path>
            </g>
        </g>
    </g>
</svg>