<?xml version="1.0" encoding="UTF-8"?>
<svg width="31px" height="23px" viewBox="0 0 31 23" version="1.1" xmlns="http://www.w3.org/2000/svg" xmlns:xlink="http://www.w3.org/1999/xlink">
    <title>Group 4 Copy 2Outline</title>
    <g id="Logo-&amp;-Iconography" stroke="none" stroke-width="1" fill="none" fill-rule="evenodd">
        <g id="Iconography-Studies" transform="translate(-312.000000, -620.000000)">
            <g id="Group-2" transform="translate(312.000000, 620.000000)">
                <path d="M15.3258619,10.2540819 C14.5400186,10.3969968 13.7007203,10.480124 12.8285491,10.4968547 L12.988,10.4921296 L12.9908376,10.4495906 C12.9911554,10.1197795 12.8888696,9.79792775 12.7021165,9.49770473 C13.6715343,9.48636535 14.5942667,9.38540033 15.4202123,9.2163475 C15.3362209,9.56704288 15.3039987,9.91500011 15.3258619,10.2540819 Z M5.59934403,2.73812955 L6.01560195,3.71880947 C6.19771749,4.1478633 7.11923325,4.56800007 8.45998622,4.8612951 L8.45998622,4.8612951 L8.92199201,4.95420051 C9.9547439,5.14461593 11.1876166,5.26203562 12.5,5.26203562 C13.1056304,5.26203562 13.6943422,5.23702505 14.2542641,5.19137817 L14.2542641,5.19137817 L14.8041497,5.13901453 L15.3322038,5.07386541 C17.3111972,4.80086373 18.750843,4.26747469 18.9824413,3.72009539 L18.9824413,3.72009539 L19.3853212,2.76789454 L19.8815652,3.67494505 C19.9595746,3.81753323 20,3.97804693 20,4.14305343 L20,4.14305343 L20,4.46412955 L19.9900259,4.46826133 C19.4772873,4.70108642 18.9969438,4.966589 18.5541016,5.2572737 C17.1903256,5.89250941 14.9818608,6.26203562 12.5,6.26203562 C9.75574692,6.26203562 7.34582447,5.81019244 6.04007735,5.04750623 L6.04007735,5.04750623 L6,5.023 L6,7.38 L6.11126807,7.4378175 L6.182261,7.5449693 C6.30387103,7.72851903 6.47664084,7.90503025 6.69396272,8.07177735 C6.34006254,8.20910113 6.02840529,8.3854023 5.77235989,8.59238172 C5.60500042,8.43600259 5.46320198,8.27021808 5.34862843,8.09728871 L5.413,8.18812955 L5.33487183,8.12701263 C5.18552897,7.99449814 5.07868008,7.81924072 5.02981482,7.62379667 L5.00757762,7.50428829 L5,7.38101781 L5,4.14305343 C5,3.98211121 5.03843423,3.8256065 5.11097512,3.68496616 L5.11097512,3.68496616 L5.59934403,2.73812955 Z" id="Combined-Shape" fill="#8D9AA3" fill-rule="nonzero"></path>
                <ellipse id="Oval" stroke="#8D9AA3" stroke-width="1.5" cx="12.5" cy="3" rx="6.25" ry="2.25"></ellipse>
                <path d="M14.7456018,9.76299629 L14.3061055,9.22230013 L13.951264,9.83353419 C13.4464801,10.7030521 10.7032407,11.4644761 7.5,11.4644761 C4.2966379,11.4644761 1.55363257,10.7029913 1.04950653,9.83352229 L0.695683574,9.2232819 L0.25584391,9.76170701 C0.0923996062,9.96178564 0,10.2217221 0,10.4960187 L0,12.6945155 L0.00607177398,12.8159234 L0.018,12.8890629 L0.00397237057,13.0411888 C0.00132677243,13.0869403 0,13.1328 0,13.1787442 C0,15.5304656 3.38954591,17.2223001 7.5,17.2223001 C11.6104541,17.2223001 15,15.5304656 15,13.1787442 L14.9959848,13.0405735 L14.981,12.8912614 L14.993948,12.8157098 C14.9979689,12.7756357 15,12.7351865 15,12.6945155 L15,10.4960187 C15,10.2223463 14.9080142,9.96280625 14.7456018,9.76299629 Z M1.01771433,12.6363498 L1.04282512,12.5054008 L1,12.3810178 L1,11.026 C2.30247718,11.7991712 4.73920151,12.2620356 7.5,12.2620356 L7.82965549,12.2598242 C10.4536294,12.2245215 12.7490744,11.7684783 14.0001163,11.025 L14.0001163,12.3810983 L13.9568774,12.5074862 L13.982432,12.6385986 C13.9941099,12.6985136 14.0001163,12.7596547 14.0001163,12.8215267 C14.0001163,14.1929811 11.1215324,15.5 7.5,15.5 C3.87846759,15.5 1,14.1929811 1,12.8215267 C1,12.7595887 1.00590324,12.6979428 1.01771433,12.6363498 Z" id="Combined-Shape-Copy" fill="#8D9AA3" fill-rule="nonzero"></path>
                <ellipse id="Oval-Copy-3" stroke="#8D9AA3" cx="7.5" cy="10" rx="6.5" ry="2.5"></ellipse>
                <path d="M14.7456018,9.76299629 L14.3061055,9.22230013 L13.951264,9.83353419 C13.4464801,10.7030521 10.7032407,11.4644761 7.5,11.4644761 C4.2966379,11.4644761 1.55363257,10.7029913 1.04950653,9.83352229 L0.695683574,9.2232819 L0.25584391,9.76170701 C0.0923996062,9.96178564 0,10.2217221 0,10.4960187 L0,12.6945155 L0.00607177398,12.8159234 L0.018,12.8890629 L0.00397237057,13.0411888 C0.00132677243,13.0869403 0,13.1328 0,13.1787442 C0,15.5304656 3.38954591,17.2223001 7.5,17.2223001 C11.6104541,17.2223001 15,15.5304656 15,13.1787442 L14.9959848,13.0405735 L14.981,12.8912614 L14.993948,12.8157098 C14.9979689,12.7756357 15,12.7351865 15,12.6945155 L15,10.4960187 C15,10.2223463 14.9080142,9.96280625 14.7456018,9.76299629 Z M1.01771433,12.6363498 L1.04282512,12.5054008 L1,12.3810178 L1,11.026 C2.30247718,11.7991712 4.73920151,12.2620356 7.5,12.2620356 L7.82965549,12.2598242 C10.4536294,12.2245215 12.7490744,11.7684783 14.0001163,11.025 L14.0001163,12.3810983 L13.9568774,12.5074862 L13.982432,12.6385986 C13.9941099,12.6985136 14.0001163,12.7596547 14.0001163,12.8215267 C14.0001163,14.1929811 11.1215324,15.5 7.5,15.5 C3.87846759,15.5 1,14.1929811 1,12.8215267 C1,12.7595887 1.00590324,12.6979428 1.01771433,12.6363498 Z" id="Combined-Shape-Copy-3" fill="#8D9AA3" fill-rule="nonzero"></path>
                <ellipse id="Oval-Copy-4" stroke="#8D9AA3" cx="7.5" cy="10" rx="6.5" ry="2.5"></ellipse>
                <ellipse id="Oval-Copy-5" stroke="#8D9AA3" stroke-width="1.5" cx="7.5" cy="10" rx="6.25" ry="2.25"></ellipse>
                <path d="M6.13880864,16.0212076 C6.29929464,16.4586851 6.75493625,16.7834565 7.39191367,16.9689851 C6.67003729,17.4231063 6.25,17.9611763 6.25,18.5 C6.25,19.8774626 8.99507473,21.25 12.5,21.25 C15.2167192,21.25 17.4769181,20.4253756 18.3560952,19.4130117 C18.6772411,19.5566572 19.0128282,19.6895981 19.3605115,19.809315 C19.5119575,19.8614621 19.6631397,19.910219 19.813836,19.9556221 C18.7472407,21.6476597 15.8439428,22.75 12.5,22.75 C8.27293877,22.75 4.75,20.9885306 4.75,18.5 C4.75,17.5480383 5.26553491,16.7024723 6.13880864,16.0212076 Z M13.9233723,14.318047 C14.0705939,14.3323263 14.216443,14.3487998 14.3607818,14.367417 L14.3541293,14.383807 L14.3541293,14.383807 C14.1912263,14.8569116 14.2206804,15.3703134 14.4126948,15.8917209 C13.978852,15.8253095 13.5224374,15.7808725 13.0494725,15.7613167 C13.602656,15.3118523 13.9267365,14.806031 13.9237071,14.3253901 L13.9233723,14.318047 Z" id="Combined-Shape" fill="#8D9AA3" fill-rule="nonzero"></path>
                <circle id="Oval" stroke="#8D9AA3" stroke-width="1.5" cx="22" cy="12.5" r="7.75"></circle>
                <path d="M23.5612127,11.9518929 C23.4028223,11.8945618 23.2383665,11.844805 23.0680676,11.8017522 C22.889006,11.7558914 22.7038824,11.7188968 22.5122379,11.6901224 L22.4944899,11.6875285 C22.1213159,11.639067 21.7465709,11.488498 21.4987627,11.2392789 C21.6841157,11.559023 21.9793284,11.8112712 22.3363255,11.9477794 C21.6641188,11.8945618 21.1354742,11.3528566 21.1354742,10.6919474 C21.1354742,10.4280147 21.2190525,10.1839868 21.363289,9.98128127 C21.4369783,9.87657307 21.5270705,9.78376694 21.6299679,9.70415471 C21.6398534,9.69679794 21.6506392,9.68857767 21.6620958,9.68035739 C21.7697135,9.59771611 21.894179,9.53346335 22.028304,9.49322549 C22.0685203,9.48002818 22.1105337,9.46985992 22.1529954,9.46163965 C22.1943345,9.45277005 22.2341024,9.44606261 22.2749895,9.44130314 C22.3311568,9.4337322 22.3879984,9.43027139 22.4455143,9.43027139 C22.8168877,9.43027139 23.1516424,9.57846068 23.390017,9.81707978 C23.5832291,10.0104874 23.7130892,10.2631673 23.7463398,10.5448391 C23.8067755,10.5374824 23.8656365,10.523204 23.9222522,10.5039485 C23.9337123,10.5004877 23.9451689,10.4963776 23.956403,10.4922675 C24.1565808,10.4213107 24.3327227,10.3023241 24.4695451,10.1498071 C24.5027956,10.11303 24.5333489,10.0747367 24.5618827,10.0344989 C24.6960077,9.84239333 24.7746433,9.61069585 24.7746433,9.36190849 C24.7746433,9.2137192 24.7470098,9.0709353 24.6953369,8.9396183 C24.6683742,8.86931083 24.6342268,8.80159726 24.5937846,8.7373445 C24.5895161,8.72977356 24.5845734,8.72220261 24.5787339,8.71484584 C24.5326745,8.64908025 24.4774076,8.58634373 24.4136002,8.52685043 C24.3488961,8.46692539 24.2814982,8.410026 24.2120738,8.35529557 C24.1871376,8.33625772 24.1615236,8.31765162 24.136139,8.29926309 C23.9202327,8.14285352 23.6809613,8.01434801 23.4250647,7.91937632 C23.0543621,7.7828681 22.6486119,7.71645319 22.2242169,7.73700387 C20.6854652,7.81120731 19.4563096,9.0469238 19.4392359,10.5299114 C19.4306956,11.2814647 19.7353454,11.9572983 20.2610702,12.4659082 C20.3826159,12.5833785 20.5149439,12.6919793 20.6591804,12.7904118 C20.7196161,12.8321659 20.7820747,12.8717544 20.8465529,12.9093984 C21.2489314,13.1465012 21.7229834,13.3098358 22.2466817,13.379715 C22.2900437,13.386419 22.3334022,13.3931264 22.3767642,13.401996 C22.8564297,13.4922083 23.3396893,13.6823692 23.6973607,13.9904323 C23.3509234,13.7777727 22.9429278,13.6514327 22.5043754,13.642128 C22.4859531,13.6412645 22.4682051,13.6412645 22.4497827,13.6412645 C22.3879984,13.6412645 22.326214,13.6432124 22.265104,13.6488354 C21.3909225,13.7143868 20.652889,14.2461413 20.3183602,14.9860135 C20.3441967,15.0619473 20.3752018,15.1359332 20.4115981,15.2068934 C20.4372086,15.258163 20.4648421,15.3081374 20.4947245,15.3563813 C20.7301759,15.7399465 21.0954838,16.0404386 21.5329135,16.2013935 C21.6391791,16.2414137 21.7506169,16.2729996 21.8656452,16.2948489 C21.7272518,16.2879273 21.5924489,16.2667273 21.4625923,16.2340604 C21.1260406,16.1492535 20.8238622,15.9846237 20.577625,15.7617958 C20.4300204,15.6291802 20.3028576,15.4762314 20.2015313,15.3066245 C20.1815379,15.27374 20.1631156,15.2410731 20.145364,15.2068934 C20.0033765,14.9377695 19.9240666,14.633599 19.9240666,14.3108258 C19.9240666,14.0916763 19.9609148,13.8805329 20.0296614,13.6830186 C19.5109023,14.0163918 19.1575028,14.5706449 19.1157119,15.2068934 C19.1121178,15.2499427 19.1105467,15.2929955 19.1105467,15.3369117 C19.1105467,15.5205794 19.1370575,15.6981924 19.1858106,15.8671533 C18.9858553,15.6852126 18.8238708,15.4651996 18.7133333,15.2185745 C18.7202991,17.2672821 20.5515661,18.9101435 22.7216304,18.7180379 C24.6897198,18.5432365 26.1359044,16.9174649 26.033007,15.01695 C25.9563944,13.6070847 25.0294172,12.482998 23.5612127,11.9518929 Z" id="Fill-348" fill="#8D9AA3"></path>
                <path d="M23.6820861,11.0069178 C23.8607727,11.1777943 24.0806361,11.3130209 24.3281966,11.4010675 C24.490747,11.4593337 24.6658195,11.4971597 24.8483585,11.5097695 C24.6992915,11.3351966 24.5784024,11.1401869 24.4914698,10.9299573 C24.4565484,10.8469089 24.4276515,10.7610351 24.4047755,10.6738562 C24.2032129,10.8358228 23.9554139,10.9532194 23.6820861,11.0069178 Z" id="Fill-346" fill="#8D9AA3"></path>
            </g>
        </g>
    </g>
</svg>