<?xml version="1.0" encoding="UTF-8"?>
<svg width="77px" height="120px" viewBox="0 0 77 120" version="1.1" xmlns="http://www.w3.org/2000/svg" xmlns:xlink="http://www.w3.org/1999/xlink">
	<g fill="#E3D2B3">
		<path d="M59.8164939,29 C57.9147006,30.745496 55.5758424,32.0098254 53,32.5867529 C54.6862446,34.4279606 56.7607633,35.8838118 59.0924605,36.8314315 C60.6275107,37.4598809 62.2768519,37.8674307 64,38 C62.5924171,36.1219347 61.4527542,34.0216903 60.6346241,31.7581701 C60.303591,30.8633518 60.0320426,29.9390081 59.8164939,29" id="Fill-329">
		</path>
		<path d="M76.9457817,79.4578586 C76.1396771,64.0773309 66.3959334,51.8137337 50.9624485,46.0228455 C49.2982166,45.3967312 47.5671692,44.8510265 45.776653,44.3820608 C43.897033,43.8821912 41.9492572,43.4800434 39.9346162,43.1669862 L39.7489128,43.1360327 C35.8248678,42.6076898 31.8860301,40.9681452 29.282013,38.2459714 C31.2297392,41.7353362 34.3327876,44.4860329 38.0846809,45.9770601 C31.0205064,45.3967312 25.4620135,39.4833186 25.4620135,32.2743721 C25.4620135,29.3975299 26.3436703,26.7371639 27.8567979,24.5222509 C28.6319271,23.3813854 29.5803993,22.3667646 30.6626514,21.5030919 C30.7666473,21.4213924 30.8793302,21.3310617 30.998218,21.2419711 C32.1324433,20.3399537 33.4375295,19.6383405 34.8479023,19.1990882 C35.2726224,19.0580116 35.7122346,18.9466484 36.1604345,18.8550775 L36.1753265,18.8550775 C36.5926007,18.7585958 37.0111158,18.6855772 37.444523,18.6323511 C38.0326582,18.5507012 38.630771,18.5135967 39.2337982,18.5135967 C43.1355051,18.5135967 46.6570687,20.130819 49.1632453,22.733048 C51.1927286,24.8415087 52.5585246,27.6008366 52.9089833,30.6719817 C52.9163796,30.6794224 52.9163796,30.6954944 52.9089833,30.7029352 C53.5429362,30.5903318 54.1620468,30.4344233 54.7589186,30.2252886 C54.8789978,30.1881841 54.9966447,30.1436388 55.1167736,30.0978533 C57.2205184,29.3220311 59.0704537,28.0264972 60.5118018,26.3634894 C60.5179572,26.3634894 60.5118018,26.3560487 60.5118018,26.3560487 C60.8609699,25.9613416 61.1829352,25.5443124 61.4813214,25.1025798 C62.8904532,23.008951 63.7176051,20.4810304 63.7176051,17.7686783 C63.7176051,16.1502159 63.4278562,14.5923707 62.8830072,13.1607207 C62.5994633,12.3935297 62.2416082,11.6548615 61.8156471,10.9544885 C61.7710703,10.8715985 61.7190972,10.7898991 61.6596284,10.7070091 C61.1754891,9.99180417 60.5922683,9.30755273 59.921135,8.6579256 C59.2426054,8.00209784 58.5342917,7.38342422 57.8024982,6.78702325 C57.5412427,6.57788855 57.2725412,6.37619461 57.0050806,6.17450066 C54.7353892,4.46818772 52.221717,3.06749121 49.5285463,2.0305482 C45.6355264,0.539520979 41.3685184,-0.18307512 36.90712,0.0396513498 C20.7331546,0.852578161 7.81205132,14.3312499 7.6325033,30.5074419 C7.54334979,38.7087365 10.7442387,46.0809826 16.2717562,51.6281118 C17.5471577,52.9100539 18.9426385,54.0954151 20.4570071,55.1694627 C21.0910096,55.6235965 21.7473006,56.0566482 22.4270713,56.4662367 C26.6568989,59.0535841 31.639617,60.8341558 37.1448461,61.5951461 C37.6005416,61.6706449 38.0561876,61.744854 38.5106421,61.8413854 C43.5527793,62.8263423 48.6345293,64.8976985 52.3938686,68.2596281 C48.7534172,65.9420327 44.4641208,64.5623687 39.8529087,64.4584462 C39.6597593,64.4510054 39.4727653,64.4510054 39.2796159,64.4510054 C38.630771,64.4510054 37.9806851,64.4732781 37.3392861,64.5314152 C28.1490288,65.2491004 20.3889506,71.0486694 16.8760244,79.1225288 C17.1447259,79.949097 17.4728466,80.754583 17.85299,81.5304549 C18.1216915,82.0885112 18.4126814,82.6329261 18.7259597,83.1625091 C21.2024515,87.3448559 25.0447394,90.6238955 29.6398681,92.3759938 C30.7592509,92.8164863 31.9306069,93.1592568 33.1391432,93.3992955 C31.6841937,93.3237966 30.2676656,93.093679 28.9018696,92.7335963 C25.365414,91.8092567 22.1868631,90.0138531 19.5989294,87.5824142 C18.0473804,86.1359323 16.7113187,84.4667239 15.6451997,82.6180942 C15.4359669,82.2604917 15.2427679,81.9028893 15.0558235,81.5304549 C13.5625022,78.5928961 12.7279043,75.2755119 12.7279043,71.7564336 C12.7279043,69.3633394 13.1154937,67.0593854 13.8398411,64.9050896 C8.38663476,68.544212 4.67187216,74.5887802 4.22982763,81.5304549 C4.19393788,82.0006111 4.17780487,82.4695768 4.17780487,82.9459833 C4.17780487,84.9517616 4.4551934,86.8907221 4.96906707,88.7307205 C2.86527263,86.7484053 1.16515097,84.3479199 0,81.65665 C0.0755024976,104.007276 19.3227819,121.928126 42.1362512,119.833257 C62.823588,117.92525 78.0267432,100.189973 76.9457817,79.4578586" id="Fill-330">
		</path>
	</g>
</svg>
