<?xml version="1.0" encoding="UTF-8"?>
<svg width="200px" height="89px" viewBox="0 0 200 89" version="1.1" xmlns="http://www.w3.org/2000/svg" xmlns:xlink="http://www.w3.org/1999/xlink">
	<g fill="#E3D2B3">
		<path d="M61.786862,55.9770717 C61.3180504,56.9906101 60.7966521,57.9316947 60.2214862,58.7966595 C59.6463202,59.6615734 59.0288898,60.3918649 58.3679111,60.9811693 C57.7068811,61.5730195 57.0369155,61.9121215 56.3567303,61.9947076 C56.014712,62.0378846 55.9186285,61.8169082 56.0684797,61.3304546 C56.2170985,60.8452738 56.5796072,60.1899311 57.1547731,59.3669212 C57.7299391,58.5439114 58.5062591,57.5837332 59.4861981,56.4838409 C60.4661885,55.3864944 61.6370107,54.2256045 63,53 C62.6605494,53.9715834 62.2544411,54.9635333 61.786862,55.9770717 M88.4185986,32.4363321 C89.2455194,30.6214364 90.0314131,29.0004679 90.7749838,27.5686148 C91.5198505,26.1380253 92.2323643,25.009311 92.9150675,24.1824231 C93.5977207,23.3555838 94.1871535,22.962772 94.6820697,23.0027725 C95.0949318,23.1240377 95.1060984,23.7690035 94.7131764,24.9377669 C94.3202046,26.1076969 93.6897448,27.4680059 92.8217971,29.0198606 C91.9538493,30.5717152 90.9204975,32.1756726 89.7205452,33.8269696 C88.520543,35.4806481 87.2807601,36.8724521 86,38 C86.7834012,36.1050547 87.5904316,34.2512764 88.4185986,32.4363321 M124.711094,69.349552 C125.286139,69.4509905 125.798213,69.4819277 126.249791,69.4410747 C126.700181,69.4002713 126.988915,69.2976429 127.111047,69.1331401 C127.153044,69.0923367 127.161651,68.2996195 127.143151,66.7574179 C127.120941,65.2152164 127.29615,63.2117326 127.666306,60.7432483 C128.075985,59.3049146 128.681848,57.8963282 129.48142,56.5185799 C130.282229,55.1408812 131.143486,53.8349231 132.066477,52.6006562 C132.989418,51.3676783 133.943226,50.2570611 134.927901,49.2701929 C135.912526,48.2832752 136.81578,47.4410782 137.636326,46.7410736 C137.472197,46.9476194 137.183463,47.4509444 136.773833,48.2523379 C136.362917,49.0549709 136.045788,49.9911694 135.820025,51.0596941 C135.594211,52.1282187 135.574474,53.2178144 135.758291,54.328382 C135.94463,55.4389496 136.567756,56.3850143 137.636326,57.1653863 C137.922587,57.3719321 138.476609,57.3929535 139.297155,57.2272608 C140.117701,57.062758 140.980194,56.7956268 141.882211,56.4258673 C142.41526,56.2205611 142.938415,55.9843176 143.452962,55.7159469 C143.965037,55.4500552 144.38456,55.1928399 144.714005,54.9442512 C145.042263,54.6981415 145.268077,54.4520318 145.391445,54.2046826 C145.513627,53.9585729 145.472867,53.7533162 145.268077,53.5888134 C144.569663,53.0545511 144.13901,52.3236588 143.97493,51.3973265 C143.810801,50.4722832 143.830538,49.4754992 144.036615,48.4057351 C144.241454,47.3372104 144.569663,46.2476147 145.02129,45.1370472 C145.472867,44.0264796 145.944231,42.9876527 146.436568,42.0217564 C146.930142,41.0559097 147.401506,40.2124237 147.853084,39.4926867 C148.303474,38.7741395 148.631682,38.2905964 148.837759,38.0432472 C149.12402,37.6326347 149.031468,37.2109165 148.560105,36.7792825 C148.087554,36.3464587 147.482928,35.9568676 146.743803,35.6068901 C146.005915,35.2569125 145.256947,34.9588441 144.498085,34.7127344 C143.739224,34.4653853 143.237042,34.3219535 142.990255,34.2799106 C142.579389,34.2390575 142.04634,34.5074282 141.391111,35.0825435 C140.733457,35.6588488 140.006649,36.4392208 139.20584,37.426089 C138.406268,38.4130068 137.574642,39.5334901 136.713335,40.787539 C135.850842,42.0440173 134.989585,43.3388697 134.128329,44.6745255 C133.267072,46.0114208 132.455133,47.3173789 131.696271,48.5924492 C130.93741,49.8662802 130.271099,50.9978692 129.696104,51.984787 C129.942891,51.2847823 130.209415,50.576151 130.496913,49.8563644 C130.783174,49.1366274 131.091645,48.427996 131.419903,47.7267519 C132.282397,45.6305061 132.90676,43.9238513 133.296653,42.6079774 C133.686595,41.2921036 133.882778,40.2235789 133.882778,39.3999245 C133.882778,38.3313999 133.582914,37.4174623 132.989418,36.6543933 C132.394685,35.8950427 131.728375,35.2667787 130.98925,34.7745593 C130.250126,34.2799106 129.532024,33.9113409 128.834847,33.6627523 C128.136433,33.4166426 127.686093,33.2521893 127.481253,33.1705329 C126.988915,33.0456436 126.597786,33.0456436 126.311475,33.1705329 C126.023977,33.2942323 125.880871,33.6429703 125.880871,34.2192756 C125.880871,36.2339145 125.552663,38.3425055 124.89496,40.5414293 C124.238543,42.741543 123.480918,44.889698 122.619661,46.9884228 C121.889144,48.7816919 121.336358,50.6058488 120.941519,52.4547454 C120.903281,52.5066546 120.873651,52.5475076 120.834177,52.6006562 C120.177711,53.5059671 119.459609,54.5039905 118.679774,55.5935366 C117.901175,56.6830827 117.141077,57.7008881 116.404426,58.6470025 C115.665301,59.5930672 114.957043,60.4043765 114.279653,61.0821202 C113.603449,61.7610538 113.059321,62.1419685 112.649641,62.2235754 C112.402854,62.2656183 112.453458,61.6287277 112.803877,60.3116144 C113.151822,58.99698 113.694764,57.3199734 114.433888,55.2843625 C115.173013,53.2487021 116.07498,50.9978692 117.141077,48.5293849 C118.209647,46.06214 119.378138,43.718545 120.650311,41.4974099 C121.05999,40.7578413 121.173516,40.0689919 120.988413,39.4308122 C120.804547,38.7939215 120.444235,38.2287219 119.911186,37.7340732 C119.378138,37.2418538 118.741458,36.8201356 118.00357,36.4701085 C117.265682,36.1213704 116.536451,35.8529998 115.81835,35.6674755 C115.100199,35.4832403 114.474599,35.4015838 113.941551,35.4213658 C113.408503,35.4423872 113.100031,35.5561708 113.017373,35.7614771 C112.812533,36.2141325 112.515142,36.9227639 112.126486,37.8886602 C111.735307,38.8557464 111.304703,39.9861455 110.83334,41.2821878 C110.360739,42.5770402 109.869638,43.9856762 109.356327,45.5080957 C108.843016,47.0292262 108.340835,48.5924492 107.848497,50.1964757 C107.437631,50.9348048 106.77132,51.9637655 105.84833,53.2796393 C104.925389,54.5955132 103.940714,55.891605 102.893117,57.1653863 C101.847995,58.4416962 100.822609,59.5720458 99.8169603,60.5577241 C98.811361,61.5446418 98.0216325,62.0999256 97.4466369,62.2235754 C97.2010865,62.2656183 97.2405605,61.6287277 97.5700552,60.3116144 C97.8995003,58.99698 98.4313119,57.3199734 99.1704365,55.2843625 C99.908275,53.2487021 100.822609,50.9978692 101.909679,48.5293849 C102.995513,46.06214 104.156634,43.718545 105.386859,41.4974099 C105.796489,40.7578413 105.910014,40.0689919 105.724961,39.4308122 C105.541095,38.7939215 105.191913,38.2287219 104.679838,37.7340732 C104.16529,37.2418538 103.540927,36.8201356 102.801803,36.4701085 C102.063915,36.1213704 101.334684,35.8529998 100.617769,35.6674755 C99.8996678,35.4832403 99.2728316,35.4015838 98.7397834,35.4213658 C98.2067352,35.4423872 97.8995003,35.5561708 97.8167928,35.7614771 C97.529295,36.3365429 97.1184284,37.3234606 96.5853802,38.7209414 C96.0510953,40.1197111 95.4674431,41.7348433 94.8319998,43.563958 C94.1952703,45.3943121 93.5388533,47.3372104 92.8626497,49.3938427 C92.5603615,50.3090198 92.2814709,51.2044149 92.0125229,52.0911337 C91.4128437,52.7305033 90.7983245,53.3822677 90.1542246,54.0513351 C89.0659178,55.1829241 87.9998214,56.2304273 86.953462,57.1975631 C85.9083392,58.1634594 84.9532945,58.9648529 84.0920377,59.602983 C83.230781,60.2411131 82.5743145,60.5577241 82.1227372,60.5577241 C81.0554041,60.5181601 80.4199113,60.208986 80.2150716,59.6326808 C80.0090447,59.0588049 79.8856264,58.3798713 79.8461523,57.5982598 C79.804205,56.7350414 79.8350224,55.9224927 79.937467,55.1606632 C80.0398621,54.4001227 80.2348086,53.567792 80.523543,52.6637205 C80.808617,51.7584592 81.1688796,50.7294986 81.5995327,49.579367 C82.0301858,48.427996 82.5533408,47.0700793 83.1690471,45.5080957 C82.1424742,45.5897026 81.2700876,45.5897026 80.5531733,45.5080957 C79.8350224,45.4251998 79.230446,45.281768 78.7368719,45.0752223 L79.4142626,45.0752223 C80.7690935,45.1989216 82.4805265,44.7672877 84.5535083,43.7803699 C86.6252534,42.7922622 88.6982352,41.3428228 90.7699309,39.4308122 C92.841676,37.5188511 94.7604221,35.1851719 96.5236958,32.4297744 C98.2881566,29.6755668 99.5813031,26.5491704 100.401849,23.0529649 C100.811529,21.2028287 100.790555,19.6606272 100.340165,18.4275997 C99.8885379,17.1933823 99.2333576,16.227486 98.3708642,15.5274814 C97.509558,14.8287658 96.5952239,14.3773499 95.6328087,14.1708041 C94.6666341,13.9655474 93.9189024,13.9457159 93.3846175,14.1089792 C92.3592318,14.4379353 91.1895036,15.3110694 89.8778567,16.7308111 C88.5637365,18.1493628 87.2199861,19.8671729 85.8466548,21.8817623 C84.4708502,23.8964013 83.117256,26.1064307 81.7846354,28.5118507 C80.4507782,30.9185101 79.2501831,33.2732108 78.1840866,35.5759528 L78.1840866,35.1443684 C78.1421392,34.6496701 77.9163258,34.5272597 77.5066464,34.7745593 C77.0957798,35.020669 76.67502,35.4943459 76.2456035,36.1918716 C75.8137138,36.8930661 75.4546878,37.7340732 75.1683772,38.7209414 C75.0795358,39.0214887 75.022798,39.3232259 74.9808507,39.6237733 C74.1763317,39.8995312 73.3138383,40.2371636 72.3378199,40.6960164 C72.3378199,40.5315135 72.3563203,40.4078637 72.3995043,40.3249678 C72.56116,38.7629843 72.1835841,37.4990691 71.2605935,36.5319829 C70.3376524,35.5660866 69.1567943,35.103565 67.7204925,35.1443684 C66.9419433,35.1443684 66.1300044,35.3595409 65.2897214,35.7911749 C64.4482017,36.2239988 63.6079186,36.7792825 62.7663494,37.4570262 C61.9248297,38.1360094 61.1042837,38.8977893 60.3047114,39.7387964 C59.5039024,40.5822328 58.7561707,41.4367749 58.0577568,42.3000428 C58.2625965,40.9829295 58.2625965,39.6682952 58.0577568,38.3511819 C57.9750987,37.818159 57.719655,37.3135449 57.2890514,36.841157 C56.8583983,36.3687196 56.356217,35.9766496 55.7812214,35.6674755 C55.2061764,35.3595409 54.5904701,35.123347 53.9352897,34.9588441 C53.2775865,34.7943909 52.6618802,34.7127344 52.0893579,34.7127344 C51.6784419,34.7127344 51.328023,34.7844751 51.0417619,34.9279565 C50.7542641,35.0726277 50.6727932,35.5561708 50.7962114,36.3785858 C50.9603404,37.6944596 50.5494244,39.5445958 49.565986,41.9289943 C48.5801238,44.3158717 47.3498984,46.9884228 45.8716492,49.947887 C44.3946862,52.9098302 42.8461455,56.0152548 41.2259776,59.2641112 C39.6046226,62.5129675 38.2411846,65.657956 37.1319041,68.7003162 C36.0250475,71.7438663 35.3377636,74.5400672 35.0712394,77.0914475 C34.8047153,79.6391093 35.2859724,81.6957416 36.5161484,83.2589646 C36.681514,83.4642709 36.9887488,83.6398794 37.4403756,83.7833607 C37.8931896,83.9267925 38.4052641,84.0702739 38.9803092,84.2149451 C39.5540681,84.359666 40.1389075,84.4932316 40.7324529,84.6168814 C41.3284222,84.7393413 41.8515772,84.8419696 42.303204,84.924816 C43.2471683,85.0880793 43.7888236,84.985451 43.9332156,84.6168814 C44.0763214,84.2458824 44.1269254,83.7103806 44.0874513,83.0128549 C43.8406643,79.5982563 44.108425,76.3803372 44.8882603,73.3578085 C45.6656223,70.3364698 46.6823514,67.4672887 47.9335506,64.7526947 C49.1847002,62.0393402 50.5284507,59.448396 51.964703,56.9811511 C53.4010048,54.5138567 54.6521545,52.1071973 55.7194876,49.7636518 C56.7041626,48.6530347 57.7295483,47.564728 58.7968814,46.4937244 C59.8629778,45.4251998 60.8279158,44.5508757 61.6891726,43.8718926 C62.5516659,43.192959 63.2377133,42.8033679 63.7522611,42.7007396 C64.2643356,42.5980616 64.4592821,42.9987584 64.3359133,43.9040693 L64.0274418,45.692331 C62.4270605,46.8857945 60.8587333,48.1818863 59.3200364,49.579367 C57.7813889,50.9768477 56.4067715,52.4584639 55.1963326,54.0192079 C53.9858442,55.5836208 52.9900887,57.2062394 52.2114901,58.8931122 C51.4316548,60.579985 50.9800775,62.3064713 50.8578958,64.074951 C50.8578958,64.4855636 50.8986066,64.9901281 50.9800775,65.5862154 C51.0627356,66.1823522 51.277419,66.7574179 51.6278379,67.3127017 C51.9745963,67.869225 52.4570405,68.3317466 53.0727468,68.7003162 C53.6885026,69.0713152 54.507812,69.214747 55.535671,69.1331401 C57.7912327,69.0094903 59.8123739,68.1771596 61.5978579,66.634958 C63.3821052,65.0915666 64.9306459,63.2216484 66.2435294,61.0202457 C67.556413,58.8213715 68.6533763,56.4666708 69.5368434,53.9585729 C70.4178372,51.4505246 71.1063578,49.1464936 71.5986953,47.0502477 L63.6597098,51.7374378 C65.8326134,49.9281051 68.3880394,48.1596254 71.3210413,46.433139 C72.4587154,45.7628322 73.6753871,45.1469629 74.9314833,44.5570235 C74.6402756,45.4004599 74.3589611,46.3168765 74.0912003,47.3260552 C73.6605472,48.9523426 73.3224454,50.6491311 73.0744712,52.4151815 C72.8289207,54.1849006 72.6845288,55.9632961 72.6450547,57.7516074 C72.604344,59.5399186 72.7264762,61.1970937 73.0139739,62.7182738 C73.3002351,64.2394539 73.7839655,65.5355457 74.4601195,66.6040704 C75.1363231,67.6738345 76.0506571,68.3725501 77.1994116,68.7003162 C78.4703478,68.9488553 79.9066001,68.6607027 81.5069814,67.8370483 C83.1073627,67.0146333 84.7472181,65.9053052 86.4315436,64.506585 C87.5605611,63.5679075 88.6698416,62.5278412 89.7704655,61.4407244 C89.6248863,62.5327495 89.5964927,63.3960175 89.692754,64.0118867 C89.7334647,64.2184324 89.8062791,64.5473885 89.9074375,65.0000439 C90.0111188,65.4526498 90.1949353,65.9250872 90.4614594,66.4185461 C90.7292202,66.912005 91.087059,67.3967875 91.5386858,67.869225 C91.9890759,68.3416624 92.5850452,68.7003162 93.3241698,68.9488553 C94.5555824,69.3594678 95.7858078,69.3272911 97.0172205,68.8549033 C98.2474459,68.3837053 99.4468044,67.6428972 100.617769,66.634958 C101.78631,65.6270684 102.903011,64.4558658 103.970344,63.1189705 C105.037677,61.7833147 106.002565,60.4563352 106.863822,59.1404614 C106.94653,59.0588049 106.98724,59.0377834 106.98724,59.077397 C106.781164,59.9010514 106.423325,60.7123111 105.910014,61.5149441 C105.396703,62.3163375 105.057414,62.8629946 104.893285,63.1486683 L104.893285,64.0118867 C104.935232,64.2184324 105.01789,64.5473885 105.141309,65.0000439 C105.263441,65.4526498 105.458437,65.9250872 105.724961,66.4185461 C105.991485,66.912005 106.350511,67.3967875 106.802138,67.869225 C107.253765,68.3416624 107.848497,68.7003162 108.587622,68.9488553 C109.858558,69.4002713 111.151655,69.3384464 112.464538,68.7621411 C113.777422,68.1870754 115.059488,67.3448288 116.310638,66.2330218 C117.561837,65.1236937 118.731565,63.8387571 119.818685,62.3781624 C119.91737,62.2458363 120.003738,62.1147497 120.101236,61.9836631 C120.1555,63.1721687 120.271499,64.2468411 120.465208,65.1855186 C120.751519,66.5842884 121.120438,67.5093317 121.572065,67.9607476 C121.942221,68.3317466 122.413585,68.629815 122.98858,68.8549033 C123.562339,69.0811814 124.136098,69.2469237 124.711094,69.349552" id="Fill-320">
		</path>
		<path d="M163.912615,43.2514107 C163.808253,44.1349898 163.599478,45.1395292 163.286341,46.2674531 C162.971944,47.3966138 162.605971,48.535669 162.188421,49.6845692 C162.104175,50.0128689 161.999813,50.3102482 161.874024,50.5768061 C161.748285,50.843364 161.623757,51.1210532 161.498018,51.4073507 C161.037715,52.476056 160.557296,53.4904404 160.055501,54.454264 C159.553756,55.4180875 159.01924,56.2806903 158.455836,57.0396482 C157.891171,57.7997934 157.316423,58.4464486 156.730382,58.9783276 C156.14434,59.5126803 155.579675,59.8397431 155.036387,59.9631275 C154.36731,60.1285142 154.022764,59.7372855 154.001387,58.7944878 C153.981271,57.8504038 154.179962,56.618835 154.598722,55.1009192 C155.016271,53.5830035 155.590969,51.9108325 156.322915,50.0844061 C157.054862,48.2592661 157.838335,46.5858582 158.675904,45.0679425 C159.510952,43.5500268 160.337228,42.2987184 161.153421,41.3126817 C161.968353,40.3278818 162.66884,39.8972236 163.254882,40.020608 C163.629678,40.1020892 163.859779,40.4414212 163.944075,41.0350419 C164.028321,41.6310868 164.017028,42.3690683 163.912615,43.2514107 M149.465433,75.1170812 C161.968138,76.4320074 164.878359,85.5580185 164.878359,85.5580185 C165.821357,82.9270224 165.237331,81.2474358 165.237331,81.2474358 C169.239354,81.5650032 171.579055,85.1498951 171.579055,85.1498951 C169.149599,77.3449765 160.31937,73.8791351 160.31937,73.8791351 C161.954633,71.4044363 163.447203,68.7647378 164.795948,65.9600394 C166.144693,63.1541475 167.401268,60.2675957 168.568038,57.2979473 C169.732343,54.3270556 170.826609,51.3164805 171.848321,48.2636856 C172.870034,45.2109405 173.892978,42.2003654 174.914641,39.2306672 C175.078182,38.7357672 175.006861,38.2097868 174.699495,37.6528254 C174.39336,37.0971073 173.953209,36.5798294 173.381506,36.1059646 C172.808521,35.6320999 172.164313,35.2202966 171.448735,34.8692617 C170.733157,34.5181772 170.049567,34.2713239 169.39427,34.1262156 C168.740155,33.9823007 168.178309,33.9612158 167.708634,34.0642039 C167.238959,34.1671423 166.983247,34.4462695 166.941401,34.8989995 C166.860271,35.4782891 166.737344,36.1059646 166.575036,36.7869991 C166.410262,37.4667406 166.225872,38.1998908 166.021766,38.9826204 C165.940637,38.1589143 165.715632,37.3848872 165.346753,36.662926 C164.980388,35.9422578 164.32509,35.4162774 163.38574,35.0850843 C161.462827,34.5082811 159.696061,34.4884394 158.080465,35.0243158 C156.464919,35.5601922 155.003055,36.4681885 153.696107,37.7458678 C152.386744,39.0247904 151.232247,40.5914929 150.231434,42.4484121 C149.228155,44.3041378 148.369984,46.2442531 147.655638,48.2636856 C146.940109,50.2856543 146.376982,52.3162759 145.96877,54.3592798 C145.560608,56.3998471 145.315937,58.2257853 145.233575,59.8346577 C145.152396,60.6173874 145.110599,61.4224452 145.110599,62.2473448 C145.110599,63.0734876 145.264282,63.876059 145.570416,64.6600319 C145.877783,65.4440047 146.418779,66.1659659 147.195821,66.8258657 C147.97163,67.4870584 149.116269,68.0229348 150.629787,68.4347382 C151.120361,68.599738 151.671166,68.5588113 152.284667,68.3107148 C152.898167,68.0626183 153.542424,67.660711 154.217438,67.1037497 C154.892402,66.5480315 155.587081,65.857101 156.302659,65.0309582 C157.017005,64.2073018 157.721493,63.2781709 158.418588,62.2473448 L158.049758,63.1752325 C157.559185,64.1253987 157.109176,64.8870434 156.701013,65.4650897 C156.291569,66.0419426 155.93378,66.4959158 155.627646,66.8258657 C155.321512,67.1571085 155.046134,67.4349428 154.798999,67.660711 C154.554328,67.8889657 154.371121,68.12463 154.248194,68.3714833 C153.83875,69.1554561 153.440396,69.7744789 153.0519,70.2284522 C152.663354,70.6824752 152.428541,71.0111818 152.34613,71.2183516 C152.305565,71.3014482 152.274858,71.3734056 152.255192,71.4354173 C152.233061,71.497429 152.182638,71.5693864 152.101459,71.6512896 C150.26219,71.3634599 148.237199,71.1575831 146.031515,71.03351 C143.823317,70.9094866 141.370498,70.9094866 138.670543,71.03351 C135.890642,71.1575831 133.480852,71.4552591 131.435012,71.930367 C129.390355,72.4029885 127.662922,73.0133088 126.253946,73.755062 C124.842456,74.4981082 123.729805,75.3527952 122.910918,76.3240464 C122.093311,77.2916176 121.542506,78.291413 121.254806,79.3234823 C121.133111,79.6944086 121.0507,80.2004976 121.010135,80.8393124 C120.96957,81.4794201 121.0507,82.1691074 121.254806,82.9121535 C121.460144,83.65515 121.8376,84.3969529 122.389637,85.1399991 C122.941674,85.8830452 123.799845,86.5528907 124.965432,87.1507788 C126.129738,87.7486669 127.633398,88.2225317 129.472717,88.5748097 C131.312036,88.9246014 133.622262,89.0585705 136.402114,88.976717 C138.529133,88.9345471 140.501236,88.6455239 142.319657,88.1108907 C144.139309,87.5737711 145.877783,86.8617557 147.532711,85.9760379 C149.188823,85.0878834 150.783471,84.0161306 152.316655,82.758293 C153.84984,81.4992619 155.352268,80.1285401 156.82394,78.6437408 C155.842842,77.7356948 154.687113,77.0447643 153.358034,76.5708996 C152.028955,76.0958414 150.731816,75.6107877 149.465433,75.1170812 C148.68844,75.9407873 147.79828,76.7768261 146.797467,77.6215675 C145.794188,78.467552 144.692579,79.2403857 143.485244,79.9436986 C142.280324,80.6433316 141.001668,81.2114819 139.652923,81.6443702 C138.302946,82.0773082 136.892688,82.294374 135.421016,82.294374 C133.131688,82.294374 131.353833,82.1901924 130.086267,81.9842658 C128.819884,81.7770961 127.878069,81.5414318 127.264568,81.2734936 C126.6523,81.0043122 126.283421,80.7165322 126.160494,80.4076673 C126.03875,80.0975592 125.977287,79.818432 125.977287,79.5715788 C125.977287,79.406579 126.100214,79.0865748 126.344884,78.6127101 C126.590787,78.1376021 127.131784,77.6426524 127.970289,77.127861 C128.808794,76.6118761 130.014946,76.1268224 131.587463,75.6728491 C133.162445,75.2188261 135.278374,74.929803 137.936531,74.8069731 C140.38935,74.6829497 142.555702,74.6531622 144.436867,74.7151739 C146.315519,74.7759921 147.992529,74.9099612 149.465433,75.1170812" id="Fill-322">
		</path>
		<path d="M186.22853,47.7011982 C187.04395,46.2686961 187.879497,44.9845394 188.739007,43.8512228 C189.595944,42.7166589 190.434014,41.7927626 191.249433,41.0758879 C192.066113,40.3590611 192.808536,40 193.477963,40 C193.895762,40 194.063144,40.3195759 193.978797,40.9562328 C193.895762,41.5928898 193.654173,42.3887829 193.257764,43.3437684 C192.860143,44.2988018 192.356787,45.3435525 191.751528,46.4781164 C191.143697,47.6126324 190.548527,48.6969163 189.963397,49.7309201 C188.87491,49.9307929 187.817851,50.2084368 186.792271,50.5674499 C185.766742,50.9241121 184.836809,51.4027803 184,52 C184.669427,50.5674499 185.413111,49.1337483 186.22853,47.7011982 M183.929028,54.8840356 C184.818582,54.1950789 187.763103,54.1037743 187.763103,54.1037743 C188.372005,54.0234009 189.092004,53.9430763 189.924224,53.8615317 C190.755221,53.7799871 191.598449,53.6996136 192.450188,53.618069 C193.301927,53.5377444 194.143932,53.4768422 194.976152,53.4354599 C195.807149,53.3965176 196.528322,53.3563553 197.137273,53.313753 C197.460632,53.313753 197.68395,53.1835061 197.807179,52.9193523 C197.92801,52.6564185 197.958487,52.3533224 197.897484,52.0087952 C197.836481,51.6655369 197.693685,51.3112985 197.47159,50.946129 C197.248321,50.5821306 196.973735,50.2790345 196.649154,50.0355719 C196.284311,49.7933293 195.715621,49.6107689 194.945626,49.4902332 C195.757105,48.2351978 196.445355,46.9899223 197.015219,45.7556268 C197.582638,44.5212825 197.989013,43.2565359 198.23185,41.9601182 C198.313594,41.4354706 198.394165,40.7976073 198.474687,40.0477483 C198.556431,39.3003293 198.474687,38.5516903 198.23185,37.8006112 C197.989013,37.0531922 197.491158,36.3544755 196.741905,35.706901 C195.988984,35.0592777 194.862658,34.5735725 193.36293,34.2497852 C191.049326,33.76408 188.878421,33.9868515 186.85036,34.9168797 C184.821028,35.849299 182.98576,37.1846591 181.342013,38.9241798 C179.699537,40.6661405 178.277933,42.6795261 177.080821,44.9656055 C175.884981,47.2528561 174.940491,49.5 174.251018,51.7056992 C173.561545,53.9126739 173.155218,55.9260596 173.034387,57.7471249 C172.912381,59.5681902 173.114958,60.9047702 173.643338,61.754425 C174.534115,63.211492 175.438345,64.3752228 176.351087,65.2456175 C177.265101,66.1159635 178.135137,66.7939891 178.96858,67.2796943 C179.799577,67.7653996 180.56106,68.0891868 181.250484,68.2511048 C181.250484,68.2511048 193.157957,72.7428902 200,59.7251794 C200,59.7251794 188.861348,66.9850894 183.918021,59.1043961 C182.079084,55.9260596 183.929028,54.8840356 183.929028,54.8840356" id="Fill-323">
		</path>
		<path d="M181.914738,65.1481926 C181.914738,65.1481926 189.287541,71.9366658 196,70.4438919 C196,70.4438919 181.516549,78.5746298 174.623537,65.8336128 C172.915764,62.6738674 172.729013,60.0714248 173.269434,57 L181.914738,65.1481926 Z" id="Fill-324">
		</path>
		<path d="M53,34.100343 C53,34.100343 46.4463372,32.8328122 41,39.3077409 C41,39.3077409 48.2019908,36.4683207 52.4205971,40 L53,34.100343 Z" id="Fill-325">
		</path>
		<path d="M59.7077522,42 C59.7077522,42 61.7782355,34.9983463 54.8971621,29 C54.8971621,29 56.1715515,34.8636673 52,39.2944553 L59.7077522,42 Z" id="Fill-326">
		</path>
		<path d="M53.8836824,8.76240248 C53.7401337,7.72125206 53.3999122,6.64933769 52.8666391,5.54675782 C52.3308859,4.44417795 51.4561016,3.47543356 50.2435265,2.63801431 C49.0285209,1.80187483 47.40395,1.12782444 45.3673337,0.617044475 C43.3307174,0.106264506 40.7695083,-0.0877206397 37.6837065,0.0362703732 C34.5570325,0.157849493 31.6976151,0.73980493 29.1055038,1.77977401 C26.513343,2.82097365 24.1773279,4.13845815 22.101129,5.73094773 C20.0224501,7.3234373 18.1912364,9.09027232 16.6087282,11.0289917 C15.0237894,12.967711 13.6973773,14.8757648 12.6271108,16.7543345 C11.5568444,18.6329042 10.7452038,20.3776384 10.1908497,21.9897677 C9.63406511,23.6043581 9.31487502,24.8997417 9.23318022,25.8783306 C8.98695495,28.737901 9.25421155,31.2389853 10.0361901,33.3815343 C10.8156885,35.5253138 11.8451323,37.4542379 13.1220415,39.1695371 C14.3964705,40.8835566 15.8069584,42.4256918 17.3486441,43.7923001 C18.8915698,45.1613204 20.3429298,46.4775251 21.6990041,47.7434246 C23.0575585,49.0080936 24.1773279,50.2948633 25.063223,51.6012728 C25.947878,52.9076823 26.3686038,54.3368522 26.3277316,55.8888318 C26.286909,57.5623414 25.9590385,59.1339607 25.3416401,60.6036898 C24.724192,62.0733697 23.9830857,63.350295 23.1194124,64.4320046 C22.2557887,65.5137634 21.3501023,66.3707732 20.4035437,67.0043136 C19.4570347,67.6354421 18.6342336,67.9534183 17.9351403,67.9534183 C16.6186486,67.9534183 15.5285909,67.7889173 14.6649672,67.4635086 C13.8000538,67.1369185 13.0997701,66.6973632 12.5652569,66.1460733 C12.0307437,65.5947834 11.6496501,64.9821132 11.4244561,64.3092441 C11.1980221,63.6351445 11.0841851,62.9524802 11.0841851,62.256329 C11.1250077,61.5233103 11.3316504,60.7473205 11.7016332,59.9308207 C12.0715663,59.114321 12.5454656,58.4095558 13.1220415,57.8165254 C13.6973773,57.2259068 14.3246962,56.8182968 15.0039486,56.5923664 C15.6820105,56.3676665 16.350152,56.4806317 17.0096131,56.9288009 C18.0798795,57.6642315 18.8000041,57.798067 19.1687468,57.3278462 C19.53992,56.8588068 19.7651139,56.1540417 19.8479992,55.2147322 C19.8888218,54.7248225 19.7861453,54.0114927 19.53992,53.0709527 C19.53992,53.0709527 18.3125138,49.9412502 13.9831851,50.0468321 C10.7328032,50.1253909 8.06519746,52.6854435 7.93156916,53.6099863 C6.74622564,49.8638728 9.85062827,47.2535149 9.85062827,47.2535149 C7.87462585,47.415604 6.12634707,48.1928244 4.60445269,49.5802538 C3.08131826,50.9689137 1.92072623,52.6633427 1.11771638,54.6634423 C0.315946588,56.6648216 -0.055226597,58.7877309 0.00662733341,61.03217 C0.068530866,63.277889 0.695800155,65.3295735 1.88982406,67.1872729 C3.08131826,69.0449723 4.90266106,70.5355717 7.35127314,71.6590219 C9.79864518,72.7812414 13.0181249,73.1974653 17.0096131,72.9138464 C18.0798795,72.8315959 19.2714233,72.6682762 20.5891551,72.4239366 C21.9044068,72.1783665 23.2419298,71.801422 24.6004842,71.2906421 C25.9590385,70.7798621 27.2953215,70.1168375 28.6118132,69.3003377 C29.928305,68.483838 31.1210392,67.4929927 32.1913056,66.3302632 C33.260332,65.1662539 34.1450367,63.7874384 34.8440803,62.1961794 C35.5444137,60.6036898 35.9762007,58.7877309 36.1407808,56.7458416 C36.3053609,54.0925127 35.9960416,51.8566382 35.2153031,50.0394488 C34.4333246,48.2234899 33.4149917,46.6199745 32.1604035,45.2313145 C30.9057657,43.8438359 29.5682427,42.5374264 28.1490744,41.3133166 C26.7298566,40.0879271 25.452997,38.7299819 24.3220671,37.2393825 C23.1899467,35.7487831 22.3584652,34.0052795 21.822712,32.0039493 C21.2881988,30.0038005 21.2881988,27.533431 21.822712,24.5940219 C21.9044068,24.2256421 22.1617429,23.5221076 22.5948196,22.4809079 C23.0266067,21.4384777 23.6230234,20.2548779 24.3839706,18.9275982 C25.1448682,17.601549 26.060475,16.2042751 27.1307415,14.7333647 C28.1997678,13.2636356 29.3925517,11.8860014 30.7102835,10.5992316 C32.0267752,9.31251108 33.4768952,8.21111254 35.0606435,7.29272258 C36.6443422,6.37428339 38.3208962,5.81319822 40.091496,5.60813805 C41.6121503,5.44604897 42.6922876,5.66828772 43.3307174,6.2810071 C43.9679567,6.89490782 44.2970672,7.77278782 44.3193386,8.91592688 C44.3378898,10.0590167 44.0916646,11.4059362 43.5781827,12.9579158 C43.0622703,14.5098954 42.4052397,16.1318199 41.6022299,17.8262489 C40.8004601,19.5206287 39.9058846,21.2248529 38.9173129,22.9401029 C37.9299318,24.6541716 36.9635819,26.2466612 36.018313,27.7175716 C35.0705143,29.1873008 34.1969702,30.4629955 33.3939603,31.5447051 C33.2541814,31.7338173 33.1279438,31.9007794 32.9980357,32.0702518 C40.8190113,37.5795087 45.8164815,31.7559181 46.1233206,31.3851264 C46.3274833,31.123559 46.5279257,30.851015 46.725888,30.5649349 C47.5264178,29.4009256 48.2576533,28.1559456 48.9159239,26.8286658 C49.574145,25.5026167 50.1705617,24.1446222 50.7063149,22.7559622 C51.2395881,21.3685328 51.7134378,20.0719186 52.1254832,18.866218 C52.5362389,17.6629292 52.8554786,16.6119344 53.0819126,15.7131349 C53.3071066,14.8156152 53.4617662,14.1820255 53.5446514,13.8149255 C53.6684089,13.3250158 53.7921168,12.6214812 53.9146342,11.7018607 C54.038342,10.7834215 54.0272311,9.80360212 53.8836824,8.76240248" id="Fill-327">
		</path>
		<path d="M32.26941,34 C32.26941,34 30.8411284,35.0157547 31.0146152,37.5194612 C31.0418166,37.9028031 31.4872657,38.130871 31.8226632,37.9188642 C32.60216,37.428234 34.0226549,36.676277 36,36.1991876 C36,36.1991876 33.5176639,35.2462936 32.26941,34" id="Fill-328">
		</path>
	</g>
</svg>
