<?xml version="1.0" encoding="UTF-8"?>
<svg width="22px" height="22px" viewBox="0 0 22 22" version="1.1" xmlns="http://www.w3.org/2000/svg" xmlns:xlink="http://www.w3.org/1999/xlink">
	<g stroke="none" stroke-width="1" fill="none" fill-rule="evenodd">
		<g transform="translate(-30.000000, -104.000000)">
			<g transform="translate(30.000000, 104.000000)" fill="#F1F4F7" fill-rule="nonzero">
				<path d="M11,0 C4.934875,0 0,4.934875 0,11 C0,17.065125 4.934875,22 11,22 C17.065125,22 22,17.065125 22,11 C22,4.934875 17.065125,0 11,0 Z M11,20.625 C5.6925,20.625 1.375,16.3075 1.375,11 C1.375,5.6925 5.6925,1.375 11,1.375 C16.3075,1.375 20.625,5.6925 20.625,11 C20.625,16.3075 16.3075,20.625 11,20.625 Z" id="Shape-Copy-2">
				</path>
				<path d="M15.6641823,8.47940276 C15.9595548,8.77477526 15.9595548,9.2535741 15.6641823,9.54879892 L10.5914551,14.6216739 C10.2960826,14.9168987 9.8174314,14.9168987 9.5220589,14.6216739 L7.10724107,12.2067083 C6.81186857,11.9114835 6.81186857,11.4326847 7.10724107,11.1374599 C7.40246585,10.8420874 7.88126469,10.8420874 8.17648951,11.1374599 L10.0566831,13.0176535 L14.5947862,8.47940276 C14.8901587,8.18417798 15.3689575,8.18417798 15.6641823,8.47940276 L15.6641823,8.47940276 Z" id="Shape">
				</path>
			</g>
			<g id="check-mark" transform="translate(35.000000, 111.000000)">
			</g>
		</g>
	</g>
</svg>
