<?xml version="1.0" encoding="UTF-8"?>
<svg width="11px" height="9px" viewBox="0 0 11 9" version="1.1" xmlns="http://www.w3.org/2000/svg" xmlns:xlink="http://www.w3.org/1999/xlink">
    <title>checked</title>
    <g id="Leaderboards" stroke="none" stroke-width="1" fill="none" fill-rule="evenodd">
        <g id="104_Passion-Leaderboards" transform="translate(-29.000000, -805.000000)" fill="#FFFFFF" fill-rule="nonzero" stroke="#FFFFFF" stroke-width="0.3">
            <g id="Group-6" transform="translate(0.000000, 757.000000)">
                <g id="Group-5" transform="translate(30.000000, 43.000000)">
                    <g id="checked" transform="translate(0.000000, 6.000000)">
                        <path d="M0.103888889,3.80925926 C0.0346296296,3.74 0,3.63611111 0,3.56685185 C0,3.49759259 0.0346296296,3.3937037 0.103888889,3.32444444 L0.588703704,2.83962963 C0.727222222,2.70111111 0.935,2.70111111 1.07351852,2.83962963 L1.10814815,2.87425926 L3.01277778,4.91740741 C3.08203704,4.98666667 3.18592593,4.98666667 3.25518519,4.91740741 L7.89555556,0.103888889 L7.93018519,0.103888889 L7.93018519,0.103888889 C8.0687037,-0.0346296296 8.27648148,-0.0346296296 8.415,0.103888889 L8.89981481,0.588703704 C9.03833333,0.727222222 9.03833333,0.935 8.89981481,1.07351852 L8.89981481,1.07351852 L3.35907407,6.82203704 C3.28981481,6.8912963 3.22055556,6.92592593 3.11666667,6.92592593 C3.01277778,6.92592593 2.94351852,6.8912963 2.87425926,6.82203704 L0.173148148,3.91314815 L0.103888889,3.80925926 Z" id="Path"></path>
                    </g>
                </g>
            </g>
        </g>
    </g>
</svg>