<?xml version="1.0" encoding="UTF-8"?>
<svg width="14px" height="14px" viewBox="0 0 14 14" version="1.1" xmlns="http://www.w3.org/2000/svg" xmlns:xlink="http://www.w3.org/1999/xlink">
    <title>choose</title>
    <g id="Edit-Profile" stroke="none" stroke-width="1" fill="none" fill-rule="evenodd">
        <g transform="translate(-789.000000, -291.000000)" fill="#8D9AA3" fill-rule="nonzero" id="choose">
            <g transform="translate(796.000000, 298.000000) rotate(-360.000000) translate(-796.000000, -298.000000) translate(789.000000, 291.000000)">
                <path d="M12.359375,0 L1.640625,0 C0.735984375,0 0,0.735984375 0,1.640625 L0,12.359375 C0,13.2640156 0.735984375,14 1.640625,14 L12.359375,14 C13.2640156,14 14,13.2640156 14,12.359375 L14,1.640625 C14,0.735984375 13.2640156,0 12.359375,0 Z M1.640625,1.09375 L12.359375,1.09375 C12.6609219,1.09375 12.90625,1.33907813 12.90625,1.640625 L12.90625,9.67189453 L11.0448789,7.81052344 C10.4051719,7.17084375 9.36435938,7.17084375 8.72465234,7.81052344 L8.12109375,8.41410938 L6.42375781,6.71677344 C5.78410547,6.07709375 4.74326563,6.07709375 4.10355859,6.71677344 L1.09375,9.72658203 L1.09375,1.640625 C1.09375,1.33907813 1.33907813,1.09375 1.640625,1.09375 Z M12.359375,12.90625 L1.640625,12.90625 C1.33907813,12.90625 1.09375,12.6609219 1.09375,12.359375 L1.09375,11.273418 L4.87694922,7.49019141 C5.09023047,7.27696484 5.43711328,7.27696484 5.65033984,7.49019141 L8.12109375,9.96089063 L9.49807031,8.58391406 C9.71126953,8.3706875 10.0582344,8.3706875 10.2714336,8.58391406 L12.90625,11.2187305 L12.90625,12.359375 C12.90625,12.6609219 12.6609219,12.90625 12.359375,12.90625 Z M8.859375,5.46875 C9.76401563,5.46875 10.5,4.73276563 10.5,3.828125 C10.5,2.92348438 9.76401563,2.1875 8.859375,2.1875 C7.95473438,2.1875 7.21875,2.92348438 7.21875,3.828125 C7.21875,4.73276563 7.95473438,5.46875 8.859375,5.46875 Z M8.859375,3.28125 C9.16092187,3.28125 9.40625,3.52657813 9.40625,3.828125 C9.40625,4.12967188 9.16092187,4.375 8.859375,4.375 C8.55782813,4.375 8.3125,4.12967188 8.3125,3.828125 C8.3125,3.52657813 8.55782813,3.28125 8.859375,3.28125 Z" id="Shape"></path>
            </g>
        </g>
    </g>
</svg>