<?xml version="1.0" encoding="UTF-8"?>
<svg width="16px" height="16px" viewBox="0 0 16 16" version="1.1" xmlns="http://www.w3.org/2000/svg" xmlns:xlink="http://www.w3.org/1999/xlink">
    <title>Competition</title>
    <g id="Marketplace" stroke="none" stroke-width="1" fill="none" fill-rule="evenodd">
        <g id="Collapsed-Version" transform="translate(-345.000000, -462.000000)" fill="#E4D3B4" fill-rule="nonzero">
            <g id="Competition" transform="translate(345.000000, 462.000000)">
                <path d="M15.2,0.8 L12.8,0.8 L12.8,0 L3.2,0 L3.2,0.8 L0.8,0.8 C0.32,0.8 0,1.12 0,1.6 L0,3.52 C0,5.36 1.36,6.88 3.2,7.12 L3.2,7.2 C3.2,9.52 4.8,11.44 6.96,11.92 L6.4,13.6 L4.56,13.6 C4.24,13.6 3.92,13.84 3.84,14.16 L3.2,16 L12.8,16 L12.16,14.16 C12.08,13.84 11.76,13.6 11.44,13.6 L9.6,13.6 L9.04,11.92 C11.2,11.44 12.8,9.52 12.8,7.2 L12.8,7.12 C14.64,6.88 16,5.36 16,3.52 L16,1.6 C16,1.12 15.68,0.8 15.2,0.8 Z M4,5 C2.9,4.76923077 2,4 2,3.07692308 L2,2 L4,2 L4,5 Z M10.1666667,8 L8.5,7.08333333 L6.83333333,8 L7.25,6.33333333 L6,4.66666667 L7.75,4.66666667 L8.5,3 L9.25,4.66666667 L11,4.66666667 L9.75,6.33333333 L10.1666667,8 Z M15,3.07692308 C15,4 14.1,4.84615385 13,5 L13,2 L15,2 L15,3.07692308 Z" id="Shape"></path>
            </g>
        </g>
    </g>
</svg>