<?xml version="1.0" encoding="UTF-8"?>
<svg width="22px" height="15px" viewBox="0 0 22 15" version="1.1" xmlns="http://www.w3.org/2000/svg" xmlns:xlink="http://www.w3.org/1999/xlink">
	<g stroke="none" stroke-width="1" fill="none" fill-rule="evenodd">
		<g transform="translate(-263.000000, -216.000000)" fill="#F1F4F7" fill-rule="nonzero">
			<g transform="translate(263.000000, 216.000000)">
				<path d="M3.12971484,5.51430859 L13.75,5.51430859 C14.2562578,5.51430859 14.6666523,5.10391406 14.6666523,4.59765625 C14.6666523,4.09139844 14.2562578,3.68100391 13.75,3.68100391 L3.12971484,3.68100391 L5.23153125,1.5791875 C5.58950391,1.22121484 5.58950391,0.640792969 5.23153125,0.282820313 C4.87355859,-0.0751523437 4.29313672,-0.0751523437 3.93516406,0.282820313 L0.26846875,3.94947266 C0.247113281,3.97082813 0.226917969,3.99330078 0.207753906,4.01667578 C0.199074219,4.02724609 0.191511719,4.03841797 0.183390625,4.04928906 C0.17359375,4.06235156 0.163496094,4.07511328 0.154386719,4.08873437 C0.145664062,4.10175391 0.138101562,4.11528906 0.130109375,4.12865234 C0.122761719,4.14094141 0.115027344,4.15297266 0.108238281,4.16564844 C0.100933594,4.17926953 0.0947460937,4.19332031 0.0882148437,4.20724219 C0.081984375,4.22043359 0.0754101562,4.23341016 0.06978125,4.24694531 C0.0641953125,4.26048047 0.059640625,4.27431641 0.0547421875,4.28806641 C0.0495429687,4.30254687 0.044,4.3168125 0.03953125,4.33159375 C0.0353632812,4.34534375 0.0323125,4.35930859 0.0288320312,4.37323047 C0.0250078125,4.3883125 0.020796875,4.40322266 0.0177460937,4.41860547 C0.0145664062,4.43471875 0.0126757812,4.45096094 0.0103554687,4.46716016 C0.00846484375,4.48052344 0.00588671875,4.49371484 0.0045546875,4.50725 C-0.001375,4.56740625 -0.001375,4.62803516 0.0045546875,4.68819141 C0.00588671875,4.70172656 0.008421875,4.714875 0.0103554687,4.72828125 C0.0126757812,4.74448047 0.0145664062,4.76076562 0.0177890625,4.77683594 C0.0208398437,4.79221875 0.0250507812,4.80708594 0.028875,4.82216797 C0.0323554687,4.83608984 0.03540625,4.85005469 0.0395742187,4.86380469 C0.0440429687,4.87858594 0.0495859375,4.89289453 0.0547851562,4.90733203 C0.0597265625,4.92108203 0.0642382812,4.93491797 0.0698242187,4.94845312 C0.0754101562,4.96198828 0.0820273437,4.97492187 0.0882578125,4.98811328 C0.0948320312,5.00203516 0.101019531,5.01608594 0.108324219,5.02975 C0.115113281,5.04238281 0.122804687,5.05437109 0.130152344,5.06666016 C0.138144531,5.08006641 0.145707031,5.09360156 0.154429687,5.10666406 C0.163496094,5.12024219 0.17359375,5.13296094 0.183347656,5.14602344 C0.191511719,5.1569375 0.199074219,5.16810938 0.207796875,5.17872266 C0.226832031,5.20192578 0.246898437,5.22422656 0.268082031,5.24541016 C0.268253906,5.24558203 0.268339844,5.24575391 0.268511719,5.24588281 L3.93516406,8.91253516 C4.29313672,9.27050781 4.87355859,9.27050781 5.23153125,8.91253516 C5.58950391,8.5545625 5.58950391,7.97414063 5.23153125,7.61616797 L3.12971484,5.51430859 Z" id="Path">
				</path>
				<path d="M21.7922031,10.6786797 C21.8009688,10.6680234 21.8085312,10.6568086 21.8167383,10.6458516 C21.8264492,10.632875 21.8365469,10.6201562 21.8455703,10.6066211 C21.8543359,10.5935586 21.8618984,10.5799805 21.8698906,10.5665742 C21.8771953,10.5543281 21.8848867,10.5423398 21.8916328,10.52975 C21.8989375,10.5160859 21.905168,10.5019922 21.9117422,10.4880273 C21.9179727,10.4748789 21.9245039,10.4619453 21.9301328,10.4484531 C21.9357187,10.434918 21.9402734,10.421082 21.9451719,10.407332 C21.9503711,10.3928516 21.9559141,10.3785859 21.9603828,10.3638047 C21.9645508,10.3500547 21.9676016,10.3360469 21.971082,10.322168 C21.9749063,10.3070859 21.9791172,10.2921758 21.982168,10.2768359 C21.9853477,10.2607227 21.9872383,10.2444805 21.9896016,10.2282812 C21.9914922,10.214918 21.9940703,10.2017695 21.9954023,10.1881914 C22.001332,10.1280352 22.001332,10.0674063 21.9954023,10.00725 C21.9940703,9.99371484 21.9915352,9.98056641 21.9896016,9.96716016 C21.9872813,9.95096094 21.9853906,9.93467578 21.982168,9.91860547 C21.9791172,9.90322266 21.9749063,9.88835547 21.971082,9.87327344 C21.9676016,9.85935156 21.9645508,9.84538672 21.9603828,9.83163672 C21.9559141,9.81685547 21.9503711,9.80254687 21.9451719,9.78810938 C21.9402305,9.77435937 21.9357187,9.76052344 21.9301328,9.74698828 C21.9245469,9.73349609 21.9179727,9.7205625 21.9117422,9.70741406 C21.905168,9.69344922 21.8989805,9.67935547 21.8916328,9.66569141 C21.8848867,9.65310156 21.8771953,9.64111328 21.8698906,9.62886719 C21.8618984,9.61546094 21.854293,9.60188281 21.8455703,9.58882031 C21.8365039,9.57528516 21.8264492,9.56256641 21.8167383,9.54958984 C21.8085313,9.53863281 21.8009258,9.52741797 21.7922031,9.51676172 C21.7733398,9.49377344 21.7534023,9.47164453 21.7323906,9.45058984 C21.7320898,9.45024609 21.7317891,9.44990234 21.7314883,9.44960156 L18.0648359,5.78294922 C17.7068633,5.42497656 17.1264414,5.42497656 16.7684687,5.78294922 C16.4104961,6.14092187 16.4104961,6.72134375 16.7684687,7.07931641 L18.8702852,9.18113281 L8.25,9.18113281 C7.74374219,9.18113281 7.33334766,9.59152734 7.33334766,10.0977852 C7.33334766,10.604043 7.74374219,11.0144375 8.25,11.0144375 L18.8702852,11.0144375 L16.7684687,13.1162539 C16.4104961,13.4742266 16.4104961,14.0546484 16.7684687,14.4126211 C17.1264414,14.7705937 17.7068633,14.7705937 18.0648359,14.4126211 L21.7314883,10.7459687 C21.731832,10.745625 21.7320898,10.7452812 21.7323906,10.7449805 C21.7534023,10.7237969 21.7733398,10.701668 21.7922031,10.6786797 Z" id="Path">
				</path>
			</g>
		</g>
	</g>
</svg>
