<?xml version="1.0" encoding="UTF-8"?>
<svg width="18px" height="18px" viewBox="0 0 18 18" version="1.1" xmlns="http://www.w3.org/2000/svg" xmlns:xlink="http://www.w3.org/1999/xlink">
	<g stroke="none" stroke-width="1" fill="none" fill-rule="evenodd">
		<g transform="translate(1.000000, 1.000000)" fill="#8D9AA3" fill-rule="nonzero" stroke="#8D9AA3" stroke-width="0.6">
			<path d="M10.7141024,3.67878064 L1.60711693,3.67878064 C0.719530107,3.67878064 -1.08357767e-13,4.39831075 -1.08357767e-13,5.28589758 L-1.08357767e-13,14.3928831 C-1.08357767e-13,15.2804699 0.719530107,16 1.60711693,16 L10.7141024,16 C11.6016893,16 12.3212194,15.2804699 12.3212194,14.3928831 L12.3212194,5.28589758 C12.3212194,4.39831075 11.6016893,3.67878064 10.7141024,3.67878064 Z M11.2498185,14.3929145 C11.2498185,14.6887872 11.0099752,14.9286306 10.7141024,14.9286306 L1.60711693,14.9286306 C1.31124419,14.9286306 1.07140083,14.6887872 1.07140083,14.3929145 L1.07140083,5.28589758 C1.07140083,4.99002484 1.31124419,4.75018147 1.60711693,4.75018147 L10.7141024,4.75018147 C11.0099752,4.75018147 11.2498185,4.99002484 11.2498185,5.28589758 L11.2498185,14.3929145 Z" id="Shape">
			</path>
			<path d="M14.3929145,-3.55271368e-15 L4.75021286,-3.55271368e-15 C3.86262603,-3.55271368e-15 3.14309592,0.719530107 3.14309592,1.60711693 C3.14309592,1.90298967 3.38293929,2.14283304 3.67881203,2.14283304 C3.97468477,2.14283304 4.21449675,1.90298967 4.21449675,1.60711693 C4.21449675,1.31124419 4.45434012,1.07140083 4.75021286,1.07140083 L14.3929145,1.07140083 C14.6887872,1.07140083 14.9286306,1.31124419 14.9286306,1.60711693 L14.9286306,11.2498185 C14.9286306,11.5456913 14.6887872,11.7855346 14.3929145,11.7855346 C14.0970417,11.7855346 13.8571983,12.025378 13.8571983,12.3212507 C13.8571983,12.6171235 14.0970417,12.8569669 14.3929145,12.8569669 C15.2805013,12.8569669 16.0000314,12.1374367 16.0000314,11.2498499 L16.0000314,1.60711693 C16.0000314,0.719530107 15.2805013,-3.55271368e-15 14.3929145,-3.55271368e-15 Z" id="Path">
			</path>
		</g>
	</g>
</svg>
