<?xml version="1.0" encoding="UTF-8"?>
<svg width="18px" height="22px" viewBox="0 0 18 22" version="1.1" xmlns="http://www.w3.org/2000/svg" xmlns:xlink="http://www.w3.org/1999/xlink">
    <title>icn_copy/default only</title>
    <g id="Invite-Code" stroke="none" stroke-width="1" fill="none" fill-rule="evenodd">
        <g id="102-Copy-Button-Feature" transform="translate(-161.000000, -193.000000)" fill="#FFFFFF" fill-rule="nonzero">
            <g id="Group" transform="translate(161.000000, 193.000000)">
                <path d="M16.2735043,3.88888889 C17.1656566,3.88888889 17.8888889,4.61212122 17.8888889,5.5042735 L17.8888889,19.5042735 C17.8888889,20.3964258 17.1656566,21.1196581 16.2735043,21.1196581 L5.5042735,21.1196581 C4.61212122,21.1196581 3.88888889,20.3964258 3.88888889,19.5042735 L3.88888889,5.5042735 C3.88888889,4.61212122 4.61212122,3.88888889 5.5042735,3.88888889 L16.2735043,3.88888889 Z M16.2735043,5.5042735 L5.5042735,5.5042735 L5.5042735,19.5042735 L16.2735043,19.5042735 L16.2735043,5.5042735 Z" id="Rectangle"></path>
                <path d="M12.3846154,0 C13.2767677,0 14,0.723232327 14,1.61538462 L14,4.307 L12.384,4.307 L12.3846154,1.61538462 L1.61538462,1.61538462 L1.61538462,15.6153846 L4.307,15.615 L4.307,17.23 L1.61538462,17.2307692 C0.723232327,17.2307692 0,16.5075369 0,15.6153846 L0,1.61538462 C0,0.723232327 0.723232327,0 1.61538462,0 L12.3846154,0 Z" id="Combined-Shape"></path>
            </g>
        </g>
    </g>
</svg>