<?xml version="1.0" encoding="UTF-8"?>
<svg width="13px" height="14px" viewBox="0 0 13 14" version="1.1" xmlns="http://www.w3.org/2000/svg" xmlns:xlink="http://www.w3.org/1999/xlink">
    <title>create</title>
    <g id="Edit-Profile" stroke="none" stroke-width="1" fill="none" fill-rule="evenodd">
        <g transform="translate(-789.000000, -244.000000)" fill="#8D9AA3" fill-rule="nonzero" id="create">
            <g transform="translate(789.000000, 244.000000)">
                <path d="M4.36429695,3.89042726 L5.87784659,2.42460284 L5.87784659,10.1787456 C5.87784659,10.5709469 6.2061403,10.8888889 6.61111111,10.8888889 C7.01608193,10.8888889 7.34437564,10.5709469 7.34437564,10.1787456 L7.34437564,2.42460284 L8.85792527,3.89042726 C9.04299669,4.07064049 9.31340634,4.14132096 9.56697038,4.07575956 C9.82053441,4.01019816 10.0185845,3.81839294 10.0862805,3.57282428 C10.1539765,3.32725562 10.0809948,3.06537252 9.89491407,2.88613677 L7.12962079,0.208009078 C6.99210593,0.0748234714 6.8055915,0 6.61111111,0 C6.41663072,0 6.23011629,0.0748234714 6.09260143,0.208009078 L3.32730815,2.88613677 C3.14122742,3.06537252 3.06824569,3.32725562 3.13594169,3.57282428 C3.20363768,3.81839294 3.40168781,4.01019816 3.65525184,4.07575956 C3.90881588,4.14132096 4.17922553,4.07064049 4.36429695,3.89042726 L4.36429695,3.89042726 Z" id="Path"></path>
                <path d="M12.3275862,6.22222222 C11.9562223,6.22222222 11.6551724,6.54868126 11.6551724,6.95138889 L11.6551724,12.5416667 L1.34482759,12.5416667 L1.34482759,6.95138889 C1.34482759,6.54868126 1.04377768,6.22222222 0.672413793,6.22222222 C0.30104991,6.22222222 0,6.54868126 0,6.95138889 L0,12.7847222 C0,13.4559016 0.501749849,14 1.12068966,14 L11.8793103,14 C12.4982502,14 13,13.4559016 13,12.7847222 L13,6.95138889 C13,6.54868126 12.6989501,6.22222222 12.3275862,6.22222222 L12.3275862,6.22222222 Z" id="Path"></path>
            </g>
        </g>
    </g>
</svg>