<?xml version="1.0" encoding="UTF-8"?>
<svg width="25px" height="24px" viewBox="0 0 25 24" version="1.1" xmlns="http://www.w3.org/2000/svg" xmlns:xlink="http://www.w3.org/1999/xlink">
    <title>CreatedSwanlings/Inactive</title>
    <g id="Personal-Profile" stroke="none" stroke-width="1" fill="none" fill-rule="evenodd">
        <g id="CreatedSwanlings/Inactive" fill="#4D4E4A" fill-rule="nonzero">
            <g id="image">
                <path d="M13.6478041,0 C14.6467508,0 15.4594595,0.812708615 15.4594595,1.81165541 L15.4594595,1.81165541 L15.4591623,5.01598248 C15.0484341,5.04032644 14.6451181,5.09221518 14.2510357,5.16982727 L14.2516892,1.81165541 C14.2516892,1.47867314 13.9807863,1.20777027 13.6478041,1.20777027 L13.6478041,1.20777027 L1.81165541,1.20777027 C1.47867314,1.20777027 1.20777027,1.47867314 1.20777027,1.81165541 L1.20777027,1.81165541 L1.20777027,10.74055 L4.53134269,7.41697762 C5.23773733,6.71061318 6.38708171,6.71061318 7.09341596,7.41697762 L7.09341596,7.41697762 L8.5801327,8.90483546 C8.34524036,9.24624601 8.13330134,9.60467498 7.94654277,9.97789526 L6.23937141,8.27102217 C6.0039166,8.03556736 5.62087226,8.03556736 5.38535705,8.27102217 L5.38535705,8.27102217 L1.20777027,12.4486391 L1.20777027,13.6478041 C1.20777027,13.9807863 1.47867314,14.2516892 1.81165541,14.2516892 L1.81165541,14.2516892 L7.003,14.251 L7.00383711,14.2653623 C7.01557727,14.6708166 7.05413374,15.0695487 7.11779481,15.4598467 L1.81165541,15.4594595 C0.812708615,15.4594595 0,14.6467508 0,13.6478041 L0,13.6478041 L0,1.81165541 C0,0.812708615 0.812708615,0 1.81165541,0 L1.81165541,0 Z M9.78293919,2.41554054 C10.781886,2.41554054 11.5945946,3.22824916 11.5945946,4.22719595 C11.5945946,5.22614274 10.781886,6.03885135 9.78293919,6.03885135 C8.7839924,6.03885135 7.97128378,5.22614274 7.97128378,4.22719595 C7.97128378,3.22824916 8.7839924,2.41554054 9.78293919,2.41554054 Z M9.78293919,3.62331081 C9.44995693,3.62331081 9.17905405,3.89421368 9.17905405,4.22719595 C9.17905405,4.56017821 9.44995693,4.83108108 9.78293919,4.83108108 C10.1159215,4.83108108 10.3868243,4.56017821 10.3868243,4.22719595 C10.3868243,3.89421368 10.1159215,3.62331081 9.78293919,3.62331081 Z" id="Combined-Shape"></path>
            </g>
            <g id="Group-13" transform="translate(7.000000, 6.000000)">
                <path d="M10,1 C14.4114687,1 18,4.58915625 18,9 C18,13.4108437 14.4114688,17 10,17 C5.58853125,17 2,13.4114688 2,9 C2,4.58853125 5.58853125,1 10,1 Z M10,2.23934375 C6.27265625,2.23934375 3.23934375,5.27203125 3.23934375,9 C3.23934375,12.7279688 6.27265625,15.7606563 10,15.7606563 C13.7279688,15.7606563 16.7606563,12.7279687 16.7606563,9 C16.7606563,5.27203125 13.7273437,2.23934375 10,2.23934375 Z M10,5.2261875 C10.3426875,5.2261875 10.6196875,5.5038125 10.6196875,5.845875 L10.6196875,5.845875 L10.6196875,8.3245625 L13.098375,8.3245625 C13.4410625,8.3245625 13.7180625,8.6021875 13.7180625,8.94425 C13.7180625,9.2863125 13.4410625,9.5639375 13.098375,9.5639375 L13.098375,9.5639375 L10.6196875,9.5639375 L10.6196875,12.042625 C10.6196875,12.3846875 10.3426875,12.6623125 10,12.6623125 C9.6573125,12.6623125 9.3803125,12.3846875 9.3803125,12.042625 L9.3803125,12.042625 L9.3803125,9.5639375 L6.901625,9.5639375 C6.5589375,9.5639375 6.2819375,9.2863125 6.2819375,8.94425 C6.2819375,8.6021875 6.5589375,8.3245625 6.901625,8.3245625 L6.901625,8.3245625 L9.3803125,8.3245625 L9.3803125,5.845875 C9.3803125,5.5038125 9.6573125,5.2261875 10,5.2261875 Z" id="Combined-Shape"></path>
            </g>
        </g>
    </g>
</svg>