<?xml version="1.0" encoding="UTF-8"?>
<svg width="22px" height="16px" viewBox="0 0 22 16" version="1.1" xmlns="http://www.w3.org/2000/svg" xmlns:xlink="http://www.w3.org/1999/xlink">
	<g stroke="none" stroke-width="1" fill="none" fill-rule="evenodd">
		<g transform="translate(-20.000000, -161.000000)" fill="#F1F4F7" fill-rule="nonzero">
			<g transform="translate(20.000000, 101.000000)">
				<g transform="translate(0.000000, 60.000000)">
					<path d="M21.6984023,3.21350391 C21.4385273,2.99165625 21.0717891,2.94490625 20.7644336,3.09452344 L16.0617617,5.38389844 L11.6492148,0.2963125 C11.4860195,0.108109375 11.2491328,0 10.9999905,0 C10.7508672,0 10.5140234,0.108109375 10.3507852,0.2963125 L5.93823828,5.38385547 L1.23556641,3.09448047 C0.928210938,2.94490625 0.561515625,2.99161328 0.301554688,3.21346094 C0.04159375,3.43530859 -0.06221875,3.79014453 0.0371679688,4.11713672 L3.30279297,14.8593242 C3.41283594,15.2213359 3.74666016,15.46875 4.125,15.46875 L17.875,15.46875 C18.2532969,15.46875 18.5871641,15.2213359 18.6971641,14.8593672 L21.9627891,4.11717969 C22.0622188,3.7901875 21.9584063,3.43535156 21.6984023,3.21350391 Z M17.2379883,13.75 L4.76192578,13.75 L2.25465625,5.50223437 L5.77903906,7.21801953 C6.12897656,7.38834766 6.54946875,7.30232422 6.80440234,7.00841797 L11,2.17099609 L15.1956406,7.00841797 C15.4505313,7.30236719 15.8711523,7.38830469 16.2209609,7.21801953 L19.7453438,5.50223437 L17.2379883,13.75 Z" id="Shape">
					</path>
				</g>
			</g>
		</g>
	</g>
</svg>
