<?xml version="1.0" encoding="UTF-8"?>
<svg width="25px" height="25px" viewBox="0 0 25 25" version="1.1" xmlns="http://www.w3.org/2000/svg" xmlns:xlink="http://www.w3.org/1999/xlink">
    <title>icon/email</title>
    <defs>
        <linearGradient x1="50%" y1="0%" x2="50%" y2="100%" id="linearGradient-1">
            <stop stop-color="#131415" offset="0%"></stop>
            <stop stop-color="#131415" offset="100%"></stop>
        </linearGradient>
    </defs>
    <g id="Email-Notifications" stroke="none" stroke-width="1" fill="none" fill-rule="evenodd">
        <g id="102_Email-Subscription-via-Edit-Profile" transform="translate(-400.000000, -1082.000000)">
            <g id="Group" transform="translate(400.000000, 1082.000000)">
                <g id="icon" fill="#E4D3B4">
                    <rect id="Rectangle-Copy-3" x="0" y="0" width="25" height="25" rx="5"></rect>
                </g>
                <path d="M5.12211621,7.76371072 L5.17657691,7.81395879 L12.4136661,13.4585679 L12.4760631,13.4999062 C12.6490911,13.5962323 12.8705389,13.5813039 13.0284047,13.4556524 L13.0284047,13.4556524 L19.827126,8.04428729 L19.8830698,7.99192988 C19.9049389,7.96784287 19.9237941,7.94199541 19.93959,7.91487138 C19.9661641,7.99486091 19.9845227,8.07874766 19.9935508,8.16509511 L20,8.28906968 L20,16.0234303 C20,16.6924531 19.4412287,17.2440138 18.7289854,17.3065883 L18.5937402,17.3125 L6.40625978,17.3125 C5.6764157,17.3125 5.07471237,16.8002937 5.00644915,16.1474049 L5,16.0234303 L5,8.28906968 C5,8.10206851 5.04365569,7.92424443 5.12211621,7.76371072 Z M18.5937402,7 C18.9004485,7 19.1845271,7.09045567 19.4158972,7.2437947 C19.3415242,7.25892795 19.2705326,7.29087997 19.2086871,7.3401052 L19.2086871,7.3401052 L12.7155479,12.5076154 L5.81106258,7.12121822 C5.9531079,7.0601487 6.1080437,7.02022961 6.27101462,7.00591171 L6.40625978,7 L18.5937402,7 Z" id="Combined-Shape" fill="url(#linearGradient-1)"></path>
            </g>
        </g>
    </g>
</svg>