<?xml version="1.0" encoding="UTF-8"?>
<svg width="12px" height="12px" viewBox="0 0 12 12" version="1.1" xmlns="http://www.w3.org/2000/svg" xmlns:xlink="http://www.w3.org/1999/xlink">
	<g stroke="none" stroke-width="1" fill="none" fill-rule="evenodd">
		<path d="M6,0 C2.68352344,0 0,2.68375781 0,6 C0,9.31647656 2.68375781,12 6,12 C9.31647656,12 12,9.31624219 12,6 C12,2.68352344 9.31624219,0 6,0 Z M6,11.0625 C3.20172656,11.0625 0.9375,8.79808594 0.9375,6 C0.9375,3.20172656 3.20191406,0.9375 6,0.9375 C8.79827344,0.9375 11.0625,3.20191406 11.0625,6 C11.0625,8.79827344 8.79808594,11.0625 6,11.0625 Z" id="Shape" fill="#6D747B" fill-rule="nonzero">
		</path>
		<path d="M6,3.02055469 C5.74110938,3.02055469 5.53125,3.23041406 5.53125,3.48930469 L5.53125,6.50789063 C5.53125,6.76678125 5.74110938,6.97664063 6,6.97664063 C6.25889062,6.97664063 6.46875,6.76678125 6.46875,6.50789063 L6.46875,3.48930469 C6.46875,3.23041406 6.25889062,3.02055469 6,3.02055469 Z" id="Path" fill="#6D747B" fill-rule="nonzero">
		</path>
		<circle id="Oval" fill="#6D747B" fill-rule="nonzero" cx="6" cy="8.1834375" r="1">
		</circle>
	</g>
</svg>
