<?xml version="1.0" encoding="UTF-8"?>
<svg width="33px" height="33px" viewBox="0 0 33 33" version="1.1" xmlns="http://www.w3.org/2000/svg" xmlns:xlink="http://www.w3.org/1999/xlink">
	<defs>
		<path d="M16.5,2 C23.4035594,2 29,7.59644063 29,14.5 C29,21.4035594 23.4035594,27 16.5,27 C9.59644063,27 4,21.4035594 4,14.5 C4,7.59644063 9.59644063,2 16.5,2 Z M11.5408876,13.7376903 C11.1266741,13.7376903 10.7908876,14.0734768 10.7908876,14.4876903 L10.7908876,14.4876903 L10.7908876,20.2376903 L16.2353265,20.2376903 L16.337097,20.2308437 C16.7031726,20.1811813 16.9853265,19.8673861 16.9853265,19.4876903 L16.9853265,19.4876903 L16.9784799,19.3859198 C16.9288174,19.0198442 16.6150222,18.7376903 16.2353265,18.7376903 L16.2353265,18.7376903 L12.291,18.737 L12.2908876,14.4876903 L12.284041,14.3859198 C12.2343786,14.0198442 11.9205834,13.7376903 11.5408876,13.7376903 Z M22.9853265,8.73769032 L17.5408876,8.73769032 L17.4391171,8.74453693 C17.0730415,8.79419936 16.7908876,9.10799455 16.7908876,9.48769032 L16.7908876,9.48769032 L16.7977343,9.58946088 C16.8473967,9.95553644 17.1611919,10.2376903 17.5408876,10.2376903 L17.5408876,10.2376903 L21.4852141,10.2383806 L21.4853265,14.4876903 L21.4921731,14.5894609 C21.5418355,14.9555364 21.8556307,15.2376903 22.2353265,15.2376903 C22.64954,15.2376903 22.9853265,14.9019039 22.9853265,14.4876903 L22.9853265,14.4876903 L22.9853265,8.73769032 Z" id="path-1">
		</path>
		<filter x="-28.0%" y="-20.0%" width="156.0%" height="156.0%" filterUnits="objectBoundingBox" id="filter-2">
			<feOffset dx="0" dy="2" in="SourceAlpha" result="shadowOffsetOuter1">
			</feOffset>
			<feGaussianBlur stdDeviation="2" in="shadowOffsetOuter1" result="shadowBlurOuter1">
			</feGaussianBlur>
			<feColorMatrix values="0 0 0 0 0   0 0 0 0 0   0 0 0 0 0  0 0 0 0.3 0" type="matrix" in="shadowBlurOuter1">
			</feColorMatrix>
		</filter>
	</defs>
	<g stroke="none" stroke-width="1" fill="none" fill-rule="evenodd">
		<g>
			<use fill="black" fill-opacity="1" filter="url(#filter-2)" xlink:href="#path-1">
			</use>
			<use fill="#FFFFFF" fill-rule="evenodd" xlink:href="#path-1">
			</use>
		</g>
	</g>
</svg>
