<?xml version="1.0" encoding="UTF-8"?>
<svg width="20px" height="20px" viewBox="0 0 20 20" version="1.1" xmlns="http://www.w3.org/2000/svg" xmlns:xlink="http://www.w3.org/1999/xlink">
    <title>help</title>
    <defs>
        <linearGradient x1="50%" y1="0%" x2="50%" y2="100%" id="linearGradient-1">
            <stop stop-color="#E4D3B4" offset="0%"></stop>
            <stop stop-color="#AA9979" offset="100%"></stop>
        </linearGradient>
        <linearGradient x1="50%" y1="0%" x2="50%" y2="100%" id="linearGradient-2">
            <stop stop-color="#E4D3B4" offset="0%"></stop>
            <stop stop-color="#AA9979" offset="100%"></stop>
        </linearGradient>
    </defs>
    <g id="Get-Verified" stroke="none" stroke-width="1" fill="none" fill-rule="evenodd">
        <g id="Profile-Menu" transform="translate(-46.000000, -712.000000)">
            <g id="Group-12" transform="translate(21.000000, 692.000000)">
                <g id="help" transform="translate(25.000000, 20.000000)">
                    <path d="M10.3770646,13.0769231 C9.74361859,13.0769231 9.23076923,13.6013986 9.23076923,14.2307692 C9.23076923,14.8451364 9.72851697,15.3846154 10.3770646,15.3846154 C11.0256122,15.3846154 11.5384615,14.8451794 11.5384615,14.2307692 C11.5384615,13.6013986 11.0105971,13.0769231 10.3770646,13.0769231 Z" id="Path" fill="url(#linearGradient-1)"></path>
                    <path d="M9.87990626,5.38461538 C7.85364194,5.38461538 6.92307692,6.46210777 6.92307692,7.18943927 C6.92307692,7.71475787 7.41835057,7.95718882 7.82362927,7.95718882 C8.63410055,7.95718882 8.30391812,6.92007584 9.83486572,6.92007584 C10.5853547,6.92007584 11.1857373,7.21641039 11.1857373,7.83597334 C11.1857373,8.56334349 10.3452103,8.98085488 9.84989359,9.35798688 C9.41464528,9.69470083 8.84427536,10.2469519 8.84427536,11.4052804 C8.84427536,12.1056408 9.05436406,12.3076923 9.66977451,12.3076923 C10.4052356,12.3076923 10.555299,12.0113964 10.555299,11.7554799 C10.555299,11.0550808 10.5703699,10.6510164 11.3958691,10.0718715 C11.8011047,9.78902247 13.0769231,8.87312497 13.0769231,7.60702795 C13.0769231,6.34093093 11.8011047,5.38461538 9.87990626,5.38461538 Z" id="Path" fill="url(#linearGradient-2)"></path>
                    <path d="M10,0 C4.47328125,0 0,4.47253906 0,10 L0,19.21875 C0,19.6502344 0.349765625,20 0.78125,20 L10,20 C15.5266797,20 20,15.5274609 20,10 C20,4.47328125 15.5274609,0 10,0 Z M10,18.4375 L1.5625,18.4375 L1.5625,10 C1.5625,5.33683594 5.33621094,1.5625 10,1.5625 C14.6631641,1.5625 18.4375,5.33621094 18.4375,10 C18.4375,14.6631641 14.6637891,18.4375 10,18.4375 Z" id="Shape" fill="url(#linearGradient-1)"></path>
                </g>
            </g>
        </g>
    </g>
</svg>