<?xml version="1.0" encoding="UTF-8"?>
<svg width="22px" height="23px" viewBox="0 0 22 23" version="1.1" xmlns="http://www.w3.org/2000/svg" xmlns:xlink="http://www.w3.org/1999/xlink">
	<defs>
		<linearGradient x1="50%" y1="0%" x2="50%" y2="100%" id="linearGradient-1">
			<stop stop-color="#E4D3B4" offset="0%">
			</stop>
			<stop stop-color="#AA9979" offset="100%">
			</stop>
		</linearGradient>
	</defs>
	<g stroke="none" stroke-width="1" fill="none" fill-rule="evenodd">
		<g fill-rule="nonzero">
			<path d="M8.25938726,0.295064849 C9.49367077,0.0933943242 10.6776522,0.635508114 11.3539554,1.59245431 C11.0297076,2.32924813 10.8503019,3.14373 10.8503019,4.00010989 C10.8503019,4.1010884 10.8527963,4.20148419 10.8577268,4.30123899 C10.6536315,4.26645107 10.4471441,4.24359849 10.2398366,4.23105168 L10.2398366,4.23105168 L10.1097463,4.22468428 C9.84845027,4.21181003 9.58664768,4.21682959 9.32604406,4.23974296 C8.46611883,4.31712787 7.63101253,4.56926787 6.87185035,4.98059305 L6.87185035,4.98059305 L6.83141499,4.99644185 C4.49225289,6.28888596 3.21008029,8.9054253 3.62205615,11.5459935 L3.62205615,11.5459935 L4.25108156,15.548536 C4.44419524,16.7989645 3.59114866,17.9706138 2.3418356,18.170885 C1.93650601,18.2195004 1.62106376,18.5461902 1.58664768,18.953007 C1.58360296,19.1888799 1.6856209,19.4139236 1.8651167,19.5669738 C2.04098725,19.7201169 2.27588414,19.7869514 2.50604032,19.7493976 L2.50604032,19.7493976 L5.54403692,19.2734688 L10.1867129,18.5429367 L19.7409368,17.0406006 C19.9716508,17.0046271 20.1747571,16.8688201 20.2962026,16.6693854 C20.4202508,16.4672087 20.4473007,16.2201347 20.3700087,15.9960671 C20.2118461,15.6203436 19.8118614,15.4071052 19.4117838,15.4852337 C18.1600539,15.6814614 16.9861272,14.8260445 16.7894347,13.5743611 L16.7894347,13.5743611 L16.2215487,9.96746321 C16.4281597,9.98897394 16.6378879,10 16.850192,10 C17.1817949,10 17.5071122,9.97310434 17.8240816,9.92137554 L18.3560027,13.3298898 C18.4169346,13.7162566 18.7795049,13.9801089 19.1658717,13.91927 C20.3338958,13.7203002 21.4764037,14.3874835 21.8770856,15.5025233 C21.9189617,15.6279194 21.950334,15.7565689 21.9708305,15.887124 C22.1747734,17.1854707 21.287566,18.4032721 19.9892657,18.6071685 L19.9892657,18.6071685 L11.0219587,20.018316 C10.8408362,20.9182118 10.2758101,21.6941523 9.47495772,22.1427524 C7.9587713,22.9920808 6.04115941,22.4514554 5.19183103,20.935269 L5.19183103,20.935269 L2.75032565,21.3191725 C2.62776469,21.3380888 2.50394884,21.3476167 2.37990061,21.3477096 L2.37990061,21.3477096 L2.35517462,21.3475702 C1.04102555,21.3339988 -0.0133147336,20.2576282 0.00012711238,18.9434792 C0.0396230484,17.759188 0.922322219,16.7734949 2.09513345,16.6042706 C2.4797341,16.54055 2.74214562,16.1800247 2.68446714,15.7944015 L2.68446714,15.7944015 L2.05465162,11.791859 C1.5608755,8.67178331 2.96988498,5.55691306 5.6391762,3.86764473 C5.39317121,2.16173749 6.55840662,0.572999823 8.25938726,0.295064849 Z M9.21979668,20.302293 L6.99878018,20.6505019 C7.26881399,20.8507266 7.59620094,20.9586472 7.93237213,20.9582773 C8.44195057,20.9590655 8.92090039,20.7150125 9.21979668,20.302293 L9.21979668,20.302293 Z M8.78509336,1.92112388 C8.70143401,1.92144923 8.61791408,1.9280955 8.53523075,1.94096974 C7.92168232,2.03722448 7.4207022,2.48271056 7.25333701,3.08082848 L7.25333701,3.08082848 L7.32551645,3.06098262 C7.56585119,2.97927532 7.81097311,2.91025635 8.06083572,2.85155537 C8.12590411,2.83570657 8.19092602,2.81665082 8.25678452,2.80317237 C8.56181583,2.73773216 8.87037943,2.69004633 9.18089508,2.66039373 C9.47574783,2.63459877 9.77190196,2.6260934 10.0677307,2.63501706 L10.0677307,2.63501706 L10.1057957,2.63501706 C9.8121514,2.19171543 9.31684153,1.92395901 8.78509336,1.92112388 Z" id="Combined-Shape" fill="url(#linearGradient-1)">
			</path>
			<path d="M20.8503019,4.00007326 C20.8503019,6.20921759 19.0595195,8 16.8502287,8 C14.6410843,8 12.8503019,6.20921759 12.8503019,4.00007326 C12.8503019,1.79092888 14.6410843,0 16.8502287,0 C19.0595195,0 20.8503019,1.79092888 20.8503019,4.00007326 Z" id="Path-Copy-3" fill="#E4D3B4">
			</path>
		</g>
	</g>
</svg>
