<?xml version="1.0" encoding="UTF-8"?>
<svg width="24px" height="22px" viewBox="0 0 24 22" version="1.1" xmlns="http://www.w3.org/2000/svg" xmlns:xlink="http://www.w3.org/1999/xlink">
	<g stroke="none" stroke-width="1" fill="none" fill-rule="evenodd">
		<g transform="translate(-301.000000, -363.000000)">
			<polygon fill="#DEE3E8" points="308.981127 378.569243 305.02775 377.458242 303.716399 376.072547 304.42076 373.559879 307.043288 370.983709 306.45777 369.537969 306.45777 367.369116 308.465661 365.831081 310.532864 366.408067 311.908896 368.40814 310.908446 370.977987 312.706158 372.200162 313.835104 376.072547">
			</polygon>
			<g transform="translate(300.999987, 363.000340)">
				<path d="M13.7520961,2.45681191 C12.2450565,0.883768067 10.159879,-0.00398141121 7.98140718,1.34243672e-05 C3.57896877,-0.00551794565 0.00555749646,3.55887454 6.29109798e-06,7.96134635 C-0.00272642838,10.1382148 0.884922841,12.2214883 2.45679758,13.7274591 C2.46137378,13.7320019 2.46307733,13.7388495 2.46762013,13.7428578 C2.51378297,13.7873171 2.56395416,13.8249622 2.61071825,13.867718 C2.73898547,13.9817221 2.86725269,14.0997347 3.00236752,14.2097639 C3.07475165,14.2667827 3.15000844,14.3237681 3.22412952,14.3762107 C3.3518289,14.471409 3.47952827,14.5666073 3.61290614,14.6544236 C3.70356167,14.7114424 3.79705645,14.7684278 3.88994998,14.8254466 C4.01307315,14.8995676 4.13566188,14.9742232 4.2627934,15.0420645 C4.37055123,15.0990833 4.48054706,15.1480854 4.59000844,15.1999601 C4.70972451,15.2569789 4.82773704,15.3139643 4.95029236,15.3652712 C5.07284768,15.4165781 5.19600426,15.4564946 5.32026313,15.5009539 C5.44452201,15.5454132 5.55171198,15.5864654 5.67086021,15.6229413 C5.80540718,15.6634257 5.94336125,15.6947576 6.08017963,15.7283944 C6.1941838,15.7563192 6.30478088,15.7882524 6.42222555,15.8110666 C6.57955332,15.8424319 6.73918589,15.8623735 6.89881846,15.884052 C6.99745729,15.8977472 7.09379132,15.9171209 7.19353244,15.9268077 C7.45464309,15.9524612 7.71799173,15.9667242 7.98364518,15.9667242 C8.24929862,15.9667242 8.51268067,15.9524612 8.77375791,15.9268077 C8.87353244,15.9171209 8.96986647,15.8977472 9.0684719,15.884052 C9.22810447,15.8623735 9.38770363,15.8424319 9.5450648,15.8110666 C9.65906898,15.7882524 9.77310656,15.7540478 9.88711073,15.7283944 C10.0239291,15.6947576 10.1618832,15.6633923 10.2964301,15.6229413 C10.4155784,15.5864654 10.5307182,15.5420061 10.6470272,15.5009539 C10.7633362,15.4599017 10.8955784,15.4154424 11.016998,15.3652712 C11.1384176,15.3151 11.2575658,15.2563777 11.3772819,15.1999601 C11.4867433,15.1480854 11.5967725,15.0990499 11.704497,15.0420645 C11.8316285,14.9742232 11.9541838,14.8995342 12.0773404,14.8254466 C12.1702673,14.7684278 12.2637621,14.716553 12.3543842,14.6544236 C12.4877955,14.5666407 12.6154949,14.4714424 12.7431608,14.3762107 C12.8172819,14.3191919 12.8925053,14.267885 12.9649228,14.2097639 C13.1000377,14.1014382 13.2283049,13.9862983 13.3565721,13.867718 C13.4033028,13.8249622 13.453474,13.7873505 13.4996702,13.7428578 C13.504213,13.7388829 13.50595,13.7320353 13.5104928,13.7274591 C16.6895825,10.6818474 16.7977078,5.63580147 13.7520961,2.45681191 Z M12.4707934,13.1305823 C12.3670439,13.2218056 12.2598539,13.3084528 12.1515617,13.3922608 C12.0877287,13.4412963 12.0238623,13.4897305 11.9582924,13.5364946 C11.8551107,13.6111835 11.7502256,13.6818641 11.6436034,13.7497054 C11.5660752,13.7993088 11.4868435,13.8471752 11.4070105,13.8939393 C11.3066681,13.950958 11.2046222,14.0079434 11.1014406,14.0649622 C11.0102172,14.1116929 10.9172903,14.1556178 10.8238289,14.1989413 C10.7303675,14.2422649 10.6271525,14.2884278 10.5262423,14.3289121 C10.425332,14.3693965 10.3181755,14.407576 10.212689,14.4429163 C10.116355,14.4759852 10.020021,14.5101898 9.92251783,14.5392503 C9.80851366,14.5734549 9.68936543,14.6013798 9.5713529,14.6299059 C9.47899382,14.6515509 9.38780384,14.6760687 9.29430906,14.6943401 C9.15919424,14.7205614 9.02124017,14.7387994 8.88271825,14.7576052 C8.80405436,14.7678599 8.72595833,14.782123 8.6466932,14.7901063 C8.42777044,14.8111835 8.20600844,14.823743 7.98197503,14.823743 C7.75794163,14.823743 7.53617963,14.8112169 7.31725687,14.7901063 C7.23802514,14.782123 7.1599291,14.7678599 7.08123182,14.7576052 C6.9427099,14.7387994 6.80475583,14.7205614 6.669641,14.6943401 C6.57614622,14.6761021 6.48492284,14.6515844 6.39259716,14.6299059 C6.27458464,14.6014132 6.15713996,14.5728871 6.04143224,14.5392503 C5.94396251,14.5101898 5.84759507,14.4759852 5.75126105,14.4429163 C5.64580802,14.4064403 5.54032159,14.3693631 5.43770781,14.3289121 C5.33509403,14.2884278 5.23819215,14.2439685 5.14012117,14.1989413 C5.04205019,14.1539142 4.95369946,14.1117263 4.86250948,14.0649622 C4.75932785,14.0113839 4.65728192,13.954933 4.55693954,13.8939393 C4.47713996,13.8472086 4.39787482,13.7993088 4.32034664,13.7497054 C4.21375791,13.6818641 4.10883933,13.6111835 4.00565771,13.5364946 C3.94008777,13.4897639 3.87625478,13.4412963 3.81238839,13.3922608 C3.70406272,13.3084528 3.59690614,13.2212378 3.49315666,13.1305823 C3.46807107,13.1117764 3.44525687,13.0878265 3.42077253,13.066148 C3.44625896,11.1268745 4.69208777,9.41450711 6.52941553,8.79341316 C7.44809612,9.2304236 8.51471825,9.2304236 9.43339883,8.79341316 C11.2706932,9.41450711 12.516522,11.1268411 12.5420418,13.066148 C12.5180919,13.0878265 12.4952777,13.109505 12.4707934,13.1305823 Z M5.99349904,4.57081608 C6.61075165,3.47306243 8.0010147,3.08355095 9.09876835,3.70080356 C10.196522,4.31805617 10.5860335,5.70831922 9.96878088,6.80607287 C9.76398756,7.17029834 9.46302723,7.47125867 9.09876835,7.67608539 C9.0959291,7.67608539 9.0924886,7.67608539 9.0890815,7.67949249 C8.93789988,7.76363446 8.7781337,7.83130878 8.6124886,7.88131295 C8.58286021,7.8898641 8.55546981,7.9012545 8.52413787,7.90866995 C8.46711908,7.92350084 8.40726105,7.93375554 8.34853871,7.94401024 C8.23797503,7.96335053 8.12610864,7.97457391 8.01390823,7.97764698 L7.94890614,7.97764698 C7.83670572,7.97457391 7.72483933,7.96335053 7.61427566,7.94401024 C7.55725687,7.93375554 7.49683098,7.92350084 7.4387099,7.90866995 C7.40848025,7.9012545 7.38169111,7.8898641 7.35035917,7.88131295 C7.18471407,7.83130878 7.02494789,7.76366786 6.87376626,7.67949249 L6.86351157,7.67608539 C5.76575791,7.05883279 5.37624643,5.66856974 5.99349904,4.57081608 Z M13.5533487,11.9357263 L13.5533487,11.9357263 C13.1875199,10.2294048 12.0639124,8.78282443 10.5011567,8.00620648 C11.7786514,6.61460732 11.6861253,4.45086619 10.2945262,3.17337141 C8.90292702,1.89587663 6.73918589,1.98840272 5.46169111,3.38000189 C4.26072242,4.68826076 4.26072242,6.69798101 5.46169111,8.00620648 C3.89893537,8.78285784 2.77532785,10.2294048 2.40949904,11.9357263 C0.223478165,8.85654468 0.947519918,4.58825241 4.02670155,2.40223153 C7.10588317,0.216210656 11.3741755,0.940252409 13.5601963,4.01943404 C14.3819416,5.17694552 14.8230606,6.56153007 14.82236,7.98108748 C14.82236,9.39940899 14.3786347,10.7821898 13.5533487,11.9357263 Z" id="Shape" fill="#DEE3E8" fill-rule="nonzero">
				</path>
				<path d="M8.3205207,16.3415344 C7.12209075,11.9745299 8.11525472,8.59390493 11.3000126,6.19965951 C10.8473536,4.26632617 11.8514909,3.29965951 14.3124245,3.29965951 C16.7733581,3.29965951 17.9003204,3.91406321 17.6933114,5.14287062 L14.5430297,16.3415344 L8.3205207,16.3415344 Z" id="Path-13" fill="#333940">
				</path>
				<g transform="translate(8.000013, 4.999660)" fill="#DEE3E8" fill-rule="nonzero">
					<path d="M15.9787858,11.3701301 C15.9638793,11.275181 15.9410631,11.1816177 15.9106077,11.0904205 C15.6192027,10.2794825 14.7882878,9.79425824 13.9388158,9.93896358 C13.6578218,9.98321008 13.3941342,9.79131749 13.3498201,9.51032345 L12.9223631,6.77532161 C12.5715346,4.4612869 10.8998347,2.56625881 8.64765723,1.92950124 C8.44281856,0.675861553 7.26050059,-0.174387928 6.0068271,0.0304507404 C4.76975027,0.232585268 3.92230634,1.38803084 4.10121905,2.62869066 C2.15991635,3.85724944 1.13518218,6.12260962 1.49429208,8.3917556 L1.95233974,11.3026956 C1.99428772,11.5831488 1.80344298,11.8453491 1.52373342,11.8916913 C0.670779796,12.0147635 0.0288167625,12.7316312 9.24453675e-05,13.5929339 C-0.00968344262,14.5486786 0.757109492,15.3314936 1.71285427,15.3413637 C1.71883718,15.3414313 1.72485389,15.3414651 1.7308368,15.3414651 C1.8210537,15.3413975 1.91110159,15.3344682 2.00023683,15.3207109 L3.77587711,15.0415083 C4.39357048,16.1441893 5.78819731,16.5373714 6.89087834,15.9196781 C7.47331647,15.5934235 7.88424447,15.0291031 8.01596993,14.3746334 L14.5376478,13.3483443 C15.4818662,13.200056 16.127108,12.3143823 15.9787858,11.3701301 Z M6.20744055,1.22747248 C6.26757388,1.21810939 6.32831564,1.21327574 6.38915881,1.21303913 C6.77588475,1.21510104 7.13611011,1.40983298 7.34966963,1.73223417 L7.32198599,1.73223417 C7.10683779,1.72574423 6.89145297,1.73192995 6.6770146,1.75068993 C6.45118504,1.77225545 6.22677515,1.80693606 6.0049342,1.85452894 C5.9570371,1.86433145 5.90974844,1.87819017 5.86242598,1.88971657 C5.68070771,1.93240819 5.50243723,1.98260381 5.32764833,2.0420273 C5.31034182,2.04723277 5.29246069,2.05010592 5.27515419,2.05646066 C5.39687433,1.6214658 5.76122351,1.29747593 6.20744055,1.22747248 Z M5.76899791,15.0582416 C5.52450978,15.0585106 5.28641018,14.9800229 5.09002195,14.8344049 L6.70530667,14.5811621 C6.48792755,14.8813218 6.13960041,15.0588148 5.76899791,15.0582416 Z M14.7608746,11.9390475 C14.6725506,12.0840909 14.5248369,12.1828596 14.357045,12.2090222 L7.4085185,13.3016303 L4.03202685,13.8329264 L1.82257478,14.1790564 C1.65518846,14.2063682 1.48435437,14.1577613 1.35644851,14.0463845 C1.22590611,13.9350753 1.15171124,13.7714072 1.15392558,13.5998632 C1.17895546,13.3039964 1.40836801,13.0664039 1.70315316,13.0310472 C2.61174448,12.8853954 3.23214199,12.0332868 3.09169568,11.1238843 L2.63422265,8.21294428 C2.33460385,6.29253107 3.26709301,4.38959336 4.96830181,3.44963401 C4.97830713,3.44628764 4.98810964,3.44243424 4.99770934,3.43810761 C5.5498273,3.13896203 6.15717733,2.95558748 6.7825775,2.89930755 C6.97210397,2.88264328 7.16250929,2.87899269 7.35254278,2.88835578 L7.44715391,2.89298662 C7.64374495,2.90488484 7.83932193,2.92952632 8.0327018,2.96684347 C8.03905654,2.96684347 8.04480283,2.96684347 8.05115757,2.96684347 C10.0031416,3.38912886 11.4888304,4.97733837 11.780134,6.95311887 L12.210498,9.68812071 C12.353547,10.5984359 13.2073119,11.2205573 14.1176609,11.0778463 C14.4086265,11.0210255 14.6995244,11.176108 14.8145518,11.4493614 C14.8707641,11.6123197 14.8510915,11.7920099 14.7608746,11.9390475 Z" id="Shape">
					</path>
				</g>
			</g>
			<polygon fill="#DEE3E8" points="310.153926 382.581162 309.751703 381.315372 311.708959 379.751596 311.261845 374.288678 312.999994 371.793754 313.699716 370.883303 314.275154 368.693027 316.34967 368.693027 317.000046 370.056461 320.682458 373.07059 322.040887 378.569243 323.846058 378.967065 323.846058 380.280642 316.798881 381.778941 315.312412 383.644283 313.542029 383.058242 312.999994 382.581162">
			</polygon>
		</g>
	</g>
</svg>
