<?xml version="1.0" encoding="UTF-8"?>
<svg width="22px" height="23px" viewBox="0 0 22 23" version="1.1" xmlns="http://www.w3.org/2000/svg" xmlns:xlink="http://www.w3.org/1999/xlink">
	<defs>
		<linearGradient x1="50%" y1="0%" x2="50%" y2="100%" id="linearGradient-1">
			<stop stop-color="#8D9AA3" offset="0%">
			</stop>
			<stop stop-color="#8D9AA3" offset="100%">
			</stop>
		</linearGradient>
	</defs>
	<g stroke="none" stroke-width="1" fill="none" fill-rule="evenodd">
		<g fill="url(#linearGradient-1)" fill-rule="nonzero">
			<path d="M21.9708305,15.6339289 C21.950334,15.5033738 21.9189617,15.3747243 21.8770856,15.2493282 C21.4764037,14.1342885 20.3338958,13.4671051 19.1658717,13.6660749 C18.7795049,13.7269139 18.4169346,13.4630615 18.3560027,13.0766947 L17.7682492,9.31606722 C17.2858601,6.13426949 14.9872727,3.52860586 11.8905287,2.65306421 C11.6088755,0.929309636 9.98318831,-0.2397834 8.25938726,0.0418697681 C6.55840662,0.319804743 5.39317121,1.90854241 5.6391762,3.61444965 C2.96988498,5.30371798 1.5608755,8.41858823 2.05465162,11.5386639 L2.68446714,15.5412064 C2.74214562,15.9268296 2.4797341,16.287355 2.09513345,16.3510755 C0.922322219,16.5202998 0.0396230484,17.5059929 0.00012711238,18.6902841 C-0.0133147336,20.0044331 1.04102555,21.0808037 2.35517462,21.0943751 C2.36340112,21.0944681 2.3716741,21.0945146 2.37990061,21.0945146 C2.50394884,21.0944216 2.62776469,21.0848937 2.75032565,21.0659774 L5.19183103,20.6820739 C6.04115941,22.1982603 7.9587713,22.7388857 9.47495772,21.8895573 C10.2758101,21.4409573 10.8408362,20.6650167 11.0219587,19.7651209 L19.9892657,18.3539735 C21.287566,18.150077 22.1747734,16.9322756 21.9708305,15.6339289 Z M8.53523075,1.68777466 C8.61791408,1.67490042 8.70143401,1.66825415 8.78509336,1.6679288 C9.31684153,1.67076393 9.8121514,1.93852035 10.1057957,2.38182198 L10.0677307,2.38182198 C9.77190196,2.37289832 9.47574783,2.38140369 9.18089508,2.40719865 C8.87037943,2.43685125 8.56181583,2.48453708 8.25678452,2.54997729 C8.19092602,2.56345574 8.12590411,2.58251148 8.06083572,2.59836029 C7.81097311,2.65706127 7.56585119,2.72608024 7.32551645,2.80778754 C7.30172001,2.81494506 7.27713345,2.81889565 7.25333701,2.8276334 C7.4207022,2.22951548 7.92168232,1.7840294 8.53523075,1.68777466 Z M7.93237213,20.7050822 C7.59620094,20.7054521 7.26881399,20.5975315 6.99878018,20.3973068 L9.21979668,20.0490979 C8.92090039,20.4618174 8.44195057,20.7058704 7.93237213,20.7050822 Z M20.2962026,16.4161904 C20.1747571,16.615625 19.9716508,16.751432 19.7409368,16.7874055 L10.1867129,18.2897417 L5.54403692,19.0202738 L2.50604032,19.4962025 C2.27588414,19.5337563 2.04098725,19.4669218 1.8651167,19.3137787 C1.6856209,19.1607285 1.58360296,18.9356849 1.58664768,18.6998119 C1.62106376,18.2929951 1.93650601,17.9663053 2.3418356,17.9176899 C3.59114866,17.7174187 4.44419524,16.5457694 4.25108156,15.2953409 L3.62205615,11.2927984 C3.21008029,8.65223022 4.49225289,6.03569088 6.83141499,4.74324677 C6.84517231,4.7386455 6.85865076,4.73334708 6.87185035,4.72739797 C7.63101253,4.31607279 8.46611883,4.06393279 9.32604406,3.98654788 C9.58664768,3.96363451 9.84845027,3.95861495 10.1097463,3.9714892 L10.2398366,3.9778566 C10.5101493,3.99421666 10.7790677,4.0280987 11.044965,4.07940977 C11.0537027,4.07940977 11.0616039,4.07940977 11.0703417,4.07940977 C13.7543197,4.66005218 15.7971418,6.84384026 16.1976842,9.56053845 L16.7894347,13.321166 C16.9861272,14.5728494 18.1600539,15.4282663 19.4117838,15.2320386 C19.8118614,15.1539101 20.2118461,15.3671485 20.3700087,15.742872 C20.4473007,15.9669396 20.4202508,16.2140136 20.2962026,16.4161904 Z" id="Combined-Shape">
			</path>
		</g>
	</g>
</svg>
