<?xml version="1.0" encoding="UTF-8"?>
<svg width="22px" height="23px" viewBox="0 0 22 23" version="1.1" xmlns="http://www.w3.org/2000/svg" xmlns:xlink="http://www.w3.org/1999/xlink">
	<defs>
		<linearGradient x1="50%" y1="0%" x2="50%" y2="100%" id="linearGradient-1">
			<stop stop-color="#E4D3B4" offset="0%">
			</stop>
			<stop stop-color="#E4D3B4" offset="100%">
			</stop>
		</linearGradient>
	</defs>
	<g stroke="none" stroke-width="1" fill="none" fill-rule="evenodd">
		<g fill="url(#linearGradient-1)" fill-rule="nonzero">
			<path d="M8.25938726,0.0418697681 C9.98318831,-0.2397834 11.6088755,0.929309636 11.8905287,2.65306421 C14.9872727,3.52860586 17.2858601,6.13426949 17.7682492,9.31606722 L17.7682492,9.31606722 L18.3560027,13.0766947 C18.4169346,13.4630615 18.7795049,13.7269139 19.1658717,13.6660749 C20.3338958,13.4671051 21.4764037,14.1342885 21.8770856,15.2493282 C21.9189617,15.3747243 21.950334,15.5033738 21.9708305,15.6339289 C22.1747734,16.9322756 21.287566,18.150077 19.9892657,18.3539735 L19.9892657,18.3539735 L11.0219587,19.7651209 C10.8408362,20.6650167 10.2758101,21.4409573 9.47495772,21.8895573 C7.9587713,22.7388857 6.04115941,22.1982603 5.19183103,20.6820739 L5.19183103,20.6820739 L2.75032565,21.0659774 C2.62776469,21.0848937 2.50394884,21.0944216 2.37990061,21.0945146 L2.37990061,21.0945146 L2.35517462,21.0943751 C1.04102555,21.0808037 -0.0133147336,20.0044331 0.00012711238,18.6902841 C0.0396230484,17.5059929 0.922322219,16.5202998 2.09513345,16.3510755 C2.4797341,16.287355 2.74214562,15.9268296 2.68446714,15.5412064 L2.68446714,15.5412064 L2.05465162,11.5386639 C1.5608755,8.41858823 2.96988498,5.30371798 5.6391762,3.61444965 C5.39317121,1.90854241 6.55840662,0.319804743 8.25938726,0.0418697681 Z M8.78509336,1.6679288 C8.70143401,1.66825415 8.61791408,1.67490042 8.53523075,1.68777466 C7.92168232,1.7840294 7.4207022,2.22951548 7.25333701,2.8276334 L7.25333701,2.8276334 L7.32551645,2.80778754 C7.56585119,2.72608024 7.81097311,2.65706127 8.06083572,2.59836029 C8.12590411,2.58251148 8.19092602,2.56345574 8.25678452,2.54997729 C8.56181583,2.48453708 8.87037943,2.43685125 9.18089508,2.40719865 C9.47574783,2.38140369 9.77190196,2.37289832 10.0677307,2.38182198 L10.0677307,2.38182198 L10.1057957,2.38182198 C9.8121514,1.93852035 9.31684153,1.67076393 8.78509336,1.6679288 Z" id="Combined-Shape">
			</path>
		</g>
	</g>
</svg>
