<?xml version="1.0" encoding="UTF-8"?>
<svg width="22px" height="22px" viewBox="0 0 22 22" version="1.1" xmlns="http://www.w3.org/2000/svg" xmlns:xlink="http://www.w3.org/1999/xlink">
	<defs>
		<linearGradient x1="50%" y1="0%" x2="50%" y2="100%" id="linearGradient-1">
			<stop stop-color="#E4D3B4" offset="0%">
			</stop>
			<stop stop-color="#AA9979" offset="100%">
			</stop>
		</linearGradient>
	</defs>
	<g stroke="none" stroke-width="1" fill="none" fill-rule="evenodd">
		<path d="M21.1407469,0 L0.859420898,0 C0.384725137,0 -2.84217094e-14,0.384725137 -2.84217094e-14,0.859420898 C-2.84217094e-14,3.25270665 1.0259337,5.53755772 2.81477129,7.12765423 L6.57859841,10.4730172 C7.23122115,11.0531263 7.60553926,11.8866975 7.60553926,12.7600503 L7.60553926,21.1407469 C7.60553926,21.825598 8.370961,22.2361729 8.9415023,21.8556441 L14.0119178,18.475535 C14.2509442,18.3160722 14.3946286,18.0478389 14.3946286,17.76047 L14.3946286,12.7600503 C14.3946286,11.8866975 14.7689467,11.0531263 15.4215694,10.4730172 L19.1852287,7.12765423 C20.9740663,5.53755772 22,3.25270665 22,0.859420898 C22,0.384725137 21.6152749,0 21.1407469,0 Z M18.0433068,5.84288711 L14.2796475,9.18841797 C13.260428,10.0945027 12.6757868,11.3962232 12.6757868,12.7598825 L12.6757868,17.3005455 L9.32421317,19.534872 L9.32421317,12.7600503 C9.32421317,11.3962232 8.73957195,10.0945027 7.72035248,9.18841797 L3.95669325,5.84305495 C2.75048256,4.77062525 1.98052876,3.30121697 1.77440203,1.71867395 L20.225598,1.71867395 C20.0194712,3.30121697 19.2496853,4.77062525 18.0433068,5.84288711 Z" id="Shape" fill="url(#linearGradient-1)" fill-rule="nonzero">
		</path>
		<g id="filter-(2)">
		</g>
	</g>
</svg>
