<?xml version="1.0" encoding="UTF-8"?>
<svg width="14px" height="13px" viewBox="0 0 14 13" version="1.1" xmlns="http://www.w3.org/2000/svg" xmlns:xlink="http://www.w3.org/1999/xlink">
    <title>Group 2</title>
    <g id="New" stroke="none" stroke-width="1" fill="none" fill-rule="evenodd">
        <g id="View-All---Created-Swanlings" transform="translate(-1205.000000, -181.000000)" fill="#FFFFFF" fill-rule="nonzero">
            <g id="Group-27" transform="translate(515.000000, 82.000000)">
                <g id="Group-26" transform="translate(3.000000, 44.000000)">
                    <g id="Group-25" transform="translate(687.000000, 51.000000)">
                        <g id="Group-2" transform="translate(6.560796, 10.248561) scale(-1, 1) translate(-6.560796, -10.248561) translate(0.000000, 4.000000)">
                            <path d="M12.684205,5.81120041 L4.74905335,5.81120041 C4.51186977,4.87927781 3.56410931,4.31608534 2.63216109,4.55326892 C2.01412552,4.71057122 1.5315319,5.19316484 1.3742296,5.81120041 L0.437386506,5.81120041 C0.195820607,5.81120041 0,6.00702101 0,6.24858691 C0,6.49015281 0.195820607,6.68594779 0.437386506,6.68594779 L1.37425523,6.68594779 C1.61143881,7.61787039 2.55919927,8.18106285 3.49114749,7.94387928 C4.10918305,7.78657698 4.59177667,7.30398336 4.74907897,6.68594779 L12.684205,6.68594779 C12.9257709,6.68594779 13.1215915,6.49012718 13.1215915,6.24856128 C13.1215915,6.00699539 12.9257709,5.81120041 12.684205,5.81120041 Z" id="Path"></path>
                            <path d="M12.684205,1.31214246 L11.3099754,1.31214246 C11.0727918,0.38021987 10.1250314,-0.182972598 9.19308316,0.0542109792 C8.57504759,0.21151328 8.09245397,0.6941069 7.93515167,1.31214246 L0.437386506,1.31214246 C0.195820607,1.31214246 0,1.50796307 0,1.74952897 C0,1.99109487 0.195820607,2.18691548 0.437386506,2.18691548 L7.93515167,2.18691548 C8.17233525,3.11883807 9.12009571,3.68203054 10.0520439,3.44484696 C10.6700795,3.28754466 11.1526731,2.80495104 11.3099754,2.18691548 L12.684205,2.18691548 C12.9257709,2.18691548 13.1215915,1.99109487 13.1215915,1.74952897 C13.1215915,1.50796307 12.9257709,1.31214246 12.684205,1.31214246 Z" id="Path"></path>
                            <path d="M12.684205,10.3102327 L10.4352024,10.3102327 C10.1980188,9.37831013 9.25025837,8.81511766 8.31831015,9.05230123 C7.70027458,9.20960354 7.21768096,9.69219716 7.06037866,10.3102327 L0.437386506,10.3102327 C0.195820607,10.3102327 0,10.5060533 0,10.7475936 C0,10.9891339 0.195820607,11.1849801 0.437386506,11.1849801 L7.06040429,11.1849801 C7.29758787,12.1169027 8.24534833,12.6800952 9.17729655,12.4429116 C9.79533211,12.2856093 10.2779257,11.8030157 10.435228,11.1849801 L12.684205,11.1849801 C12.9257709,11.1849801 13.1215915,10.9891595 13.1215915,10.7475936 C13.1215915,10.5060277 12.9257709,10.3102327 12.684205,10.3102327 Z" id="Path"></path>
                        </g>
                    </g>
                </g>
            </g>
        </g>
    </g>
</svg>