<?xml version="1.0" encoding="UTF-8"?>
<svg width="18px" height="18px" viewBox="0 0 18 18" version="1.1" xmlns="http://www.w3.org/2000/svg" xmlns:xlink="http://www.w3.org/1999/xlink">
    <title>Get Verified</title>
    <defs>
        <linearGradient x1="50%" y1="0%" x2="50%" y2="100%" id="linearGradient-1">
            <stop stop-color="#E4D3B4" offset="0%"></stop>
            <stop stop-color="#AA9979" offset="100%"></stop>
        </linearGradient>
    </defs>
    <g id="Owned-Hatchling" stroke="none" stroke-width="1" fill="none" fill-rule="evenodd">
        <g id="Dropdown" transform="translate(-1145.000000, -178.000000)" fill="url(#linearGradient-1)">
            <g id="Get-Verified" transform="translate(1145.000000, 178.000000)">
                <path d="M12.9784241,6.14424132 C13.2530823,6.41889953 13.2530823,6.86412049 12.9784241,7.13864138 L8.26144411,11.8557587 C7.98678591,12.1302795 7.54170226,12.1302795 7.26704406,11.8557587 L5.02157595,9.61015321 C4.74691774,9.33563232 4.74691774,8.89041136 5.02157595,8.61589051 C5.29609679,8.34123231 5.74131776,8.34123231 6.01583864,8.61589051 L7.76417541,10.3642273 L11.984024,6.14424132 C12.2586822,5.86972048 12.7039032,5.86972048 12.9784241,6.14424132 L12.9784241,6.14424132 Z M18,9 C18,13.9747467 13.9740601,18 9,18 C4.0252533,18 7.05642441e-14,13.9740601 7.05642441e-14,9 C7.05642441e-14,4.0252533 4.02593994,0 9,0 C13.9747467,0 18,4.02593994 18,9 Z M16.59375,9 C16.59375,4.80253602 13.1969147,1.40625 9,1.40625 C4.80253602,1.40625 1.40625,4.80308534 1.40625,9 C1.40625,13.197464 4.80308534,16.59375 9,16.59375 C13.197464,16.59375 16.59375,13.1969147 16.59375,9 Z" id="Shape"></path>
            </g>
        </g>
    </g>
</svg>