<?xml version="1.0" encoding="UTF-8"?>
<svg width="26px" height="23px" viewBox="0 0 26 23" version="1.1" xmlns="http://www.w3.org/2000/svg" xmlns:xlink="http://www.w3.org/1999/xlink">
    <title>PurchasedMoments</title>
    <defs>
        <linearGradient x1="50%" y1="0%" x2="50%" y2="100%" id="linearGradient-1">
            <stop stop-color="#4D4E4A" offset="0%"></stop>
            <stop stop-color="#4D4E4A" offset="100%"></stop>
        </linearGradient>
        <linearGradient x1="50%" y1="0%" x2="50%" y2="100%" id="linearGradient-2">
            <stop stop-color="#4D4E4A" offset="0%"></stop>
            <stop stop-color="#4D4E4A" offset="100%"></stop>
        </linearGradient>
    </defs>
    <g id="Iconography" stroke="none" stroke-width="1" fill="none" fill-rule="evenodd">
        <g transform="translate(-902.000000, -254.000000)" id="PurchasedMoments">
            <g transform="translate(902.000000, 254.000000)">
                <g id="Icon/MomentsOwnedDefault" transform="translate(0.000000, -0.000000)">
                    <g id="image" transform="translate(0.000000, -0.000000)" fill="url(#linearGradient-1)" fill-rule="nonzero">
                        <path d="M13.6478041,-7.10542736e-15 C14.6467508,-7.10542736e-15 15.4594595,0.812708615 15.4594595,1.81165541 L15.4594595,1.81165541 L15.459,7.346 L14.251,8.542 L14.2516892,1.81165541 C14.2516892,1.51197137 14.0322579,1.26257164 13.7456275,1.21568853 L13.6478041,1.20777027 L1.81165541,1.20777027 C1.47867314,1.20777027 1.20777027,1.47867314 1.20777027,1.81165541 L1.20777027,1.81165541 L1.20777027,10.74055 L4.53134269,7.41697762 C5.23773733,6.71061318 6.38708171,6.71061318 7.09341596,7.41697762 L7.09341596,7.41697762 L8.96769426,9.29125591 L9.63417209,8.62474789 C10.3405667,7.91838345 11.4898809,7.91838345 12.1962755,8.62474789 L12.1962755,8.62474789 L13.177,9.605 L12.319,10.455 L11.3422008,9.47876225 C11.1329345,9.26946908 10.8069588,9.24621428 10.571757,9.40899786 L10.4882166,9.47876225 L9.129,10.837 L8.754,10.786 L6.23937141,8.27102217 C6.03007824,8.061729 5.70417113,8.03847421 5.46892134,8.20125778 L5.38535705,8.27102217 L1.20777027,12.4486391 L1.20777027,13.6478041 C1.20777027,13.9807863 1.47867314,14.2516892 1.81165541,14.2516892 L1.81165541,14.2516892 L5.871,14.251 L6.293,15.459 L1.81165541,15.4594595 C0.862655954,15.4594595 0.0817364569,14.7259899 0.00601700581,13.796171 L1.3500312e-13,13.6478041 L1.3500312e-13,1.81165541 C1.3500312e-13,0.812708615 0.812708615,-7.10542736e-15 1.81165541,-7.10542736e-15 L1.81165541,-7.10542736e-15 Z M9.78293919,2.41554054 C10.781886,2.41554054 11.5945946,3.22824916 11.5945946,4.22719595 C11.5945946,5.22614274 10.781886,6.03885135 9.78293919,6.03885135 C8.7839924,6.03885135 7.97128378,5.22614274 7.97128378,4.22719595 C7.97128378,3.22824916 8.7839924,2.41554054 9.78293919,2.41554054 Z M9.78293919,3.62331081 C9.44995693,3.62331081 9.17905405,3.89421368 9.17905405,4.22719595 C9.17905405,4.56017821 9.44995693,4.83108108 9.78293919,4.83108108 C10.1159215,4.83108108 10.3868243,4.56017821 10.3868243,4.22719595 C10.3868243,3.89421368 10.1159215,3.62331081 9.78293919,3.62331081 Z" id="Combined-Shape"></path>
                    </g>
                    <g id="Group-6" transform="translate(7.027019, 9.135135)">
                        <g id="crown" transform="translate(0.000008, 0.000000)"></g>
                        <path d="M18.106445,2.68153873 C17.8895898,2.49641586 17.5835616,2.45740488 17.3270859,2.58225435 L13.4028969,4.49264498 L9.72080542,0.247260769 C9.58462554,0.0902128906 9.38695318,0 9.17906195,0 C8.97117072,0 8.77353421,0.0902128906 8.63731848,0.247260769 L4.955227,4.49260912 L1.03103797,2.5822185 C0.774562292,2.45740488 0.468569919,2.49638 0.251643056,2.68150288 C0.0347161927,2.86662575 -0.0519111299,3.16272196 0.0310230577,3.43558368 L2.75605473,12.3995037 C2.84788113,12.7015878 3.1264439,12.9080448 3.44215316,12.9080448 L14.9159707,12.9080448 C15.2316441,12.9080448 15.5102428,12.7015878 15.6020333,12.3995395 L18.327065,3.43561954 C18.410035,3.16275781 18.3234077,2.86666161 18.106445,2.68153873 Z M14.3844103,11.4738176 L3.97364191,11.4738176 L1.88142713,4.59139152 L4.82238171,6.02314468 C5.11439036,6.16527659 5.46527405,6.09349352 5.6780058,5.84824067 L9.17906195,1.81160823 L12.680154,5.84824067 C12.8928498,6.09352938 13.2438411,6.16524074 13.5357422,6.02314468 L16.4766968,4.59139152 L14.3844103,11.4738176 Z" id="Shape" fill="url(#linearGradient-2)" fill-rule="nonzero"></path>
                    </g>
                </g>
            </g>
        </g>
    </g>
</svg>