<?xml version="1.0" encoding="UTF-8"?>
<svg width="24px" height="24px" viewBox="0 0 24 24" version="1.1" xmlns="http://www.w3.org/2000/svg" xmlns:xlink="http://www.w3.org/1999/xlink">
    <title>Splurge Coins</title>
    <defs>
        <linearGradient x1="50%" y1="0%" x2="50%" y2="100%" id="linearGradient-1">
            <stop stop-color="#8D9AA3" offset="0%"></stop>
            <stop stop-color="#8D9AA3" offset="100%"></stop>
        </linearGradient>
        <path d="M9.39282854,0.00123781527 C14.4253019,0.082829013 18.4796835,4.18764987 18.4796835,9.23984475 L18.4784457,9.39263698 C18.3968529,14.4250095 14.2919521,18.4796835 9.24003313,18.4796835 L9.08722635,18.4784456 C4.05438157,18.3968469 0,14.2916548 0,9.23984475 C0,4.1366176 4.13670194,0 9.24003313,0 L9.39282854,0.00123781527 Z" id="path-2"></path>
        <linearGradient x1="50%" y1="0%" x2="50%" y2="100%" id="linearGradient-4">
            <stop stop-color="#8D9AA3" offset="0%"></stop>
            <stop stop-color="#8D9AA3" offset="100%"></stop>
        </linearGradient>
        <linearGradient x1="50%" y1="0%" x2="50%" y2="100%" id="linearGradient-5">
            <stop stop-color="#8D9AA3" offset="0%"></stop>
            <stop stop-color="#8D9AA3" offset="100%"></stop>
        </linearGradient>
    </defs>
    <g id="Iconography" stroke="none" stroke-width="1" fill="none" fill-rule="evenodd">
        <g transform="translate(-1821.000000, -139.000000)" id="Splurge-Coins">
            <g transform="translate(1821.882437, 139.880895)">
                <g id="Group-345" transform="translate(0.000000, 0.000000)" stroke="url(#linearGradient-1)">
                    <path d="M20.2396534,11.0000019 C20.2396534,16.1029504 16.1030356,20.2396534 11.0001922,20.2396534 C5.8969682,20.2396534 1.75996986,16.1029504 1.75996986,11.0000019 C1.75996986,5.89667284 5.8969682,1.75996986 11.0001922,1.75996986 C16.1030356,1.75996986 20.2396534,5.89667284 20.2396534,11.0000019 Z" id="Stroke-341" stroke-width="1.3"></path>
                    <path d="M21.9996232,11 C21.9996232,17.0749418 17.0750261,21.9996232 11.0001884,21.9996232 C4.92497388,21.9996232 0,17.0749418 0,11 C0,4.92468146 4.92497388,0 11.0001884,0 C17.0750261,0 21.9996232,4.92468146 21.9996232,11 Z" id="Stroke-343" stroke-width="0.5"></path>
                </g>
                <g id="Group-349" transform="translate(1.759970, 1.759970)">
                    <mask id="mask-3" fill="white">
                        <use xlink:href="#path-2"></use>
                    </mask>
                    <g id="Clip-347"></g>
                    <path d="M12.5303826,6.59988697 C12.2262134,6.85564577 11.852271,7.04102492 11.4398041,7.1258193 C11.709452,7.39564756 12.0412381,7.6091818 12.4148208,7.74821481 C12.6601183,7.84022195 12.9243125,7.89995241 13.1997739,7.91986436 C12.9748237,7.644199 12.7923953,7.33626236 12.661209,7.00429219 C12.6085107,6.87315168 12.5649038,6.73754972 12.5303826,6.59988697" id="Fill-346" fill="url(#linearGradient-4)" mask="url(#mask-3)"></path>
                    <path d="M11.2336907,9.18450757 C10.9672908,9.0836065 10.6906893,8.99603605 10.4042603,8.92026451 C10.103093,8.83955083 9.79173004,8.7744414 9.46939943,8.7237994 L9.43954873,8.7192342 C8.81190011,8.63394336 8.18160904,8.36894641 7.76481553,7.9303283 C8.07656449,8.49306837 8.57308853,8.93701754 9.17352889,9.17726787 C8.04293123,9.0836065 7.15379352,8.13022179 7.15379352,6.96704136 C7.15379352,6.50252786 7.29436558,6.07304613 7.53695971,5.71629047 C7.66089921,5.5320072 7.81242702,5.3686712 7.98549222,5.22855608 C8.00211884,5.21560839 8.02025966,5.20114095 8.03952871,5.18667352 C8.22053312,5.04122735 8.42987403,4.92814444 8.65546151,4.85732701 C8.72310213,4.83410014 8.79376522,4.81620432 8.86518246,4.80173688 C8.93471138,4.78612666 9.00159786,4.77432176 9.07036671,4.76594524 C9.16483555,4.75262061 9.26043856,4.74652969 9.35717575,4.74652969 C9.98179595,4.74652969 10.5448264,5.00733838 10.9457534,5.4273008 C11.2707205,5.76769234 11.4891348,6.21240137 11.5450596,6.70813533 C11.6467076,6.69518764 11.7457072,6.6700581 11.8409301,6.63616913 C11.8602051,6.63007821 11.8794742,6.62284449 11.8983691,6.61561077 C12.2350521,6.49072894 12.5313086,6.28131614 12.7614328,6.0128908 C12.8173576,5.9481643 12.8687457,5.88076927 12.9167372,5.80995184 C13.1423247,5.47185188 13.2745834,5.0640713 13.2745834,4.62621305 C13.2745834,4.36540436 13.2281061,4.114109 13.1411964,3.88299504 C13.0958474,3.75925601 13.0384143,3.64008217 12.9703936,3.52699926 C12.9632145,3.51367462 12.9549012,3.50034998 12.9450796,3.48740229 C12.8676115,3.37165684 12.7746569,3.26124244 12.667338,3.15653604 C12.5585109,3.05106976 12.4451531,2.95092856 12.3283867,2.85460465 C12.2864461,2.8210986 12.2433654,2.78835242 12.2006706,2.75598917 C11.8375336,2.48071305 11.4350983,2.25454722 11.0047007,2.0873999 C10.3812087,1.84714956 9.69876947,1.73026132 8.98497125,1.7664299 C6.39691456,1.89702571 4.32957364,4.07184949 4.30085711,6.681863 C4.2864929,8.00457411 4.79888942,9.1940209 5.68311634,10.0891589 C5.88754646,10.2959032 6.11011146,10.4870373 6.35270559,10.6602755 C6.45435356,10.7337615 6.55940406,10.8034361 6.66785112,10.8696883 C7.34461951,11.2869822 8.14193676,11.5744462 9.02275522,11.6974313 C9.09568666,11.7092302 9.16861217,11.7210351 9.24154361,11.7366454 C10.0483024,11.8954162 10.8611061,12.2300937 11.4626807,12.7722755 C10.8800011,12.3980009 10.1937852,12.1756464 9.45617534,12.1592703 C9.42519046,12.1577506 9.39533976,12.1577506 9.36435488,12.1577506 C9.26043856,12.1577506 9.15652225,12.161179 9.0537401,12.1710752 C7.58343702,12.2864437 6.34212394,13.2223155 5.77947349,14.5244683 C5.82292833,14.6581096 5.8750765,14.7883224 5.93629212,14.9132103 C5.97936692,15.0034432 6.02584424,15.0913966 6.0761041,15.1763045 C6.47211435,15.8513677 7.08653294,16.3802247 7.82225453,16.6635004 C8.00098466,16.7339349 8.18841407,16.7895251 8.3818825,16.8279792 C8.14911589,16.8157974 7.9223883,16.778486 7.70397995,16.7209932 C7.13792698,16.5717357 6.62968711,16.2819922 6.21553605,15.8898218 C5.967277,15.6564223 5.7533994,15.3872371 5.58297664,15.0887341 C5.54934932,15.0308584 5.51836444,14.9733656 5.4885078,14.9132103 C5.24969622,14.4395604 5.1163033,13.9042294 5.1163033,13.3361583 C5.1163033,12.9504618 5.17827899,12.5788558 5.29390519,12.2312365 C4.4213941,12.8179633 3.82700463,13.7934321 3.75671564,14.9132103 C3.75067068,14.9889758 3.74802823,15.0647473 3.74802823,15.1420386 C3.74802823,15.4652882 3.79261724,15.7778817 3.87461612,16.0752479 C3.53830729,15.7550378 3.26586245,15.3678215 3.07994725,14.9337686 C3.09166308,18.5394323 6.17170712,21.4308189 9.82158074,21.0927189 C13.131749,20.7850735 15.5641152,17.9237646 15.39105,14.5789156 C15.2621938,12.0975953 13.7030927,10.1192366 11.2336907,9.18450757 Z" id="Fill-348" fill="url(#linearGradient-5)" mask="url(#mask-3)"></path>
                </g>
            </g>
        </g>
    </g>
</svg>