<?xml version="1.0" encoding="UTF-8"?>
<svg width="22px" height="22px" viewBox="0 0 22 22" version="1.1" xmlns="http://www.w3.org/2000/svg" xmlns:xlink="http://www.w3.org/1999/xlink">
    <title>MyMoments</title>
    <defs>
        <linearGradient x1="50%" y1="0%" x2="50%" y2="100%" id="linearGradient-1">
            <stop stop-color="#4D4E4A" offset="0%"></stop>
            <stop stop-color="#4D4E4A" offset="100%"></stop>
        </linearGradient>
    </defs>
    <g id="Iconography" stroke="none" stroke-width="1" fill="none" fill-rule="evenodd">
        <g transform="translate(-904.000000, -139.000000)" fill="url(#linearGradient-1)" fill-rule="nonzero" id="MyMoments">
            <g transform="translate(904.000009, 139.021149)">
                <g id="Icon/StarSelect" transform="translate(0.000000, -0.000000)">
                    <path d="M4.92406763,21.0830915 C4.6830336,21.0830915 4.44367807,21.0078943 4.23940343,20.8601854 C3.85888526,20.5844062 3.68113105,20.110395 3.7846951,19.6530011 L5.20001466,13.4185117 L0.400147726,9.20914459 C0.0473249222,8.90113802 -0.0874593911,8.41336302 0.0573960246,7.96704726 C0.202251397,7.52157071 0.596365524,7.20617869 1.06299128,7.163041 L7.41380136,6.58647288 L9.92468434,0.710513233 C10.109824,0.278800485 10.5314657,0 10.9999378,0 C11.4684099,0 11.8900516,0.278800485 12.0751912,0.709506105 L14.5860742,6.58647288 L20.9358772,7.163041 C21.4035101,7.20517161 21.7976242,7.52157071 21.9424796,7.96704726 C22.087335,8.41252377 21.9533899,8.90113802 21.6005671,9.20914459 L16.8007002,13.4176725 L18.2160197,19.651994 C18.3197517,20.110395 18.1418296,20.5844062 17.7614792,20.8593462 C17.3819682,21.1342861 16.8758974,21.1554353 16.4762442,20.9152405 L10.9999378,17.6426498 L5.52363137,20.9170869 C5.33849171,21.0270293 5.13220286,21.0830915 4.92406763,21.0830915 Z M10.9999378,16.2328693 C11.208073,16.2328693 11.414194,16.2887637 11.5995015,16.3987061 L16.7678014,19.4898499 L15.4320432,13.6054977 C15.3367038,13.1867095 15.4788736,12.7494577 15.8024903,12.4661252 L20.3346349,8.49141376 L14.338494,7.94690514 C13.9067812,7.90746015 13.5354949,7.63604511 13.3668046,7.23823824 L10.9999378,1.69311291 L8.6302175,7.23907753 C8.46337364,7.63419874 8.0920872,7.90561378 7.66138158,7.94505877 L1.66440139,8.48956739 L6.19637814,12.4642788 C6.52100193,12.7484506 6.66300389,13.1848631 6.56682528,13.6046585 L5.23207421,19.4888428 L10.400374,16.3987061 C10.5855137,16.2887637 10.7918026,16.2328693 10.9999378,16.2328693 Z" id="Shape"></path>
                </g>
            </g>
        </g>
    </g>
</svg>