<?xml version="1.0" encoding="UTF-8"?>
<svg width="17px" height="12px" viewBox="0 0 17 12" version="1.1" xmlns="http://www.w3.org/2000/svg" xmlns:xlink="http://www.w3.org/1999/xlink">
    <!-- Generator: Sketch 64 (93537) - https://sketch.com -->
    <title>Path</title>
    <desc>Created with Sketch.</desc>
    <g id="New" stroke="none" stroke-width="1" fill="none" fill-rule="evenodd">
        <g id="More---My-Profile" transform="translate(-22.000000, -530.000000)" fill="#8D9AA3" fill-rule="nonzero">
            <g id="Group-21" transform="translate(22.000000, 484.000000)">
                <g id="Group-20" transform="translate(0.000000, 41.000000)">
                    <g id="graph" transform="translate(0.000000, 5.000000)">
                        <path d="M1.50114532,11.466571 L6.44831171,6.51936794 L8.46445356,8.53554644 C8.62935698,8.70045835 8.85301912,8.79310562 9.08623378,8.79310562 C9.31944844,8.79310562 9.54311057,8.70045835 9.70801399,8.53554644 L15.2410555,3.00250489 L15.2407258,4.98274169 C15.2407258,5.46836974 15.6344051,5.86204905 16.1200332,5.86204905 C16.6056612,5.86204905 16.9993405,5.46836974 16.9993405,4.98274169 L17,0.879307358 C17,0.393679314 16.6063207,0 16.1206926,0 L12.0172583,0 C11.5316303,0 11.1379509,0.393679314 11.1379509,0.879307358 C11.1379509,1.3649354 11.5316303,1.75861472 12.0172583,1.75861472 L13.9978615,1.75861472 L9.08623378,6.67024243 L7.07009192,4.65406393 C6.9051885,4.48915201 6.68152637,4.39650475 6.44831171,4.39650475 C6.21509704,4.39650475 5.99143491,4.48915201 5.82653149,4.65406393 L0.257584891,10.2230105 C0.00609122902,10.4744912 -0.0691448453,10.8527083 0.0669607899,11.1812914 C0.203066425,11.5098746 0.523708523,11.7240995 0.879365106,11.7240995 C1.11263291,11.7243974 1.33640145,11.6317176 1.50114532,11.466571 Z" id="Path"></path>
                    </g>
                </g>
            </g>
        </g>
    </g>
</svg>