<?xml version="1.0" encoding="UTF-8"?>
<svg width="17px" height="12px" viewBox="0 0 17 12" version="1.1" xmlns="http://www.w3.org/2000/svg" xmlns:xlink="http://www.w3.org/1999/xlink">
	<defs>
		<linearGradient x1="91.752427%" y1="29.5719758%" x2="9.11467938%" y2="74.9134948%" id="linearGradient-1">
			<stop stop-color="#E4D3B4" offset="0%">
			</stop>
			<stop stop-color="#AA9979" offset="100%">
			</stop>
		</linearGradient>
	</defs>
	<g stroke="none" stroke-width="1" fill="none" fill-rule="evenodd">
		<path d="M1.50114532,11.7364111 L6.44831171,6.67278668 L8.46445356,8.73641143 C8.62935698,8.90520418 8.85301912,9.00003169 9.08623378,9.00003169 C9.31944844,9.00003169 9.54311057,8.90520418 9.70801399,8.73641143 L15.2410555,3.07316212 L15.2407258,5.09999937 C15.2407258,5.59705559 15.6344051,6 16.1200332,6 C16.6056612,6 16.9993405,5.59705559 16.9993405,5.09999937 L17,0.899999889 C17,0.402943676 16.6063207,0 16.1206926,0 L12.0172583,0 C11.5316303,0 11.1379509,0.402943676 11.1379509,0.899999889 C11.1379509,1.3970561 11.5316303,1.79999978 12.0172583,1.79999978 L13.9978615,1.79999978 L9.08623378,6.82721166 L7.07009192,4.76358691 C6.9051885,4.59479416 6.68152637,4.49996665 6.44831171,4.49996665 C6.21509704,4.49996665 5.99143491,4.59479416 5.82653149,4.76358691 L0.257584891,10.4635862 C0.00609122902,10.720985 -0.0691448453,11.1081025 0.0669607899,11.4444181 C0.203066425,11.7807337 0.523708523,12 0.879365106,12 C1.11263291,12.0003049 1.33640145,11.9054441 1.50114532,11.7364111 Z" id="Path" fill="url(#linearGradient-1)" fill-rule="nonzero">
		</path>
	</g>
</svg>
