<?xml version="1.0" encoding="UTF-8"?>
<svg width="18px" height="24px" viewBox="0 0 18 24" version="1.1" xmlns="http://www.w3.org/2000/svg" xmlns:xlink="http://www.w3.org/1999/xlink">
    <title>Hatchling</title>
    <defs>
        <linearGradient x1="50%" y1="0%" x2="50%" y2="100%" id="linearGradient-1">
            <stop stop-color="#E4D3B4" offset="0%"></stop>
            <stop stop-color="#AA9979" offset="100%"></stop>
        </linearGradient>
        <linearGradient x1="50%" y1="0%" x2="50%" y2="100%" id="linearGradient-2">
            <stop stop-color="#E4D3B4" offset="0%"></stop>
            <stop stop-color="#AA9979" offset="100%"></stop>
        </linearGradient>
    </defs>
    <g id="Logo-&amp;-Iconography" stroke="none" stroke-width="1" fill="none" fill-rule="evenodd">
        <g id="Iconography" transform="translate(-1832.000000, -553.000000)">
            <g id="Hatchling" transform="translate(1832.876596, 553.116175)">
                <path d="M13.8635035,9.97969409 C14.2161294,10.3161212 14.5217143,10.6076682 14.7802581,10.8543352 C17.9044525,13.8350113 17.9044525,18.6676421 14.7802581,21.6483182 C11.6560638,24.6289943 6.59074396,24.6289943 3.46654962,21.6483182 C0.342355289,18.6676421 0.342355289,13.8350113 3.46654962,10.8543352 C3.60828371,10.719112 3.76732341,10.5673782 3.94366872,10.3991338 C5.32065014,11.0795962 6.31983033,11.5744357 6.94391468,11.8835107 C9.46587768,13.1325016 12.3829359,12.2821851 13.8476483,10.0049748 Z" id="Combined-Shape-Copy-4" fill="#AC9A7B"></path>
                <path d="M5.97479412,12.3805715 L6.39525902,12.5898627 C6.66042226,12.7218507 6.8952921,12.8387598 7.09986854,12.94059 L7.38401316,13.0820262 L7.38401316,13.0820262 C8.13074768,13.4537218 8.90093369,13.6296059 9.64577498,13.6293934 C12.8733005,17.4305504 13.6700522,20.0553259 12.0362411,21.5027151 C8.91204678,24.2704311 6.59074396,24.5757543 3.46654962,21.8080383 C0.342355289,19.0403223 0.342355289,14.5529681 3.46654962,11.7852521 C3.63116301,11.6394215 3.79525771,11.5035572 3.95883372,11.3776594 C4.74131524,11.7665934 5.41284718,12.100856 5.97479412,12.3805715 Z" id="Combined-Shape-Copy-5" fill="url(#linearGradient-1)"></path>
                <path d="M4.43131213,3.19846964 C5.48896583,0.580684866 8.46849742,-0.684051257 11.0862822,0.373602446 C13.704067,1.43125615 14.9688031,4.41078774 13.9111494,7.02857251 C12.8534957,9.64635728 9.8739641,10.9110934 7.25617932,9.8534397 C6.41086098,9.51190892 3.99213454,8.28651818 3.7658765e-13,6.17726747 C2.5906364,5.09127375 4.06774044,4.09834115 4.43131213,3.19846964 Z M6.42340387,3.18382528 C5.87111912,3.18382528 5.42340387,3.63154053 5.42340387,4.18382528 C5.42340387,4.73611003 5.87111912,5.18382528 6.42340387,5.18382528 C6.97568862,5.18382528 7.42340387,4.73611003 7.42340387,4.18382528 C7.42340387,3.63154053 6.97568862,3.18382528 6.42340387,3.18382528 Z" id="Oval-Copy-25" fill="#AC9A7B"></path>
                <path d="M10.1030725,1.32255993 C12.3664824,2.2370369 13.4600086,4.81322322 12.5455316,7.07663313 C11.6310547,9.34004304 9.05486835,10.4335693 6.79145844,9.51909229 C6.73799243,9.49749062 6.67770072,9.4757609 6.61058331,9.45390313 L6.66520131,9.48748009 C5.74215364,8.9476042 5.08156148,8.25919203 4.68342483,7.42224356 C4.30150188,6.61937897 4.13578845,5.51247723 4.18628455,4.10153834 C4.25556092,3.97470659 4.30928586,3.86331326 4.34899928,3.7650191 C5.26347624,1.50160918 7.83966256,0.408082969 10.1030725,1.32255993 Z M6.04390873,3.27455641 C5.53552793,3.49035126 5.29834016,4.0774116 5.514135,4.58579239 C5.72992984,5.09417319 6.31699019,5.33136096 6.82537098,5.11556612 C7.33375178,4.89977128 7.57093955,4.31271093 7.35514471,3.80433014 C7.13934986,3.29594935 6.55228952,3.05876157 6.04390873,3.27455641 Z" id="Combined-Shape" fill="url(#linearGradient-2)"></path>
            </g>
        </g>
    </g>
</svg>