<?xml version="1.0" encoding="UTF-8"?>
<svg width="18px" height="18px" viewBox="0 0 18 18" version="1.1" xmlns="http://www.w3.org/2000/svg" xmlns:xlink="http://www.w3.org/1999/xlink">
    <title>Help Centre</title>
    <defs>
        <linearGradient x1="50%" y1="0%" x2="50%" y2="100%" id="linearGradient-1">
            <stop stop-color="#E4D3B4" offset="0%"></stop>
            <stop stop-color="#AA9979" offset="100%"></stop>
        </linearGradient>
        <linearGradient x1="50%" y1="0%" x2="50%" y2="100%" id="linearGradient-2">
            <stop stop-color="#E4D3B4" offset="0%"></stop>
            <stop stop-color="#AA9979" offset="100%"></stop>
        </linearGradient>
    </defs>
    <g id="Owned-Hatchling" stroke="none" stroke-width="1" fill="none" fill-rule="evenodd">
        <g id="Dropdown" transform="translate(-1146.000000, -316.000000)">
            <g id="Help-Centre" transform="translate(1146.000000, 316.000000)">
                <path d="M9.33935812,11.7692308 C8.76925673,11.7692308 8.30769231,12.2412587 8.30769231,12.8076923 C8.30769231,13.3606228 8.75566527,13.8461538 9.33935812,13.8461538 C9.92305096,13.8461538 10.3846154,13.3606615 10.3846154,12.8076923 C10.3846154,12.2412587 9.90953739,11.7692308 9.33935812,11.7692308 Z" id="Path" fill="url(#linearGradient-1)"></path>
                <path d="M8.89191563,4.84615385 C7.06827775,4.84615385 6.23076923,5.81589699 6.23076923,6.47049535 C6.23076923,6.94328208 6.67651552,7.16146994 7.04126635,7.16146994 C7.7706905,7.16146994 7.47352631,6.22806825 8.85137915,6.22806825 C9.52681925,6.22806825 10.0671636,6.49476935 10.0671636,7.05237601 C10.0671636,7.70700914 9.31068927,8.0827694 8.86490423,8.42218819 C8.47318075,8.72523075 7.95984783,9.22225671 7.95984783,10.2647523 C7.95984783,10.8950767 8.14892765,11.0769231 8.70279706,11.0769231 C9.36471208,11.0769231 9.49976909,10.8102568 9.49976909,10.5799319 C9.49976909,9.94957276 9.51333292,9.58591474 10.2562822,9.06468432 C10.6209942,8.81012022 11.7692308,7.98581247 11.7692308,6.84632515 C11.7692308,5.70683784 10.6209942,4.84615385 8.89191563,4.84615385 Z" id="Path" fill="url(#linearGradient-2)"></path>
                <path d="M9,0 C4.02595313,0 0,4.02528516 0,9 L0,17.296875 C0,17.6852109 0.314789063,18 0.703125,18 L9,18 C13.9740117,18 18,13.9747148 18,9 C18,4.02595313 13.9747148,0 9,0 Z M9,16.59375 L1.40625,16.59375 L1.40625,9 C1.40625,4.80315234 4.80258984,1.40625 9,1.40625 C13.1968477,1.40625 16.59375,4.80258984 16.59375,9 C16.59375,13.1968477 13.1974102,16.59375 9,16.59375 Z" id="Shape" fill="url(#linearGradient-1)"></path>
            </g>
        </g>
    </g>
</svg>