<?xml version="1.0" encoding="UTF-8"?>
<svg width="22px" height="22px" viewBox="0 0 22 22" version="1.1" xmlns="http://www.w3.org/2000/svg" xmlns:xlink="http://www.w3.org/1999/xlink">
	<defs>
		<linearGradient x1="50%" y1="0%" x2="50%" y2="100%" id="linearGradient-1">
			<stop stop-color="#E4D3B4" offset="0%">
			</stop>
			<stop stop-color="#E4D3B4" offset="100%">
			</stop>
		</linearGradient>
	</defs>
	<path d="M12.3053545,0.517550681 L21.342514,8.70165067 C21.7611736,9.08079104 22,9.61927855 22,10.1841 L22,19.2970735 C22,20.401643 21.1045695,21.2970735 20,21.2970735 L14,21.297 L14,15.2970735 C14,14.2427117 13.1841222,13.3789083 12.1492623,13.3025592 L12,13.2970735 L10,13.2970735 C8.8954305,13.2970735 8,14.192504 8,15.2970735 L8,15.2970735 L8,21.297 L2,21.2970735 C0.8954305,21.2970735 1.3527075e-16,20.401643 0,19.2970735 L0,10.1795188 C-6.88438979e-17,9.61736567 0.236582981,9.08116703 0.651815859,8.70222409 L9.61465634,0.522705354 C10.3761706,-0.172255159 11.5411831,-0.174487018 12.3053545,0.517550681 Z" id="Combined-Shape" fill="url(#linearGradient-1)" fill-rule="nonzero">
	</path>
</svg>
