<?xml version="1.0" encoding="UTF-8"?>
<svg width="25px" height="26px" viewBox="0 0 25 26" version="1.1" xmlns="http://www.w3.org/2000/svg" xmlns:xlink="http://www.w3.org/1999/xlink">
	<defs>
		<linearGradient x1="50%" y1="0%" x2="50%" y2="100%" id="linearGradient-1">
			<stop stop-color="#8D9AA3" offset="0%">
			</stop>
			<stop stop-color="#8D9AA3" offset="100%">
			</stop>
		</linearGradient>
	</defs>
	<g stroke="none" stroke-width="1" fill="none" fill-rule="evenodd">
		<g stroke="url(#linearGradient-1)" stroke-width="1.8">
			<path d="M13.1954499,2.08879926 C12.9853028,1.8984889 12.72004,1.80364059 12.4549599,1.80414842 C12.1898797,1.80465624 11.9249823,1.90052019 11.7155659,2.09163433 L1.25849872,11.6347894 C1.03012064,11.8432081 0.9,12.1381173 0.9,12.4473015 L0.9,23.2012198 C0.9,23.5049765 1.02312169,23.7799765 1.22218254,23.9790373 C1.42124339,24.1780982 1.69624339,24.3012198 2,24.3012198 L8.19079457,24.3011557 L8.19642146,17.9304978 C8.24364531,17.1628858 8.58896365,16.4757274 9.11868639,15.9841902 C9.63618592,15.5039952 10.3292381,15.2103108 11.0909091,15.2103108 L14.0893773,15.2158523 C14.8567984,15.263189 15.5437754,15.6084742 16.0352114,16.1380881 C16.5154065,16.6555876 16.8090909,17.3486398 16.8090909,18.1103108 L16.8090115,24.3011557 L23.0000093,24.3012198 C23.3037566,24.3012198 23.5787566,24.1780982 23.7778175,23.9790373 C23.9768783,23.7799765 24.1,23.5049765 24.1,23.2012198 L24.1,12.4518828 C24.1,12.141231 23.9686455,11.8450628 23.7383827,11.6365356 L13.1954499,2.08879926 Z" id="Combined-Shape">
			</path>
		</g>
	</g>
</svg>
