<?xml version="1.0" encoding="UTF-8"?>
<svg width="18px" height="17px" viewBox="0 0 18 17" version="1.1" xmlns="http://www.w3.org/2000/svg" xmlns:xlink="http://www.w3.org/1999/xlink">
    <title>Invite Friends</title>
    <defs>
        <linearGradient x1="50%" y1="0%" x2="50%" y2="100%" id="linearGradient-1">
            <stop stop-color="#E4D3B4" offset="0%"></stop>
            <stop stop-color="#AA9979" offset="100%"></stop>
        </linearGradient>
    </defs>
    <g id="Owned-Hatchling" stroke="none" stroke-width="1" fill="none" fill-rule="evenodd">
        <g id="Dropdown" transform="translate(-1146.000000, -270.000000)" fill="url(#linearGradient-1)">
            <g id="Invite-Friends" transform="translate(1146.000000, 270.000000)">
                <path d="M17.296875,3.81445312 L16.6640625,3.81445312 L16.6640625,3.18164062 C16.6640625,2.79330469 16.3492734,2.47851562 15.9609375,2.47851562 C15.5726016,2.47851562 15.2578125,2.79330469 15.2578125,3.18164062 L15.2578125,3.81445312 L14.625,3.81445312 C14.2366641,3.81445312 13.921875,4.12924219 13.921875,4.51757812 C13.921875,4.90591406 14.2366641,5.22070312 14.625,5.22070312 L15.2578125,5.22070312 L15.2578125,5.85351562 C15.2578125,6.24185156 15.5726016,6.55664062 15.9609375,6.55664062 C16.3492734,6.55664062 16.6640625,6.24185156 16.6640625,5.85351562 L16.6640625,5.22070312 L17.296875,5.22070312 C17.6852109,5.22070312 18,4.90591406 18,4.51757812 C18,4.12924219 17.6852109,3.81445312 17.296875,3.81445312 Z" id="Path"></path>
                <path d="M11.0885977,8.09405859 C12.1589297,7.26718359 12.8496094,5.97164062 12.8496094,4.51757812 C12.8496094,2.02658203 10.8230273,0 8.33203125,0 C5.84103516,0 3.81445312,2.02658203 3.81445312,4.51757812 C3.81445312,5.97160547 4.50513281,7.26718359 5.57546484,8.09405859 C2.40092578,9.20366016 0,12.2493867 0,15.9609375 C0,16.3492734 0.314789062,16.6640625 0.703125,16.6640625 L15.9609375,16.6640625 C16.3492734,16.6640625 16.6640625,16.3492734 16.6640625,15.9609375 C16.6640625,12.2484727 14.2613437,9.20302734 11.0885977,8.09405859 Z M5.22070312,4.51757812 C5.22070312,2.80198828 6.61644141,1.40625 8.33203125,1.40625 C10.0476211,1.40625 11.4433594,2.80198828 11.4433594,4.51757812 C11.4433594,6.23316797 10.0476211,7.62890625 8.33203125,7.62890625 C6.61644141,7.62890625 5.22070312,6.23316797 5.22070312,4.51757812 Z M1.4416875,15.2578125 C1.79511328,11.7678516 4.75041797,9.03515625 8.33203125,9.03515625 C11.9136445,9.03515625 14.8689492,11.7678516 15.222375,15.2578125 L1.4416875,15.2578125 Z" id="Shape"></path>
            </g>
        </g>
    </g>
</svg>