<?xml version="1.0" encoding="UTF-8"?>
<svg width="18px" height="16px" viewBox="0 0 18 16" version="1.1" xmlns="http://www.w3.org/2000/svg" xmlns:xlink="http://www.w3.org/1999/xlink">
    <title>Shape</title>
    <g id="Comments" stroke="none" stroke-width="1" fill="none" fill-rule="evenodd">
        <g transform="translate(-51.000000, -361.000000)" fill="#68696C" fill-rule="nonzero" id="heart">
            <g transform="translate(51.000000, 361.000000)">
                <path d="M9,15.984 C8.74374391,15.984 8.49668885,15.8913407 8.30415343,15.7230188 C7.57699587,15.088385 6.87593078,14.4919937 6.2574005,13.9659192 L6.25424196,13.9631778 C4.44081115,12.4207298 2.87484743,11.0886841 1.78527832,9.77651356 C0.567306527,8.30959106 0,6.91874236 0,5.39932207 C0,3.92307878 0.507156363,2.56115185 1.42794802,1.56424217 C2.35972596,0.555544463 3.63825988,0 5.02844238,0 C6.06747438,0 7.01902772,0.3278713 7.85659788,0.974430204 C8.27929688,1.30079373 8.66244509,1.70021555 9,2.16611629 C9.33769227,1.70021555 9.72070312,1.30079373 10.1435394,0.974430204 C10.9811096,0.3278713 11.932663,0 12.9716949,0 C14.3617401,0 15.6404114,0.555544463 16.5721893,1.56424217 C17.492981,2.56115185 18,3.92307878 18,5.39932207 C18,6.91874236 17.4328308,8.30959106 16.214859,9.7763765 C15.1252899,11.0886841 13.5594635,12.4205927 11.7463074,13.9629037 C11.1266785,14.4898006 10.4245148,15.0871514 9.69570921,15.723293 C9.50331115,15.8913407 9.25611877,15.984 9,15.984 L9,15.984 Z M5.02844238,1.05242303 C3.93626405,1.05242303 2.93293761,1.487483 2.20303343,2.27755415 C1.46228027,3.07955038 1.0542755,4.18817207 1.0542755,5.39932207 C1.0542755,6.67722511 1.53012087,7.82011429 2.59703065,9.10500791 C3.62823486,10.3469987 5.16206359,11.6516304 6.93800353,13.1622782 L6.94129943,13.1650196 C7.56216429,13.6931501 8.26597596,14.2918716 8.99848937,14.9311658 C9.73539735,14.2906379 10.4403076,13.690957 11.0624084,13.162004 C12.8382111,11.6513562 14.3719025,10.3469987 15.4031067,9.10500791 C16.4698791,7.82011429 16.9457245,6.67722511 16.9457245,5.39932207 C16.9457245,4.18817207 16.5377197,3.07955038 15.7969666,2.27755415 C15.0671997,1.487483 14.063736,1.05242303 12.9716949,1.05242303 C12.1716156,1.05242303 11.4370422,1.30627652 10.7884369,1.80685598 C10.2104187,2.25315571 9.80776976,2.81733556 9.57170106,3.21209699 C9.45030213,3.4150976 9.23661805,3.53626743 9,3.53626743 C8.76338195,3.53626743 8.54969787,3.4150976 8.42829894,3.21209699 C8.19236756,2.81733556 7.78971864,2.25315571 7.2115631,1.80685598 C6.56295778,1.30627652 5.82838439,1.05242303 5.02844238,1.05242303 Z" id="Shape"></path>
            </g>
        </g>
    </g>
</svg>