<?xml version="1.0" encoding="UTF-8"?>
<svg width="18px" height="16px" viewBox="0 0 18 16" version="1.1" xmlns="http://www.w3.org/2000/svg" xmlns:xlink="http://www.w3.org/1999/xlink">
    <title>React/Like</title>
    <g id="Comments" stroke="none" stroke-width="1" fill="none" fill-rule="evenodd">
        <g transform="translate(-51.000000, -269.000000)" fill="#B02A43" fill-rule="nonzero" id="Group">
            <g transform="translate(51.000000, 269.000000)" id="Path">
                <path d="M16.572052,1.56719971 C15.640274,0.55659484 14.3617401,0 12.9716949,0 C11.932663,0 10.9811096,0.328491211 10.1434021,0.976272574 C9.72070313,1.30325316 9.33769227,1.70329286 9,2.1702118 C8.66244509,1.70343018 8.27929688,1.30325316 7.85646056,0.976272574 C7.0188904,0.328491211 6.06733703,0 5.02830506,0 C3.63825988,0 2.35958864,0.55659484 1.42781066,1.56719971 C0.507156363,2.56599425 0,3.93049621 0,5.40953065 C0,6.93182373 0.567306527,8.32530213 1.78527832,9.79499816 C2.87484743,11.1096496 4.44081115,12.4442139 6.25424196,13.9895782 C6.87345887,14.517334 7.57534788,15.1155396 8.30415343,15.7527466 C8.49668885,15.9213867 8.74374391,16.0142212 9,16.0142212 C9.25611877,16.0142212 9.50331115,15.9213867 9.69557189,15.7530213 C10.4243774,15.1156769 11.1266785,14.5171967 11.74617,13.9891662 C13.5593262,12.4440765 15.1252899,11.1096496 16.214859,9.79486084 C17.4328308,8.32530213 18,6.93182373 18,5.40939333 C18,3.93049621 17.4928436,2.56599425 16.572052,1.56719971 Z"></path>
            </g>
        </g>
    </g>
</svg>