<?xml version="1.0" encoding="UTF-8"?>
<svg width="80px" height="72px" viewBox="0 0 80 72" version="1.1" xmlns="http://www.w3.org/2000/svg" xmlns:xlink="http://www.w3.org/1999/xlink">
    <title>Path</title>
    <g id="Draft" stroke="none" stroke-width="1" fill="none" fill-rule="evenodd">
        <g id="Swanling-Details-Copy-3" transform="translate(-437.000000, -483.000000)" fill="#D9D9D9" fill-rule="nonzero">
            <path d="M510.653564,489.965332 C506.512329,485.473755 500.829956,483 494.651977,483 C490.034058,483 485.804932,484.459961 482.081787,487.338989 C480.203125,488.792236 478.500855,490.57019 477,492.645386 C475.499756,490.570801 473.796875,488.792236 471.917602,487.338989 C468.195068,484.459961 463.965942,483 459.348023,483 C453.170044,483 447.487061,485.473755 443.345825,489.965332 C439.254028,494.404419 437,500.468872 437,507.042358 C437,513.808105 439.521362,520.001343 444.93457,526.533325 C449.7771,532.376221 456.736938,538.307617 464.796631,545.175903 C467.548706,547.521484 470.668213,550.180176 473.907349,553.012207 C474.763062,553.761719 475.861084,554.174316 477,554.174316 C478.138306,554.174316 479.236938,553.761719 480.091431,553.013428 C483.330566,550.180786 486.451904,547.520874 489.2052,545.174072 C497.263672,538.307007 504.223511,532.376221 509.06604,526.532715 C514.479248,520.001343 517,513.808105 517,507.041748 C517,500.468872 514.745972,494.404419 510.653564,489.965332 Z" id="Path"></path>
        </g>
    </g>
</svg>