<?xml version="1.0" encoding="UTF-8"?>
<svg width="34px" height="31px" viewBox="0 0 34 31" version="1.1" xmlns="http://www.w3.org/2000/svg" xmlns:xlink="http://www.w3.org/1999/xlink">
    <title>React/Like Copy</title>
    <defs>
        <linearGradient x1="50%" y1="0%" x2="50%" y2="100%" id="linearGradient-1">
            <stop stop-color="#FF2D65" offset="0%"></stop>
            <stop stop-color="#B02A43" offset="100%"></stop>
        </linearGradient>
    </defs>
    <g id="Reacts" stroke="none" stroke-width="1" fill="none" fill-rule="evenodd">
        <g id="Like-Swanling-Copy-4" transform="translate(-36.000000, -579.000000)" fill="url(#linearGradient-1)" fill-rule="nonzero">
            <g id="Group-11" transform="translate(20.000000, 568.000000)">
                <g id="Path" transform="translate(16.000000, 11.000000)">
                    <path d="M31.3027649,2.96026611 C29.5427399,1.05134581 27.1277313,0 24.5020904,0 C22.5394745,0 20.7420959,0.620483398 19.1597596,1.84407042 C18.3613281,2.46170041 17.6378632,3.21733095 17,4.09928896 C16.3623963,3.21759033 15.6386719,2.46170041 14.8399811,1.84407042 C13.2579041,0.620483398 11.4605255,0 9.49790956,0 C6.87226866,0 4.45700077,1.05134581 2.69697569,2.96026611 C0.95796202,4.84687804 0,7.42427061 0,10.2180023 C0,13.0934448 1.071579,15.7255707 3.37219238,18.5016632 C5.43026737,20.9848938 8.38819884,23.5057373 11.8135681,26.4247589 C12.9832001,27.4216309 14.3089904,28.5515747 15.6856232,29.755188 C16.0493012,30.0737305 16.5159607,30.2490845 17,30.2490845 C17.4837799,30.2490845 17.9506988,30.0737305 18.313858,29.7557068 C19.6904907,28.5518341 21.0170594,27.4213715 22.1872101,26.4239807 C25.6120605,23.5054779 28.5699921,20.9848938 30.628067,18.5014038 C32.9286805,15.7255707 34,13.0934448 34,10.217743 C34,7.42427061 33.042038,4.84687804 31.3027649,2.96026611 Z"></path>
                </g>
            </g>
        </g>
    </g>
</svg>