<?xml version="1.0" encoding="UTF-8"?>
<svg width="49px" height="49px" viewBox="0 0 49 49" version="1.1" xmlns="http://www.w3.org/2000/svg" xmlns:xlink="http://www.w3.org/1999/xlink">
    <title>Group 4</title>
    <g id="Create-Moment" stroke="none" stroke-width="1" fill="none" fill-rule="evenodd">
        <g id="105_Add-Location-" transform="translate(-157.000000, -265.000000)">
            <g id="Group-4" transform="translate(157.000000, 265.000000)">
                <g id="Group-3" transform="translate(17.000000, 12.000000)" fill="#E3D2B3">
                    <path d="M12.31915,6.22222222 C11.8581092,6.56701156 11.2911133,6.81675564 10.6666667,6.93071662 C11.0754532,7.29441197 11.5783669,7.58198753 12.1436268,7.76917165 C12.5157602,7.89330981 12.9156005,7.97381347 13.3333333,8 C12.9921011,7.62902413 12.7158192,7.21416104 12.5174846,6.76704594 C12.4372342,6.59029171 12.3714043,6.40770529 12.31915,6.22222222" id="Fill-329"></path>
                    <path d="M10.5895997,9.20456911 C10.2437853,9.07934623 9.8840871,8.9702053 9.51203179,8.87641216 C9.1214614,8.77643823 8.71672876,8.69600868 8.29810207,8.63339724 L8.25951436,8.62720654 C7.44412838,8.52153796 6.6256686,8.19362904 6.08457413,7.64919427 C6.48929645,8.34706724 7.13408573,8.89720658 7.91369993,9.19541202 C6.44581952,9.07934623 5.29080801,7.89666372 5.29080801,6.45487442 C5.29080801,5.87950598 5.4740094,5.34743278 5.78842554,4.90445017 C5.94949134,4.67627707 6.14657647,4.47335292 6.37146003,4.30061837 C6.39306956,4.28427849 6.41648419,4.26621234 6.44118817,4.24839423 C6.67687133,4.06799075 6.94805808,3.92766811 7.24112255,3.83981765 C7.32937609,3.81160232 7.42072407,3.78932967 7.51385652,3.77101551 L7.51695096,3.77101551 C7.60365728,3.75171916 7.69062147,3.73711545 7.7806801,3.72647021 C7.90289001,3.71014024 8.02717319,3.70271934 8.15247754,3.70271934 C8.96322185,3.70271934 9.69497532,4.02616381 10.2157393,4.54660959 C10.6374501,4.96830173 10.9212519,5.52016733 10.9940744,6.13439633 C10.9956114,6.13588448 10.9956114,6.13909889 10.9940744,6.14058704 C11.1258049,6.11806637 11.2544513,6.08688466 11.3784766,6.04505772 C11.4034281,6.03763681 11.4278742,6.02872775 11.4528361,6.01957067 C11.8899779,5.86440622 12.27438,5.60529944 12.5738809,5.27269788 C12.6464353,5.19226833 12.7133372,5.10886247 12.7753395,5.02051596 C13.0681461,4.6017902 13.2400218,4.09620607 13.2400218,3.55373567 C13.2400218,3.23004317 13.1798143,2.91847414 13.0665989,2.63214413 C13.0076807,2.47870593 12.9333212,2.33097231 12.8448098,2.1908977 C12.8355471,2.1743197 12.8247475,2.15797982 12.8123903,2.14140182 C12.71179,1.99836083 12.5906012,1.86151055 12.4511449,1.73158512 C12.3101518,1.60041957 12.1629697,1.47668484 12.0109087,1.35740465 C11.9566219,1.31557771 11.9007878,1.27523892 11.8452116,1.23490013 C11.3735874,0.893637544 10.8512659,0.613498242 10.291646,0.40610964 C9.48270678,0.107904196 8.59605576,-0.036615024 7.66901194,0.00793026995 C4.30818797,0.170515632 1.62328339,2.86624999 1.58597471,6.10148837 C1.56744931,7.74174729 2.23256908,9.21619652 3.38114415,10.3256224 C3.64616264,10.5820108 3.93613266,10.819083 4.25080667,11.0338925 C4.38254746,11.1247193 4.5189196,11.2113296 4.66017065,11.2932473 C5.53909587,11.8107168 6.57446587,12.1668312 7.71840958,12.3190292 C7.81309956,12.334129 7.90777923,12.3489708 8.00221134,12.3682771 C9.04992817,12.5652685 10.1058762,12.9795397 10.8870376,13.6519256 C10.1305802,13.1884065 9.23929782,12.9124737 8.28112389,12.8916892 C8.24098895,12.8902011 8.20213305,12.8902011 8.16199811,12.8902011 C8.02717319,12.8902011 7.8920904,12.8946556 7.7588127,12.906283 C5.84914884,13.0498201 4.23666506,14.2097339 3.50670637,15.8245058 C3.56254045,15.9898194 3.63072136,16.1509166 3.7097122,16.306091 C3.76554629,16.4177022 3.82601172,16.5265852 3.89110851,16.6325018 C4.40570421,17.4689712 5.20410169,18.1247791 6.15893362,18.4751988 C6.39153266,18.5632973 6.6349313,18.6318514 6.88605574,18.6798591 C6.58372857,18.6647593 6.28938506,18.6187358 6.0055833,18.5467193 C5.27073538,18.3618513 4.61025727,18.0027706 4.07250481,17.5164828 C3.75010501,17.2271865 3.47248182,16.8933448 3.25095058,16.5236188 C3.20747364,16.4520983 3.16732839,16.3805779 3.1284828,16.306091 C2.81818228,15.7185792 2.64475933,15.0551024 2.64475933,14.3512867 C2.64475933,13.8726679 2.72529739,13.4118771 2.87581114,12.9810179 C1.74267735,13.7088424 0.970778631,14.917756 0.878925221,16.306091 C0.871467611,16.4001222 0.868115297,16.4939154 0.868115297,16.5891967 C0.868115297,16.9903523 0.925754472,17.3781444 1.03253342,17.7461441 C0.595381325,17.3496811 0.242109292,16.869584 0,16.33133 C0.0156888307,20.8014552 4.0151235,24.3856251 8.75558466,23.9666513 C13.0542521,23.5850499 16.2133492,20.0379945 15.9887339,15.8915717 C15.8212316,12.8154662 13.7965576,10.3627467 10.5895997,9.20456911 Z" id="Fill-330"></path>
                </g>
                <circle id="Oval" stroke-opacity="0.4" stroke="#8D9AA3" stroke-width="5" cx="24.5" cy="24.5" r="22"></circle>
                <path d="M24.5,2.27373675e-13 C28.3472285,2.27373675e-13 31.9873433,0.886759113 35.2271025,2.46703546 L32.7332222,6.81821072 C30.2319365,5.65154306 27.4420563,5 24.5,5 C21.527835,5 18.7109766,5.66494698 16.1900747,6.85419117 L13.6716189,2.51672688 C16.9367184,0.905360286 20.6126301,2.27373675e-13 24.5,2.27373675e-13 Z" id="Combined-Shape" fill="#E3D2B3"></path>
            </g>
        </g>
    </g>
</svg>