<?xml version="1.0" encoding="UTF-8"?>
<svg width="19px" height="24px" viewBox="0 0 19 24" version="1.1" xmlns="http://www.w3.org/2000/svg" xmlns:xlink="http://www.w3.org/1999/xlink">
    <title>padlock (4)</title>
    <defs>
        <linearGradient x1="50%" y1="0%" x2="50%" y2="100%" id="linearGradient-1">
            <stop stop-color="#E4D3B4" offset="0%"></stop>
            <stop stop-color="#AA9979" offset="100%"></stop>
        </linearGradient>
        <linearGradient x1="50%" y1="0%" x2="50%" y2="100%" id="linearGradient-2">
            <stop stop-color="#E4D3B4" offset="0%"></stop>
            <stop stop-color="#AA9979" offset="100%"></stop>
        </linearGradient>
    </defs>
    <g id="Owned-Hatchling" stroke="none" stroke-width="1" fill="none" fill-rule="evenodd">
        <g id="Locked-Delisted-Hatchling" transform="translate(-263.000000, -995.000000)" fill-rule="nonzero">
            <g id="Mobile-Coin/-Swipe-Copy-2" transform="translate(255.000000, 991.000000)">
                <g id="padlock-(4)" transform="translate(8.000000, 4.000000)">
                    <path d="M16.2058824,8.75490196 L14.5276887,8.75490196 L14.5276887,4.92556373 C14.5276887,2.20958824 12.2714853,0 9.49827696,0 C6.72506863,0 4.4688652,2.20958824 4.4688652,4.92556373 L4.4688652,8.75490196 L2.79411765,8.75490196 C1.25344118,8.75490196 0,10.0083431 0,11.5490196 L0,21.0490196 C0,22.5896961 1.25344118,23.8431373 2.79411765,23.8431373 L16.2058824,23.8431373 C17.7465588,23.8431373 19,22.5896961 19,21.0490196 L19,11.5490196 C19,10.0083431 17.7465588,8.75490196 16.2058824,8.75490196 Z M6.33161029,4.92556373 C6.33161029,3.23670588 7.75218627,1.8627451 9.49827696,1.8627451 C11.2443676,1.8627451 12.6649436,3.23670588 12.6649436,4.92556373 L12.6649436,8.75490196 L6.33161029,8.75490196 L6.33161029,4.92556373 Z M17.1372549,21.0490196 C17.1372549,21.5625784 16.7194412,21.9803922 16.2058824,21.9803922 L2.79411765,21.9803922 C2.28055882,21.9803922 1.8627451,21.5625784 1.8627451,21.0490196 L1.8627451,11.5490196 C1.8627451,11.0354608 2.28055882,10.6176471 2.79411765,10.6176471 L16.2058824,10.6176471 C16.7194412,10.6176471 17.1372549,11.0354608 17.1372549,11.5490196 L17.1372549,21.0490196 Z" id="Shape" fill="url(#linearGradient-1)"></path>
                    <path d="M9.5,13.3186275 C8.5483701,13.3186275 7.77696078,14.0900368 7.77696078,15.0416667 C7.77696078,15.6492941 8.09176471,16.1830637 8.56690441,16.4898578 L8.56690441,18.5343137 C8.56690441,19.0486642 8.9838799,19.4656863 9.49827696,19.4656863 C10.0126275,19.4656863 10.4296495,19.0486642 10.4296495,18.5343137 L10.4296495,16.4920466 C10.9066985,16.185625 11.2230392,15.6507843 11.2230392,15.0416667 C11.2230392,14.0900368 10.4516299,13.3186275 9.5,13.3186275 Z" id="Path" fill="url(#linearGradient-2)"></path>
                </g>
            </g>
        </g>
    </g>
</svg>