<?xml version="1.0" encoding="UTF-8"?>
<svg width="18px" height="18px" viewBox="0 0 18 18" version="1.1" xmlns="http://www.w3.org/2000/svg" xmlns:xlink="http://www.w3.org/1999/xlink">
    <title>logout</title>
    <defs>
        <linearGradient x1="50%" y1="0%" x2="50%" y2="100%" id="linearGradient-1">
            <stop stop-color="#E4D3B4" offset="0%"></stop>
            <stop stop-color="#AA9979" offset="100%"></stop>
        </linearGradient>
        <linearGradient x1="50%" y1="0%" x2="50%" y2="100%" id="linearGradient-2">
            <stop stop-color="#E4D3B4" offset="0%"></stop>
            <stop stop-color="#AA9979" offset="100%"></stop>
        </linearGradient>
    </defs>
    <g id="Owned-Hatchling" stroke="none" stroke-width="1" fill="none" fill-rule="evenodd">
        <g id="Dropdown" transform="translate(-1147.000000, -408.000000)">
            <g id="logout" transform="translate(1147.000000, 408.000000)">
                <path d="M8.97011719,16.4452148 L2.24251172,16.4452148 C1.82988281,16.4452148 1.49501953,16.1103164 1.49501953,15.6977227 L1.49501953,2.24254688 C1.49501953,1.82991797 1.82991797,1.49505469 2.24251172,1.49505469 L8.97011719,1.49505469 C9.38348438,1.49505469 9.71760938,1.16092969 9.71760938,0.7475625 C9.71760938,0.334195313 9.38348438,0 8.97011719,0 L2.24251172,0 C1.00613672,0 0,1.00617187 0,2.24254688 L0,15.6976875 C0,16.9340625 1.00613672,17.9401992 2.24251172,17.9401992 L8.97011719,17.9401992 C9.38348438,17.9401992 9.71760938,17.6060742 9.71760938,17.192707 C9.71760938,16.7793398 9.38348438,16.4452148 8.97011719,16.4452148 Z" id="Path" fill="url(#linearGradient-1)"></path>
                <path d="M17.77725,8.43788672 L13.2323906,3.95282813 C12.9393633,3.66278906 12.465457,3.66655078 12.175418,3.96031641 C11.8853789,4.25408203 11.8883672,4.72725 12.1829063,5.01728906 L15.4308164,8.22258984 L6.72757031,8.22258984 C6.31420312,8.22258984 5.98007813,8.55671484 5.98007813,8.97008203 C5.98007813,9.38344922 6.31420312,9.71760938 6.72757031,9.71760938 L15.4308164,9.71760938 L12.1829063,12.9229102 C11.8884023,13.2129492 11.8861523,13.6861172 12.175418,13.9798828 C12.3219141,14.1278906 12.5147813,14.2026328 12.7076484,14.2026328 C12.8975273,14.2026328 13.0873711,14.1308789 13.2323906,13.9873359 L17.77725,9.50227734 C17.9192813,9.36175781 18,9.17036719 18,8.97004688 C18,8.76979688 17.9200195,8.57917969 17.77725,8.43788672 Z" id="Path" fill="url(#linearGradient-2)"></path>
            </g>
        </g>
    </g>
</svg>