<?xml version="1.0" encoding="UTF-8"?>
<svg width="27px" height="43px" viewBox="0 0 27 43" version="1.1" xmlns="http://www.w3.org/2000/svg" xmlns:xlink="http://www.w3.org/1999/xlink">
	<defs>
		<polygon id="path-1" points="-4.79616346e-14 0 26.9367069 0 26.9367069 42.818669 -4.79616346e-14 42.818669">
		</polygon>
		<polygon id="path-3" points="-4.79616346e-14 0 26.9367069 0 26.9367069 42.818669 -4.79616346e-14 42.818669">
		</polygon>
	</defs>
	<g stroke="none" stroke-width="1" fill="none" fill-rule="evenodd">
		<g>
			<mask id="mask-2" fill="white">
				<use xlink:href="#path-1">
				</use>
			</mask>
			<g id="path-1">
			</g>
			<path d="M21.3588984,10.5455995 C20.6670234,11.1734425 19.8163125,11.6282105 18.8793281,11.8357285 C19.4927344,12.4980145 20.2472578,13.0220985 21.0954375,13.362508 C21.6537891,13.5890105 22.2536953,13.735146 22.8801797,13.782833 C22.3686563,13.107303 21.9535313,12.3518575 21.6565313,11.5376955 C21.5360859,11.2162705 21.4371563,10.8833645 21.3588984,10.5455995" id="Fill-501" fill="#182027" fill-rule="nonzero" mask="url(#mask-2)">
			</path>
		</g>
		<g>
			<mask id="mask-4" fill="white">
				<use xlink:href="#path-3">
				</use>
			</mask>
			<g id="path-1">
			</g>
			<path d="M26.9177344,28.3522005 C26.6359219,22.864089 23.2271719,18.4886025 17.8275938,16.4218505 C17.2458281,16.198444 16.6402266,16.00374 16.0139531,15.8364055 C15.35625,15.65802 14.6749219,15.514529 13.9701797,15.402815 L13.9052109,15.3917855 C12.5324297,15.203252 11.1539531,14.618237 10.2435469,13.6468885 C10.924875,14.8924265 12.0103594,15.873493 13.3230234,16.4055105 C10.8516797,16.198444 8.90704688,14.088864 8.90704688,11.516561 C8.90704688,10.4895705 9.21522656,9.5403025 9.74489063,8.749984 C10.0161563,8.343333 10.3479609,7.9808645 10.7265938,7.6726835 C10.762875,7.6435295 10.8018984,7.611301 10.843875,7.5795025 C11.2406484,7.2580775 11.6973281,7.0073015 12.1902891,6.8505665 C12.3392109,6.800235 12.4929844,6.7604815 12.6497109,6.728253 L12.6549844,6.728253 C12.8009531,6.6938315 12.9473438,6.667322 13.0985859,6.648789 C13.3046719,6.619205 13.5139219,6.605961 13.7248594,6.605961 C15.0898359,6.605961 16.3219219,7.1834725 17.1985781,8.1115415 C17.9085938,8.8643425 18.3863672,9.8484835 18.5089219,10.9443385 C18.5116641,10.946983 18.5116641,10.9527235 18.5089219,10.9553895 C18.7308281,10.915206 18.94725,10.859564 19.1560781,10.784959 C19.1976328,10.771715 19.2393984,10.755805 19.281375,10.7394865 C20.0173359,10.4630825 20.6644922,10.000381 21.1686328,9.4069595 C21.1709531,9.4069595 21.1686328,9.404315 21.1686328,9.404315 C21.2907656,9.2634685 21.4034063,9.1146885 21.5073984,8.957502 C22.0007813,8.2100115 22.2901875,7.308409 22.2901875,6.3401565 C22.2901875,5.762645 22.1887266,5.206784 21.99825,4.695944 C21.8991094,4.422206 21.7738125,4.158616 21.6248906,3.9087 C21.6092813,3.879116 21.5911406,3.8499835 21.5702578,3.820851 C21.4004531,3.5651945 21.1968984,3.3210405 20.962125,3.089249 C20.7246094,2.855243 20.4765469,2.634481 20.2208906,2.421674 C20.1295547,2.347499 20.0354766,2.275087 19.9420313,2.2035565 C19.1478516,1.5942465 18.2686641,1.0944575 17.3264063,0.724464 C15.9639609,0.1928765 14.4717891,-0.0654245 12.9106406,0.0140395 C7.252875,0.304569 2.73269531,5.1136245 2.66941406,10.886052 C2.63861719,13.81203 3.75785156,16.442598 5.69214844,18.4219525 C6.13828125,18.879795 6.62596875,19.3023345 7.15626563,19.685572 C7.37796094,19.8476175 7.60767188,20.002138 7.84497656,20.148295 C9.32470313,21.071505 11.0683125,21.707303 12.9941719,21.9783965 C13.1536406,22.005336 13.3128984,22.031824 13.4719453,22.066697 C15.2358047,22.417706 17.0135859,23.1568115 18.3287813,24.3564255 C17.0547188,23.5294495 15.5547422,23.037164 13.9414922,23.0000765 C13.8739922,22.997432 13.8086016,22.997432 13.7404688,22.997432 C13.5139219,22.997432 13.2865313,23.0053655 13.0620938,23.0265645 C9.84677344,23.2821995 7.13242969,25.3516175 5.90308594,28.2325315 C5.99695313,28.5274685 6.11233594,28.814902 6.24522656,29.091736 C6.33930469,29.291299 6.44097656,29.485143 6.55024219,29.6741065 C7.41698438,31.166443 8.76107813,32.3369245 10.3686328,32.9621015 C10.7603438,33.118858 11.1699844,33.24115 11.5929141,33.326806 C11.0839219,33.2998665 10.5882188,33.217758 10.1104453,33.089704 C8.87329688,32.759894 7.76144531,32.118807 6.85610156,31.251669 C6.31335938,30.7355185 5.84592188,30.139904 5.47298438,29.480284 C5.39978906,29.3526815 5.33165625,29.2246275 5.2666875,29.091736 C4.74419531,28.043568 4.45225781,26.8598425 4.45225781,25.6041565 C4.45225781,24.7502625 4.58789063,23.9281455 4.84122656,23.159456 C2.93350781,24.45797 1.63371094,26.614807 1.47951563,29.091736 C1.4664375,29.259522 1.46116406,29.4268565 1.46116406,29.5968355 C1.46116406,30.312549 1.55777344,31.0043975 1.738125,31.6613945 C1.00216406,30.954066 0.407320313,30.097076 -0.0002109375,29.1367785 C0.02615625,37.111967 6.75949219,43.5065185 14.7403125,42.759458 C21.9773672,42.0781875 27.2959453,35.7498775 26.9177344,28.3522005" id="Fill-503" fill="#182027" fill-rule="nonzero" mask="url(#mask-4)">
			</path>
		</g>
	</g>
</svg>
