<?xml version="1.0" encoding="UTF-8"?>
<svg width="22px" height="22px" viewBox="0 0 22 22" version="1.1" xmlns="http://www.w3.org/2000/svg" xmlns:xlink="http://www.w3.org/1999/xlink">
	<g stroke="none" stroke-width="1" fill="none" fill-rule="evenodd">
		<g transform="translate(-51.000000, -300.000000)">
			<g transform="translate(51.000000, 300.000000)" fill="#DEE3E8">
				<g transform="translate(0.000000, -0.000000)" id="Shape">
					<path d="M4.92407666,21.1042408 C4.68304264,21.1042408 4.44368711,21.0290435 4.23941246,20.8813346 C3.8588943,20.6055555 3.68114009,20.1315443 3.78470414,19.6741503 L5.20002369,13.439661 L0.400156762,9.23029384 C0.0473339579,8.92228726 -0.0874503554,8.43451226 0.0574050603,7.98819651 C0.202260433,7.54271996 0.596374559,7.22732794 1.06300031,7.18419024 L7.4138104,6.60762212 L9.92469338,0.731662479 C10.109833,0.299949731 10.5314747,0.0211492463 10.9999468,0.0211492463 C11.4684189,0.0211492463 11.8900606,0.299949731 12.0752003,0.730655352 L14.5860833,6.60762212 L20.9358862,7.18419024 C21.4035191,7.22632085 21.7976332,7.54271996 21.9424886,7.98819651 C22.087344,8.43367302 21.9533989,8.92228726 21.6005761,9.23029384 L16.8007092,13.4388217 L18.2160288,19.6731432 C18.3197607,20.1315443 18.1418386,20.6055555 17.7614883,20.8804954 C17.3819772,21.1554353 16.8759064,21.1765846 16.4762532,20.9363898 L10.9999468,17.663799 L5.5236404,20.9382361 C5.33850075,21.0481786 5.13221189,21.1042408 4.92407666,21.1042408 Z M10.9999468,16.2540185 C11.2080821,16.2540185 11.414203,16.3099129 11.5995105,16.4198553 L16.7678104,19.5109992 L15.4320522,13.626647 C15.3367129,13.2078588 15.4788826,12.7706069 15.8024993,12.4872745 L20.334644,8.512563 L14.338503,7.96805439 C13.9067903,7.9286094 13.5355039,7.65719436 13.3668137,7.25938749 L10.9999468,1.71426216 L8.63022654,7.26022677 C8.46338267,7.65534798 8.09209624,7.92676303 7.66139062,7.96620802 L1.66441042,8.51071663 L6.19638717,12.4854281 C6.52101097,12.7695998 6.66301293,13.2060124 6.56683432,13.6258077 L5.23208324,19.509992 L10.4003831,16.4198553 C10.5855227,16.3099129 10.7918116,16.2540185 10.9999468,16.2540185 Z" fill-rule="nonzero">
					</path>
				</g>
			</g>
		</g>
	</g>
</svg>
