<?xml version="1.0" encoding="UTF-8"?>
<svg width="22px" height="21px" viewBox="0 0 22 21" version="1.1" xmlns="http://www.w3.org/2000/svg" xmlns:xlink="http://www.w3.org/1999/xlink">
	<g stroke="none" stroke-width="1" fill="none" fill-rule="evenodd">
		<g transform="translate(-51.000000, -300.000000)">
			<g transform="translate(51.000000, 300.000000)" fill="#DEE3E8">
				<g>
					<path d="M21.9684041,7.97424705 C21.8926076,7.74073217 21.6909561,7.57055138 21.4481837,7.53529412 L14.628084,6.54357609 L11.5779604,0.359495096 C11.4694218,0.139352184 11.2453407,0 11.0000331,0 C10.7546826,0 10.5306445,0.139352184 10.422063,0.359495096 L7.3718104,6.54357609 L0.551839622,7.53529412 C0.309110193,7.57055138 0.107372776,7.74073217 0.0315762255,7.97420405 C-0.0442632933,8.20771892 0.0189864357,8.46402203 0.194684902,8.63536373 L5.12953876,13.4490121 L3.96474687,20.2460535 C3.92323924,20.4880387 4.0226685,20.7325178 4.22114031,20.8768576 C4.33341717,20.9584652 4.46640488,21 4.60003712,21 C4.70264606,21 4.80559874,20.9755349 4.89987177,20.9259168 L11,17.7167318 L17.0998508,20.9258738 C17.3170569,21.0401159 17.5801534,21.0211114 17.7786252,20.8768146 C17.977097,20.7325178 18.0765692,20.4879527 18.0351046,20.2459675 L16.869926,13.4490121 L21.8053384,8.63532073 C21.9809939,8.46402203 22.0442866,8.20771892 21.9684041,7.97424705 Z" fill-rule="nonzero">
					</path>
				</g>
			</g>
		</g>
	</g>
</svg>
