<?xml version="1.0" encoding="UTF-8"?>
<svg width="40px" height="40px" viewBox="0 0 40 40" version="1.1" xmlns="http://www.w3.org/2000/svg" xmlns:xlink="http://www.w3.org/1999/xlink">
	<g id="Page-1" stroke="none" stroke-width="1" fill="none" fill-rule="evenodd">
		<circle id="Oval" stroke="#444B52" fill-rule="nonzero" cx="20" cy="20" r="19">
		</circle>
		<g id="multiple-images" transform="translate(10.000000, 10.000000)" fill="#FFFFFF" fill-opacity="0.3" fill-rule="nonzero">
			<path d="M18.3401888,4.26325641e-14 C19.2555939,4.26325641e-14 20,0.744569822 20,1.65952466 L20,1.65952466 L20,12.1060947 C20,13.0210495 19.2555939,13.7656193 18.3402298,13.7656193 L18.3402298,13.7656193 L16.8833417,13.7656193 L16.8833417,15.2229985 C16.8833417,16.1379124 16.1390175,16.882605 15.2238171,16.882605 L15.2238171,16.882605 L13.7659877,16.882605 L13.7659877,18.3399842 C13.7659877,19.2548163 13.0215816,19.9995089 12.1065449,19.9995089 L12.1065449,19.9995089 L1.65960651,19.9995089 C0.744242394,19.9995089 0,19.2548163 0,18.3399842 L0,18.3399842 L0,7.89329142 C0,6.97845937 0.744242394,6.23376677 1.65960651,6.23376677 L1.65960651,6.23376677 L3.11649456,6.23376677 L3.11649456,4.77614201 C3.11649456,3.86118717 3.86090067,3.11649456 4.77618293,3.11649456 L4.77618293,3.11649456 L6.23368491,3.11649456 L6.23368491,1.65952466 C6.23368491,0.74461075 6.97809102,4.26325641e-14 7.89337328,4.26325641e-14 L7.89337328,4.26325641e-14 Z M15.2238171,4.52275416 L4.77618293,4.52275416 C4.63669888,4.52275416 4.52287694,4.63628959 4.52287694,4.77610108 L4.52287694,4.77610108 L4.52287694,6.23376677 L12.1065039,6.23376677 C13.0215406,6.23376677 13.7659467,6.97845937 13.7659467,7.89329142 L13.7659467,7.89329142 L13.7659467,15.4763454 L15.2237761,15.4763454 C15.3631374,15.4763454 15.4770821,15.3628509 15.4770821,15.2229985 L15.4770821,15.2229985 L15.4770821,4.77610108 C15.4770821,4.63633052 15.3631374,4.52275416 15.2238171,4.52275416 L15.2238171,4.52275416 Z M12.1065039,7.63990357 L1.65956559,7.63990357 C1.52012246,7.63990357 1.40613681,7.75360272 1.40613681,7.89329142 L1.40613681,7.89329142 L1.40613681,14.7843277 L3.54493327,11.3127382 C3.64786824,11.1465688 3.83184149,11.0490363 4.02895276,11.0631566 C4.22409947,11.0761719 4.39628534,11.1963787 4.47613668,11.3748266 L4.47613668,11.3748266 L5.80127615,14.3506911 L6.98836405,13.4038121 C7.20794502,13.2281064 7.52808713,13.2565925 7.71484351,13.4693794 L7.71484351,13.4693794 L9.1746784,15.1437611 L12.3599327,15.3802455 L12.3599327,7.89329142 C12.3599327,7.75360272 12.2458652,7.63990357 12.1065039,7.63990357 L12.1065039,7.63990357 Z M18.3401888,1.40617774 L7.89337328,1.40617774 C7.75397108,1.40617774 7.63998543,1.51983596 7.63998543,1.65952466 L7.63998543,1.65952466 L7.63998543,3.11645363 L15.2238171,3.11645363 C16.1390584,3.11645363 16.8833417,3.86118717 16.8833417,4.77610108 L16.8833417,4.77610108 L16.8833417,12.3594416 L18.3402298,12.3594416 C18.4797138,12.3594416 18.5936995,12.2457833 18.5936995,12.1060947 L18.5936995,12.1060947 L18.5936995,1.65952466 C18.5936995,1.51983596 18.4796729,1.40617774 18.3401888,1.40617774 L18.3401888,1.40617774 Z" id="Combined-Shape">
			</path>
		</g>
	</g>
</svg>
