<?xml version="1.0" encoding="UTF-8"?>
<svg width="40px" height="40px" viewBox="0 0 40 40" version="1.1" xmlns="http://www.w3.org/2000/svg" xmlns:xlink="http://www.w3.org/1999/xlink">
	<defs>
		<linearGradient x1="50%" y1="0%" x2="50%" y2="100%" id="linearGradient-1">
			<stop stop-color="#E4D3B4" offset="0%">
			</stop>
			<stop stop-color="#AA9979" offset="100%">
			</stop>
		</linearGradient>
	</defs>
	<g id="Page-1" stroke="none" stroke-width="1" fill="none" fill-rule="evenodd">
		<circle id="Oval" stroke="#C5B495" fill="#161F27" fill-rule="nonzero" cx="20" cy="20" r="19">
		</circle>
		<path d="M28.3401888,10 C29.2555939,10 30,10.7445698 30,11.6595247 L30,11.6595247 L30,22.1060947 C30,23.0210495 29.2555939,23.7656193 28.3402298,23.7656193 L28.3402298,23.7656193 L26.8833417,23.7656193 L26.8833417,25.2229985 C26.8833417,26.1379124 26.1390175,26.882605 25.2238171,26.882605 L25.2238171,26.882605 L23.7659877,26.882605 L23.7659877,28.3399842 C23.7659877,29.2548163 23.0215816,29.9995089 22.1065449,29.9995089 L22.1065449,29.9995089 L11.6596065,29.9995089 C10.7442424,29.9995089 10,29.2548163 10,28.3399842 L10,28.3399842 L10,17.8932914 C10,16.9784594 10.7442424,16.2337668 11.6596065,16.2337668 L11.6596065,16.2337668 L13.1164946,16.2337668 L13.1164946,14.776142 C13.1164946,13.8611872 13.8609007,13.1164946 14.7761829,13.1164946 L14.7761829,13.1164946 L16.2336849,13.1164946 L16.2336849,11.6595247 C16.2336849,10.7446108 16.978091,10 17.8933733,10 L17.8933733,10 Z M25.2238171,14.5227542 L14.7761829,14.5227542 C14.6366989,14.5227542 14.5228769,14.6362896 14.5228769,14.7761011 L14.5228769,14.7761011 L14.5228769,16.2337668 L22.1065039,16.2337668 C23.0215406,16.2337668 23.7659467,16.9784594 23.7659467,17.8932914 L23.7659467,17.8932914 L23.7659467,25.4763454 L25.2237761,25.4763454 C25.3631374,25.4763454 25.4770821,25.3628509 25.4770821,25.2229985 L25.4770821,25.2229985 L25.4770821,14.7761011 C25.4770821,14.6363305 25.3631374,14.5227542 25.2238171,14.5227542 L25.2238171,14.5227542 Z M22.1065039,17.6399036 L11.6595656,17.6399036 C11.5201225,17.6399036 11.4061368,17.7536027 11.4061368,17.8932914 L11.4061368,17.8932914 L11.4061368,24.7843277 L13.5449333,21.3127382 C13.6478682,21.1465688 13.8318415,21.0490363 14.0289528,21.0631566 C14.2240995,21.0761719 14.3962853,21.1963787 14.4761367,21.3748266 L14.4761367,21.3748266 L15.8012761,24.3506911 L16.9883641,23.4038121 C17.207945,23.2281064 17.5280871,23.2565925 17.7148435,23.4693794 L17.7148435,23.4693794 L19.1746784,25.1437611 L22.3599327,25.3802455 L22.3599327,17.8932914 C22.3599327,17.7536027 22.2458652,17.6399036 22.1065039,17.6399036 L22.1065039,17.6399036 Z M28.3401888,11.4061777 L17.8933733,11.4061777 C17.7539711,11.4061777 17.6399854,11.519836 17.6399854,11.6595247 L17.6399854,11.6595247 L17.6399854,13.1164536 L25.2238171,13.1164536 C26.1390584,13.1164536 26.8833417,13.8611872 26.8833417,14.7761011 L26.8833417,14.7761011 L26.8833417,22.3594416 L28.3402298,22.3594416 C28.4797138,22.3594416 28.5936995,22.2457833 28.5936995,22.1060947 L28.5936995,22.1060947 L28.5936995,11.6595247 C28.5936995,11.519836 28.4796729,11.4061777 28.3401888,11.4061777 L28.3401888,11.4061777 Z" id="Combined-Shape" fill="url(#linearGradient-1)">
		</path>
	</g>
</svg>
