<?xml version="1.0" encoding="UTF-8"?>
<svg width="20px" height="20px" viewBox="0 0 20 20" version="1.1" xmlns="http://www.w3.org/2000/svg" xmlns:xlink="http://www.w3.org/1999/xlink">
    <title>My wallet</title>
    <defs>
        <linearGradient x1="50%" y1="0%" x2="50%" y2="100%" id="linearGradient-1">
            <stop stop-color="#E4D3B4" offset="0%"></stop>
            <stop stop-color="#AA9979" offset="100%"></stop>
        </linearGradient>
        <linearGradient x1="50%" y1="0%" x2="50%" y2="100%" id="linearGradient-2">
            <stop stop-color="#E4D3B4" offset="0%"></stop>
            <stop stop-color="#AA9979" offset="100%"></stop>
        </linearGradient>
    </defs>
    <g id="Owned-Hatchling" stroke="none" stroke-width="1" fill="none" fill-rule="evenodd">
        <g id="Dropdown" transform="translate(-1144.000000, -130.000000)">
            <g id="My-wallet" transform="translate(1144.000000, 130.000000)">
                <path d="M18.203125,6.87529111 L15,6.87529111 L15,1.40755674 C15,0.91661924 14.7506641,0.46943174 14.3330469,0.21130674 C13.9155078,-0.0467791979 13.4040234,-0.0698260729 12.9648828,0.14974424 C12.9592578,0.15255674 12.9537109,0.155447365 12.9481641,0.158416115 L1.35519531,6.39755674 C0.519296875,6.84743955 0,7.7166583 0,8.66591611 L0,8.67216611 L0,9.06279111 L0,18.2034161 C0,19.1941974 0.80609375,20.0002911 1.796875,20.0002911 L18.203125,20.0002911 C19.1939062,20.0002911 20,19.1941974 20,18.2034161 L20,8.67216611 C20,7.68138486 19.1939062,6.87529111 18.203125,6.87529111 L18.203125,6.87529111 Z M13.5293359,1.26517393 C13.5913281,1.2366583 13.6430469,1.25439268 13.6758594,1.27466611 C13.7096875,1.29556455 13.7499609,1.33560361 13.7499609,1.4075958 L13.7499609,6.87533018 L3.10515625,6.87533018 L13.5293359,1.26517393 Z M18.75,18.2034161 C18.75,18.5049786 18.5046875,18.7502911 18.203125,18.7502911 L1.796875,18.7502911 C1.4953125,18.7502911 1.25,18.5049786 1.25,18.2034161 L1.25,9.06279111 L1.25,8.67216611 C1.25,8.37060361 1.4953125,8.12529111 1.796875,8.12529111 L18.203125,8.12529111 C18.5046875,8.12529111 18.75,8.37060361 18.75,8.67216611 L18.75,18.2034161 Z" id="Shape" fill="url(#linearGradient-1)"></path>
                <path d="M16.25,14.6877911 C15.5607422,14.6877911 15,14.1270489 15,13.4377911 C15,12.7485333 15.5607422,12.1877911 16.25,12.1877911 C16.9392578,12.1877911 17.5,12.7485333 17.5,13.4377911 C17.5,14.1270489 16.9392187,14.6877911 16.25,14.6877911 Z" id="Shape" fill="url(#linearGradient-2)"></path>
            </g>
        </g>
    </g>
</svg>