<?xml version="1.0" encoding="UTF-8"?>
<svg width="22px" height="22px" viewBox="0 0 22 22" version="1.1" xmlns="http://www.w3.org/2000/svg" xmlns:xlink="http://www.w3.org/1999/xlink">
    <title>icn/logout</title>
    <defs>
        <linearGradient x1="50%" y1="0%" x2="50%" y2="100%" id="linearGradient-1">
            <stop stop-color="#E4D3B4" offset="0%"></stop>
            <stop stop-color="#AA9979" offset="100%"></stop>
        </linearGradient>
    </defs>
    <g id="icn/logout" stroke="none" stroke-width="1" fill="none" fill-rule="evenodd">
        <path d="M13.7195316,4 C17.7339622,4 21,7.31569886 21,11.3913043 C21,15.4669098 17.7339622,18.7826087 13.7195316,18.7826087 C11.297238,18.7826087 9.04060789,17.5646497 7.6829629,15.5244977 C7.407767,15.1110217 7.51492607,14.5493595 7.92220177,14.2699741 C8.32959614,13.9906489 8.88271735,14.0993188 9.15797259,14.512855 C10.1841127,16.054836 11.8893424,16.9754585 13.7195316,16.9754585 C16.752442,16.9754585 19.2199489,14.4704472 19.2199489,11.3913043 C19.2199489,8.31216145 16.752442,5.80715015 13.7195316,5.80708991 C11.8839429,5.80708991 10.1759245,6.73186888 9.15055571,8.28089775 C8.87630917,8.6951568 8.32336596,8.80515201 7.91537824,8.52685088 C7.50744986,8.24848952 7.39898541,7.68706821 7.67311328,7.27292963 C9.02980891,5.22356113 11.2901178,4 13.7195316,4 Z M3.95292678,7.74887613 C4.303196,7.38805578 4.87101595,7.38805578 5.22110583,7.74887613 C5.57131527,8.10969647 5.57131527,8.69472065 5.22110583,9.0554794 L5.22110583,9.0554794 L4.06167225,10.2499808 L14.4510795,10.2499808 C14.9463227,10.2499808 15.3478261,10.6636491 15.3478261,11.1738976 C15.3478261,11.6841461 14.9463227,12.0978145 14.4510795,12.0978145 L14.4510795,12.0978145 L4.06167225,12.0978145 L5.22104604,13.2923159 C5.57125549,13.6531362 5.57125549,14.2380988 5.22104604,14.5989192 C5.04600111,14.7793909 4.81649376,14.8695652 4.58698641,14.8695652 C4.35747907,14.8695652 4.12797172,14.7793909 3.952867,14.5989192 L3.952867,14.5989192 L1.26280654,11.8273533 C1.2420618,11.80598 1.22245294,11.7835596 1.20374083,11.7602153 L1.20374083,11.7602153 L1.19100703,11.7426609 C1.17737648,11.7246753 1.16380571,11.7065665 1.15143061,11.6875338 L1.15143061,11.6875338 L1.14174575,11.6710881 C1.12925108,11.6510699 1.11711511,11.6308669 1.10611501,11.6098632 L1.10611501,11.6098632 L1.08377855,11.5632824 L1.08377855,11.5632824 L1.06851144,11.5280658 C1.06737556,11.5253556 1.06659838,11.5224607 1.06552229,11.5197505 C1.05565807,11.49462 1.04663082,11.4691815 1.0389188,11.443127 L1.0389188,11.443127 L1.03658726,11.4338879 C1.02929372,11.408203 1.02271758,11.3822717 1.01757623,11.3557245 C1.01608166,11.3481484 1.01542404,11.3403259 1.01410881,11.3326882 C1.01046204,11.3106989 1.00663592,11.2887097 1.00454352,11.2661661 C1.00149458,11.2356153 1,11.2048181 1,11.1738976 C1,11.1429772 1.00149458,11.11218 1.00454352,11.0816907 C1.00663592,11.0594551 1.01034248,11.0376507 1.01404903,11.0158463 C1.01542404,11.0079622 1.01608166,10.9998933 1.01757623,10.9920708 C1.0226578,10.96577 1.02929372,10.9400851 1.03652748,10.9146466 L1.03652748,10.9146466 L1.03897859,10.9046683 C1.04663082,10.878737 1.05565807,10.8535449 1.06540272,10.8286607 C1.0665386,10.8257042 1.06737556,10.8226244 1.06857122,10.8197295 C1.07807674,10.7960772 1.08895726,10.7731641 1.10025627,10.7505589 L1.10321553,10.7442455 C1.11705532,10.7170515 1.12913151,10.6970333 1.14144683,10.6771999 C1.14497403,10.6715948 1.14790341,10.6657434 1.15149039,10.6601999 C1.16380571,10.6412288 1.17725691,10.6232432 1.19094724,10.6053192 C1.19537119,10.5994677 1.1992571,10.5933083 1.20380061,10.58758 C1.22245294,10.5641741 1.2420618,10.5418153 1.26286632,10.520442 L1.26286632,10.520442 Z" id="Combined-Shape" fill="url(#linearGradient-1)" transform="translate(11.000000, 11.391304) scale(-1, 1) translate(-11.000000, -11.391304) "></path>
    </g>
</svg>