<?xml version="1.0" encoding="UTF-8"?>
<svg width="19px" height="18px" viewBox="0 0 19 18" version="1.1" xmlns="http://www.w3.org/2000/svg" xmlns:xlink="http://www.w3.org/1999/xlink">
    <title>Group 9</title>
    <g id="Create-Moment" stroke="none" stroke-width="1" fill="none" fill-rule="evenodd">
        <g id="101_Create-Swanling-Text" transform="translate(-28.000000, -674.000000)" fill="#FFFFFF">
            <g id="Group-9" transform="translate(28.944000, 674.000000)">
                <path d="M13.46,0 C14.2709886,-1.48976184e-16 14.969237,0.482697731 15.283118,1.17646573 C15.0323876,1.06325596 14.7535809,1 14.46,1 L14.46,1 L3,1 C1.8954305,1 1,1.8954305 1,3 L1,3 L1,14.46 C1,14.7535809 1.06325596,15.0323876 1.17688204,15.2835343 C0.482697731,14.969237 9.93174557e-17,14.2709886 0,13.46 L0,2 C-1.3527075e-16,0.8954305 0.8954305,2.02906125e-16 2,0 L13.46,0 Z" id="Combined-Shape" fill-rule="nonzero"></path>
                <g id="image" transform="translate(2.000000, 2.000000)">
                    <path d="M13.6478041,0 C14.6467508,0 15.4594595,0.812708615 15.4594595,1.81165541 L15.4594595,1.81165541 L15.4594595,13.6478041 C15.4594595,14.6467508 14.6467508,15.4594595 13.6478041,15.4594595 L13.6478041,15.4594595 L1.81165541,15.4594595 C0.812708615,15.4594595 0,14.6467508 0,13.6478041 L0,13.6478041 L0,1.81165541 C0,0.812708615 0.812708615,0 1.81165541,0 L1.81165541,0 Z M13.6478041,1.20777027 L1.81165541,1.20777027 C1.47867314,1.20777027 1.20777027,1.47867314 1.20777027,1.81165541 L1.20777027,1.81165541 L1.20777027,10.74055 L4.53134269,7.41697762 C5.23773733,6.71061318 6.38708171,6.71061318 7.09341596,7.41697762 L7.09341596,7.41697762 L8.96769426,9.29125591 L9.63417209,8.62474789 C10.3405667,7.91838345 11.4898809,7.91838345 12.1962755,8.62474789 L12.1962755,8.62474789 L14.2516892,10.6801615 L14.2516892,1.81165541 C14.2516892,1.47867314 13.9807863,1.20777027 13.6478041,1.20777027 L13.6478041,1.20777027 Z M9.78293919,2.41554054 C10.781886,2.41554054 11.5945946,3.22824916 11.5945946,4.22719595 C11.5945946,5.22614274 10.781886,6.03885135 9.78293919,6.03885135 C8.7839924,6.03885135 7.97128378,5.22614274 7.97128378,4.22719595 C7.97128378,3.22824916 8.7839924,2.41554054 9.78293919,2.41554054 Z M9.78293919,3.62331081 C9.44995693,3.62331081 9.17905405,3.89421368 9.17905405,4.22719595 C9.17905405,4.56017821 9.44995693,4.83108108 9.78293919,4.83108108 C10.1159215,4.83108108 10.3868243,4.56017821 10.3868243,4.22719595 C10.3868243,3.89421368 10.1159215,3.62331081 9.78293919,3.62331081 Z" id="Combined-Shape" fill-rule="nonzero"></path>
                    <circle id="Oval" cx="10.056" cy="4" r="1"></circle>
                </g>
            </g>
        </g>
    </g>
</svg>