<?xml version="1.0" encoding="UTF-8"?>
<svg width="26px" height="24px" viewBox="0 0 26 24" version="1.1" xmlns="http://www.w3.org/2000/svg" xmlns:xlink="http://www.w3.org/1999/xlink">
	<g stroke="none" stroke-width="1" fill="none" fill-rule="evenodd">
		<g transform="translate(-177.000000, -300.000000)">
			<g transform="translate(177.000000, 300.000000)">
				<g>
					<g fill="#DEE3E8">
						<path d="M5.52060129,7.35733577 L8.90844626,10.0888099 L10.955418,8.66437787 L14.9999921,11.539611 L14.9999921,14.7793171 L1.85575775,14.7793171 L0.871826573,14.5 L0.584887199,12 L5.52060129,7.35733577 Z M10,3 C10.5522847,3 11,3.44771525 11,4 C11,4.55228475 10.5522847,5 10,5 C9.44771525,5 9,4.55228475 9,4 C9,3.44771525 9.44771525,3 10,3 Z" id="Combined-Shape">
						</path>
						<path d="M13.6478041,0 L1.81165541,0 C0.812708615,0 0,0.812708615 0,1.81165541 L0,13.6478041 C0,14.6467508 0.812708615,15.4594595 1.81165541,15.4594595 L13.6478041,15.4594595 C14.6467508,15.4594595 15.4594595,14.6467508 15.4594595,13.6478041 L15.4594595,1.81165541 C15.4594595,0.812708615 14.6467508,0 13.6478041,0 Z M1.81165541,1.20777027 L13.6478041,1.20777027 C13.9807863,1.20777027 14.2516892,1.47867314 14.2516892,1.81165541 L14.2516892,10.6801615 L12.1962755,8.62474789 C11.4898809,7.91838345 10.3405667,7.91838345 9.63417209,8.62474789 L8.96769426,9.29125591 L7.09341596,7.41697762 C6.38708171,6.71061318 5.23773733,6.71061318 4.53134269,7.41697762 L1.20777027,10.74055 L1.20777027,1.81165541 C1.20777027,1.47867314 1.47867314,1.20777027 1.81165541,1.20777027 Z M13.6478041,14.2516892 L1.81165541,14.2516892 C1.47867314,14.2516892 1.20777027,13.9807863 1.20777027,13.6478041 L1.20777027,12.4486391 L5.38535705,8.27102217 C5.62087226,8.03556736 6.0039166,8.03556736 6.23937141,8.27102217 L8.96769426,10.9992846 L10.4882166,9.47876225 C10.7236413,9.24330743 11.1067762,9.24330743 11.3422008,9.47876225 L14.2516892,12.3882506 L14.2516892,13.6478041 C14.2516892,13.9807863 13.9807863,14.2516892 13.6478041,14.2516892 Z M9.78293919,6.03885135 C10.781886,6.03885135 11.5945946,5.22614274 11.5945946,4.22719595 C11.5945946,3.22824916 10.781886,2.41554054 9.78293919,2.41554054 C8.7839924,2.41554054 7.97128378,3.22824916 7.97128378,4.22719595 C7.97128378,5.22614274 8.7839924,6.03885135 9.78293919,6.03885135 Z M9.78293919,3.62331081 C10.1159215,3.62331081 10.3868243,3.89421368 10.3868243,4.22719595 C10.3868243,4.56017821 10.1159215,4.83108108 9.78293919,4.83108108 C9.44995693,4.83108108 9.17905405,4.56017821 9.17905405,4.22719595 C9.17905405,3.89421368 9.44995693,3.62331081 9.78293919,3.62331081 Z" id="Shape" fill-rule="nonzero">
						</path>
					</g>
					<g transform="translate(3.999992, 4.000000)">
						<path d="M4.72257903,18.4109188 L0.995947453,7.74309761 C0.813809379,7.22171084 1.08882479,6.65139126 1.61021156,6.46925319 C1.75919349,6.41720875 1.91837776,6.40116288 2.07474929,6.4224275 L7.10642069,7.10667336 C7.41421151,7.14852915 7.72397627,7.04497774 7.94471936,6.82643808 L14.0005248,0.831081081 L14.0005248,0.831081081 L10.3251793,17.8001563 C10.2359765,18.212006 9.89816339,18.5237397 9.48048791,18.5796371 L5.79928038,19.072292 C5.32891456,19.1352409 4.87908403,18.8589286 4.72257903,18.4109188 Z" id="Path-5" fill="#333940">
						</path>
						<g transform="translate(3.027035, 5.135135)">
						</g>
						<polygon fill="#DEE3E8" points="17.8503632 17.1870851 20.4127574 8.47582784 16.2711285 10.4876459 12.2060812 6.08880991 8.08481144 10.4876459 3.97129168 8.78413684 6.50000789 17.1870851">
						</polygon>
						<path d="M21.133472,7.81667387 C20.9166169,7.63155099 20.6105886,7.59254001 20.354113,7.71738949 L16.4299239,9.62778012 L12.7478324,5.3823959 C12.6116526,5.22534803 12.4139802,5.13513514 12.206089,5.13513514 C11.9981977,5.13513514 11.8005612,5.22534803 11.6643455,5.3823959 L7.98225403,9.62774426 L4.058065,7.71735363 C3.80158932,7.59254001 3.49559695,7.63151514 3.27867008,7.81663801 C3.06174322,8.00176089 2.9751159,8.29785709 3.05805008,8.57071882 L5.78308176,17.5346388 C5.87490815,17.8367229 6.15347093,18.0431799 6.46918019,18.0431799 L17.9429978,18.0431799 C18.2586712,18.0431799 18.5372698,17.8367229 18.6290603,17.5346746 L21.354092,8.57075467 C21.4370621,8.29789295 21.3504347,8.00179674 21.133472,7.81667387 Z M17.4114373,16.6089527 L7.00066893,16.6089527 L4.90845416,9.72652666 L7.84940873,11.1582798 C8.14141739,11.3004117 8.49230107,11.2286287 8.70503282,10.9833758 L12.206089,6.94674336 L15.707181,10.9833758 C15.9198769,11.2286645 16.2708681,11.3003759 16.5627692,11.1582798 L19.5037238,9.72652666 L17.4114373,16.6089527 Z" id="Shape" fill="#DEE3E8" fill-rule="nonzero">
						</path>
					</g>
				</g>
			</g>
		</g>
	</g>
</svg>
