<?xml version="1.0" encoding="UTF-8"?>
<svg width="18px" height="18px" viewBox="0 0 18 18" version="1.1" xmlns="http://www.w3.org/2000/svg" xmlns:xlink="http://www.w3.org/1999/xlink">
    <title>Owned Hatchling</title>
    <defs>
        <linearGradient x1="50%" y1="0%" x2="50%" y2="100%" id="linearGradient-1">
            <stop stop-color="#E4D3B4" offset="0%"></stop>
            <stop stop-color="#AA9979" offset="100%"></stop>
        </linearGradient>
        <linearGradient x1="50%" y1="0%" x2="50%" y2="100%" id="linearGradient-2">
            <stop stop-color="#E4D3B4" offset="0%"></stop>
            <stop stop-color="#AA9979" offset="100%"></stop>
        </linearGradient>
        <linearGradient x1="50%" y1="0%" x2="50%" y2="100%" id="linearGradient-3">
            <stop stop-color="#E4D3B4" offset="0%"></stop>
            <stop stop-color="#AA9979" offset="100%"></stop>
        </linearGradient>
        <linearGradient x1="50%" y1="0%" x2="50%" y2="100%" id="linearGradient-4">
            <stop stop-color="#E4D3B4" offset="0%"></stop>
            <stop stop-color="#AA9979" offset="100%"></stop>
        </linearGradient>
    </defs>
    <g id="Owned-Hatchling" stroke="none" stroke-width="1" fill="none" fill-rule="evenodd">
        <g id="Dropdown" transform="translate(-1146.000000, -223.000000)">
            <g id="Owned-Hatchling" transform="translate(1146.000000, 223.000000)">
                <path d="M15.75,0 L2.25,0 C1.00951172,0 0,1.00951172 0,2.25 L0,15.75 C0,16.9904883 1.00951172,18 2.25,18 L15.75,18 C16.9904883,18 18,16.9904883 18,15.75 L18,2.25 C18,1.00951172 16.9904883,0 15.75,0 Z M16.4999883,15.75 C16.4999883,16.164 16.1632266,16.4999883 15.75,16.4999883 L2.25,16.4999883 C1.83673828,16.4999883 1.50001172,16.164 1.50001172,15.75 L1.50001172,2.25 C1.50001172,1.83673828 1.83677344,1.50001172 2.25,1.50001172 L15.75,1.50001172 C16.1632617,1.50001172 16.4999883,1.83677344 16.4999883,2.25 L16.4999883,15.75 L16.4999883,15.75 Z" id="Shape" fill="url(#linearGradient-1)"></path>
                <g id="Group-8" transform="translate(4.000000, 6.000000)">
                    <path d="M1.44,0.464997396 C1.40248828,0.367509115 1.35,0.292485677 1.2825,0.217497396 C1.24498828,0.187509115 1.20751172,0.157485677 1.17,0.127497396 C1.125,0.0975091148 1.08,0.0750091148 1.035,0.0599973961 C0.99,0.0374973961 0.945,0.0224856773 0.9,0.0149973961 C0.749988281,-0.0149908852 0.600011719,-3.44169138e-14 0.465011719,0.0599973961 C0.375011719,0.0975091148 0.2925,0.149997396 0.217511719,0.217497396 C0.150011719,0.292485677 0.0975234375,0.367509115 0.0600117188,0.464997396 C0.0225,0.554997396 3.37507799e-14,0.652485677 3.37507799e-14,0.750009115 C3.37507799e-14,0.847532552 0.0225,0.945020834 0.0600117188,1.03502083 C0.0975234375,1.13250911 0.150011719,1.20753255 0.217511719,1.28252083 C0.36,1.41752083 0.555011719,1.50003255 0.750023438,1.50003255 C0.795023438,1.50003255 0.847511719,1.49254427 0.900035156,1.48502083 C0.945035156,1.47753255 0.990035156,1.46252083 1.03503516,1.44002083 C1.08003516,1.42500911 1.12503516,1.40250911 1.17003516,1.37252083 C1.20754688,1.34253255 1.24502344,1.31250911 1.28253516,1.28252083 C1.41753516,1.14003255 1.50004688,0.945020834 1.50004688,0.750009115 C1.49997656,0.652520834 1.47747656,0.554997396 1.44,0.464997396 Z" id="Path" fill="url(#linearGradient-2)"></path>
                    <path d="M9.74998828,2.08335877e-05 L3.74997656,2.08335877e-05 C3.33597656,2.08335877e-05 2.99998828,0.336009115 2.99998828,0.750009115 C2.99998828,1.16400911 3.33597656,1.4999974 3.74997656,1.4999974 L9.74998828,1.4999974 C10.1639883,1.4999974 10.4999766,1.16400911 10.4999766,0.750009115 C10.4999766,0.336009115 10.1639883,2.08335877e-05 9.74998828,2.08335877e-05 Z" id="Path" fill="url(#linearGradient-3)"></path>
                    <path d="M1.485,5.0999974 C1.47751172,5.0549974 1.4625,5.0099974 1.44,4.9649974 C1.42498828,4.9199974 1.40248828,4.8749974 1.3725,4.8299974 C1.34251172,4.79248568 1.31248828,4.75500911 1.2825,4.7174974 C1.20751172,4.6499974 1.125,4.59750911 1.035,4.5599974 C0.855,4.48500911 0.645011719,4.48500911 0.465011719,4.5599974 C0.375011719,4.59750911 0.2925,4.6499974 0.217511719,4.7174974 C0.187523438,4.75500911 0.1575,4.79248568 0.127511719,4.8299974 C0.0975234375,4.8749974 0.0750234375,4.9199974 0.0600117188,4.9649974 C0.0375117188,5.0099974 0.0225,5.0549974 0.0150117188,5.0999974 C0.0075234375,5.15248568 3.37507799e-14,5.20500911 3.37507799e-14,5.25000911 C3.37507799e-14,5.44502083 0.0825117188,5.6399974 0.217511719,5.78252083 C0.36,5.91752083 0.555011719,6.00003255 0.750023438,6.00003255 C0.945035156,6.00003255 1.14001172,5.91752083 1.28253516,5.78252083 C1.41753516,5.64003255 1.50004688,5.44502083 1.50004688,5.25000911 C1.49997656,5.20500911 1.49248828,5.15252083 1.485,5.0999974 Z" id="Path" fill="url(#linearGradient-4)"></path>
                    <path d="M9.74998828,4.50002083 L3.74997656,4.50002083 C3.33597656,4.50002083 2.99998828,4.83600911 2.99998828,5.25000911 C2.99998828,5.66400911 3.33597656,5.9999974 3.74997656,5.9999974 L9.74998828,5.9999974 C10.1639883,5.9999974 10.4999766,5.66400911 10.4999766,5.25000911 C10.4999766,4.83600911 10.1639883,4.50002083 9.74998828,4.50002083 Z" id="Path" fill="url(#linearGradient-3)"></path>
                </g>
            </g>
        </g>
    </g>
</svg>