<?xml version="1.0" encoding="UTF-8"?>
<svg width="27px" height="22px" viewBox="0 0 27 22" version="1.1" xmlns="http://www.w3.org/2000/svg" xmlns:xlink="http://www.w3.org/1999/xlink">
	<g stroke="none" stroke-width="1" fill="none" fill-rule="evenodd">
		<g transform="translate(-301.000000, -300.000000)">
			<polygon id="Path-14" fill="#F1F4F7" points="308.981127 315.569243 305.02775 314.458242 303.716399 313.072547 304.42076 310.559879 307.043288 307.983709 306.45777 306.537969 306.45777 304.369116 308.465661 302.831081 310.532864 303.408067 311.908896 305.40814 310.908446 307.977987 312.706158 309.200162 313.835104 313.072547">
			</polygon>
			<g transform="translate(301.000000, 300.000000)">
				<path d="M13.7520835,2.4571524 C12.2450438,0.884108559 10.1598664,-0.00364091858 7.98139457,0.000353916993 C3.57895616,-0.00517745303 0.00554488518,3.55921503 -6.32018839e-06,7.96168685 C-0.00273903967,10.1385553 0.88491023,12.2218288 2.45678497,13.7277996 C2.46136117,13.7323424 2.46306472,13.73919 2.46760752,13.7431983 C2.51377035,13.7876576 2.56394154,13.8253027 2.61070564,13.8680585 C2.73897286,13.9820626 2.86724008,14.1000752 3.00235491,14.2101044 C3.07473904,14.2671232 3.14999582,14.3241086 3.22411691,14.3765511 C3.35181628,14.4717495 3.47951566,14.5669478 3.61289353,14.6547641 C3.70354906,14.7117829 3.79704384,14.7687683 3.88993737,14.8257871 C4.01306054,14.8999081 4.13564927,14.9745637 4.26278079,15.042405 C4.37053862,15.0994238 4.48053445,15.1484259 4.58999582,15.2003006 C4.7097119,15.2573194 4.82772443,15.3143048 4.95027975,15.3656117 C5.07283507,15.4169186 5.19599165,15.4568351 5.32025052,15.5012944 C5.44450939,15.5457537 5.55169937,15.5868058 5.6708476,15.6232818 C5.80539457,15.6637662 5.94334864,15.6950981 6.08016701,15.7287349 C6.19417119,15.7566597 6.30476827,15.7885929 6.42221294,15.8114071 C6.57954071,15.8427724 6.73917328,15.862714 6.89880585,15.8843925 C6.99744468,15.8980877 7.09377871,15.9174614 7.19351983,15.9271482 C7.45463048,15.9528017 7.71797912,15.9670647 7.98363257,15.9670647 C8.24928601,15.9670647 8.51266806,15.9528017 8.7737453,15.9271482 C8.87351983,15.9174614 8.96985386,15.8980877 9.06845929,15.8843925 C9.22809186,15.862714 9.38769102,15.8427724 9.54505219,15.8114071 C9.65905637,15.7885929 9.77309395,15.7543883 9.88709812,15.7287349 C10.0239165,15.6950981 10.1618706,15.6637328 10.2964175,15.6232818 C10.4155658,15.5868058 10.5307056,15.5423466 10.6470146,15.5012944 C10.7633236,15.4602422 10.8955658,15.4157829 11.0169854,15.3656117 C11.138405,15.3154405 11.2575532,15.2567182 11.3772693,15.2003006 C11.4867307,15.1484259 11.5967599,15.0993904 11.7044843,15.042405 C11.8316159,14.9745637 11.9541712,14.8998747 12.0773278,14.8257871 C12.1702547,14.7687683 12.2637495,14.7168935 12.3543716,14.6547641 C12.4877829,14.5669812 12.6154823,14.4717829 12.7431482,14.3765511 C12.8172693,14.3195324 12.8924927,14.2682255 12.9649102,14.2101044 C13.1000251,14.1017787 13.2282923,13.9866388 13.3565595,13.8680585 C13.4032902,13.8253027 13.4534614,13.787691 13.4996576,13.7431983 C13.5042004,13.7392234 13.5059374,13.7323758 13.5104802,13.7277996 C16.6895699,10.6821879 16.7976952,5.63614196 13.7520835,2.4571524 Z M12.4707808,13.1309228 C12.3670313,13.2221461 12.2598413,13.3087933 12.1515491,13.3926013 C12.0877161,13.4416367 12.0238497,13.490071 11.9582797,13.5368351 C11.8550981,13.611524 11.7502129,13.6822046 11.6435908,13.7500459 C11.5660626,13.7996493 11.4868309,13.8475157 11.4069979,13.8942797 C11.3066555,13.9512985 11.2046096,14.0082839 11.101428,14.0653027 C11.0102046,14.1120334 10.9172777,14.1559582 10.8238163,14.1992818 C10.7303549,14.2426054 10.6271399,14.2887683 10.5262296,14.3292526 C10.4253194,14.369737 10.3181628,14.4079165 10.2126764,14.4432568 C10.1163424,14.4763257 10.0200084,14.5105303 9.92250522,14.5395908 C9.80850104,14.5737954 9.68935282,14.6017203 9.57134029,14.6302463 C9.47898121,14.6518914 9.38779123,14.6764092 9.29429645,14.6946806 C9.15918163,14.7209019 9.02122756,14.7391399 8.88270564,14.7579457 C8.80404175,14.7682004 8.72594572,14.7824635 8.64668058,14.7904468 C8.42775783,14.811524 8.20599582,14.8240835 7.98196242,14.8240835 C7.75792902,14.8240835 7.53616701,14.8115574 7.31724426,14.7904468 C7.23801253,14.7824635 7.15991649,14.7682004 7.08121921,14.7579457 C6.94269729,14.7391399 6.80474322,14.7209019 6.66962839,14.6946806 C6.57613361,14.6764426 6.48491023,14.6519248 6.39258455,14.6302463 C6.27457203,14.6017537 6.15712735,14.5732276 6.04141962,14.5395908 C5.9439499,14.5105303 5.84758246,14.4763257 5.75124843,14.4432568 C5.64579541,14.4067808 5.54030898,14.3697035 5.4376952,14.3292526 C5.33508142,14.2887683 5.23817954,14.244309 5.14010856,14.1992818 C5.04203758,14.1542547 4.95368685,14.1120668 4.86249687,14.0653027 C4.75931524,14.0117244 4.65726931,13.9552735 4.55692693,13.8942797 C4.47712735,13.8475491 4.39786221,13.7996493 4.32033403,13.7500459 C4.2137453,13.6822046 4.10882672,13.611524 4.00564509,13.5368351 C3.94007516,13.4901044 3.87624217,13.4416367 3.81237578,13.3926013 C3.7040501,13.3087933 3.59689353,13.2215783 3.49314405,13.1309228 C3.46805846,13.1121169 3.44524426,13.088167 3.42075992,13.0664885 C3.44624635,11.127215 4.69207516,9.4148476 6.52940292,8.79375365 C7.44808351,9.23076409 8.51470564,9.23076409 9.43338622,8.79375365 C11.2706806,9.4148476 12.5165094,11.1271816 12.5420292,13.0664885 C12.5180793,13.088167 12.4952651,13.1098455 12.4707808,13.1309228 Z M5.99348643,4.57115658 C6.61073904,3.47340292 8.00100209,3.08389144 9.09875574,3.70114405 C10.1965094,4.31839666 10.5860209,5.70865971 9.96876827,6.80641336 C9.76397495,7.17063883 9.46301461,7.47159916 9.09875574,7.67642589 C9.09591649,7.67642589 9.09247599,7.67642589 9.08906889,7.67983299 C8.93788727,7.76397495 8.77812109,7.83164927 8.61247599,7.88165344 C8.5828476,7.89020459 8.5554572,7.90159499 8.52412526,7.90901044 C8.46710647,7.92384134 8.40724843,7.93409603 8.3485261,7.94435073 C8.23796242,7.96369102 8.12609603,7.97491441 8.01389562,7.97798747 L7.94889353,7.97798747 C7.83669311,7.97491441 7.72482672,7.96369102 7.61426305,7.94435073 C7.55724426,7.93409603 7.49681837,7.92384134 7.43869729,7.90901044 C7.40846764,7.90159499 7.3816785,7.89020459 7.35034656,7.88165344 C7.18470146,7.83164927 7.02493528,7.76400835 6.87375365,7.67983299 L6.86349896,7.67642589 C5.7657453,7.05917328 5.37623382,5.66891023 5.99348643,4.57115658 Z M13.5533361,11.9360668 L13.5533361,11.9360668 C13.1875073,10.2297453 12.0638998,8.78316493 10.5011441,8.00654697 C11.7786388,6.61494781 11.6861127,4.45120668 10.2945136,3.1737119 C8.90291441,1.89621712 6.73917328,1.98874322 5.4616785,3.38034238 C4.26070981,4.68860125 4.26070981,6.6983215 5.4616785,8.00654697 C3.89892276,8.78319833 2.77531524,10.2297453 2.40948643,11.9360668 C0.223465553,8.85688518 0.947507307,4.5885929 4.02668894,2.40257203 C7.10587056,0.216551148 11.3741628,0.940592902 13.5601837,4.01977453 C14.381929,5.17728601 14.823048,6.56187056 14.8223474,7.98142797 C14.8223474,9.39974948 14.3786221,10.7825303 13.5533361,11.9360668 Z" id="Shape" fill="#F1F4F7" fill-rule="nonzero">
				</path>
				<g transform="translate(4.999992, 2.000000)">
					<path d="M4.72257903,18.4109188 L0.995947453,7.74309761 C0.813809379,7.22171084 1.08882479,6.65139126 1.61021156,6.46925319 C1.75919349,6.41720875 1.91837776,6.40116288 2.07474929,6.4224275 L7.10642069,7.10667336 C7.41421151,7.14852915 7.72397627,7.04497774 7.94471936,6.82643808 L14.0005248,0.831081081 L14.0005248,0.831081081 L10.3251793,17.8001563 C10.2359765,18.212006 9.89816339,18.5237397 9.48048791,18.5796371 L5.79928038,19.072292 C5.32891456,19.1352409 4.87908403,18.8589286 4.72257903,18.4109188 Z" id="Path-5" fill="#333940">
					</path>
					<g transform="translate(3.027035, 5.135135)">
					</g>
					<polygon fill="#F1F4F7" points="17.5000079 17.5 20.4637662 9 16.4383338 10.496096 12.5135214 5.98370932 8.05207301 10.496096 3.88319014 8.4616757 6.7396532 17.5">
					</polygon>
					<path d="M21.133472,7.81667387 C20.9166169,7.63155099 20.6105886,7.59254001 20.354113,7.71738949 L16.4299239,9.62778012 L12.7478324,5.3823959 C12.6116526,5.22534803 12.4139802,5.13513514 12.206089,5.13513514 C11.9981977,5.13513514 11.8005612,5.22534803 11.6643455,5.3823959 L7.98225403,9.62774426 L4.058065,7.71735363 C3.80158932,7.59254001 3.49559695,7.63151514 3.27867008,7.81663801 C3.06174322,8.00176089 2.9751159,8.29785709 3.05805008,8.57071882 L5.78308176,17.5346388 C5.87490815,17.8367229 6.15347093,18.0431799 6.46918019,18.0431799 L17.9429978,18.0431799 C18.2586712,18.0431799 18.5372698,17.8367229 18.6290603,17.5346746 L21.354092,8.57075467 C21.4370621,8.29789295 21.3504347,8.00179674 21.133472,7.81667387 Z M17.4114373,16.6089527 L7.00066893,16.6089527 L4.90845416,9.72652666 L7.84940873,11.1582798 C8.14141739,11.3004117 8.49230107,11.2286287 8.70503282,10.9833758 L12.206089,6.94674336 L15.707181,10.9833758 C15.9198769,11.2286645 16.2708681,11.3003759 16.5627692,11.1582798 L19.5037238,9.72652666 L17.4114373,16.6089527 Z" id="Shape" fill="#F1F4F7" fill-rule="nonzero">
					</path>
				</g>
			</g>
		</g>
	</g>
</svg>
