<?xml version="1.0" encoding="UTF-8"?>
<svg width="27px" height="21px" viewBox="0 0 27 21" version="1.1" xmlns="http://www.w3.org/2000/svg" xmlns:xlink="http://www.w3.org/1999/xlink">
    <title>OwnedSwans/Active</title>
    <defs>
        <linearGradient x1="50%" y1="0%" x2="50%" y2="100%" id="linearGradient-1">
            <stop stop-color="#E4D3B4" offset="0%"></stop>
            <stop stop-color="#AA9979" offset="100%"></stop>
        </linearGradient>
        <linearGradient x1="50%" y1="0%" x2="50%" y2="100%" id="linearGradient-2">
            <stop stop-color="#E4D3B4" offset="0%"></stop>
            <stop stop-color="#AA9979" offset="100%"></stop>
        </linearGradient>
    </defs>
    <g id="Personal-Profile" stroke="none" stroke-width="1" fill="none" fill-rule="evenodd">
        <g id="OwnedSwans/Active" transform="translate(-0.000013, 0.000340)">
            <path d="M7.98140718,1.34243672e-05 C10.159879,-0.00398141121 12.2450565,0.883768067 13.7520961,2.45681191 C14.7539488,3.50253917 15.4145424,4.75029653 15.7368234,6.06242098 L14.7568067,7.03309263 C14.6059695,5.95168869 14.1975807,4.91725454 13.5601963,4.01943404 C11.3741755,0.940252409 7.10588317,0.216210656 4.02670155,2.40223153 C0.947519918,4.58825241 0.223478165,8.85654468 2.40949904,11.9357263 C2.77532785,10.2294048 3.89893537,8.78285784 5.46169111,8.00620648 C4.26072242,6.69798101 4.26072242,4.68826076 5.46169111,3.38000189 C6.73918589,1.98840272 8.90292702,1.89587663 10.2945262,3.17337141 C11.6861253,4.45086619 11.7786514,6.61460732 10.5011567,8.00620648 C11.0664814,8.28714696 11.5743383,8.65576012 12.0096437,9.09262641 L7.07475401,8.422087 C6.91838248,8.40082238 6.75919821,8.41686826 6.61021628,8.4689127 C6.34288572,8.56230032 6.14032419,8.75773772 6.03094356,8.99630515 C4.47053046,9.73556384 3.44388435,11.3075592 3.42077253,13.066148 C3.44525687,13.0878265 3.46807107,13.1117764 3.49315666,13.1305823 C3.59690614,13.2212378 3.70406272,13.3084528 3.81238839,13.3922608 C3.87625478,13.4412963 3.94008777,13.4897639 4.00565771,13.5364946 C4.10883933,13.6111835 4.21375791,13.6818641 4.32034664,13.7497054 C4.39787482,13.7993088 4.47713996,13.8472086 4.55693954,13.8939393 C4.65728192,13.954933 4.75932785,14.0113839 4.86250948,14.0649622 C4.95369946,14.1117263 5.04205019,14.1539142 5.14012117,14.1989413 C5.23819215,14.2439685 5.33509403,14.2884278 5.43770781,14.3289121 C5.54032159,14.3693631 5.64580802,14.4064403 5.75126105,14.4429163 C5.84759507,14.4759852 5.94396251,14.5101898 6.04143224,14.5392503 C6.15713996,14.5728871 6.27458464,14.6014132 6.39259716,14.6299059 C6.48492284,14.6515844 6.57614622,14.6761021 6.669641,14.6943401 C6.80475583,14.7205614 6.9427099,14.7387994 7.08123182,14.7576052 C7.1599291,14.7678599 7.23802514,14.782123 7.31725687,14.7901063 C7.53617963,14.8112169 7.75794163,14.823743 7.98197503,14.823743 L7.769,14.819 L8.168,15.963 L7.98364518,15.9667242 C7.80654288,15.9667242 7.63046494,15.9603851 7.45539156,15.948558 L7.19353244,15.9268077 C7.09379132,15.9171209 6.99745729,15.8977472 6.89881846,15.884052 C6.73918589,15.8623735 6.57955332,15.8424319 6.42222555,15.8110666 C6.30478088,15.7882524 6.1941838,15.7563192 6.08017963,15.7283944 C5.94336125,15.6947576 5.80540718,15.6634257 5.67086021,15.6229413 C5.55171198,15.5864654 5.44452201,15.5454132 5.32026313,15.5009539 C5.19600426,15.4564946 5.07284768,15.4165781 4.95029236,15.3652712 C4.82773704,15.3139643 4.70972451,15.2569789 4.59000844,15.1999601 C4.48054706,15.1480854 4.37055123,15.0990833 4.2627934,15.0420645 C4.13566188,14.9742232 4.01307315,14.8995676 3.88994998,14.8254466 C3.79705645,14.7684278 3.70356167,14.7114424 3.61290614,14.6544236 C3.47952827,14.5666073 3.3518289,14.471409 3.22412952,14.3762107 C3.15000844,14.3237681 3.07475165,14.2667827 3.00236752,14.2097639 C2.86725269,14.0997347 2.73898547,13.9817221 2.61071825,13.867718 C2.56395416,13.8249622 2.51378297,13.7873171 2.46762013,13.7428578 C2.46307733,13.7388495 2.46137378,13.7320019 2.45679758,13.7274591 C0.884922841,12.2214883 -0.00272642838,10.1382148 6.29109798e-06,7.96134635 C0.00555749646,3.55887454 3.57896877,-0.00551794565 7.98140718,1.34243672e-05 Z M9.09876835,3.70080356 C8.0010147,3.08355095 6.61075165,3.47306243 5.99349904,4.57081608 C5.37624643,5.66856974 5.76575791,7.05883279 6.86351157,7.67608539 L6.86351157,7.67608539 L6.87376626,7.67949249 C7.02494789,7.76366786 7.18471407,7.83130878 7.35035917,7.88131295 C7.38169111,7.8898641 7.40848025,7.9012545 7.4387099,7.90866995 C7.49683098,7.92350084 7.55725687,7.93375554 7.61427566,7.94401024 C7.72483933,7.96335053 7.83670572,7.97457391 7.94890614,7.97764698 L7.94890614,7.97764698 L8.01390823,7.97764698 C8.12610864,7.97457391 8.23797503,7.96335053 8.34853871,7.94401024 C8.40726105,7.93375554 8.46711908,7.92350084 8.52413787,7.90866995 C8.55546981,7.9012545 8.58286021,7.8898641 8.6124886,7.88131295 C8.7781337,7.83130878 8.93789988,7.76363446 9.0890815,7.67949249 C9.0924886,7.67608539 9.0959291,7.67608539 9.09876835,7.67608539 C9.46302723,7.47125867 9.76398756,7.17029834 9.96878088,6.80607287 C10.5860335,5.70831922 10.196522,4.31805617 9.09876835,3.70080356 Z" id="Combined-Shape" fill="url(#linearGradient-1)" fill-rule="nonzero"></path>
            <g id="Group-6" transform="translate(8.027032, 7.134795)">
                <g id="crown" transform="translate(0.000008, 0.000000)"></g>
                <path d="M18.106445,2.68153873 C17.8895898,2.49641586 17.5835616,2.45740488 17.3270859,2.58225435 L13.4028969,4.49264498 L9.72080542,0.247260769 C9.58462554,0.0902128906 9.38695318,0 9.17906195,0 C8.97117072,0 8.77353421,0.0902128906 8.63731848,0.247260769 L4.955227,4.49260912 L1.03103797,2.5822185 C0.774562292,2.45740488 0.468569919,2.49638 0.251643056,2.68150288 C0.0347161927,2.86662575 -0.0519111299,3.16272196 0.0310230577,3.43558368 L2.75605473,12.3995037 C2.84788113,12.7015878 3.1264439,12.9080448 3.44215316,12.9080448 L14.9159707,12.9080448 C15.2316441,12.9080448 15.5102428,12.7015878 15.6020333,12.3995395 L18.327065,3.43561954 C18.410035,3.16275781 18.3234077,2.86666161 18.106445,2.68153873 Z M14.3844103,11.4738176 L3.97364191,11.4738176 L1.88142713,4.59139152 L4.82238171,6.02314468 C5.11439036,6.16527659 5.46527405,6.09349352 5.6780058,5.84824067 L9.17906195,1.81160823 L12.680154,5.84824067 C12.8928498,6.09352938 13.2438411,6.16524074 13.5357422,6.02314468 L16.4766968,4.59139152 L14.3844103,11.4738176 Z" id="Shape" fill="url(#linearGradient-2)" fill-rule="nonzero"></path>
            </g>
        </g>
    </g>
</svg>