<?xml version="1.0" encoding="UTF-8"?>
<svg width="16px" height="12px" viewBox="0 0 16 12" version="1.1" xmlns="http://www.w3.org/2000/svg" xmlns:xlink="http://www.w3.org/1999/xlink">
    <!-- Generator: Sketch 64 (93537) - https://sketch.com -->
    <title>Group 19</title>
    <desc>Created with Sketch.</desc>
    <g id="New" stroke="none" stroke-width="1" fill="none" fill-rule="evenodd">
        <g id="More---My-Profile" transform="translate(-23.000000, -565.000000)" fill="#8D9AA3" fill-rule="nonzero">
            <g id="Group-21" transform="translate(22.000000, 484.000000)">
                <g id="Group-12" transform="translate(1.000000, 76.000000)">
                    <g id="Group-19" transform="translate(0.000000, 5.000000)">
                        <path d="M4.57721701,0 C3.05868791,0 1.82328989,1.30986433 1.82328989,2.91989239 C1.82328989,4.52992045 3.05868791,5.83978477 4.57721701,5.83978477 C6.09574611,5.83978477 7.3311736,4.52992045 7.3311736,2.91989239 C7.3311736,1.30986433 6.09577558,0 4.57721701,0 Z" id="Path"></path>
                        <path d="M10.8383685,0.417830512 C10.8321507,0.417830512 10.8258445,0.417830512 10.8196267,0.417889449 C10.182346,0.423164268 9.58708707,0.692238985 9.14353076,1.17560692 C8.70775408,1.65042905 8.47079977,2.27683593 8.4762514,2.93940038 C8.48173249,3.60196482 8.72900069,4.22436402 9.17252753,4.69196643 C9.61956109,5.16319343 10.2117259,5.42198373 10.8419341,5.42198373 C10.8482698,5.42198373 10.8546055,5.42198373 10.8609706,5.42192479 C11.4982513,5.41664997 12.0935102,5.14754579 12.5370665,4.66420732 C12.9728432,4.18938519 13.2097975,3.56297831 13.2043459,2.90038439 C13.1930006,1.52734011 12.1334692,0.417830512 10.8383685,0.417830512 Z" id="Path"></path>
                        <path d="M10.9545324,5.9000179 L10.7258587,5.9000179 C9.6608756,5.9000179 8.68901226,6.30491185 7.95525249,6.96853715 C8.13883978,7.10939545 8.31358658,7.2629251 8.47919822,7.42853674 C8.96778204,7.91712056 9.35145883,8.48644741 9.61962003,9.12060445 C9.86125979,9.6916994 9.99917127,10.2934414 10.0312917,10.9131589 L15.0877511,10.9131589 L15.0877511,10.0329419 C15.0877511,7.75416106 13.2336079,5.9000179 10.9545324,5.9000179 Z" id="Path"></path>
                        <path d="M9.14547567,10.9131589 C9.06208048,9.56970079 8.3810689,8.38802341 7.36470849,7.63068903 C6.62534975,7.0796325 5.70829738,6.75341882 4.71492221,6.75341882 L4.43968862,6.75341882 C1.98763439,6.75341882 0,8.74105321 0,11.1931074 L0,11.72 L9.15431615,11.72 L9.15431615,11.1931074 C9.15431615,11.0991037 9.15136932,11.0056893 9.14547567,10.9131589 Z" id="Path"></path>
                    </g>
                </g>
            </g>
        </g>
    </g>
</svg>