<?xml version="1.0" encoding="UTF-8"?>
<svg width="84px" height="84px" viewBox="0 0 84 84" version="1.1" xmlns="http://www.w3.org/2000/svg" xmlns:xlink="http://www.w3.org/1999/xlink">
	<defs>
		<linearGradient x1="50%" y1="0%" x2="50%" y2="100%" id="linearGradient-1">
			<stop stop-color="#E4D3B4" offset="0%">
			</stop>
			<stop stop-color="#AA9979" offset="100%">
			</stop>
		</linearGradient>
		<path d="M42,0 C65.1959595,0 84,18.8040405 84,42 C84,65.1959595 65.1959595,84 42,84 C18.8040405,84 0,65.1959595 0,42 C0,18.8040405 18.8040405,0 42,0 Z M42,4 C21.0131795,4 4,21.0131795 4,42 C4,62.9868205 21.0131795,80 42,80 C62.9868205,80 80,62.9868205 80,42 C80,21.0131795 62.9868205,4 42,4 Z" id="path-2">
		</path>
		<linearGradient x1="50%" y1="0%" x2="50%" y2="100%" id="linearGradient-4">
			<stop stop-color="#E4D3B4" offset="0%">
			</stop>
			<stop stop-color="#AA9979" offset="100%">
			</stop>
		</linearGradient>
	</defs>
	<g stroke="none" stroke-width="1" fill="none" fill-rule="evenodd">
		<g>
			<mask id="mask-3" fill="white">
				<use xlink:href="#path-2">
				</use>
			</mask>
			<use id="Combined-Shape" fill="url(#linearGradient-1)" xlink:href="#path-2">
			</use>
			<path d="M57.8970802,26.7703132 C53.744084,22.4354272 47.9978955,19.9890283 41.9946127,20.000037 C29.8626759,19.984794 20.015315,29.8073016 20.0000173,41.9393305 C19.9924867,47.9381949 22.4386095,53.6791366 26.7702737,57.8291872 C26.7828845,57.8417059 26.787579,57.8605761 26.8000978,57.871622 C26.9273101,57.9941399 27.0655684,58.0978796 27.1944377,58.215703 C27.5479077,58.5298678 27.9013777,58.8550786 28.2737178,59.1582896 C28.473189,59.3154181 28.6805765,59.4724545 28.8848343,59.6169721 C29.2367394,59.8793131 29.5886446,60.1416542 29.9561981,60.3836522 C30.2060204,60.5407807 30.4636669,60.6978171 30.7196565,60.8549455 C31.0589509,61.0592033 31.3967724,61.2649339 31.7471128,61.4518864 C32.0440644,61.6090149 32.3471833,61.7440514 32.6488294,61.8870043 C32.9787347,62.0441327 33.3039455,62.2011691 33.6416751,62.3425571 C33.9794046,62.4839451 34.318791,62.5939443 34.6612151,62.7164621 C35.0036391,62.83898 35.2990259,62.9521088 35.6273664,63.0526268 C35.9981417,63.1641908 36.378306,63.2505332 36.7553407,63.343227 C37.0695055,63.4201803 37.3742813,63.5081796 37.6979273,63.5710494 C38.1314803,63.6574839 38.5713848,63.7124374 39.0112892,63.7721775 C39.2831113,63.8099178 39.548582,63.8633065 39.8234417,63.8900009 C40.5429925,63.9606949 41.2687106,64 42.0007801,64 C42.7328495,64 43.4586597,63.9606949 44.1781184,63.8900009 C44.4530701,63.8633065 44.7185408,63.8099178 44.9902709,63.7721775 C45.4301753,63.7124374 45.8699877,63.6574839 46.3036328,63.5710494 C46.6177977,63.5081796 46.9320546,63.413921 47.2462195,63.343227 C47.6232541,63.2505332 48.0034184,63.1640987 48.3741937,63.0526268 C48.7025342,62.9521088 49.0198288,62.8295909 49.340345,62.7164621 C49.6608613,62.6033333 50.0252852,62.4808154 50.359885,62.3425571 C50.6944849,62.2042988 51.0228254,62.0424758 51.3527307,61.8870043 C51.6543768,61.7440514 51.9575878,61.6089228 52.2544474,61.4518864 C52.6047877,61.2649339 52.9425172,61.0591113 53.2819036,60.8549455 C53.5379853,60.6978171 53.7956317,60.5548643 54.045362,60.3836522 C54.4130076,60.1417462 54.7649127,59.8794052 55.1167258,59.6169721 C55.3209836,59.4598437 55.528279,59.3184557 55.7278423,59.1582896 C56.1001824,58.8597732 56.4536524,58.5424786 56.8071224,58.215703 C56.9358996,58.0978796 57.0741579,57.9942319 57.2014624,57.871622 C57.2139811,57.8606681 57.2187677,57.841798 57.2312864,57.8291872 C65.9920032,49.4363001 66.2899674,35.5307539 57.8970802,26.7703132 Z M54.3661544,56.1843551 C54.0802487,56.4357422 53.7848619,56.6745186 53.4864375,56.9054707 C53.310531,57.0405994 53.1345324,57.1740711 52.9538393,57.3029404 C52.6694984,57.508763 52.3804631,57.7035397 52.0866412,57.8904922 C51.8729943,58.0271856 51.654653,58.1590925 51.4346547,58.2879618 C51.1581381,58.4450903 50.8769269,58.6021267 50.5925861,58.7592551 C50.341199,58.8880323 50.0851173,59.0090774 49.8275629,59.1284656 C49.5700085,59.2478537 49.2855756,59.3750661 49.0074941,59.4866301 C48.7294127,59.598194 48.4341179,59.7034066 48.1434257,59.8007949 C47.877955,59.8919239 47.6124843,59.9861826 47.3437919,60.0662656 C47.029627,60.1605243 46.7012866,60.2374777 46.3760758,60.3160879 C46.121559,60.375736 45.8702639,60.4433003 45.6126174,60.4936514 C45.2402773,60.5659102 44.8601129,60.6161692 44.4783838,60.6679931 C44.2616072,60.6962523 44.0463956,60.7355574 43.8279622,60.7575572 C43.2246699,60.8156404 42.6135534,60.850251 41.9961776,60.850251 C41.3788017,60.850251 40.7676853,60.8157325 40.164393,60.7575572 C39.9460516,60.7355574 39.73084,60.6962523 39.5139714,60.6679931 C39.1322422,60.6161692 38.7520779,60.5659102 38.3797378,60.4936514 C38.1220913,60.4433923 37.8707042,60.375828 37.6162794,60.3160879 C37.2910686,60.2375697 36.9674226,60.1589595 36.6485633,60.0662656 C36.3799629,59.9861826 36.1144002,59.8919239 35.8489295,59.8007949 C35.5583293,59.7002769 35.267637,59.598102 34.984861,59.4866301 C34.702085,59.3750661 34.4350495,59.2525483 34.1647922,59.1284656 C33.894535,59.0043829 33.6510641,58.8881244 33.3997691,58.7592551 C33.1154282,58.6116078 32.8342171,58.4560441 32.5577004,58.2879618 C32.3377942,58.1591846 32.1193608,58.0271856 31.905714,57.8904922 C31.6119841,57.7035397 31.3228567,57.508763 31.0385159,57.3029404 C30.8578228,57.1741631 30.6819162,57.0405994 30.5059176,56.9054707 C30.2074012,56.6745186 29.9121064,56.4341774 29.6262008,56.1843551 C29.5570716,56.1325313 29.4942018,56.0665318 29.4267296,56.0067917 C29.4969633,50.6626752 32.9301326,45.9438509 37.9933141,44.2322829 C40.5249508,45.4365662 43.4642747,45.4365662 45.9959114,44.2322829 C51.0590008,45.9438509 54.4921701,50.6625832 54.5624959,56.0067917 C54.4964964,56.0665318 54.4336267,56.1262719 54.3661544,56.1843551 Z M36.5164723,32.5959405 C38.2174545,29.5708265 42.0486458,28.4974375 45.0737598,30.1984198 C48.0988738,31.8994021 49.1722627,35.7305933 47.4712804,38.7557073 C46.9069251,39.7594148 46.0775593,40.5887806 45.0737598,41.153228 C45.0659356,41.153228 45.0564545,41.153228 45.0470654,41.162617 C44.6304495,41.3944896 44.1901768,41.5809819 43.7337035,41.7187799 C43.6520556,41.7423446 43.576575,41.7737335 43.4902326,41.7941685 C43.3331042,41.8350384 43.1681515,41.8632976 43.0063285,41.8915568 C42.7016448,41.9448535 42.3933711,41.9757821 42.0841769,41.9842506 L41.9050486,41.9842506 C41.5958544,41.9757821 41.2875807,41.9448535 40.9828969,41.8915568 C40.8257685,41.8632976 40.659251,41.8350384 40.4990849,41.7941685 C40.4157801,41.7737335 40.3419564,41.7423446 40.255614,41.7187799 C39.7991407,41.5809819 39.358868,41.3945817 38.9422521,41.162617 L38.9139929,41.153228 C35.8888789,39.4522457 34.81549,35.6210544 36.5164723,32.5959405 Z M57.3493859,52.8916533 L57.3493859,52.8916533 C56.34126,48.1894899 53.2448997,44.2031033 48.938365,42.0629529 C52.4587972,38.2280797 52.2038201,32.2653908 48.3689469,28.7449586 C44.5340737,25.2245264 38.5713848,25.4795034 35.0509526,29.3143766 C31.7414057,32.9195864 31.7414057,38.4578352 35.0509526,42.0629529 C30.7444178,44.2031953 27.6480575,48.1894899 26.6399317,52.8916533 C20.6158457,44.4062565 22.6111102,32.6439903 31.0965071,26.6199044 C39.5819039,20.5958184 51.3441701,22.5910829 57.368256,31.0764798 C59.6327652,34.2662703 60.8483705,38.0818131 60.8464398,41.9937317 C60.8464398,45.9022445 59.6236523,49.7128167 57.3493859,52.8916533 Z" id="Combined-Shape" fill="url(#linearGradient-4)">
			</path>
		</g>
	</g>
</svg>
