<?xml version="1.0" encoding="UTF-8"?>
<svg width="20px" height="20px" viewBox="0 0 20 20" version="1.1" xmlns="http://www.w3.org/2000/svg" xmlns:xlink="http://www.w3.org/1999/xlink">
    <title>Profile</title>
    <defs>
        <linearGradient x1="50%" y1="0%" x2="50%" y2="100%" id="linearGradient-1">
            <stop stop-color="#E4D3B4" offset="0%"></stop>
            <stop stop-color="#AA9979" offset="100%"></stop>
        </linearGradient>
    </defs>
    <g id="Owned-Hatchling" stroke="none" stroke-width="1" fill="none" fill-rule="evenodd">
        <g id="Dropdown" transform="translate(-1144.000000, -85.000000)" fill="url(#linearGradient-1)">
            <path d="M1161.22522,88.077285 C1159.33757,86.1069656 1156.72578,84.9950131 1153.99713,85.0000168 C1148.48284,84.9930885 1144.00696,89.4576759 1144.00001,94.9720013 C1143.99659,97.6986425 1145.10841,100.308051 1147.07727,102.194358 C1147.083,102.200048 1147.08513,102.208625 1147.09082,102.213646 C1147.14864,102.269333 1147.21149,102.316486 1147.27006,102.37004 C1147.43072,102.512836 1147.59138,102.660653 1147.76062,102.79847 C1147.85129,102.869889 1147.94555,102.941266 1148.03839,103.006953 C1148.19834,103.126194 1148.35829,103.245435 1148.52535,103.355429 C1148.6389,103.426848 1148.75601,103.498226 1148.87237,103.569645 C1149.02658,103.662485 1149.18013,103.755995 1149.33937,103.84097 C1149.47434,103.912389 1149.61212,103.973767 1149.74922,104.038742 C1149.89918,104.110161 1150.04699,104.181539 1150.2005,104.245803 C1150.35401,104.310068 1150.50827,104.360065 1150.66391,104.415753 C1150.81955,104.47144 1150.95381,104.52286 1151.10305,104.568548 C1151.27158,104.619257 1151.44437,104.658502 1151.61574,104.700634 C1151.75854,104.735611 1151.89707,104.775609 1152.04417,104.804185 C1152.24123,104.843472 1152.44118,104.86845 1152.64113,104.895603 C1152.76468,104.912757 1152.88534,104.937024 1153.01027,104.949157 C1153.33733,104.981289 1153.66719,104.999154 1153.99993,104.999154 C1154.33268,104.999154 1154.66258,104.981289 1154.98959,104.949157 C1155.11456,104.937024 1155.23523,104.912757 1155.35873,104.895603 C1155.55868,104.86845 1155.75859,104.843472 1155.95569,104.804185 C1156.09849,104.775609 1156.24133,104.732766 1156.38412,104.700634 C1156.55549,104.658502 1156.72829,104.619215 1156.89682,104.568548 C1157.04605,104.52286 1157.19027,104.467173 1157.33596,104.415753 C1157.48164,104.364333 1157.64728,104.308645 1157.79936,104.245803 C1157.95145,104.182961 1158.10069,104.109408 1158.25064,104.038742 C1158.38774,103.973767 1158.52556,103.912347 1158.66049,103.84097 C1158.81973,103.755995 1158.97324,103.662443 1159.1275,103.569645 C1159.24389,103.498226 1159.361,103.43325 1159.47451,103.355429 C1159.64161,103.245477 1159.80156,103.126236 1159.96147,103.006953 C1160.05431,102.935534 1160.14853,102.87127 1160.23924,102.79847 C1160.40848,102.662786 1160.56914,102.518568 1160.7298,102.37004 C1160.78834,102.316486 1160.85118,102.269375 1160.90904,102.213646 C1160.91473,102.208667 1160.91691,102.20009 1160.9226,102.194358 C1164.90457,98.3795706 1165.04,92.0591351 1161.22522,88.077285 Z M1159.62032,101.446739 C1159.49037,101.561001 1159.35611,101.669531 1159.22046,101.774505 C1159.14051,101.835924 1159.06051,101.896591 1158.97838,101.955165 C1158.84914,102.048717 1158.71777,102.137248 1158.58422,102.222223 C1158.48711,102.284354 1158.38787,102.344309 1158.28788,102.402883 C1158.16219,102.474302 1158.03437,102.545679 1157.90513,102.617098 C1157.79087,102.675631 1157.67448,102.730649 1157.55741,102.784914 C1157.44034,102.839179 1157.31106,102.897001 1157.18467,102.947709 C1157.05827,102.998418 1156.92405,103.04624 1156.79193,103.090505 C1156.67126,103.131926 1156.5506,103.174769 1156.42847,103.211169 C1156.28567,103.254012 1156.13644,103.288989 1155.98862,103.32472 C1155.87293,103.351831 1155.75871,103.382541 1155.64161,103.405427 C1155.47237,103.43827 1155.29957,103.461114 1155.12607,103.48467 C1155.02754,103.497514 1154.92972,103.51538 1154.83043,103.525379 C1154.55622,103.551779 1154.27845,103.567511 1153.99784,103.567511 C1153.71723,103.567511 1153.43946,103.551821 1153.16525,103.525379 C1153.066,103.51538 1152.96818,103.497514 1152.86961,103.48467 C1152.69611,103.461114 1152.52331,103.43827 1152.35407,103.405427 C1152.23697,103.382583 1152.1227,103.351873 1152.00706,103.32472 C1151.85924,103.289031 1151.71214,103.253301 1151.56721,103.211169 C1151.44512,103.174769 1151.32442,103.131926 1151.20375,103.090505 C1151.07167,103.044817 1150.93954,102.998376 1150.81101,102.947709 C1150.68248,102.897001 1150.56111,102.841313 1150.43827,102.784914 C1150.31543,102.728515 1150.20477,102.675673 1150.09055,102.617098 C1149.96131,102.549989 1149.83349,102.479281 1149.7078,102.402883 C1149.60785,102.344351 1149.50857,102.284354 1149.41146,102.222223 C1149.27795,102.137248 1149.14654,102.048717 1149.0173,101.955165 C1148.93517,101.896632 1148.85521,101.835924 1148.77522,101.774505 C1148.63953,101.669531 1148.50531,101.560289 1148.37536,101.446739 C1148.34394,101.423183 1148.31536,101.393185 1148.2847,101.366031 C1148.31662,98.9369903 1149.87708,96.7921609 1152.17843,96.0142083 C1153.32913,96.5615867 1154.66513,96.5615867 1155.81582,96.0142083 C1158.11713,96.7921609 1159.6776,98.9369485 1159.70956,101.366031 C1159.67956,101.393185 1159.65099,101.420338 1159.62032,101.446739 Z M1151.50717,90.7251854 C1152.28031,89.3501917 1154.02169,88.8623083 1155.39668,89.6354494 C1156.77168,90.4085904 1157.25956,92.1499674 1156.48642,93.524961 C1156.2299,93.9811724 1155.85293,94.3581409 1155.39668,94.6146971 C1155.39313,94.6146971 1155.38882,94.6146971 1155.38455,94.6189646 C1155.19519,94.7243568 1154.99507,94.8091224 1154.78759,94.8717553 C1154.75048,94.882466 1154.71617,94.8967331 1154.67693,94.9060213 C1154.60551,94.9245978 1154.53053,94.9374424 1154.45698,94.9502869 C1154.31849,94.9745116 1154.17837,94.9885695 1154.03784,94.9924187 L1153.95642,94.9924187 C1153.81588,94.9885695 1153.67576,94.9745116 1153.53728,94.9502869 C1153.46586,94.9374424 1153.39017,94.9245978 1153.31737,94.9060213 C1153.27951,94.8967331 1153.24595,94.882466 1153.20671,94.8717553 C1152.99923,94.8091224 1152.79911,94.7243987 1152.60975,94.6189646 L1152.59691,94.6146971 C1151.22191,93.841556 1150.73403,92.1001791 1151.50717,90.7251854 Z M1160.97628,99.9501193 L1160.97628,99.9501193 C1160.51806,97.8128627 1159.11068,96.0009454 1157.15325,95.0281909 C1158.75337,93.2851404 1158.63748,90.5749419 1156.89443,88.9748131 C1155.15138,87.3746843 1152.44118,87.4905781 1150.84105,89.2336285 C1149.33678,90.872291 1149.33678,93.3895703 1150.84105,95.0281909 C1148.88362,96.0009872 1147.47624,97.8128627 1147.01802,99.9501193 C1144.27992,96.0932839 1145.18682,90.7470253 1149.04365,88.0089202 C1152.90049,85.2708151 1158.24675,86.1777152 1160.98485,90.0345506 C1162.01413,91.4843941 1162.56666,93.2186584 1162.56578,94.9967281 C1162.56578,96.7732497 1162.00999,98.5052547 1160.97628,99.9501193 Z" id="Profile"></path>
        </g>
    </g>
</svg>