<?xml version="1.0" encoding="UTF-8"?>
<svg width="30px" height="30px" viewBox="0 0 30 30" version="1.1" xmlns="http://www.w3.org/2000/svg" xmlns:xlink="http://www.w3.org/1999/xlink">
    <title>Prod 144x144</title>
    <defs>
        <polygon id="path-1" points="0 0 12.75 0 12.75 20.25 0 20.25"></polygon>
    </defs>
    <g id="Login" stroke="none" stroke-width="1" fill="none" fill-rule="evenodd">
        <g id="Mobile-web-redirection" transform="translate(-12.000000, -104.000000)">
            <g id="Prod-144x144" transform="translate(12.000000, 104.000000)">
                <path d="M12.0887946,0 L17.9111445,0 C21.4586043,0 23.5871006,0 25.0060642,0.617152684 C27.0516175,1.39277907 28.6629641,3.07147498 29.4075215,5.20250416 C30,6.68076003 30,8.89814384 30,12.5937835 L30,17.4062165 C30,21.1018456 30,23.3192294 29.4075215,24.7974853 C28.6629641,26.9285144 27.0516175,28.6072104 25.0060642,29.3828473 C23.5871006,30 21.4586043,30 17.9111445,30 L12.0887946,30 C8.54133475,30 6.41294004,30 4.99387488,29.3828473 C2.94832158,28.6072104 1.33694456,26.9285144 0.592407423,24.7974853 C0,23.3192294 0,21.1018456 0,17.4062165 L0,12.5937835 C0,8.89814384 0,6.68076003 0.592407423,5.20250416 C1.33694456,3.07147498 2.94832158,1.39277907 4.99387488,0.617152684 C6.41294004,0 8.54133475,0 12.0887946,0 Z" id="Fill-483-Copy-2" fill="#161F27"></path>
                <g id="Group-504-Copy-4" transform="translate(8.250000, 4.500000)">
                    <mask id="mask-2" fill="white">
                        <use xlink:href="#path-1"></use>
                    </mask>
                    <g id="Clip-502"></g>
                    <path d="M10.1098458,4.98727296 C9.78235938,5.28419533 9.37969084,5.49926628 8.93618635,5.59740664 C9.22653103,5.91061795 9.58367096,6.15847014 9.98514138,6.31945816 C10.2494269,6.42657675 10.5333816,6.49568782 10.8299166,6.51824017 C10.5877963,6.19876544 10.3913044,5.84149672 10.2507249,5.45645951 C10.1937143,5.30444974 10.1468877,5.14701032 10.1098458,4.98727296" id="Fill-501" fill="#E3D2B3" mask="url(#mask-2)"></path>
                    <path d="M12.7410196,13.4084518 C12.6076288,10.8129891 10.994159,8.74371412 8.43836702,7.76629635 C8.16299885,7.66064193 7.87634837,7.56856162 7.57991324,7.48942503 C7.26860144,7.40506215 6.94610717,7.33720173 6.61253028,7.28436944 L6.58177851,7.27915331 C5.93199749,7.18999119 5.2795207,6.91332323 4.84859647,6.45394868 C5.17109074,7.04299418 5.68488501,7.50696462 6.30621065,7.75856876 C5.13644507,7.66064193 4.21598852,6.66296974 4.21598852,5.44646449 C4.21598852,4.96077547 4.36185977,4.51184332 4.61256661,4.13808229 C4.74096526,3.94576705 4.89801897,3.7743468 5.07723792,3.62860043 C5.09441099,3.61481279 5.11288202,3.59957114 5.13275086,3.58453285 C5.32055635,3.43252307 5.53671736,3.31392495 5.77005145,3.23980112 C5.84054091,3.21599811 5.91332677,3.19719771 5.98751043,3.18195606 L5.99000652,3.18195606 C6.05909817,3.16567729 6.12838951,3.15314029 6.19997725,3.14437558 C6.29752427,3.13038458 6.39656895,3.12412117 6.49641238,3.12412117 C7.14249919,3.12412117 7.72568464,3.39724054 8.14063392,3.83614716 C8.4767069,4.19216524 8.70285226,4.65758968 8.76086129,5.17584642 C8.76215925,5.17709707 8.76215925,5.17981189 8.76086129,5.18107271 C8.86589657,5.16206894 8.96833593,5.13575448 9.06718092,5.10047194 C9.08685008,5.09420853 9.10661907,5.0866843 9.12648792,5.07896688 C9.47484163,4.94824864 9.78116126,4.72942574 10.0197871,4.44878214 C10.0208853,4.44878214 10.0197871,4.44753149 10.0197871,4.44753149 C10.0775964,4.38092172 10.1309128,4.31056001 10.1801356,4.23622265 C10.4136694,3.88271604 10.5506545,3.45632608 10.5506545,2.99841569 C10.5506545,2.72529632 10.5026299,2.46241601 10.4124712,2.22082723 C10.3655448,2.09136981 10.3062378,1.96671162 10.2357484,1.84852021 C10.22836,1.83452921 10.2197734,1.82075174 10.2098889,1.80697426 C10.129515,1.68606802 10.0331661,1.5706016 9.92204034,1.46098171 C9.80961664,1.35031453 9.69220077,1.24591076 9.57119054,1.1452691 C9.52795833,1.11018992 9.48342816,1.07594451 9.43919753,1.04211598 C9.06328703,0.753958317 8.64713963,0.517595827 8.20113904,0.342616815 C7.55625035,0.091216033 6.84995795,-0.0309408526 6.11101675,0.0066396243 C3.43301637,0.144038159 1.29347159,2.41835859 1.26351856,5.1482813 C1.24894142,6.53204815 1.77871064,7.77610835 2.69427486,8.7121937 C2.90544371,8.92871866 3.13628171,9.12854796 3.38728808,9.30979039 C3.49222352,9.38642568 3.60095301,9.45950222 3.71327687,9.52862346 C4.41367851,9.96523213 5.23898427,10.2659166 6.15055475,10.3941234 C6.22603638,10.4068637 6.30141817,10.4193906 6.37670011,10.4358829 C7.21159084,10.6018836 8.05307124,10.9514248 8.675595,11.5187517 C8.07254071,11.1276544 7.3625541,10.8948405 6.59895158,10.877301 C6.56700168,10.8760503 6.53605022,10.8760503 6.50380079,10.8760503 C6.39656895,10.8760503 6.28893774,10.8798023 6.18270433,10.8898278 C4.66079099,11.0107238 3.37600578,11.9894024 2.79411829,13.3518574 C2.83854861,13.4913404 2.89316297,13.6272747 2.95606432,13.7581963 C3.00059449,13.8525746 3.04871902,13.9442481 3.10043792,14.0336136 C3.51069456,14.7393762 4.14689687,15.2929256 4.90780362,15.5885872 C5.09321286,15.6627212 5.2871088,15.7205561 5.48729487,15.7610649 C5.24637268,15.7483246 5.01174063,15.7094934 4.78559527,15.6489336 C4.20001357,15.4929583 3.67373887,15.1897725 3.24521089,14.7796817 C2.98831375,14.5355814 2.76706072,14.2539007 2.59053754,13.9419502 C2.55589187,13.8816038 2.52364244,13.821044 2.49289067,13.7581963 C2.2455785,13.2624919 2.1073952,12.7026791 2.1073952,12.1088343 C2.1073952,11.7050069 2.17159452,11.3162076 2.29150648,10.9526754 C1.38852253,11.5667746 0.773287337,12.5867958 0.700301792,13.7581963 C0.6941115,13.8375464 0.691615414,13.916683 0.691615414,13.9970703 C0.691615414,14.3355488 0.737343704,14.6627409 0.822709833,14.9734509 C0.474356119,14.6389379 0.192797656,14.2336463 -9.98434264e-05,13.779498 C0.0123805849,17.5511605 3.1994826,20.5753009 6.97705863,20.2219977 C10.4025867,19.8998081 12.9200389,16.9069949 12.7410196,13.4084518" id="Fill-503" fill="#E3D2B3" mask="url(#mask-2)"></path>
                </g>
            </g>
        </g>
    </g>
</svg>