<?xml version="1.0" encoding="UTF-8"?>
<svg width="22px" height="22px" viewBox="0 0 22 22" version="1.1" xmlns="http://www.w3.org/2000/svg" xmlns:xlink="http://www.w3.org/1999/xlink">
	<g stroke="none" stroke-width="1" fill="none" fill-rule="evenodd">
		<g transform="translate(1.000000, 1.000000)">
			<circle stroke="#DEE3E8" stroke-width="1.6" stroke-linecap="round" stroke-linejoin="round" cx="10" cy="10" r="10">
			</circle>
			<path d="M10.4528809,11.4147949 L10.4528809,11.048584 C10.4528809,10.8044434 10.5047607,10.6070964 10.6085205,10.456543 C10.7122803,10.3059896 10.9594727,10.086263 11.3500977,9.79736328 C11.9197591,9.39046224 12.3063151,9.0242513 12.5097656,8.69873047 C12.7132161,8.37320964 12.8149414,7.98665365 12.8149414,7.5390625 C12.8149414,6.86767578 12.567749,6.33056641 12.0733643,5.92773438 C11.5789795,5.52490234 10.912679,5.32348633 10.0744629,5.32348633 C9.05721029,5.32348633 8.09488932,5.57779948 7.1875,6.08642578 L7.1875,6.08642578 L7.8527832,7.4230957 C8.6340332,7.02433268 9.32983398,6.82495117 9.94018555,6.82495117 C10.2901204,6.82495117 10.5627441,6.89412435 10.7580566,7.0324707 C10.9533691,7.17081706 11.0510254,7.37223307 11.0510254,7.63671875 C11.0510254,7.87272135 10.9828695,8.0863444 10.8465576,8.27758789 C10.7102458,8.46883138 10.4284668,8.71704102 10.0012207,9.0222168 C9.55769857,9.34773763 9.25252279,9.65494792 9.08569336,9.94384766 C8.91886393,10.2327474 8.83544922,10.5725098 8.83544922,10.9631348 L8.83544922,10.9631348 L8.83544922,11.4147949 L10.4528809,11.4147949 Z M9.71435547,14.5397949 C10.0480143,14.5397949 10.308431,14.4472249 10.4956055,14.262085 C10.6827799,14.076945 10.7763672,13.8236491 10.7763672,13.5021973 C10.7763672,13.1685384 10.6837972,12.9121908 10.4986572,12.7331543 C10.3135173,12.5541178 10.0520833,12.4645996 9.71435547,12.4645996 C9.36442057,12.4645996 9.09790039,12.5520833 8.91479492,12.7270508 C8.73168945,12.9020182 8.64013672,13.1604004 8.64013672,13.5021973 C8.64013672,13.8317871 8.73372396,14.0871175 8.92089844,14.2681885 C9.10807292,14.4492594 9.37255859,14.5397949 9.71435547,14.5397949 Z" id="?" fill="#DEE3E8" fill-rule="nonzero">
			</path>
		</g>
	</g>
</svg>
