<?xml version="1.0" encoding="UTF-8"?>
<svg width="22px" height="21px" viewBox="0 0 22 21" version="1.1" xmlns="http://www.w3.org/2000/svg" xmlns:xlink="http://www.w3.org/1999/xlink">
    <title>icon_refresh</title>
    <g id="Create-Moment" stroke="none" stroke-width="1" fill="none" fill-rule="evenodd">
        <g id="117_Add-Location-" transform="translate(-977.000000, -93.000000)" fill="#FFFFFF" fill-rule="nonzero">
            <g id="Group-5" transform="translate(420.000000, 73.000000)">
                <g id="icon_refresh" transform="translate(557.000000, 20.000000)">
                    <path d="M19.4116425,4.56467269 L19.8690371,3.06507167 C19.9828415,2.69292172 20.2865406,2.40975488 20.6657341,2.32223735 C21.0449276,2.23471983 21.4420069,2.35614763 21.707396,2.64078006 C21.9727851,2.9254125 22.0661652,3.33000713 21.9523608,3.70215707 L20.67819,7.86771545 C20.5023636,8.44254316 19.8940427,8.76620109 19.3190745,8.5908346 L15.1535161,7.31666381 C14.7733634,7.20965758 14.4809323,6.90523103 14.3892867,6.52108586 C14.297641,6.13694069 14.4211447,5.73328446 14.7120468,5.46618449 C15.0029489,5.19908453 15.415656,5.11040373 15.7906015,5.23442913 L17.6114678,5.79092595 C15.9710023,3.30275717 13.0885176,1.92646101 10.1222361,2.21505244 C7.15595457,2.50364386 4.59281664,4.40974814 3.46272681,7.16746603 L3.17957774,7.8568251 C3.03938191,8.22729695 2.70908531,8.4924317 2.31706032,8.54918264 C1.92503532,8.60593358 1.53311025,8.44535022 1.29360985,8.12984456 C1.05410946,7.81433889 1.00480661,7.39367096 1.16486323,7.03133667 L1.4480123,6.3419776 C2.88216433,2.84282273 6.13193034,0.422118287 9.89520597,0.0497832867 C13.6584816,-0.322551714 17.3196019,1.41439605 19.4116425,4.56467269 Z M2.50764323,16.1225998 L2.15152883,17.5503245 C2.06479275,17.9357727 1.77610337,18.2440136 1.39715705,18.3557862 C1.01821073,18.4675588 0.608450683,18.36533 0.326416548,18.088653 C0.0443824131,17.811976 -0.0656846724,17.4042515 0.038801178,17.0232316 L1.0918979,12.7977763 C1.16370439,12.5070112 1.3520887,12.2586523 1.61273433,12.1111248 C1.87337997,11.9635973 2.1832782,11.9299244 2.46952701,12.0180273 L6.63835249,13.0569666 C7.01594947,13.1511227 7.31463181,13.4395721 7.42188875,13.8136587 C7.52914569,14.1877453 7.42868235,14.5906365 7.15834231,14.870567 C6.88800226,15.1504976 6.4888566,15.2649394 6.11125961,15.1707833 L4.16624334,14.6861628 C5.86336493,17.2842238 8.90395919,18.6738957 11.9790664,18.256932 C15.0541735,17.8399683 17.614924,15.6907921 18.5589282,12.7346123 C18.6772069,12.3638241 18.9843141,12.0843026 19.3645654,12.0013409 C19.7448167,11.9183792 20.140443,12.0445811 20.4024156,12.3324075 C20.6643882,12.620234 20.7529074,13.0259573 20.6346286,13.3967455 C19.716872,16.2757962 17.571648,18.6008521 14.775621,19.7469078 C10.3422581,21.5631356 5.24226902,20.0564544 2.50764323,16.1225998 L2.50764323,16.1225998 Z" id="Shape"></path>
                </g>
            </g>
        </g>
    </g>
</svg>