<?xml version="1.0" encoding="UTF-8"?>
<svg width="15px" height="15px" viewBox="0 0 15 15" version="1.1" xmlns="http://www.w3.org/2000/svg" xmlns:xlink="http://www.w3.org/1999/xlink">
    <title>restore</title>
    <g id="Edit-Profile" stroke="none" stroke-width="1" fill="none" fill-rule="evenodd">
        <g transform="translate(-790.000000, -336.000000)" fill="#8D9AA3" fill-rule="nonzero" id="restore">
            <g transform="translate(790.000000, 336.000000)">
                <path d="M11.548751,3 L10.6005616,13.7952347 L3.64920604,13.7952347 L2.70121998,3 L1.5,3.10520257 L2.46529822,14.0962156 C2.51610186,14.6028131 2.95605151,15 3.46713788,15 L10.7826588,15 C11.2935418,15 11.7336658,14.6030163 11.7853118,14.0889893 L12.75,3.10520257 L11.548751,3 Z" id="Path"></path>
                <path d="M8.81253726,0 L4.68751694,0 C4.17056151,0 3.75,0.464061799 3.75,1.03448791 L3.75,3 L4.87499323,3 L4.87499323,1.24135559 L8.62500677,1.24135559 L8.62500677,3 L9.75,3 L9.75,1.03445801 C9.75,0.464061799 9.32949269,0 8.81253726,0 Z" id="Path"></path>
                <path d="M13.63925,2.25 L0.610720591,2.25 C0.273392866,2.25 0,2.58574216 0,3 C0,3.41425784 0.273392866,3.75 0.610720591,3.75 L13.6392794,3.75 C13.9766071,3.75 14.25,3.41425784 14.25,3 C14.25,2.58574216 13.9765777,2.25 13.63925,2.25 Z" id="Path"></path>
            </g>
        </g>
    </g>
</svg>