<?xml version="1.0" encoding="UTF-8"?>
<svg width="34px" height="34px" viewBox="0 0 34 34" version="1.1" xmlns="http://www.w3.org/2000/svg" xmlns:xlink="http://www.w3.org/1999/xlink">
    <title>React/Sad</title>
    <defs>
        <radialGradient cx="50%" cy="19.3746922%" fx="50%" fy="19.3746922%" r="100%" id="radialGradient-1">
            <stop stop-color="#FFF277" offset="0%"></stop>
            <stop stop-color="#FFA441" offset="100%"></stop>
        </radialGradient>
        <circle id="path-2" cx="17" cy="17" r="17"></circle>
        <radialGradient cx="50%" cy="77.170359%" fx="50%" fy="77.170359%" r="208.544945%" gradientTransform="translate(0.500000,0.771704),scale(1.000000,0.312500),rotate(90.000000),translate(-0.500000,-0.771704)" id="radialGradient-4">
            <stop stop-color="#1BDFFF" offset="0%"></stop>
            <stop stop-color="#33A2F9" offset="100%"></stop>
        </radialGradient>
        <linearGradient x1="50%" y1="0%" x2="50%" y2="100%" id="linearGradient-5">
            <stop stop-color="#5B2003" offset="0%"></stop>
            <stop stop-color="#814725" offset="100%"></stop>
        </linearGradient>
    </defs>
    <g id="Reacts" stroke="none" stroke-width="1" fill="none" fill-rule="evenodd">
        <g id="Like-Swanling-Copy-4" transform="translate(-174.000000, -578.000000)">
            <g id="Group-11" transform="translate(20.000000, 568.000000)">
                <g id="Group" transform="translate(154.000000, 10.000000)">
                    <g id="Rectangle">
                        <mask id="mask-3" fill="white">
                            <use xlink:href="#path-2"></use>
                        </mask>
                        <use id="Mask" fill="url(#radialGradient-1)" xlink:href="#path-2"></use>
                        <rect fill="url(#radialGradient-4)" mask="url(#mask-3)" x="23" y="18" width="5" height="16"></rect>
                        <rect id="Rectangle-Copy-3" fill="url(#radialGradient-4)" mask="url(#mask-3)" transform="translate(8.500000, 26.000000) scale(-1, 1) translate(-8.500000, -26.000000) " x="6" y="18" width="5" height="16"></rect>
                    </g>
                    <path d="M27.8181818,13.9090909 C27.3605866,13.3139616 26.7108125,12.8936068 25.8688594,12.6480263 C25.0269064,12.4024459 24.131226,12.3159158 23.1818182,12.388436" id="Path-6-Copy-3" stroke="#C5680A" stroke-linecap="round" stroke-linejoin="round"></path>
                    <path d="M10.8181818,13.9090909 C10.3605866,13.3139616 9.71081246,12.8936068 8.86885944,12.6480263 C8.02690641,12.4024459 7.13122599,12.3159158 6.18181818,12.388436" id="Path-6-Copy-4" stroke="#C5680A" stroke-linecap="round" stroke-linejoin="round" transform="translate(8.500000, 13.136364) scale(-1, 1) translate(-8.500000, -13.136364) "></path>
                    <circle id="Oval" fill="url(#linearGradient-5)" cx="17" cy="27" r="3"></circle>
                    <path d="M21.66,17.9303338 C22.6918931,17.6326747 23.7237862,17.4838452 24.7556794,17.4838452 C25.7875725,17.4838452 26.8194656,17.6326747 27.8513587,17.9303338" id="Path-15" stroke="#504A4A" stroke-width="1.4" stroke-linecap="round" stroke-linejoin="round"></path>
                    <path d="M5.66,17.9303338 C6.69189312,17.6326747 7.72378624,17.4838452 8.75567935,17.4838452 C9.78757247,17.4838452 10.8194656,17.6326747 11.8513587,17.9303338" id="Path-15-Copy" stroke="#504A4A" stroke-width="1.4" stroke-linecap="round" stroke-linejoin="round" transform="translate(8.755679, 17.707090) scale(-1, 1) translate(-8.755679, -17.707090) "></path>
                </g>
            </g>
        </g>
    </g>
</svg>