<?xml version="1.0" encoding="UTF-8"?>
<svg width="25px" height="25px" viewBox="0 0 25 25" version="1.1" xmlns="http://www.w3.org/2000/svg" xmlns:xlink="http://www.w3.org/1999/xlink">
	<defs>
		<linearGradient x1="50%" y1="0%" x2="50%" y2="100%" id="linearGradient-1">
			<stop stop-color="#8D9AA3" offset="0%">
			</stop>
			<stop stop-color="#8D9AA3" offset="100%">
			</stop>
		</linearGradient>
		<linearGradient x1="50%" y1="0%" x2="50%" y2="100%" id="linearGradient-2">
			<stop stop-color="#8D9AA3" offset="0%">
			</stop>
			<stop stop-color="#8D9AA3" offset="100%">
			</stop>
		</linearGradient>
	</defs>
	<g stroke="none" stroke-width="1" fill="none" fill-rule="evenodd">
		<g transform="translate(1.000000, 0.000000)">
			<g id="store-(1)" transform="translate(2.000000, 0.000000)" fill="url(#linearGradient-1)" fill-rule="nonzero">
				<path d="M19.9375,0 C20.252375,0 20.52875,0.2145 20.604375,0.521125 L20.604375,0.521125 L21.979375,6.021125 C21.993125,6.07475 22,6.131125 22,6.1875 C22,7.33975 21.454125,8.355875 20.625,8.980125 L20.625,8.980125 L20.625,18.5625 C20.625,18.942 20.317,19.25 19.9375,19.25 L19.9375,19.25 L13.0625,19.25 C12.683,19.25 12.375,18.942 12.375,18.5625 L12.375,18.5625 L12.375,13.75 L10.3123886,13.7502454 C10.095989,13.2640461 9.83252229,12.8034199 9.52777535,12.3741538 L13.0625,12.375 C13.442,12.375 13.75,12.683 13.75,13.0625 L13.75,13.0625 L13.75,17.875 L19.25,17.875 L19.25,9.57 C19.080875,9.598875 18.910375,9.625 18.734375,9.625 C17.686625,9.625 16.754375,9.103875 16.15625,8.295375 C15.558125,9.103875 14.625875,9.625 13.578125,9.625 C12.530375,9.625 11.598125,9.103875 11,8.295375 C10.401875,9.103875 9.469625,9.625 8.421875,9.625 C7.374125,9.625 6.441875,9.103875 5.84375,8.295375 C5.56698447,8.66948565 5.21867891,8.98206599 4.82049341,9.20995746 C4.23578428,9.07196911 3.62629678,9 3,9 C2.4432998,9 1.89988062,9.05686284 1.37523376,9.16509724 L1.375,8.980125 C0.545875,8.355875 0,7.33975 0,6.1875 C0,6.131125 0.006875,6.07475 0.020625,6.021125 L0.020625,6.021125 L1.395625,0.521125 C1.47125,0.2145 1.747625,0 2.0625,0 L2.0625,0 Z M19.40125,1.375 L2.600125,1.375 L1.376375,6.26725 C1.414875,7.36725 2.248125,8.25 3.265625,8.25 C4.307875,8.25 5.15625,7.324625 5.15625,6.1875 C5.15625,5.808 5.46425,5.5 5.84375,5.5 C6.22325,5.5 6.53125,5.808 6.53125,6.1875 C6.53125,7.324625 7.379625,8.25 8.421875,8.25 C9.464125,8.25 10.3125,7.324625 10.3125,6.1875 C10.3125,5.808 10.6205,5.5 11,5.5 C11.3795,5.5 11.6875,5.808 11.6875,6.1875 C11.6875,7.324625 12.535875,8.25 13.578125,8.25 C14.620375,8.25 15.46875,7.324625 15.46875,6.1875 C15.46875,5.808 15.77675,5.5 16.15625,5.5 C16.53575,5.5 16.84375,5.808 16.84375,6.1875 C16.84375,7.324625 17.692125,8.25 18.734375,8.25 C19.751875,8.25 20.585125,7.36725 20.625,6.26725 L20.625,6.26725 L19.40125,1.375 Z" id="Combined-Shape">
				</path>
			</g>
			<g transform="translate(-0.000000, 12.000000)" stroke="url(#linearGradient-2)" stroke-linejoin="round" stroke-width="1.8">
				<path d="M4.85714286,9.71428571 C7.53966878,9.71428571 9.71428571,7.53966878 9.71428571,4.85714286 C9.71428571,2.17461693 7.53966878,5.18696197e-13 4.85714286,5.18696197e-13 C2.17461693,5.18696197e-13 -4.97379915e-14,2.17461693 -4.97379915e-14,4.85714286 C-4.97379915e-14,7.53966878 2.17461693,9.71428571 4.85714286,9.71428571 Z M8.25924067,8.2592409 L11.4442092,11.4442094" id="Combined-Shape">
				</path>
			</g>
		</g>
	</g>
</svg>
