<?xml version="1.0" encoding="UTF-8"?>
<svg width="20px" height="15px" viewBox="0 0 20 15" version="1.1" xmlns="http://www.w3.org/2000/svg" xmlns:xlink="http://www.w3.org/1999/xlink">
    <title>Black Buttons-05</title>
    <g id="Create-Moment" stroke="none" stroke-width="1" fill="none" fill-rule="evenodd">
        <g id="101_Edit-Swanlings" transform="translate(-30.000000, -768.000000)" fill="#8D9AA3" fill-rule="nonzero">
            <g id="Group-6" transform="translate(0.000000, 600.000000)">
                <g id="Group-2" transform="translate(29.000000, 60.000000)">
                    <g transform="translate(1.000000, 105.000000)" id="Black-Buttons-05">
                        <g transform="translate(0.000000, 3.000000)">
                            <path d="M11.7194287,3.41231159 C10.9824242,3.46724471 10.299655,3.47603401 9.6302588,3.57564608 C5.58787852,4.18137532 2.7141555,6.35013506 0.965998756,9.97498881 C0.309232689,11.3373303 0.0202259009,12.7919594 0,14.2963946 C-0.00503433251,14.6443044 0.110865562,14.9035887 0.471195361,14.9834248 C0.818895044,15.0603312 1.02766344,14.8603746 1.17402421,14.5747224 C2.05813238,12.8549494 3.20301531,11.3387952 4.7587485,10.1507748 C6.72978965,8.64560721 8.98909464,8.03768064 11.4541962,8.06990807 C11.7082845,8.06990807 11.7261152,8.1988178 11.7246293,8.39291484 C11.7194287,9.19860066 11.7246293,10.0042865 11.7209146,10.8099723 C11.7209146,11.0817082 11.7565761,11.3292734 12.0255233,11.4691698 C12.2944705,11.6090661 12.5210696,11.5160461 12.7528694,11.3644306 C15.0441212,9.87073795 17.3368588,8.37924259 19.6310824,6.88994456 C20.1058262,6.58085418 20.1236569,6.18313837 19.6771452,5.81984731 C17.3745015,3.94723814 15.0713626,2.0773146 12.7677284,0.210076674 C12.5537593,0.0357555606 12.3316179,-0.0719133626 12.0552412,0.056263927 C11.7788645,0.184441217 11.7142281,0.414427896 11.7142281,0.692023283 C11.7224005,1.59292652 11.7194287,2.49382975 11.7194287,3.41231159 Z" id="Path"></path>
                        </g>
                    </g>
                </g>
            </g>
        </g>
    </g>
</svg>