<?xml version="1.0" encoding="UTF-8"?>
<svg width="23px" height="23px" viewBox="0 0 23 23" version="1.1" xmlns="http://www.w3.org/2000/svg" xmlns:xlink="http://www.w3.org/1999/xlink">
    <title>Splurge Coins</title>
    <defs>
        <path d="M11.1821302,0.00147361485 C17.1732726,0.0986076566 22,4.98538285 22,11 L21.9985264,11.1819022 C21.9013904,17.1729244 17.0145201,22 11.0002278,22 L10.8183119,21.9985262 C4.82672739,21.9013833 0,17.0141661 0,11 C0,4.9246291 4.92472951,0 11.0002278,0 L11.1821302,0.00147361485 Z" id="path-1"></path>
        <linearGradient x1="50%" y1="0%" x2="50%" y2="100%" id="linearGradient-3">
            <stop stop-color="#E4D3B4" offset="0%"></stop>
            <stop stop-color="#AA9979" offset="100%"></stop>
        </linearGradient>
    </defs>
    <g id="Logo-&amp;-Iconography" stroke="none" stroke-width="1" fill="none" fill-rule="evenodd">
        <g id="Iconography" transform="translate(-1821.000000, -140.000000)">
            <g id="Splurge-Coins" transform="translate(1821.450198, 140.450198)">
                <mask id="mask-2" fill="white">
                    <use xlink:href="#path-1"></use>
                </mask>
                <g id="Clip-347"></g>
                <path d="M11.000453,0 C17.0753707,0 22,4.92473074 22,11.0002265 C22,14.3424738 20.5094312,17.3365489 18.1567987,19.3539336 C17.5060044,22.2401224 15.1003588,24.4754549 12.024597,24.7613146 C8.70526326,25.0687956 5.80264478,23.0145592 4.78598885,20.0776796 C1.89604163,18.0960843 0,14.769577 0,11.0002265 C0,4.92473074 4.92508237,0 11.000453,0 Z M11.000453,1.46666667 C5.73500167,1.46666667 1.46666667,5.73484671 1.46666667,11.0002265 C1.46666667,13.7043322 2.59261198,16.1454774 4.40128941,17.8804693 L4.4,17.7957158 C4.42195712,17.8469787 4.4449814,17.897664 4.46904367,17.9477456 C4.70015948,18.162163 4.94060737,18.3669225 5.19089094,18.5595323 L5.16490927,18.3031125 L5.16490927,18.3031125 L5.15558071,18.0312633 C5.15558071,17.9438491 5.15856924,17.8581536 5.16540592,17.7724649 C5.24490079,16.5060275 5.91713848,15.4027998 6.90392389,14.7392284 C6.77315392,15.132376 6.70306116,15.5526519 6.70306116,15.9888637 C6.70306116,16.6313361 6.85392479,17.2367803 7.12401393,17.7724649 C7.15778095,17.8404989 7.19282397,17.9055216 7.23085552,17.9709774 C7.42359885,18.3085759 7.66548837,18.6130167 7.94626235,18.876985 C8.4146555,19.3205186 8.98946043,19.6482104 9.62965035,19.8170164 C9.87666402,19.8820391 10.1330865,19.9242372 10.396339,19.9380145 C10.1775317,19.894524 9.96555429,19.8316531 9.76341556,19.7519937 C8.93133522,19.4316169 8.23644515,18.8334944 7.78856876,18.0700171 C7.73172626,17.9739887 7.67916173,17.8745159 7.63044535,17.7724649 C7.56121222,17.6312203 7.5022341,17.4839532 7.45308791,17.3328087 C8.08942968,15.8601108 9.4933197,14.8016662 11.1561909,14.6711877 C11.2724347,14.6599953 11.3899611,14.6561179 11.5074875,14.6561179 C11.5425305,14.6561179 11.5762908,14.6561179 11.6113338,14.6578367 C12.4455498,14.6763575 13.2216405,14.9278342 13.8806347,15.3511281 C13.2002709,14.7379359 12.2810128,14.3594251 11.3685914,14.1798598 C11.286108,14.162205 11.2036313,14.148854 11.1211479,14.1355098 C10.1249671,13.9964171 9.22322384,13.6713035 8.45781792,13.1993558 C8.33516735,13.1244264 8.21635821,13.0456264 8.10139722,12.9625159 C7.82703012,12.7665883 7.57531539,12.5504211 7.3441107,12.3165991 C6.34407503,11.3042233 5.76456904,9.95899261 5.78081455,8.46304371 C5.81329214,5.51119217 8.15139632,3.05152791 11.0784153,2.90382774 C11.8857009,2.86292209 12.6575204,2.99511939 13.3626723,3.26683574 C13.8494398,3.45587463 14.3045827,3.7116618 14.7152805,4.02299132 L14.7152805,4.02299132 L14.8597238,4.13452264 C14.9917832,4.24346226 15.1199877,4.35671913 15.2430681,4.47599851 C15.3644427,4.59441849 15.4695717,4.71929405 15.557186,4.85019889 C15.5682939,4.86484236 15.5776961,4.87991215 15.5858154,4.89498194 C15.6627449,5.02287552 15.7277001,5.15765776 15.7789886,5.29760312 C15.877281,5.55898647 15.9298455,5.84319443 15.9298455,6.13816169 C15.9298455,6.633367 15.7802646,7.09455531 15.5251315,7.47693682 C15.4708545,7.55702933 15.412736,7.6332512 15.3494866,7.70645505 C15.0892227,8.01003652 14.7541649,8.24687649 14.373386,8.38811431 C14.3520164,8.39629544 14.3302236,8.40447657 14.3084241,8.41136523 C14.2007297,8.4496927 14.0887639,8.4781135 13.9738029,8.49275698 C13.9105536,7.93209587 13.6635332,7.42914252 13.2960046,7.0441693 C12.8425675,6.56920367 12.2057959,6.2742364 11.4993681,6.2742364 C11.3899611,6.2742364 11.2818368,6.28112506 11.1749952,6.29619485 C11.0972195,6.30566845 11.0215728,6.31901946 10.9429376,6.33667419 C10.8621667,6.35303645 10.7822487,6.37327611 10.7057491,6.39954505 C10.450616,6.47963756 10.2138574,6.60753114 10.0091465,6.77202665 C9.98735376,6.78838891 9.96683701,6.80475116 9.94803278,6.81939464 C9.75230092,6.97786088 9.58092725,7.16258929 9.44075517,7.37100846 C9.16638806,7.77448902 9.00740504,8.26022073 9.00740504,8.78557238 C9.00740504,10.1010966 10.0129947,11.1793478 11.2916687,11.2852761 C10.6125876,11.0135598 10.0510329,10.5114658 9.69845367,9.87502269 C10.1698354,10.3710874 10.8826767,10.6707914 11.5925296,10.767253 L11.5925296,10.767253 L11.6262899,10.7724161 C11.9908367,10.8296908 12.3429795,10.9033277 12.6835912,10.9946126 C13.0075343,11.080308 13.3203627,11.1793478 13.6216535,11.293464 C16.4144774,12.3506161 18.1777767,14.5880839 18.3235095,17.3943871 L18.304393,17.1267776 C19.6955211,15.4699644 20.5333333,13.3329475 20.5333333,11.0002265 C20.5333333,5.73480233 16.265407,1.46666667 11.000453,1.46666667 Z M15.4881849,8.30852161 C15.5292823,8.47240864 15.5811962,8.63384231 15.6439334,8.78996465 C15.8001102,9.185174 16.0172905,9.55177151 16.285093,9.87995018 C15.9571572,9.85624507 15.6426349,9.78513616 15.350609,9.67560198 C14.9058601,9.51008366 14.5108699,9.25587187 14.1898549,8.93464225 C14.6808954,8.83369483 15.1260726,8.61300159 15.4881849,8.30852161 Z" id="Combined-Shape" fill="url(#linearGradient-3)" mask="url(#mask-2)"></path>
            </g>
        </g>
    </g>
</svg>