<?xml version="1.0" encoding="UTF-8"?>
<svg width="30px" height="30px" viewBox="0 0 30 30" version="1.1" xmlns="http://www.w3.org/2000/svg" xmlns:xlink="http://www.w3.org/1999/xlink">
    <title>Group</title>
    <g id="Create-Moment" stroke="none" stroke-width="1" fill="none" fill-rule="evenodd">
        <g id="110-Tagged-Swan-Users" transform="translate(-15.000000, -488.000000)">
            <g id="Group" transform="translate(15.000000, 488.000000)">
                <circle id="Combined-Shape" fill="#1C1D20" cx="15" cy="15" r="15"></circle>
                <path d="M14.7822008,8.28162483 L20.4231709,8.3756488 C21.3937975,8.39182726 22.1767441,9.17477393 22.1929226,10.1454005 L22.1929226,10.1454005 L22.2869466,15.7863706 C22.295076,16.2740967 22.1049112,16.7442387 21.7599888,17.0891611 L21.7599888,17.0891611 L15.6177087,23.2314411 C14.914765,23.9343849 13.775068,23.9343849 13.0721243,23.2314411 L13.0721243,23.2314411 L7.33713025,17.4964471 C6.63418653,16.7935034 6.63418653,15.6538064 7.33713025,14.9508627 L7.33713025,14.9508627 L13.4794103,8.80858263 C13.8243327,8.46366024 14.2944747,8.27349538 14.7822008,8.28162483 L14.7822008,8.28162483 Z M14.7555357,9.88140261 C14.7013439,9.88049934 14.6491059,9.90162877 14.6107812,9.93995348 L14.6107812,9.93995348 L8.4685011,16.0822335 C8.39039625,16.1603384 8.39039625,16.2869714 8.4685011,16.3650762 L8.4685011,16.3650762 L14.2034952,22.1000703 C14.2816,22.1781751 14.408233,22.1781751 14.4863379,22.1000703 L14.4863379,22.1000703 L20.6286179,15.9577902 C20.6669426,15.9194655 20.6880721,15.8672275 20.6871688,15.8130357 L20.6871688,15.8130357 L20.5931448,10.1720657 C20.5913472,10.0642183 20.5043531,9.9772242 20.3965057,9.97542659 L20.3965057,9.97542659 Z M18,11.5 C18.5522847,11.5 19,11.9477153 19,12.5 C19,13.0522847 18.5522847,13.5 18,13.5 C17.4477153,13.5 17,13.0522847 17,12.5 C17,11.9477153 17.4477153,11.5 18,11.5 Z" id="Combined-Shape" fill="#FCFCF9" fill-rule="nonzero"></path>
            </g>
        </g>
    </g>
</svg>