<?xml version="1.0" encoding="UTF-8"?>
<svg width="38px" height="38px" viewBox="0 0 38 38" version="1.1" xmlns="http://www.w3.org/2000/svg" xmlns:xlink="http://www.w3.org/1999/xlink">
    <title>Combined Shape</title>
    <defs>
        <path d="M30,488 C38.2842712,488 45,494.715729 45,503 C45,511.284271 38.2842712,518 30,518 C21.7157288,518 15,511.284271 15,503 C15,494.715729 21.7157288,488 30,488 Z M29.7822008,496.281625 C29.2944747,496.273495 28.8243327,496.46366 28.4794103,496.808583 L28.4794103,496.808583 L22.3371303,502.950863 L22.2264817,503.071914 C21.6363561,503.779091 21.673239,504.832556 22.3371303,505.496447 L22.3371303,505.496447 L28.0721243,511.231441 L28.1931758,511.34209 C28.900353,511.932215 29.9538174,511.895332 30.6177087,511.231441 L30.6177087,511.231441 L36.7599888,505.089161 L36.8691714,504.969697 C37.1447219,504.639546 37.2941727,504.219905 37.2869466,503.786371 L37.2869466,503.786371 L37.1929226,498.1454 L37.1840805,497.993788 C37.0938088,497.094483 36.3427119,496.390976 35.4231709,496.375649 L35.4231709,496.375649 Z M29.7555357,497.881403 L35.3965057,497.975427 L35.4483938,497.983127 C35.5309846,498.006801 35.5916468,498.082193 35.5931448,498.172066 L35.5931448,498.172066 L35.6871688,503.813036 L35.680907,503.866133 C35.6720752,503.900507 35.6541677,503.93224 35.6286179,503.95779 L35.6286179,503.95779 L29.4863379,510.10007 L29.434428,510.137561 C29.3595209,510.175051 29.265979,510.162554 29.2034952,510.10007 L29.2034952,510.10007 L23.4685011,504.365076 L23.4310108,504.313166 C23.3935204,504.238259 23.4060172,504.144717 23.4685011,504.082234 L23.4685011,504.082234 L29.6107812,497.939953 L29.6533007,497.90754 C29.6841483,497.889991 29.7194078,497.8808 29.7555357,497.881403 L29.7555357,497.881403 Z M33,499.5 C32.4477153,499.5 32,499.947715 32,500.5 C32,501.052285 32.4477153,501.5 33,501.5 C33.5522847,501.5 34,501.052285 34,500.5 C34,499.947715 33.5522847,499.5 33,499.5 Z" id="path-1"></path>
        <filter x="-23.3%" y="-16.7%" width="146.7%" height="146.7%" filterUnits="objectBoundingBox" id="filter-2">
            <feOffset dx="0" dy="2" in="SourceAlpha" result="shadowOffsetOuter1"></feOffset>
            <feGaussianBlur stdDeviation="2" in="shadowOffsetOuter1" result="shadowBlurOuter1"></feGaussianBlur>
            <feComposite in="shadowBlurOuter1" in2="SourceAlpha" operator="out" result="shadowBlurOuter1"></feComposite>
            <feColorMatrix values="0 0 0 0 0   0 0 0 0 0   0 0 0 0 0  0 0 0 0.3 0" type="matrix" in="shadowBlurOuter1"></feColorMatrix>
        </filter>
    </defs>
    <g id="Create-Moment" stroke="none" stroke-width="1" fill="none" fill-rule="evenodd">
        <g id="Combined-Shape" transform="translate(-11.000000, -486.000000)">
            <use fill="black" fill-opacity="1" filter="url(#filter-2)" xlink:href="#path-1"></use>
            <use fill-opacity="0.5" fill="#FFFFFF" fill-rule="evenodd" xlink:href="#path-1"></use>
        </g>
    </g>
</svg>