<?xml version="1.0" encoding="UTF-8"?>
<svg width="13px" height="14px" viewBox="0 0 13 14" version="1.1" xmlns="http://www.w3.org/2000/svg" xmlns:xlink="http://www.w3.org/1999/xlink">
    <title>fast-forward-double-right-arrows-symbol</title>
    <g id="Sprint-2---Mobile" stroke="none" stroke-width="1" fill="none" fill-rule="evenodd">
        <g id="Purchased-User-Copy-4" transform="translate(-26.000000, -479.000000)" fill="#8D9AA3" fill-rule="nonzero">
            <g id="fast-forward-double-right-arrows-symbol" transform="translate(32.857834, 486.000000) rotate(90.000000) translate(-32.857834, -486.000000) translate(26.000000, 480.000000)">
                <path d="M13.4203644,5.28748042 L8.42820737,0.295303779 C8.034469,-0.0984345931 7.39588689,-0.0984345931 7.00214852,0.295303779 C6.60841015,0.689042151 6.60841015,1.32762426 7.00214852,1.72136263 L11.2808153,6 L7.00214852,10.2786374 C6.60841015,10.6723757 6.60841015,11.3109578 7.00214852,11.7046962 C7.39588689,12.0984346 8.034469,12.0984346 8.42820737,11.7046962 L13.4203644,6.71253919 C13.8141028,6.31978129 13.8141028,5.68121879 13.4203644,5.28748042 Z M5.70358338,4.98518097 L1.74023674,0.807973534 C1.34198819,0.388762471 0.69693496,0.388762471 0.298686411,0.807973534 C-0.0995621371,1.2271846 -0.0995621371,1.90724071 0.298686411,2.32696162 L3.54152263,5.74467501 L0.298686411,9.1623884 C-0.0995621371,9.58161907 -0.0995621371,10.2621458 0.298686411,10.6813765 C0.69693496,11.1006072 1.34198819,11.1006072 1.74023674,10.6813765 L5.70358338,6.50416905 C6.10183193,6.08495799 6.10183193,5.40490188 5.70358338,4.98518097 Z" id="Shape"></path>
            </g>
        </g>
    </g>
</svg>