<?xml version="1.0" encoding="UTF-8"?>
<svg width="19px" height="13px" viewBox="0 0 19 13" version="1.1" xmlns="http://www.w3.org/2000/svg" xmlns:xlink="http://www.w3.org/1999/xlink">
    <title>Tt</title>
    <g id="Create-Moment" stroke="none" stroke-width="1" fill="none" fill-rule="evenodd">
        <g id="101_Create-Swanling-Text" transform="translate(-28.000000, -722.000000)" fill="#FFFFFF" fill-rule="nonzero">
            <g id="Group-6" transform="translate(0.000000, 597.000000)">
                <path d="M34.8986757,137.710552 L34.8986757,127.559133 L38.9020523,127.559133 L38.9020523,125.2 L28,125.2 L28,127.559133 L32.0033766,127.559133 L32.0033766,137.710552 L34.8986757,137.710552 Z M44.1922285,137.85353 C44.6330765,137.85353 45.0530736,137.802892 45.4522197,137.701616 C45.8513659,137.60034 46.1879593,137.448426 46.462,137.245874 L46.462,137.245874 L45.7113669,135.27993 C45.4015818,135.518227 45.0262652,135.637375 44.5854172,135.637375 C44.2041433,135.637375 43.9092517,135.527163 43.7007425,135.306739 C43.4922333,135.086315 43.3879787,134.773551 43.3879787,134.368447 L43.3879787,134.368447 L43.3879787,130.454432 L45.7828558,130.454432 L45.7828558,128.309766 L43.3879787,128.309766 L43.3879787,125.968505 L40.5999129,125.968505 L40.5999129,128.309766 L39.1165189,128.309766 L39.1165189,130.454432 L40.5999129,130.454432 L40.5999129,134.404192 C40.5999129,135.536099 40.9126767,136.393965 41.5382043,136.977791 C42.1637318,137.561617 43.0484066,137.85353 44.1922285,137.85353 Z" id="Tt"></path>
            </g>
        </g>
    </g>
</svg>