<?xml version="1.0" encoding="UTF-8"?>
<svg width="8px" height="13px" viewBox="0 0 8 13" version="1.1" xmlns="http://www.w3.org/2000/svg" xmlns:xlink="http://www.w3.org/1999/xlink">
    <title>Path</title>
    <g id="Symbols" stroke="none" stroke-width="1" fill="none" fill-rule="evenodd">
        <g id="tab/mobile/all-time" transform="translate(-45.000000, -17.000000)" fill="#5F6063" fill-rule="nonzero">
            <path d="M52.7317751,21.7988922 L49.218079,21.7988922 L49.8071596,17.2979414 C49.8201702,17.1739491 49.746519,17.0571932 49.6290125,17.0155328 C49.511506,16.9738724 49.3807584,17.0181615 49.3127611,17.1226589 L45.0397311,24.6088432 C44.9888508,24.6915994 44.9866949,24.795399 45.0340952,24.8801964 C45.0814955,24.9649938 45.1710422,25.0175332 45.2681884,25.0175451 L48.7293802,25.0175451 L48.2625414,29.5252685 C48.2531026,29.6487881 48.3289829,29.762867 48.4465499,29.8019079 C48.5641169,29.8409489 48.6931644,29.7949212 48.759488,29.6902915 L52.9619088,22.2049119 C53.0115205,22.1220457 53.0127499,22.0189055 52.9651274,21.9348803 C52.9175054,21.8508385 52.8283716,21.798895 52.7317751,21.7988922 Z" id="Path"></path>
        </g>
    </g>
</svg>