<?xml version="1.0" encoding="UTF-8"?>
<svg width="8px" height="12px" viewBox="0 0 8 12" version="1.1" xmlns="http://www.w3.org/2000/svg" xmlns:xlink="http://www.w3.org/1999/xlink">
    <!-- Generator: Sketch 64 (93537) - https://sketch.com -->
    <title>flash</title>
    <desc>Created with Sketch.</desc>
    <g id="Newsfeed---Swanlings" stroke="none" stroke-width="1" fill="none" fill-rule="evenodd">
        <g id="Title-Trending" transform="translate(-31.000000, -550.000000)" fill="#E4D3B4" fill-rule="nonzero">
            <g id="Group-14-Copy-10" transform="translate(13.000000, 120.000000)">
                <g id="flash" transform="translate(18.000000, 430.000000)">
                    <path d="M7.45816833,4.62078832 C7.41357726,4.54209554 7.33011667,4.49345816 7.23966825,4.49345551 L3.94960955,4.49345551 L4.50119668,0.278978222 C4.51337922,0.162877732 4.44441573,0.0535529616 4.33438822,0.0145441601 C4.22436072,-0.0244646414 4.10193486,0.0170055561 4.03826533,0.114852011 L0.0372023407,7.12456066 C-0.0104396116,7.20204963 -0.0124582842,7.29924262 0.0319251195,7.37864293 C0.0763085232,7.45804323 0.160155791,7.50723864 0.251118943,7.50724974 L3.49201512,7.50724974 L3.05488939,11.7280686 C3.04605133,11.8437265 3.11710205,11.9505446 3.2271862,11.9871006 C3.33727036,12.0236567 3.45810435,11.9805586 3.52020666,11.8825883 L7.45515453,4.8736331 C7.50160859,4.79604112 7.50275973,4.69946551 7.45816833,4.62078832 L7.45816833,4.62078832 Z" id="Path"></path>
                </g>
            </g>
        </g>
    </g>
</svg>