<?xml version="1.0" encoding="UTF-8"?>
<svg width="8px" height="13px" viewBox="0 0 8 13" version="1.1" xmlns="http://www.w3.org/2000/svg" xmlns:xlink="http://www.w3.org/1999/xlink">
    <title>Path</title>
    <defs>
        <linearGradient x1="50%" y1="0%" x2="50%" y2="100%" id="linearGradient-1">
            <stop stop-color="#E4D3B4" offset="0%"></stop>
            <stop stop-color="#AA9979" offset="100%"></stop>
        </linearGradient>
    </defs>
    <g id="Symbols" stroke="none" stroke-width="1" fill="none" fill-rule="evenodd">
        <g id="tab/mobile/trending" transform="translate(-45.000000, -17.000000)" fill="url(#linearGradient-1)" fill-rule="nonzero">
            <g id="Group" transform="translate(45.000000, 13.000000)">
                <path d="M7.73177511,8.7988922 L4.21807903,8.7988922 L4.80715956,4.2979414 C4.82017019,4.17394913 4.746519,4.05719315 4.62901252,4.01553278 C4.51150604,3.97387241 4.38075845,4.01816149 4.31276106,4.12265892 L0.0397311205,11.6088432 C-0.0111492304,11.6915994 -0.0133051196,11.795399 0.0340951872,11.8801964 C0.081495494,11.9649938 0.171042169,12.0175332 0.268188421,12.0175451 L3.72938023,12.0175451 L3.26254145,16.5252685 C3.25310264,16.6487881 3.32898293,16.762867 3.44654991,16.8019079 C3.5641169,16.8409489 3.69316441,16.7949212 3.75948804,16.6902915 L7.96190879,9.20491185 C8.0115205,9.12204567 8.01274989,9.01890546 7.96512744,8.93488028 C7.91750535,8.85083847 7.82837164,8.79889503 7.73177511,8.7988922 Z" id="Path"></path>
            </g>
        </g>
    </g>
</svg>