<?xml version="1.0" encoding="UTF-8"?>
<svg width="40px" height="40px" viewBox="0 0 40 40" version="1.1" xmlns="http://www.w3.org/2000/svg" xmlns:xlink="http://www.w3.org/1999/xlink">
    <title>btn_trim 2</title>
    <g id="Create-Moment" stroke="none" stroke-width="1" fill="none" fill-rule="evenodd">
        <g id="btn_trim" transform="translate(1.000000, 1.000000)">
            <circle id="Oval-Copy" stroke="#444B52" cx="19" cy="19" r="19"></circle>
            <path d="M12.5,12 C14.4329966,12 16,13.5670034 16,15.5 C16,15.691914 15.9845538,15.8802204 15.9548368,16.0637437 L15.9905988,16.0803772 L20.686,18.669 L29.0094012,14.0803772 L29.094713,14.0409187 C29.4118879,13.9210228 29.7697354,14.0711644 29.9259918,14.4054291 C30.0809568,14.7369313 29.9843017,15.1354048 29.7131877,15.3442067 L29.6266969,15.4009005 L22.191,19.5 L29.6266969,23.5990995 C29.9624544,23.7842308 30.0964533,24.2299185 29.9259918,24.5945709 C29.7697354,24.9288356 29.4118879,25.0789772 29.094713,24.9590813 L29.0094012,24.9196228 L20.686,20.33 L15.9905988,22.9196228 L15.9548368,22.9362563 C15.9845538,23.1197796 16,23.308086 16,23.5 C16,25.4329966 14.4329966,27 12.5,27 C10.5670034,27 9,25.4329966 9,23.5 C9,21.5670034 10.5670034,20 12.5,20 C13.7207483,20 14.7955268,20.6249712 15.421831,21.5724092 L19.181,19.5 L15.421831,17.4275908 C14.7955268,18.3750288 13.7207483,19 12.5,19 C10.5670034,19 9,17.4329966 9,15.5 C9,13.5670034 10.5670034,12 12.5,12 Z M12.5,21 C11.1192881,21 10,22.1192881 10,23.5 C10,24.8807119 11.1192881,26 12.5,26 C13.8807119,26 15,24.8807119 15,23.5 C15,22.1192881 13.8807119,21 12.5,21 Z M12.5,13 C11.1192881,13 10,14.1192881 10,15.5 C10,16.8807119 11.1192881,18 12.5,18 C13.8807119,18 15,16.8807119 15,15.5 C15,14.1192881 13.8807119,13 12.5,13 Z" id="Combined-Shape" fill="#FFFFFF" fill-rule="nonzero"></path>
        </g>
    </g>
</svg>