<?xml version="1.0" encoding="UTF-8"?>
<svg width="20px" height="18px" viewBox="0 0 20 18" version="1.1" xmlns="http://www.w3.org/2000/svg" xmlns:xlink="http://www.w3.org/1999/xlink">
    <title>wallet (2)</title>
    <defs>
        <linearGradient x1="50%" y1="0%" x2="50%" y2="100%" id="linearGradient-1">
            <stop stop-color="#E4D3B4" offset="0%"></stop>
            <stop stop-color="#AA9979" offset="100%"></stop>
        </linearGradient>
    </defs>
    <g id="Messages" stroke="none" stroke-width="1" fill="none" fill-rule="evenodd">
        <g id="Profile-Menu-Copy-3" transform="translate(-47.000000, -140.000000)" fill="url(#linearGradient-1)">
            <g id="wallet-(2)" transform="translate(47.000000, 140.000000)">
                <path d="M19.375,8.75097542 L18.75,8.75097542 L18.75,5.62597542 C18.75,5.28097542 18.47,5.00097542 18.125,5.00097542 L17.5,5.00097542 L17.5,3.12597542 C17.5,2.78097542 17.22,2.50097542 16.875,2.50097542 L14.76125,2.50097542 L13.68375,0.345975418 C13.52875,0.0359754179 13.15375,-0.0877745821 12.845,0.0659754179 L11.405,0.787225418 L11.18375,0.345975418 C11.02875,0.0372254179 10.65375,-0.0877745821 10.345,0.0672254179 L5.4775,2.50097542 L1.875,2.50097542 C0.84125,2.50097542 0,3.34222542 0,4.37597542 L0,15.6259754 C0,16.6597254 0.84125,17.5009754 1.875,17.5009754 L18.125,17.5009754 C18.47,17.5009754 18.75,17.2209754 18.75,16.8759754 L18.75,13.7509754 L19.375,13.7509754 C19.72,13.7509754 20,13.4709754 20,13.1259754 L20,9.37597542 C20,9.03097542 19.72,8.75097542 19.375,8.75097542 Z M16.25,3.75097542 L16.25,5.00097542 L16.01125,5.00097542 L15.38625,3.75097542 L16.25,3.75097542 Z M12.845,1.46472542 L14.61375,5.00097542 L13.51125,5.00097542 L11.96375,1.90472542 L12.845,1.46472542 Z M10.345,1.46472542 L12.11375,5.00097542 L3.2725,5.00097542 L10.345,1.46472542 Z M1.875,3.75097542 L2.9775,3.75097542 L1.3,4.58972542 C1.275,4.52097542 1.25,4.45097542 1.25,4.37597542 C1.25,4.03097542 1.53,3.75097542 1.875,3.75097542 Z M17.5,16.2509754 L1.875,16.2509754 C1.53,16.2509754 1.25,15.9709754 1.25,15.6259754 L1.25,6.13097542 C1.455,6.20472542 1.665,6.25097542 1.875,6.25097542 L17.5,6.25097542 L17.5,8.75097542 L15,8.75097542 C13.62125,8.75097542 12.5,9.87222542 12.5,11.2509754 C12.5,12.6297254 13.62125,13.7509754 15,13.7509754 L17.5,13.7509754 L17.5,16.2509754 Z M18.75,12.5009754 L15,12.5009754 C14.31125,12.5009754 13.75,11.9397254 13.75,11.2509754 C13.75,10.5622254 14.31125,10.0009754 15,10.0009754 L18.75,10.0009754 L18.75,12.5009754 Z" id="Shape"></path>
            </g>
        </g>
    </g>
</svg>