<?xml version="1.0" encoding="UTF-8"?>
<svg width="22px" height="20px" viewBox="0 0 22 20" version="1.1" xmlns="http://www.w3.org/2000/svg" xmlns:xlink="http://www.w3.org/1999/xlink">
    <title>icn/wallet/eth</title>
    <defs>
        <linearGradient x1="50%" y1="0%" x2="50%" y2="100%" id="linearGradient-1">
            <stop stop-color="#E4D3B4" offset="0%"></stop>
            <stop stop-color="#AA9979" offset="100%"></stop>
        </linearGradient>
        <linearGradient x1="50%" y1="0%" x2="50%" y2="100%" id="linearGradient-2">
            <stop stop-color="#E4D3B4" offset="0%"></stop>
            <stop stop-color="#AA9979" offset="100%"></stop>
        </linearGradient>
        <path d="M5.73932716,0.956517299 L5.81841489,0.957158012 C8.42325033,0.999390918 10.5218201,3.1241117 10.5218201,5.7392084 L10.5218201,5.7392084 L10.5211794,5.81829609 C10.4789465,8.42313241 8.35422773,10.5218964 5.73932716,10.5218964 L5.73932716,10.5218964 L5.66023355,10.5212556 C3.05520588,10.4790189 0.956636065,8.3541059 0.956636065,5.7392084 C0.956636065,3.09769658 3.09781535,0.956517299 5.73932716,0.956517299" id="path-3"></path>
        <linearGradient x1="50%" y1="0%" x2="50%" y2="100%" id="linearGradient-5">
            <stop stop-color="#E4D3B4" offset="0%"></stop>
            <stop stop-color="#AA9979" offset="100%"></stop>
        </linearGradient>
        <linearGradient x1="50%" y1="0%" x2="50%" y2="100%" id="linearGradient-6">
            <stop stop-color="#E4D3B4" offset="0%"></stop>
            <stop stop-color="#AA9979" offset="100%"></stop>
        </linearGradient>
        <linearGradient x1="50%" y1="0%" x2="50%" y2="100%" id="linearGradient-7">
            <stop stop-color="#E4D3B4" offset="0%"></stop>
            <stop stop-color="#AA9979" offset="100%"></stop>
        </linearGradient>
    </defs>
    <g id="Symbols" stroke="none" stroke-width="1" fill="none" fill-rule="evenodd">
        <g id="Newsfeed/add-a-wallet" transform="translate(-16.000000, -205.000000)">
            <g id="Group" transform="translate(16.000000, 205.000000)">
                <path d="M20.8623208,4.43586805 C21.4915657,4.43586805 22.0022572,4.95758054 22,5.60040485 L22,5.60040485 L22,18.5756739 C22,19.2185215 21.4893086,19.7402107 20.8600409,19.7402107 L20.8600409,19.7402107 L5.92254349,19.7402107 C5.34036406,19.7402107 4.85966645,19.2936442 4.79101425,18.7177215 C5.10169752,18.7610498 5.41776914,18.7836892 5.73912848,18.7836892 C9.4370338,18.7836892 12.4347784,15.7859447 12.4347784,12.0880394 C12.4347784,8.39013403 9.4370338,5.39238947 5.73912848,5.39238947 C5.41811882,5.39238947 5.10238538,5.41497962 4.79343115,5.45865694 C4.79898759,5.40345566 4.80995809,5.34868223 4.82364478,5.29529621 C4.86468249,5.13924828 4.93763842,4.99717479 5.03339308,4.87373389 C5.24314138,4.60589042 5.56460345,4.43586805 5.92482336,4.43586805 L5.92482336,4.43586805 Z" id="Combined-Shape" fill="url(#linearGradient-1)" fill-rule="nonzero"></path>
                <path d="M6.83951088,3.81256472 L19.2710538,3.81256472 L8.13271665,0.396606497 C7.60470517,0.234673424 7.04539459,0.531438609 6.88346152,1.05945009 C6.85432386,1.1544586 6.83951088,1.2532797 6.83951088,1.35265586 L6.83951088,3.81256472 L6.83951088,3.81256472 Z" id="Path-4" fill="url(#linearGradient-2)" fill-rule="nonzero"></path>
                <g id="Group-349" transform="translate(0.000000, 6.348911)">
                    <mask id="mask-4" fill="white">
                        <use xlink:href="#path-3"></use>
                    </mask>
                    <g id="Clip-347"></g>
                    <path d="M7.62049202,4.44691512 C7.45561924,4.59366715 7.2529263,4.70003599 7.02935147,4.74869022 C7.17551227,4.90351518 7.35535463,5.02603915 7.55785256,5.105815 C7.69081438,5.15860784 7.83401903,5.19288063 7.98333099,5.20430592 C7.86139825,5.04613169 7.76251421,4.8694405 7.69140561,4.67895909 C7.66284083,4.60371188 7.639204,4.52590473 7.62049202,4.44691512" id="Fill-346" fill="url(#linearGradient-5)" fill-rule="nonzero" mask="url(#mask-4)"></path>
                    <path d="M8.94587562,8.61216985 C8.87870443,7.32844787 8.06596394,6.30493533 6.77869458,5.82134917 C6.63982356,5.76914756 6.49563455,5.7238426 6.34632259,5.68464186 C6.18932772,5.64288429 6.02701798,5.60919963 5.85899094,5.58299977 L5.84343013,5.58063795 C5.51624451,5.53651236 5.18768142,5.39941502 4.97041201,5.17249402 C5.13292296,5.46363006 5.39175493,5.69330911 5.70475721,5.81760368 C5.11539035,5.76914756 4.65189365,5.27590979 4.65189365,4.67413329 C4.65189365,4.43381519 4.72517215,4.21162093 4.85163353,4.02705183 C4.9162417,3.93171207 4.99523131,3.84720947 5.0854481,3.7747203 C5.09411535,3.76802176 5.10357194,3.76053696 5.11361666,3.75305217 C5.20797207,3.67780496 5.31709895,3.61930102 5.43469497,3.58266331 C5.4699552,3.57064679 5.50679102,3.56138831 5.54401995,3.55390352 L5.54540052,3.55390352 C5.58026454,3.5458275 5.61513165,3.53972018 5.65098002,3.53538655 C5.70022548,3.528493 5.75006217,3.52534183 5.80049009,3.52534183 C6.12609703,3.52534183 6.419598,3.66027235 6.62859637,3.87754175 C6.79799779,4.05364481 6.91185451,4.28371698 6.94100742,4.54018712 C6.94159865,4.54077835 6.94159865,4.54215583 6.94100742,4.54274706 C6.99399528,4.53348857 7.04560257,4.5204877 7.09524115,4.50295509 C7.10528897,4.49980392 7.11533369,4.49606153 7.12518341,4.49231913 C7.30069214,4.42771097 7.45512707,4.31937034 7.57508801,4.18049931 C7.57567924,4.18049931 7.57508801,4.17990808 7.57508801,4.17990808 C7.60424093,4.14701277 7.63102892,4.11214566 7.65604632,4.07550795 C7.77364234,3.90059045 7.84258722,3.68962338 7.84258722,3.46309549 C7.84258722,3.32816497 7.81835916,3.19815621 7.77305421,3.07858839 C7.74941428,3.01457146 7.71947512,2.95291635 7.68401678,2.89441241 C7.68027438,2.88751885 7.67594076,2.88062529 7.67082089,2.87392674 C7.63043769,2.81404533 7.58198157,2.75692195 7.52603756,2.70275164 C7.46930731,2.6481882 7.41021523,2.59637971 7.34934637,2.54654611 C7.32748323,2.52921161 7.30502576,2.51227023 7.2827695,2.49552696 C7.09347055,2.35311165 6.88368594,2.23610376 6.65932487,2.14962936 C6.33430606,2.0253348 5.97855876,1.96486215 5.6064644,1.98357413 C4.25734182,2.05113844 3.17966206,3.17629307 3.16469248,4.52659502 C3.15720459,5.21090541 3.42431069,5.82627093 3.88524746,6.28937452 C3.9918144,6.39633458 4.10783484,6.49521863 4.23429622,6.58484419 C4.28728408,6.62286246 4.34204562,6.65890894 4.39857777,6.69318482 C4.75136892,6.90907366 5.16700074,7.05779439 5.62616073,7.1214213 C5.664179,7.12752552 5.70219418,7.13363284 5.74021246,7.14170886 C6.16076604,7.22384963 6.58447078,7.39699654 6.89806429,7.67749663 C6.59432049,7.48386406 6.23660448,7.36882797 5.85209738,7.36035573 C5.83594534,7.35956949 5.82038453,7.35956949 5.80423249,7.35956949 C5.75006217,7.35956949 5.69589185,7.36134318 5.64231277,7.36646305 C4.87586159,7.42614945 4.22878013,7.91032684 3.93547727,8.58400128 C3.95812975,8.65314118 3.98531397,8.72050739 4.01722493,8.78511865 C4.0396793,8.83180108 4.06390736,8.87730414 4.09010722,8.92123163 C4.29654256,9.2704785 4.61683152,9.54408503 5.00035427,9.69063895 C5.09352412,9.72707855 5.1912288,9.75583835 5.29208155,9.77573278 C5.17074313,9.76943045 5.05255279,9.75012725 4.93869916,9.7203831 C4.64362261,9.64316409 4.37868333,9.49326398 4.1627914,9.29037293 C4.03337697,9.16962265 3.92188517,9.03035851 3.83304585,8.87592667 C3.81551633,8.84598441 3.79936429,8.81624027 3.78380039,8.78511865 C3.65931081,8.5400738 3.58977469,8.263118 3.58977469,7.9692239 C3.58977469,7.76968213 3.62208187,7.57743012 3.68235641,7.39758777 C3.22752695,7.70113346 2.91767893,8.20579651 2.88103812,8.78511865 C2.87788696,8.82431629 2.87650949,8.86351702 2.87650949,8.90350401 C2.87650949,9.07073861 2.89975319,9.23246022 2.94249822,9.38630392 C2.7671845,9.2206418 2.62516231,9.02031378 2.52824697,8.7957546 C2.53435429,10.6611605 4.13994391,12.1570321 6.04257879,11.9821146 C7.76812935,11.8229529 9.03609241,10.3426422 8.94587562,8.61216985" id="Fill-348" fill="url(#linearGradient-6)" fill-rule="nonzero" mask="url(#mask-4)"></path>
                    <path d="M5.73942395,0 C2.56960736,0 0,2.56946116 0,5.73922697 C0,8.90883235 2.56964391,11.478257 5.73942395,11.478257 C8.90901816,11.478257 11.4784539,8.90882118 11.4784539,5.73922697 C11.4784539,2.56947232 8.90905471,0 5.73942395,0 Z M5.73942395,0.956537828 C8.38073691,0.956537828 10.5219161,3.09771703 10.5219161,5.73922697 C10.5219161,8.38053993 8.38073691,10.5217191 5.73942395,10.5217191 C3.09791401,10.5217191 0.956537828,8.38053993 0.956537828,5.73922697 C0.956537828,3.09771703 3.09791401,0.956537828 5.73942395,0.956537828 Z" id="Stroke-341-Copy" fill="url(#linearGradient-7)" fill-rule="nonzero"></path>
                </g>
            </g>
        </g>
    </g>
</svg>