<?xml version="1.0" encoding="UTF-8"?>
<svg width="17px" height="18px" viewBox="0 0 17 18" version="1.1" xmlns="http://www.w3.org/2000/svg" xmlns:xlink="http://www.w3.org/1999/xlink">
	<defs>
		<linearGradient x1="50%" y1="0%" x2="50%" y2="100%" id="linearGradient-1">
			<stop stop-color="#E4D3B4" offset="0%">
			</stop>
			<stop stop-color="#AA9979" offset="100%">
			</stop>
		</linearGradient>
		<linearGradient x1="50%" y1="0%" x2="50%" y2="100%" id="linearGradient-2">
			<stop stop-color="#E4D3B4" offset="0%">
			</stop>
			<stop stop-color="#AA9979" offset="100%">
			</stop>
		</linearGradient>
	</defs>
	<g id="Page-1" stroke="none" stroke-width="1" fill="none" fill-rule="evenodd">
		<g id="magnifying-glass-(1)">
			<path d="M16.6093568,16.9948331 L11.4495156,11.6287977 C12.7269697,10.3979649 13.5240428,8.67194941 13.5240428,6.76206097 C13.5240428,3.03338947 10.4905742,0 6.76206097,0 C3.03338947,0 0,3.03338947 0,6.76206097 C0,10.4906533 3.03338947,13.5241219 6.76206097,13.5241219 C8.15309995,13.5241219 9.44709706,13.1015228 10.5232645,12.3785372 L15.753552,17.8177893 C15.8701447,17.9389729 16.02576,18 16.1815335,18 C16.3295501,18 16.4778041,17.9449885 16.5928929,17.8342531 C16.8292445,17.606925 16.8366057,17.2311055 16.6093568,16.9948331 Z M1.18729854,6.76206097 C1.18729854,3.68814504 3.68814504,1.18729854 6.76206097,1.18729854 C9.8359769,1.18729854 12.3367443,3.68814504 12.3367443,6.76206097 C12.3367443,9.8359769 9.8359769,12.3368234 6.76206097,12.3368234 C3.68814504,12.3368234 1.18729854,9.8359769 1.18729854,6.76206097 Z" id="Shape" fill="url(#linearGradient-1)">
			</path>
			<path d="M9.7894348,6.1684117 L3.73460799,6.1684117 C3.40667614,6.1684117 3.14095872,6.43412912 3.14095872,6.76206097 C3.14095872,7.08999283 3.40667614,7.35571025 3.73460799,7.35571025 L9.7894348,7.35571025 C10.1173667,7.35571025 10.3830841,7.08999283 10.3830841,6.76206097 C10.3830841,6.43412912 10.1173667,6.1684117 9.7894348,6.1684117 Z" id="Path" fill="url(#linearGradient-2)">
			</path>
		</g>
	</g>
</svg>
