<?xml version="1.0" encoding="UTF-8"?>
<svg width="17px" height="18px" viewBox="0 0 17 18" version="1.1" xmlns="http://www.w3.org/2000/svg" xmlns:xlink="http://www.w3.org/1999/xlink">
	<defs>
		<linearGradient x1="50%" y1="0%" x2="50%" y2="100%" id="linearGradient-1">
			<stop stop-color="#E4D3B4" offset="0%">
			</stop>
			<stop stop-color="#AA9979" offset="100%">
			</stop>
		</linearGradient>
		<linearGradient x1="50%" y1="0%" x2="50%" y2="100%" id="linearGradient-2">
			<stop stop-color="#E4D3B4" offset="0%">
			</stop>
			<stop stop-color="#AA9979" offset="100%">
			</stop>
		</linearGradient>
	</defs>
	<g id="Page-1" stroke="none" stroke-width="1" fill="none" fill-rule="evenodd">
		<g id="magnifying-glass">
			<path d="M16.6093576,16.9947529 L11.4495408,11.6286637 C12.7269888,10.3978367 13.5240581,8.67190849 13.5240581,6.76202907 C13.5240581,3.03345431 10.490683,0 6.76202907,0 C3.03337516,0 0,3.03337516 0,6.76202907 C0,10.4906038 3.03337516,13.5240581 6.76202907,13.5240581 C8.15306148,13.5240581 9.44721078,13.101461 10.5233731,12.3783996 L15.7535568,17.8177052 C15.870149,17.9388882 16.0257635,17.9999151 16.1815364,17.9999151 C16.3295522,17.9999151 16.4778055,17.9449038 16.5928938,17.834169 C16.8292442,17.606842 16.8366054,17.2310242 16.6093576,16.9947529 Z M1.18729294,6.76202907 C1.18729294,3.68812764 3.68812764,1.18729294 6.76202907,1.18729294 C9.83593049,1.18729294 12.3367652,3.68812764 12.3367652,6.76202907 C12.3367652,9.83593049 9.83593049,12.3367652 6.76202907,12.3367652 C3.68812764,12.3367652 1.18729294,9.83593049 1.18729294,6.76202907 Z" id="Shape" fill="url(#linearGradient-1)">
			</path>
			<path d="M9.78946776,6.1683826 L7.35567554,6.1683826 L7.35567554,3.73459037 C7.35567554,3.40666006 7.08995938,3.1409439 6.76202907,3.1409439 C6.43409876,3.1409439 6.1683826,3.40666006 6.1683826,3.73459037 L6.1683826,6.1683826 L3.73451122,6.1683826 C3.40658091,6.1683826 3.14086475,6.43409876 3.14086475,6.76202907 C3.14086475,7.08995938 3.40658091,7.35567554 3.73451122,7.35567554 L6.16830344,7.35567554 L6.16830344,9.78954692 C6.16830344,10.1174772 6.4340196,10.3831934 6.76194991,10.3831934 C7.08988023,10.3831934 7.35559639,10.1174772 7.35559639,9.78954692 L7.35559639,7.35567554 L9.78938861,7.35567554 C10.1173189,7.35567554 10.3830351,7.08995938 10.3830351,6.76202907 C10.3830351,6.43409876 10.1173189,6.1683826 9.78946776,6.1683826 Z" id="Path" fill="url(#linearGradient-2)">
			</path>
		</g>
	</g>
</svg>
