<?xml version="1.0" encoding="UTF-8"?>
<svg width="19px" height="23px" viewBox="0 0 19 23" version="1.1" xmlns="http://www.w3.org/2000/svg" xmlns:xlink="http://www.w3.org/1999/xlink">
    <title>apple</title>
    <g id="Login" stroke="none" stroke-width="1" fill="none" fill-rule="evenodd">
        <g id="apple" transform="translate(0.000000, 0.000000)" fill="#0B0C0E" fill-rule="nonzero">
            <path d="M6.1202776,22.5060304 C2.77070334,22.4867332 0,15.6491199 0,12.1668831 C0,6.47865976 4.26713457,5.23335538 5.91165725,5.23335538 C6.6527738,5.23335538 7.4441333,5.52439528 8.14212794,5.78193987 C8.63022748,5.9615925 9.13503071,6.14704747 9.41578464,6.14704747 C9.5838326,6.14704747 9.97984203,5.98928547 10.3294767,5.85086459 C11.0751209,5.55402236 12.0029671,5.1850905 13.0834324,5.1850905 C13.0853665,5.1850905 13.08796,5.1850905 13.0898502,5.1850905 C13.8966386,5.1850905 16.3428507,5.36214966 17.8135231,7.57072972 L18.1580148,8.08841238 L17.6622228,8.46253118 C16.9539422,8.99696148 15.6616037,9.97184184 15.6616037,11.9029208 C15.6616037,14.1900522 17.125199,15.0696336 17.8283366,15.4926766 C18.1387176,15.6794063 18.46,15.8719384 18.46,16.2930473 C18.46,16.5679989 16.2655741,22.4719197 13.0789048,22.4719197 C12.29915,22.4719197 11.747972,22.2375405 11.2618066,22.0308543 C10.7698828,21.8215745 10.3455211,21.6413065 9.64431756,21.6413065 C9.28888052,21.6413065 8.83941927,21.8093545 8.36358376,21.9877324 C7.71332652,22.2304194 6.977309,22.5060304 6.14216823,22.5060304 L6.1202776,22.5060304 Z" id="Path"></path>
            <path d="M13.4210229,0 C13.5040139,2.9924229 11.3639629,5.06842838 9.2264175,4.93822748 C8.87418933,2.55017061 11.3636992,0 13.4210229,0 Z" id="Path"></path>
        </g>
    </g>
</svg>