<?xml version="1.0" encoding="UTF-8"?>
<svg width="200px" height="89px" viewBox="0 0 200 89" version="1.1" xmlns="http://www.w3.org/2000/svg" xmlns:xlink="http://www.w3.org/1999/xlink">
    <!-- Generator: Sketch 64 (93537) - https://sketch.com -->
    <title>Group 331</title>
    <desc>Created with Sketch.</desc>
    <defs>
        <linearGradient x1="50%" y1="0%" x2="50%" y2="100%" id="linearGradient-1">
            <stop stop-color="#E4D3B4" offset="0%"></stop>
            <stop stop-color="#AA9979" offset="100%"></stop>
        </linearGradient>
    </defs>
    <g id="Login-&amp;-Registration" stroke="none" stroke-width="1" fill="none" fill-rule="evenodd">
        <g id="Login" transform="translate(-81.000000, -294.000000)" fill="url(#linearGradient-1)">
            <g id="Group-5" transform="translate(-130.703975, -114.144141)">
                <g id="Group-331" transform="translate(211.703975, 408.144141)">
                    <path d="M167.708634,34.0642039 C168.178309,33.9612158 168.740155,33.9823007 169.39427,34.1262156 C170.049567,34.2713239 170.733157,34.5181772 171.448735,34.8692617 C172.164313,35.2202966 172.808521,35.6320999 173.381506,36.1059646 C173.953209,36.5798294 174.39336,37.0971073 174.699495,37.6528254 C175.006861,38.2097868 175.078182,38.7357672 174.914641,39.2306672 C173.892978,42.2003654 172.870034,45.2109405 171.848321,48.2636856 C170.826609,51.3164805 169.732343,54.3270556 168.568038,57.2979473 C167.401268,60.2675957 166.144693,63.1541475 164.795948,65.9600394 C163.447203,68.7647378 161.954633,71.4044363 160.31937,73.8791351 C160.31937,73.8791351 169.149599,77.3449765 171.579055,85.1498951 C171.579055,85.1498951 169.239354,81.5650032 165.237331,81.2474358 C165.237331,81.2474358 165.821357,82.9270224 164.878359,85.5580185 C164.878359,85.5580185 161.968138,76.4320074 149.465433,75.1170812 L149.465433,75.1170812 L150.421005,75.4857177 C151.382382,75.8526898 152.361225,76.2146059 153.358034,76.5708996 C154.687113,77.0447643 155.842842,77.7356948 156.82394,78.6437408 C155.352268,80.1285401 153.84984,81.4992619 152.316655,82.758293 C150.783471,84.0161306 149.188823,85.0878834 147.532711,85.9760379 C145.877783,86.8617557 144.139309,87.5737711 142.319657,88.1108907 C140.501236,88.6455239 138.529133,88.9345471 136.402114,88.976717 C133.622262,89.0585705 131.312036,88.9246014 129.472717,88.5748097 C127.633398,88.2225317 126.129738,87.7486669 124.965432,87.1507788 C123.799845,86.5528907 122.941674,85.8830452 122.389637,85.1399991 C121.8376,84.3969529 121.460144,83.65515 121.254806,82.9121535 C121.0507,82.1691074 120.96957,81.4794201 121.010135,80.8393124 C121.0507,80.2004976 121.133111,79.6944086 121.254806,79.3234823 C121.542506,78.291413 122.093311,77.2916176 122.910918,76.3240464 C123.729805,75.3527952 124.842456,74.4981082 126.253946,73.755062 C127.662922,73.0133088 129.390355,72.4029885 131.435012,71.930367 C133.480852,71.4552591 135.890642,71.1575831 138.670543,71.03351 C141.370498,70.9094866 143.823317,70.9094866 146.031515,71.03351 C148.237199,71.1575831 150.26219,71.3634599 152.101459,71.6512896 C152.182638,71.5693864 152.233061,71.497429 152.255192,71.4354173 C152.274858,71.3734056 152.305565,71.3014482 152.34613,71.2183516 C152.428541,71.0111818 152.663354,70.6824752 153.0519,70.2284522 C153.440396,69.7744789 153.83875,69.1554561 154.248194,68.3714833 C154.371121,68.12463 154.554328,67.8889657 154.798999,67.660711 C155.046134,67.4349428 155.321512,67.1571085 155.627646,66.8258657 C155.93378,66.4959158 156.291569,66.0419426 156.701013,65.4650897 C157.109176,64.8870434 157.559185,64.1253987 158.049758,63.1752325 L158.049758,63.1752325 L158.418588,62.2473448 C157.721493,63.2781709 157.017005,64.2073018 156.302659,65.0309582 C155.587081,65.857101 154.892402,66.5480315 154.217438,67.1037497 C153.542424,67.660711 152.898167,68.0626183 152.284667,68.3107148 C151.671166,68.5588113 151.120361,68.599738 150.629787,68.4347382 C149.116269,68.0229348 147.97163,67.4870584 147.195821,66.8258657 C146.418779,66.1659659 145.877783,65.4440047 145.570416,64.6600319 C145.264282,63.876059 145.110599,63.0734876 145.110599,62.2473448 C145.110599,61.4224452 145.152396,60.6173874 145.233575,59.8346577 C145.315937,58.2257853 145.560608,56.3998471 145.96877,54.3592798 C146.376982,52.3162759 146.940109,50.2856543 147.655638,48.2636856 C148.369984,46.2442531 149.228155,44.3041378 150.231434,42.4484121 C151.232247,40.5914929 152.386744,39.0247904 153.696107,37.7458678 C155.003055,36.4681885 156.464919,35.5601922 158.080465,35.0243158 C159.696061,34.4884394 161.462827,34.5082811 163.38574,35.0850843 C164.32509,35.4162774 164.980388,35.9422578 165.346753,36.662926 C165.715632,37.3848872 165.940637,38.1589143 166.021766,38.9826204 C166.225872,38.1998908 166.410262,37.4667406 166.575036,36.7869991 C166.737344,36.1059646 166.860271,35.4782891 166.941401,34.8989995 C166.983247,34.4462695 167.238959,34.1671423 167.708634,34.0642039 Z M93.3846175,14.1089792 C93.9189024,13.9457159 94.6666341,13.9655474 95.6328087,14.1708041 C96.5952239,14.3773499 97.509558,14.8287658 98.3708642,15.5274814 C99.2333576,16.227486 99.8885379,17.1933823 100.340165,18.4275997 C100.790555,19.6606272 100.811529,21.2028287 100.401849,23.0529649 C99.5813031,26.5491704 98.2881566,29.6755668 96.5236958,32.4297744 C94.7604221,35.1851719 92.841676,37.5188511 90.7699309,39.4308122 C88.6982352,41.3428228 86.6252534,42.7922622 84.5535083,43.7803699 C82.4805265,44.7672877 80.7690935,45.1989216 79.4142626,45.0752223 L79.4142626,45.0752223 L78.7368719,45.0752223 C79.230446,45.281768 79.8350224,45.4251998 80.5531733,45.5080957 C81.2700876,45.5897026 82.1424742,45.5897026 83.1690471,45.5080957 C82.5533408,47.0700793 82.0301858,48.427996 81.5995327,49.579367 C81.1688796,50.7294986 80.808617,51.7584592 80.523543,52.6637205 C80.2348086,53.567792 80.0398621,54.4001227 79.937467,55.1606632 C79.8350224,55.9224927 79.804205,56.7350414 79.8461523,57.5982598 C79.8856264,58.3798713 80.0090447,59.0588049 80.2150716,59.6326808 C80.4199113,60.208986 81.0554041,60.5181601 82.1227372,60.5577241 C82.5743145,60.5577241 83.230781,60.2411131 84.0920377,59.602983 C84.9532945,58.9648529 85.9083392,58.1634594 86.953462,57.1975631 C87.9998214,56.2304273 89.0659178,55.1829241 90.1542246,54.0513351 C90.7983245,53.3822677 91.4128437,52.7305033 92.0125229,52.0911337 C92.2814709,51.2044149 92.5603615,50.3090198 92.8626497,49.3938427 C93.5388533,47.3372104 94.1952703,45.3943121 94.8319998,43.563958 C95.4674431,41.7348433 96.0510953,40.1197111 96.5853802,38.7209414 C97.1184284,37.3234606 97.529295,36.3365429 97.8167928,35.7614771 C97.8995003,35.5561708 98.2067352,35.4423872 98.7397834,35.4213658 C99.2728316,35.4015838 99.8996678,35.4832403 100.617769,35.6674755 C101.334684,35.8529998 102.063915,36.1213704 102.801803,36.4701085 C103.540927,36.8201356 104.16529,37.2418538 104.679838,37.7340732 C105.191913,38.2287219 105.541095,38.7939215 105.724961,39.4308122 C105.910014,40.0689919 105.796489,40.7578413 105.386859,41.4974099 C104.156634,43.718545 102.995513,46.06214 101.909679,48.5293849 C100.822609,50.9978692 99.908275,53.2487021 99.1704365,55.2843625 C98.4313119,57.3199734 97.8995003,58.99698 97.5700552,60.3116144 C97.2405605,61.6287277 97.2010865,62.2656183 97.4466369,62.2235754 C98.0216325,62.0999256 98.811361,61.5446418 99.8169603,60.5577241 C100.822609,59.5720458 101.847995,58.4416962 102.893117,57.1653863 C103.940714,55.891605 104.925389,54.5955132 105.84833,53.2796393 C106.77132,51.9637655 107.437631,50.9348048 107.848497,50.1964757 C108.340835,48.5924492 108.843016,47.0292262 109.356327,45.5080957 C109.869638,43.9856762 110.360739,42.5770402 110.83334,41.2821878 C111.304703,39.9861455 111.735307,38.8557464 112.126486,37.8886602 C112.515142,36.9227639 112.812533,36.2141325 113.017373,35.7614771 C113.100031,35.5561708 113.408503,35.4423872 113.941551,35.4213658 C114.474599,35.4015838 115.100199,35.4832403 115.81835,35.6674755 C116.536451,35.8529998 117.265682,36.1213704 118.00357,36.4701085 C118.741458,36.8201356 119.378138,37.2418538 119.911186,37.7340732 C120.444235,38.2287219 120.804547,38.7939215 120.988413,39.4308122 C121.173516,40.0689919 121.05999,40.7578413 120.650311,41.4974099 C119.378138,43.718545 118.209647,46.06214 117.141077,48.5293849 C116.07498,50.9978692 115.173013,53.2487021 114.433888,55.2843625 C113.694764,57.3199734 113.151822,58.99698 112.803877,60.3116144 C112.453458,61.6287277 112.402854,62.2656183 112.649641,62.2235754 C113.059321,62.1419685 113.603449,61.7610538 114.279653,61.0821202 C114.957043,60.4043765 115.665301,59.5930672 116.404426,58.6470025 C117.141077,57.7008881 117.901175,56.6830827 118.679774,55.5935366 C119.459609,54.5039905 120.177711,53.5059671 120.834177,52.6006562 C120.873651,52.5475076 120.903281,52.5066546 120.941519,52.4547454 C121.336358,50.6058488 121.889144,48.7816919 122.619661,46.9884228 C123.480918,44.889698 124.238543,42.741543 124.89496,40.5414293 C125.552663,38.3425055 125.880871,36.2339145 125.880871,34.2192756 C125.880871,33.6429703 126.023977,33.2942323 126.311475,33.1705329 C126.597786,33.0456436 126.988915,33.0456436 127.481253,33.1705329 C127.686093,33.2521893 128.136433,33.4166426 128.834847,33.6627523 C129.532024,33.9113409 130.250126,34.2799106 130.98925,34.7745593 C131.728375,35.2667787 132.394685,35.8950427 132.989418,36.6543933 C133.582914,37.4174623 133.882778,38.3313999 133.882778,39.3999245 C133.882778,40.2235789 133.686595,41.2921036 133.296653,42.6079774 C132.90676,43.9238513 132.282397,45.6305061 131.419903,47.7267519 C131.091645,48.427996 130.783174,49.1366274 130.496913,49.8563644 C130.209415,50.576151 129.942891,51.2847823 129.696104,51.984787 C130.271099,50.9978692 130.93741,49.8662802 131.696271,48.5924492 C132.455133,47.3173789 133.267072,46.0114208 134.128329,44.6745255 C134.989585,43.3388697 135.850842,42.0440173 136.713335,40.787539 C137.574642,39.5334901 138.406268,38.4130068 139.20584,37.426089 C140.006649,36.4392208 140.733457,35.6588488 141.391111,35.0825435 C142.04634,34.5074282 142.579389,34.2390575 142.990255,34.2799106 C143.237042,34.3219535 143.739224,34.4653853 144.498085,34.7127344 C145.256947,34.9588441 146.005915,35.2569125 146.743803,35.6068901 C147.482928,35.9568676 148.087554,36.3464587 148.560105,36.7792825 C149.031468,37.2109165 149.12402,37.6326347 148.837759,38.0432472 C148.631682,38.2905964 148.303474,38.7741395 147.853084,39.4926867 C147.401506,40.2124237 146.930142,41.0559097 146.436568,42.0217564 C145.944231,42.9876527 145.472867,44.0264796 145.02129,45.1370472 C144.569663,46.2476147 144.241454,47.3372104 144.036615,48.4057351 C143.830538,49.4754992 143.810801,50.4722832 143.97493,51.3973265 C144.13901,52.3236588 144.569663,53.0545511 145.268077,53.5888134 C145.472867,53.7533162 145.513627,53.9585729 145.391445,54.2046826 C145.268077,54.4520318 145.042263,54.6981415 144.714005,54.9442512 C144.38456,55.1928399 143.965037,55.4500552 143.452962,55.7159469 C142.938415,55.9843176 142.41526,56.2205611 141.882211,56.4258673 C140.980194,56.7956268 140.117701,57.062758 139.297155,57.2272608 C138.476609,57.3929535 137.922587,57.3719321 137.636326,57.1653863 C136.567756,56.3850143 135.94463,55.4389496 135.758291,54.328382 C135.574474,53.2178144 135.594211,52.1282187 135.820025,51.0596941 C136.045788,49.9911694 136.362917,49.0549709 136.773833,48.2523379 C137.183463,47.4509444 137.472197,46.9476194 137.636326,46.7410736 C136.81578,47.4410782 135.912526,48.2832752 134.927901,49.2701929 C133.943226,50.2570611 132.989418,51.3676783 132.066477,52.6006562 C131.143486,53.8349231 130.282229,55.1408812 129.48142,56.5185799 C128.681848,57.8963282 128.075985,59.3049146 127.666306,60.7432483 C127.29615,63.2117326 127.120941,65.2152164 127.143151,66.7574179 C127.161651,68.2996195 127.153044,69.0923367 127.111047,69.1331401 C126.988915,69.2976429 126.700181,69.4002713 126.249791,69.4410747 C125.798213,69.4819277 125.286139,69.4509905 124.711094,69.349552 C124.136098,69.2469237 123.562339,69.0811814 122.98858,68.8549033 C122.413585,68.629815 121.942221,68.3317466 121.572065,67.9607476 C121.120438,67.5093317 120.751519,66.5842884 120.465208,65.1855186 C120.271499,64.2468411 120.1555,63.1721687 120.101236,61.9836631 C120.003738,62.1147497 119.91737,62.2458363 119.818685,62.3781624 C118.731565,63.8387571 117.561837,65.1236937 116.310638,66.2330218 C115.059488,67.3448288 113.777422,68.1870754 112.464538,68.7621411 C111.151655,69.3384464 109.858558,69.4002713 108.587622,68.9488553 C107.848497,68.7003162 107.253765,68.3416624 106.802138,67.869225 C106.350511,67.3967875 105.991485,66.912005 105.724961,66.4185461 C105.458437,65.9250872 105.263441,65.4526498 105.141309,65.0000439 C105.01789,64.5473885 104.935232,64.2184324 104.893285,64.0118867 L104.893285,64.0118867 L104.893285,63.1486683 C105.057414,62.8629946 105.396703,62.3163375 105.910014,61.5149441 C106.423325,60.7123111 106.781164,59.9010514 106.98724,59.077397 C106.98724,59.0377834 106.94653,59.0588049 106.863822,59.1404614 C106.002565,60.4563352 105.037677,61.7833147 103.970344,63.1189705 C102.903011,64.4558658 101.78631,65.6270684 100.617769,66.634958 C99.4468044,67.6428972 98.2474459,68.3837053 97.0172205,68.8549033 C95.7858078,69.3272911 94.5555824,69.3594678 93.3241698,68.9488553 C92.5850452,68.7003162 91.9890759,68.3416624 91.5386858,67.869225 C91.087059,67.3967875 90.7292202,66.912005 90.4614594,66.4185461 C90.1949353,65.9250872 90.0111188,65.4526498 89.9074375,65.0000439 C89.8062791,64.5473885 89.7334647,64.2184324 89.692754,64.0118867 C89.5964927,63.3960175 89.6248863,62.5327495 89.7704655,61.4407244 C88.6698416,62.5278412 87.5605611,63.5679075 86.4315436,64.506585 C84.7472181,65.9053052 83.1073627,67.0146333 81.5069814,67.8370483 C79.9066001,68.6607027 78.4703478,68.9488553 77.1994116,68.7003162 C76.0506571,68.3725501 75.1363231,67.6738345 74.4601195,66.6040704 C73.7839655,65.5355457 73.3002351,64.2394539 73.0139739,62.7182738 C72.7264762,61.1970937 72.604344,59.5399186 72.6450547,57.7516074 C72.6845288,55.9632961 72.8289207,54.1849006 73.0744712,52.4151815 C73.3224454,50.6491311 73.6605472,48.9523426 74.0912003,47.3260552 C74.3589611,46.3168765 74.6402756,45.4004599 74.9314833,44.5570235 C73.6753871,45.1469629 72.4587154,45.7628322 71.3210413,46.433139 C68.3880394,48.1596254 65.8326134,49.9281051 63.6597098,51.7374378 L63.6597098,51.7374378 L71.5986953,47.0502477 C71.1063578,49.1464936 70.4178372,51.4505246 69.5368434,53.9585729 C68.6533763,56.4666708 67.556413,58.8213715 66.2435294,61.0202457 C64.9306459,63.2216484 63.3821052,65.0915666 61.5978579,66.634958 C59.8123739,68.1771596 57.7912327,69.0094903 55.535671,69.1331401 C54.507812,69.214747 53.6885026,69.0713152 53.0727468,68.7003162 C52.4570405,68.3317466 51.9745963,67.869225 51.6278379,67.3127017 C51.277419,66.7574179 51.0627356,66.1823522 50.9800775,65.5862154 C50.8986066,64.9901281 50.8578958,64.4855636 50.8578958,64.074951 C50.9800775,62.3064713 51.4316548,60.579985 52.2114901,58.8931122 C52.9900887,57.2062394 53.9858442,55.5836208 55.1963326,54.0192079 C56.4067715,52.4584639 57.7813889,50.9768477 59.3200364,49.579367 C60.8587333,48.1818863 62.4270605,46.8857945 64.0274418,45.692331 L64.0274418,45.692331 L64.3359133,43.9040693 C64.4592821,42.9987584 64.2643356,42.5980616 63.7522611,42.7007396 C63.2377133,42.8033679 62.5516659,43.192959 61.6891726,43.8718926 C60.8279158,44.5508757 59.8629778,45.4251998 58.7968814,46.4937244 C57.7295483,47.564728 56.7041626,48.6530347 55.7194876,49.7636518 C54.6521545,52.1071973 53.4010048,54.5138567 51.964703,56.9811511 C50.5284507,59.448396 49.1847002,62.0393402 47.9335506,64.7526947 C46.6823514,67.4672887 45.6656223,70.3364698 44.8882603,73.3578085 C44.108425,76.3803372 43.8406643,79.5982563 44.0874513,83.0128549 C44.1269254,83.7103806 44.0763214,84.2458824 43.9332156,84.6168814 C43.7888236,84.985451 43.2471683,85.0880793 42.303204,84.924816 C41.8515772,84.8419696 41.3284222,84.7393413 40.7324529,84.6168814 C40.1389075,84.4932316 39.5540681,84.359666 38.9803092,84.2149451 C38.4052641,84.0702739 37.8931896,83.9267925 37.4403756,83.7833607 C36.9887488,83.6398794 36.681514,83.4642709 36.5161484,83.2589646 C35.2859724,81.6957416 34.8047153,79.6391093 35.0712394,77.0914475 C35.3377636,74.5400672 36.0250475,71.7438663 37.1319041,68.7003162 C38.2411846,65.657956 39.6046226,62.5129675 41.2259776,59.2641112 C42.8461455,56.0152548 44.3946862,52.9098302 45.8716492,49.947887 C47.3498984,46.9884228 48.5801238,44.3158717 49.565986,41.9289943 C50.0321798,40.7986828 50.3697172,39.7884299 50.5783297,38.8982356 C46.3926436,37.1816647 41,39.3077409 41,39.3077409 C46.4463372,32.8328122 53,34.100343 53,34.100343 L53,34.100343 L52.9339017,34.7680767 C53.255998,34.808936 53.5898513,34.8724701 53.9352897,34.9588441 C54.1157668,35.0041584 54.2932487,35.0549125 54.4677105,35.1111075 C55.5211261,31.8709571 54.8971621,29 54.8971621,29 C59.5584337,33.0633081 60.1120404,37.587011 59.9841344,40.0828023 L60.3047114,39.7387964 C61.1042837,38.8977893 61.9248297,38.1360094 62.7663494,37.4570262 C63.6079186,36.7792825 64.4482017,36.2239988 65.2897214,35.7911749 C66.1300044,35.3595409 66.9419433,35.1443684 67.7204925,35.1443684 C69.1567943,35.103565 70.3376524,35.5660866 71.2605935,36.5319829 C72.1835841,37.4990691 72.56116,38.7629843 72.3995043,40.3249678 C72.3563203,40.4078637 72.3378199,40.5315135 72.3378199,40.6960164 C73.3138383,40.2371636 74.1763317,39.8995312 74.9808507,39.6237733 C75.022798,39.3232259 75.0795358,39.0214887 75.1683772,38.7209414 C75.4546878,37.7340732 75.8137138,36.8930661 76.2456035,36.1918716 C76.67502,35.4943459 77.0957798,35.020669 77.5066464,34.7745593 C77.9163258,34.5272597 78.1421392,34.6496701 78.1840866,35.1443684 L78.1840866,35.1443684 L78.1840866,35.5759528 C79.2501831,33.2732108 80.4507782,30.9185101 81.7846354,28.5118507 C83.117256,26.1064307 84.4708502,23.8964013 85.8466548,21.8817623 C87.2199861,19.8671729 88.5637365,18.1493628 89.8778567,16.7308111 C91.1895036,15.3110694 92.3592318,14.4379353 93.3846175,14.1089792 Z M144.436867,74.7151739 C142.555702,74.6531622 140.38935,74.6829497 137.936531,74.8069731 C135.278374,74.929803 133.162445,75.2188261 131.587463,75.6728491 C130.014946,76.1268224 128.808794,76.6118761 127.970289,77.127861 C127.131784,77.6426524 126.590787,78.1376021 126.344884,78.6127101 C126.100214,79.0865748 125.977287,79.406579 125.977287,79.5715788 C125.977287,79.818432 126.03875,80.0975592 126.160494,80.4076673 C126.283421,80.7165322 126.6523,81.0043122 127.264568,81.2734936 C127.878069,81.5414318 128.819884,81.7770961 130.086267,81.9842658 C131.353833,82.1901924 133.131688,82.294374 135.421016,82.294374 C136.892688,82.294374 138.302946,82.0773082 139.652923,81.6443702 C141.001668,81.2114819 142.280324,80.6433316 143.485244,79.9436986 C144.692579,79.2403857 145.794188,78.467552 146.797467,77.6215675 C147.79828,76.7768261 148.68844,75.9407873 149.465433,75.1170812 L149.465433,75.1170812 L148.966909,75.0507505 C147.61737,74.8810934 146.106779,74.7692345 144.436867,74.7151739 Z M37.6837065,0.0362703732 C40.7695083,-0.0877206397 43.3307174,0.106264506 45.3673337,0.617044475 C47.40395,1.12782444 49.0285209,1.80187483 50.2435265,2.63801431 C51.4561016,3.47543356 52.3308859,4.44417795 52.8666391,5.54675782 C53.3999122,6.64933769 53.7401337,7.72125206 53.8836824,8.76240248 C54.0272311,9.80360212 54.038342,10.7834215 53.9146342,11.7018607 C53.7921168,12.6214812 53.6684089,13.3250158 53.5446514,13.8149255 C53.4617662,14.1820255 53.3071066,14.8156152 53.0819126,15.7131349 C52.8554786,16.6119344 52.5362389,17.6629292 52.1254832,18.866218 C51.7134378,20.0719186 51.2395881,21.3685328 50.7063149,22.7559622 C50.1705617,24.1446222 49.574145,25.5026167 48.9159239,26.8286658 C48.2576533,28.1559456 47.5264178,29.4009256 46.725888,30.5649349 C46.5279257,30.851015 46.3274833,31.123559 46.1233206,31.3851264 C45.8164815,31.7559181 40.8190113,37.5795087 32.9980357,32.0702518 C33.1279438,31.9007794 33.2541814,31.7338173 33.3939603,31.5447051 C34.1969702,30.4629955 35.0705143,29.1873008 36.018313,27.7175716 C36.9635819,26.2466612 37.9299318,24.6541716 38.9173129,22.9401029 C39.9058846,21.2248529 40.8004601,19.5206287 41.6022299,17.8262489 C42.4052397,16.1318199 43.0622703,14.5098954 43.5781827,12.9579158 C44.0916646,11.4059362 44.3378898,10.0590167 44.3193386,8.91592688 C44.2970672,7.77278782 43.9679567,6.89490782 43.3307174,6.2810071 C42.6922876,5.66828772 41.6121503,5.44604897 40.091496,5.60813805 C38.3208962,5.81319822 36.6443422,6.37428339 35.0606435,7.29272258 C33.4768952,8.21111254 32.0267752,9.31251108 30.7102835,10.5992316 C29.3925517,11.8860014 28.1997678,13.2636356 27.1307415,14.7333647 C26.060475,16.2042751 25.1448682,17.601549 24.3839706,18.9275982 C23.6230234,20.2548779 23.0266067,21.4384777 22.5948196,22.4809079 C22.1617429,23.5221076 21.9044068,24.2256421 21.822712,24.5940219 C21.2881988,27.533431 21.2881988,30.0038005 21.822712,32.0039493 C22.3584652,34.0052795 23.1899467,35.7487831 24.3220671,37.2393825 C25.452997,38.7299819 26.7298566,40.0879271 28.1490744,41.3133166 C29.5682427,42.5374264 30.9057657,43.8438359 32.1604035,45.2313145 C33.4149917,46.6199745 34.4333246,48.2234899 35.2153031,50.0394488 C35.9960416,51.8566382 36.3053609,54.0925127 36.1407808,56.7458416 C35.9762007,58.7877309 35.5444137,60.6036898 34.8440803,62.1961794 C34.1450367,63.7874384 33.260332,65.1662539 32.1913056,66.3302632 C31.1210392,67.4929927 29.928305,68.483838 28.6118132,69.3003377 C27.2953215,70.1168375 25.9590385,70.7798621 24.6004842,71.2906421 C23.2419298,71.801422 21.9044068,72.1783665 20.5891551,72.4239366 C19.2714233,72.6682762 18.0798795,72.8315959 17.0096131,72.9138464 C13.0181249,73.1974653 9.79864518,72.7812414 7.35127314,71.6590219 C4.90266106,70.5355717 3.08131826,69.0449723 1.88982406,67.1872729 C0.695800155,65.3295735 0.068530866,63.277889 0.00662733341,61.03217 C-0.055226597,58.7877309 0.315946588,56.6648216 1.11771638,54.6634423 C1.92072623,52.6633427 3.08131826,50.9689137 4.60445269,49.5802538 C6.12634707,48.1928244 7.87462585,47.415604 9.85062827,47.2535149 C9.85062827,47.2535149 6.74622564,49.8638728 7.93156916,53.6099863 L7.931,53.608 L7.94852872,53.5292434 C8.20626692,52.5732506 10.6759053,50.2604307 13.7137108,50.0590346 L13.9831851,50.0468321 C18.3125138,49.9412502 19.53992,53.0709527 19.53992,53.0709527 C19.7861453,54.0114927 19.8888218,54.7248225 19.8479992,55.2147322 C19.7651139,56.1540417 19.53992,56.8588068 19.1687468,57.3278462 C18.8000041,57.798067 18.0798795,57.6642315 17.0096131,56.9288009 C16.350152,56.4806317 15.6820105,56.3676665 15.0039486,56.5923664 C14.3246962,56.8182968 13.6973773,57.2259068 13.1220415,57.8165254 C12.5454656,58.4095558 12.0715663,59.114321 11.7016332,59.9308207 C11.3316504,60.7473205 11.1250077,61.5233103 11.0841851,62.256329 C11.0841851,62.9524802 11.1980221,63.6351445 11.4244561,64.3092441 C11.6496501,64.9821132 12.0307437,65.5947834 12.5652569,66.1460733 C13.0997701,66.6973632 13.8000538,67.1369185 14.6649672,67.4635086 C15.5285909,67.7889173 16.6186486,67.9534183 17.9351403,67.9534183 C18.6342336,67.9534183 19.4570347,67.6354421 20.4035437,67.0043136 C21.3501023,66.3707732 22.2557887,65.5137634 23.1194124,64.4320046 C23.9830857,63.350295 24.724192,62.0733697 25.3416401,60.6036898 C25.9590385,59.1339607 26.286909,57.5623414 26.3277316,55.8888318 C26.3686038,54.3368522 25.947878,52.9076823 25.063223,51.6012728 C24.1773279,50.2948633 23.0575585,49.0080936 21.6990041,47.7434246 C20.3429298,46.4775251 18.8915698,45.1613204 17.3486441,43.7923001 C15.8069584,42.4256918 14.3964705,40.8835566 13.1220415,39.1695371 C11.8451323,37.4542379 10.8156885,35.5253138 10.0361901,33.3815343 C9.25421155,31.2389853 8.98695495,28.737901 9.23318022,25.8783306 C9.31487502,24.8997417 9.63406511,23.6043581 10.1908497,21.9897677 C10.7452038,20.3776384 11.5568444,18.6329042 12.6271108,16.7543345 C13.6973773,14.8757648 15.0237894,12.967711 16.6087282,11.0289917 C18.1912364,9.09027232 20.0224501,7.3234373 22.101129,5.73094773 C24.1773279,4.13845815 26.513343,2.82097365 29.1055038,1.77977401 C31.6976151,0.73980493 34.5570325,0.157849493 37.6837065,0.0362703732 Z M186.85036,34.9168797 C188.878421,33.9868515 191.049326,33.76408 193.36293,34.2497852 C194.862658,34.5735725 195.988984,35.0592777 196.741905,35.706901 C197.491158,36.3544755 197.989013,37.0531922 198.23185,37.8006112 C198.474687,38.5516903 198.556431,39.3003293 198.474687,40.0477483 C198.394165,40.7976073 198.313594,41.4354706 198.23185,41.9601182 C197.989013,43.2565359 197.582638,44.5212825 197.015219,45.7556268 C196.445355,46.9899223 195.757105,48.2351978 194.945626,49.4902332 C195.715621,49.6107689 196.284311,49.7933293 196.649154,50.0355719 C196.973735,50.2790345 197.248321,50.5821306 197.47159,50.946129 C197.693685,51.3112985 197.836481,51.6655369 197.897484,52.0087952 C197.958487,52.3533224 197.92801,52.6564185 197.807179,52.9193523 C197.68395,53.1835061 197.460632,53.313753 197.137273,53.313753 C196.528322,53.3563553 195.807149,53.3965176 194.976152,53.4354599 C194.143932,53.4768422 193.301927,53.5377444 192.450188,53.618069 C191.598449,53.6996136 190.755221,53.7799871 189.924224,53.8615317 C189.092004,53.9430763 188.372005,54.0234009 187.763103,54.1037743 C187.763103,54.1037743 184.818582,54.1950789 183.929028,54.8840356 C183.929028,54.8840356 182.079084,55.9260596 183.918021,59.1043961 C188.861348,66.9850894 200,59.7251794 200,59.7251794 C196.418007,66.5402997 191.44768,68.5564121 187.524432,68.9304448 C190.033377,70.1750343 193.079203,71.0934437 196,70.4438919 C196,70.4438919 181.516549,78.5746298 174.623537,65.8336128 C173.346837,63.4714447 172.920203,61.4207413 173.01196,59.2527129 C172.990417,58.7947157 172.997838,58.2926595 173.034387,57.7471249 C173.155218,55.9260596 173.561545,53.9126739 174.251018,51.7056992 C174.940491,49.5 175.884981,47.2528561 177.080821,44.9656055 C178.277933,42.6795261 179.699537,40.6661405 181.342013,38.9241798 C182.98576,37.1846591 184.821028,35.849299 186.85036,34.9168797 Z M63,53 C61.6370107,54.2256045 60.4661885,55.3864944 59.4861981,56.4838409 C58.5062591,57.5837332 57.7299391,58.5439114 57.1547731,59.3669212 C56.5796072,60.1899311 56.2170985,60.8452738 56.0684797,61.3304546 C55.9186285,61.8169082 56.014712,62.0378846 56.3567303,61.9947076 C57.0369155,61.9121215 57.7068811,61.5730195 58.3679111,60.9811693 C59.0288898,60.3918649 59.6463202,59.6615734 60.2214862,58.7966595 C60.7966521,57.9316947 61.3180504,56.9906101 61.786862,55.9770717 C62.2544411,54.9635333 62.6605494,53.9715834 63,53 Z M163.254882,40.020608 C162.66884,39.8972236 161.968353,40.3278818 161.153421,41.3126817 C160.337228,42.2987184 159.510952,43.5500268 158.675904,45.0679425 C157.838335,46.5858582 157.054862,48.2592661 156.322915,50.0844061 C155.590969,51.9108325 155.016271,53.5830035 154.598722,55.1009192 C154.179962,56.618835 153.981271,57.8504038 154.001387,58.7944878 C154.022764,59.7372855 154.36731,60.1285142 155.036387,59.9631275 C155.579675,59.8397431 156.14434,59.5126803 156.730382,58.9783276 C157.316423,58.4464486 157.891171,57.7997934 158.455836,57.0396482 C159.01924,56.2806903 159.553756,55.4180875 160.055501,54.454264 C160.557296,53.4904404 161.037715,52.476056 161.498018,51.4073507 C161.623757,51.1210532 161.748285,50.843364 161.874024,50.5768061 C161.999813,50.3102482 162.104175,50.0128689 162.188421,49.6845692 C162.605971,48.535669 162.971944,47.3966138 163.286341,46.2674531 C163.599478,45.1395292 163.808253,44.1349898 163.912615,43.2514107 C164.017028,42.3690683 164.028321,41.6310868 163.944075,41.0350419 C163.859779,40.4414212 163.629678,40.1020892 163.254882,40.020608 Z M193.477963,40 C192.808536,40 192.066113,40.3590611 191.249433,41.0758879 C190.434014,41.7927626 189.595944,42.7166589 188.739007,43.8512228 C187.879497,44.9845394 187.04395,46.2686961 186.22853,47.7011982 C185.413111,49.1337483 184.669427,50.5674499 184,52 C184.836809,51.4027803 185.766742,50.9241121 186.792271,50.5674499 C187.817851,50.2084368 188.87491,49.9307929 189.963397,49.7309201 C190.548527,48.6969163 191.143697,47.6126324 191.751528,46.4781164 C192.356787,45.3435525 192.860143,44.2988018 193.257764,43.3437684 C193.654173,42.3887829 193.895762,41.5928898 193.978797,40.9562328 C194.063144,40.3195759 193.895762,40 193.477963,40 Z M58.1609866,41.4562612 C58.1359239,41.7374409 58.101514,42.0186853 58.0577568,42.3000428 C58.2421359,42.0721428 58.4299522,41.8448508 58.6212748,41.6182109 Z M94.6820697,23.0027725 C94.1871535,22.962772 93.5977207,23.3555838 92.9150675,24.1824231 C92.2323643,25.009311 91.5198505,26.1380253 90.7749838,27.5686148 C90.0314131,29.0004679 89.2455194,30.6214364 88.4185986,32.4363321 C87.5904316,34.2512764 86.7834012,36.1050547 86,38 C87.2807601,36.8724521 88.520543,35.4806481 89.7205452,33.8269696 C90.9204975,32.1756726 91.9538493,30.5717152 92.8217971,29.0198606 C93.6897448,27.4680059 94.3202046,26.1076969 94.7131764,24.9377669 C95.1060984,23.7690035 95.0949318,23.1240377 94.6820697,23.0027725 Z M32.26941,34 C33.5176639,35.2462936 36,36.1991876 36,36.1991876 C34.0226549,36.676277 32.60216,37.428234 31.8226632,37.9188642 C31.4872657,38.130871 31.0418166,37.9028031 31.0146152,37.5194612 C30.8411284,35.0157547 32.26941,34 32.26941,34 Z" id="Combined-Shape"></path>
                </g>
            </g>
        </g>
    </g>
</svg>