<?xml version="1.0" encoding="UTF-8"?>
<svg width="18px" height="18px" viewBox="0 0 18 18" version="1.1" xmlns="http://www.w3.org/2000/svg" xmlns:xlink="http://www.w3.org/1999/xlink">
    <title>Combined Shape Copy</title>
    <g id="Login" stroke="none" stroke-width="1" fill="none" fill-rule="evenodd">
        <path d="M9,0 C11.3103896,0 13.2682746,0.80890538 14.7959095,2.14047177 L15.0218182,2.34409091 L12.4404545,4.92545455 C11.5077273,4.03363636 10.3213636,3.57954545 9,3.57954545 C6.73404545,3.57954545 4.80449091,5.05894091 4.03908424,7.07912485 L3.96409091,7.29 L3.96409091,7.33181818 C3.78409091,7.87181818 3.68181818,8.44863636 3.68181818,9.04181818 C3.68181818,9.53613636 3.75284091,10.0190909 3.88068182,10.4788447 L3.951,10.71 L3.96409091,10.71 C4.67181818,12.8372727 6.65590909,14.4204545 9,14.4204545 C10.11,14.4204545 11.06875,14.1523295 11.8415885,13.6917045 L12.0477273,13.5613636 L12.2470577,13.4198411 C13.0245332,12.8348829 13.5619928,12.02601 13.7924553,11.0833894 L13.8436364,10.845 L9,10.845 L9,7.36363636 L17.4763636,7.36363636 C17.5827273,7.95272727 17.64,8.56636364 17.64,9.20454545 C17.64,11.9454545 16.6581818,14.2527273 14.9563636,15.8195455 C13.4672727,17.1940909 11.43,18 9,18 C5.58529412,18 2.61762976,16.1000735 1.09196901,13.2989231 L0.973,13.071 L0.957272727,13.0836364 C0.347727273,11.8686364 2.72848411e-12,10.4940909 2.72848411e-12,9.04181818 C2.72848411e-12,7.71056818 0.2921875,6.44463068 0.810390625,5.30702652 L0.957272727,5 L1.011,5 L0.957272727,4.95818182 C2.39462567,2.10332888 5.30413259,0.119436143 8.6908314,0.00520616685 L9,0 Z" id="Combined-Shape-Copy" fill="#FFFFFF" fill-rule="nonzero"></path>
    </g>
</svg>