<?xml version="1.0" encoding="UTF-8"?>
<svg width="21px" height="26px" viewBox="0 0 21 26" version="1.1" xmlns="http://www.w3.org/2000/svg" xmlns:xlink="http://www.w3.org/1999/xlink">
    <!-- Generator: Sketch 64 (93537) - https://sketch.com -->
    <title>Group 3</title>
    <desc>Created with Sketch.</desc>
    <defs>
        <linearGradient x1="50%" y1="0%" x2="50%" y2="100%" id="linearGradient-1">
            <stop stop-color="#E4D3B4" offset="0%"></stop>
            <stop stop-color="#AA9979" offset="100%"></stop>
        </linearGradient>
        <linearGradient x1="50%" y1="0%" x2="50%" y2="100%" id="linearGradient-2">
            <stop stop-color="#E4D3B4" offset="0%"></stop>
            <stop stop-color="#AA9979" offset="100%"></stop>
        </linearGradient>
    </defs>
    <g id="Login-&amp;-Registration" stroke="none" stroke-width="1" fill="none" fill-rule="evenodd">
        <g id="OTP2" transform="translate(-178.000000, -74.000000)" fill-rule="nonzero">
            <g id="Group-5" transform="translate(164.000000, 63.000000)">
                <g id="Group-3" transform="translate(14.000000, 11.000000)">
                    <path d="M17.6107266,9.546875 L15.7870549,9.546875 L15.7870549,5.37113281 C15.7870549,2.40946875 13.3352673,0 10.321657,0 C7.30804671,0 4.85625908,2.40946875 4.85625908,5.37113281 L4.85625908,9.546875 L3.03633218,9.546875 C1.36209862,9.546875 -8.8817842e-15,10.9137031 -8.8817842e-15,12.59375 L-8.8817842e-15,22.953125 C-8.8817842e-15,24.6331719 1.36209862,26 3.03633218,26 L17.6107266,26 C19.2849602,26 20.6470588,24.6331719 20.6470588,22.953125 L20.6470588,12.59375 C20.6470588,10.9137031 19.2849602,9.546875 17.6107266,9.546875 Z M6.88048054,5.37113281 C6.88048054,3.5295 8.42420242,2.03125 10.321657,2.03125 C12.2191116,2.03125 13.7628335,3.5295 13.7628335,5.37113281 L13.7628335,9.546875 L6.88048054,9.546875 L6.88048054,5.37113281 Z M18.6228374,22.953125 C18.6228374,23.5131406 18.1688045,23.96875 17.6107266,23.96875 L3.03633218,23.96875 C2.47825433,23.96875 2.02422145,23.5131406 2.02422145,22.953125 L2.02422145,12.59375 C2.02422145,12.0337344 2.47825433,11.578125 3.03633218,11.578125 L17.6107266,11.578125 C18.1688045,11.578125 18.6228374,12.0337344 18.6228374,12.59375 L18.6228374,22.953125 Z" id="Shape" fill="url(#linearGradient-1)"></path>
                    <path d="M10.3235294,14.5294118 C9.26766693,14.5294118 8.41176471,15.3930949 8.41176471,16.4585561 C8.41176471,17.1388663 8.76104928,17.736484 9.28823132,18.0799759 L9.28823132,20.368984 C9.28823132,20.9448596 9.75087838,21.4117647 10.3216176,21.4117647 C10.8923052,21.4117647 11.355004,20.9448596 11.355004,20.368984 L11.355004,18.0824265 C11.8843045,17.7393516 12.2352941,17.1405348 12.2352941,16.4585561 C12.2352941,15.3930949 11.3793919,14.5294118 10.3235294,14.5294118 Z" id="Path" fill="url(#linearGradient-2)"></path>
                </g>
            </g>
        </g>
    </g>
</svg>