<?xml version="1.0" encoding="UTF-8"?>
<svg width="19px" height="15px" viewBox="0 0 19 15" version="1.1" xmlns="http://www.w3.org/2000/svg" xmlns:xlink="http://www.w3.org/1999/xlink">
    <!-- Generator: Sketch 64 (93537) - https://sketch.com -->
    <title>twitter</title>
    <desc>Created with Sketch.</desc>
    <defs>
        <linearGradient x1="50%" y1="0%" x2="50%" y2="100%" id="linearGradient-1">
            <stop stop-color="#E4D3B4" offset="0%"></stop>
            <stop stop-color="#AA9979" offset="100%"></stop>
        </linearGradient>
    </defs>
    <g id="Login-&amp;-Registration" stroke="none" stroke-width="1" fill="none" fill-rule="evenodd">
        <g id="Login" transform="translate(-242.000000, -629.000000)" fill="url(#linearGradient-1)" fill-rule="nonzero">
            <g id="Group-5" transform="translate(-130.703975, -114.144141)">
                <g id="twitter" transform="translate(372.703975, 743.144141)">
                    <g id="Path">
                        <path d="M18.4615385,1.77576923 C17.775,2.07692308 17.0434615,2.27653846 16.2807692,2.37346154 C17.0653846,1.905 17.6642308,1.16884615 17.9457692,0.281538462 C17.2142308,0.717692308 16.4065385,1.02576923 15.5457692,1.19769231 C14.8511538,0.458076923 13.8611538,0 12.7811538,0 C10.6857692,0 8.99884615,1.70076923 8.99884615,3.78576923 C8.99884615,4.08576923 9.02423077,4.37423077 9.08653846,4.64884615 C5.94,4.49538462 3.15576923,2.98730769 1.28538462,0.69 C0.958846154,1.25653846 0.767307692,1.905 0.767307692,2.60307692 C0.767307692,3.91384615 1.44230769,5.07576923 2.44846154,5.74846154 C1.84038462,5.73692308 1.24384615,5.56038462 0.738461538,5.28230769 C0.738461538,5.29384615 0.738461538,5.30884615 0.738461538,5.32384615 C0.738461538,7.16307692 2.05038462,8.69076923 3.77076923,9.04269231 C3.46269231,9.12692308 3.12692308,9.16730769 2.77846154,9.16730769 C2.53615385,9.16730769 2.29153846,9.15346154 2.06192308,9.10269231 C2.55230769,10.6015385 3.94384615,11.7034615 5.59846154,11.7392308 C4.31076923,12.7465385 2.67576923,13.3534615 0.905769231,13.3534615 C0.595384615,13.3534615 0.297692308,13.3396154 0,13.3015385 C1.67653846,14.3826923 3.66346154,15 5.80615385,15 C12.7707692,15 16.5784615,9.23076923 16.5784615,4.23 C16.5784615,4.06269231 16.5726923,3.90115385 16.5646154,3.74076923 C17.3157692,3.20769231 17.9469231,2.54192308 18.4615385,1.77576923 Z"></path>
                    </g>
                </g>
            </g>
        </g>
    </g>
</svg>