<?xml version="1.0" encoding="UTF-8"?>
<svg width="40px" height="40px" viewBox="0 0 40 40" version="1.1" xmlns="http://www.w3.org/2000/svg" xmlns:xlink="http://www.w3.org/1999/xlink">
	<g stroke="none" stroke-width="1" fill="none" fill-rule="evenodd">
		<g>
			<rect fill="#8D9AA3" x="0" y="0" width="40" height="40" rx="5">
			</rect>
			<g transform="translate(10.000000, 10.000000)" fill="#F4F6FD" fill-rule="nonzero" stroke="#F4F6FD" stroke-width="0.6">
				<path d="M13.3891083,4.59726726 L2.0083682,4.59726726 C0.899176255,4.59726726 0,5.49644351 0,6.60563546 L0,17.9863755 C0,19.0955675 0.899176255,19.9947437 2.0083682,19.9947437 L13.3891083,19.9947437 C14.4983002,19.9947437 15.3974765,19.0955675 15.3974765,17.9863755 L15.3974765,6.60563546 C15.3974765,5.49644351 14.4983002,4.59726726 13.3891083,4.59726726 Z M14.0585774,17.9864147 C14.0585774,18.3561585 13.758852,18.6558839 13.3891083,18.6558839 L2.0083682,18.6558839 C1.63862448,18.6558839 1.33889906,18.3561585 1.33889906,17.9864147 L1.33889906,6.60563546 C1.33889906,6.23589174 1.63862448,5.93616632 2.0083682,5.93616632 L13.3891083,5.93616632 C13.758852,5.93616632 14.0585774,6.23589174 14.0585774,6.60563546 L14.0585774,17.9864147 Z" id="Shape">
				</path>
				<path d="M17.9864147,0 L5.93620554,0 C4.8270136,0 3.92783734,0.899176255 3.92783734,2.0083682 C3.92783734,2.37811192 4.22756276,2.67783734 4.59730649,2.67783734 C4.96705021,2.67783734 5.2667364,2.37811192 5.2667364,2.0083682 C5.2667364,1.63862448 5.56646182,1.33889906 5.93620554,1.33889906 L17.9864147,1.33889906 C18.3561585,1.33889906 18.6558839,1.63862448 18.6558839,2.0083682 L18.6558839,14.0585774 C18.6558839,14.4283211 18.3561585,14.7280465 17.9864147,14.7280465 C17.616671,14.7280465 17.3169456,15.027772 17.3169456,15.3975157 C17.3169456,15.7672594 17.616671,16.0669848 17.9864147,16.0669848 C19.0956067,16.0669848 19.9947829,15.1678086 19.9947829,14.0586166 L19.9947829,2.0083682 C19.9947829,0.899176255 19.0956067,0 17.9864147,0 Z" id="Path">
				</path>
			</g>
		</g>
	</g>
</svg>
