<?xml version="1.0" encoding="UTF-8"?>
<svg width="40px" height="40px" viewBox="0 0 40 40" version="1.1" xmlns="http://www.w3.org/2000/svg" xmlns:xlink="http://www.w3.org/1999/xlink">
	<g stroke="none" stroke-width="1" fill="none" fill-rule="evenodd">
		<g>
			<rect fill="#03A9F4" x="-3.55271368e-15" y="0" width="40" height="40" rx="5">
			</rect>
			<g transform="translate(10.000000, 12.000000)" fill="#FFFFFF" fill-rule="nonzero">
				<g id="Path">
					<path d="M20,1.92375 C19.25625,2.25 18.46375,2.46625 17.6375,2.57125 C18.4875,2.06375 19.13625,1.26625 19.44125,0.305 C18.64875,0.7775 17.77375,1.11125 16.84125,1.2975 C16.08875,0.49625 15.01625,0 13.84625,0 C11.57625,0 9.74875,1.8425 9.74875,4.10125 C9.74875,4.42625 9.77625,4.73875 9.84375,5.03625 C6.435,4.87 3.41875,3.23625 1.3925,0.7475 C1.03875,1.36125 0.83125,2.06375 0.83125,2.82 C0.83125,4.24 1.5625,5.49875 2.6525,6.2275 C1.99375,6.215 1.3475,6.02375 0.8,5.7225 C0.8,5.735 0.8,5.75125 0.8,5.7675 C0.8,7.76 2.22125,9.415 4.085,9.79625 C3.75125,9.8875 3.3875,9.93125 3.01,9.93125 C2.7475,9.93125 2.4825,9.91625 2.23375,9.86125 C2.765,11.485 4.2725,12.67875 6.065,12.7175 C4.67,13.80875 2.89875,14.46625 0.98125,14.46625 C0.645,14.46625 0.3225,14.45125 0,14.41 C1.81625,15.58125 3.96875,16.25 6.29,16.25 C13.835,16.25 17.96,10 17.96,4.5825 C17.96,4.40125 17.95375,4.22625 17.945,4.0525 C18.75875,3.475 19.4425,2.75375 20,1.92375 Z">
					</path>
				</g>
			</g>
		</g>
	</g>
</svg>
