<?xml version="1.0" encoding="UTF-8"?>
<svg width="12px" height="14px" viewBox="0 0 12 14" version="1.1" xmlns="http://www.w3.org/2000/svg" xmlns:xlink="http://www.w3.org/1999/xlink">
    <title>icn/shield/solid gold</title>
    <defs>
        <linearGradient x1="50%" y1="0%" x2="50%" y2="133.956857%" id="linearGradient-1">
            <stop stop-color="#E4D3B4" offset="1.44572225%"></stop>
            <stop stop-color="#AA997A" offset="100%"></stop>
        </linearGradient>
    </defs>
    <g id="icn/shield/solid-gold" stroke="none" stroke-width="1" fill="none" fill-rule="evenodd">
        <path d="M6,0 L11.51325,1.94611765 C11.8059297,2.04937491 12,2.31264324 12,2.60682353 L12,5.64705882 C12,7.88964706 10.971,10.0235294 9.17775,11.5002353 L6,14.1176471 L2.82225,11.5002353 C1.02889332,10.0233757 0.000150754662,7.88982561 0,5.64705882 L0,2.60682353 C0,2.31264324 0.194070321,2.04937491 0.48675,1.94611765 L6,0 Z M5.89777746,2.82612038 C4.85976903,2.87849928 4.0306074,3.75076974 4.01908988,4.79758453 C4.01332873,5.32809273 4.21883888,5.80515175 4.57348142,6.16417047 C4.65547351,6.24709072 4.74473908,6.32375008 4.84203786,6.39323185 C4.88280646,6.42270533 4.92493973,6.45065018 4.96843529,6.47722238 C5.23987111,6.64458911 5.55965623,6.75988412 5.91293172,6.80921055 C5.94218279,6.81394282 5.97143149,6.81867749 6.00068257,6.82493838 C6.32425447,6.8886176 6.65025086,7.02284887 6.89152821,7.24030516 C6.65782918,7.09019248 6.38260421,7.00101133 6.08676629,6.99444327 C6.07433899,6.99383374 6.06236658,6.99383374 6.04993927,6.99383374 C6.00826089,6.99383374 5.96658251,6.99520879 5.92535902,6.99917794 C5.33565517,7.04544952 4.83779381,7.42080561 4.612128,7.94306833 C4.6295567,7.99666869 4.65047211,8.048894 4.67502425,8.09898355 C4.69230053,8.13517387 4.71094148,8.1704499 4.73109953,8.20450446 C4.88992989,8.47525634 5.13635868,8.68736842 5.43143924,8.80098362 C5.50312367,8.82923323 5.57829718,8.85152912 5.6558928,8.86695218 C5.56253561,8.86206633 5.47160053,8.84710162 5.38400209,8.82404262 C5.15697161,8.76417896 4.9531286,8.64796967 4.78702239,8.4906794 C4.68745155,8.39706835 4.60167029,8.28910452 4.53331775,8.16938202 C4.51983062,8.14616943 4.50740332,8.12311043 4.49542853,8.09898355 C4.39964684,7.90901377 4.34614609,7.69430518 4.34614609,7.46646526 C4.34614609,7.3117715 4.37100308,7.1627291 4.41737802,7.02330722 C4.06743442,7.25862949 3.82903884,7.64986698 3.80084758,8.09898355 C3.79842309,8.12937133 3.79736327,8.1597615 3.79736327,8.19076121 C3.79736327,8.32040899 3.81524687,8.44578286 3.84813468,8.56504941 C3.71324915,8.43662069 3.60397796,8.2813174 3.52941176,8.10722902 C3.5341107,9.5533756 4.76944364,10.7130425 6.23332177,10.5774385 C7.56095208,10.4540493 8.53651676,9.30644583 8.4671044,7.96490587 C8.4154232,6.96970686 7.79010458,6.17623391 6.79968572,5.80133618 C6.69283902,5.76086714 6.5819007,5.7257447 6.46702079,5.69535452 C6.3462297,5.66298217 6.22134936,5.63686832 6.09207016,5.61655701 L6.08009775,5.61472601 C5.82836271,5.58051787 5.57556784,5.47423385 5.40840181,5.29831448 C5.53343695,5.52401624 5.73258102,5.70207377 5.97340348,5.7984325 C5.51994745,5.76086714 5.16333531,5.37848705 5.16333531,4.91196284 C5.16333531,4.72565744 5.21971544,4.55340246 5.31701422,4.41031619 C5.36672343,4.33640452 5.42749765,4.27089431 5.49691002,4.21469744 C5.50357856,4.20950443 5.51085442,4.20370188 5.51858278,4.19789934 C5.59117937,4.13956431 5.67514107,4.09420943 5.76561888,4.06580623 C5.79274794,4.05649048 5.82108923,4.04931289 5.849733,4.04351034 C5.87761941,4.03724945 5.904446,4.03251478 5.93202756,4.02915516 C5.96991678,4.02381096 6.00826089,4.02136804 6.04705989,4.02136804 C6.29758031,4.02136804 6.52339854,4.12597225 6.68420088,4.29440926 C6.81453752,4.43093227 6.90213833,4.60929456 6.92456844,4.80812174 C6.96533705,4.80292873 7.00504344,4.79284987 7.04323513,4.7792578 C7.05096588,4.77681487 7.05869424,4.7739136 7.06627256,4.77101233 C7.20130813,4.72092517 7.32012963,4.63693464 7.412427,4.52927558 C7.43485711,4.50331531 7.45546767,4.47628475 7.47471593,4.44788156 C7.56519375,4.31227764 7.61823961,4.14872648 7.61823961,3.97311188 C7.61823961,3.86850767 7.59959866,3.76771903 7.56474124,3.67502468 C7.54655279,3.62539588 7.52351775,3.57759807 7.49623627,3.53224318 L7.48608342,3.51636177 L7.48608342,3.51636177 C7.45501278,3.469939 7.41773087,3.42565439 7.37468782,3.38365913 C7.33103984,3.3413591 7.28557468,3.30119483 7.23874247,3.26256158 C7.22192107,3.2491231 7.2046424,3.23598938 7.18751854,3.22300924 C7.04187284,3.11260249 6.88046557,3.02189271 6.70784324,2.95485387 C6.45777533,2.85849513 6.18406507,2.81161402 5.89777746,2.82612038 Z M7.48788464,5.06614129 C7.37794142,5.15448668 7.24277833,5.21852121 7.09369044,5.24781127 C7.19115582,5.3410166 7.3110813,5.41477659 7.44611435,5.46280202 C7.53477817,5.49458355 7.63027228,5.51521593 7.72983897,5.52209401 C7.64852975,5.4268724 7.58259024,5.32050349 7.53517242,5.20583282 C7.51612438,5.16053365 7.50036247,5.11369339 7.48788464,5.06614129 Z" id="Combined-Shape" fill="url(#linearGradient-1)" fill-rule="nonzero"></path>
    </g>
</svg>