<?xml version="1.0" encoding="UTF-8"?>
<svg width="20px" height="20px" viewBox="0 0 20 20" version="1.1" xmlns="http://www.w3.org/2000/svg" xmlns:xlink="http://www.w3.org/1999/xlink">
    <title>image</title>
    <defs>
        <linearGradient x1="50%" y1="0%" x2="50%" y2="100%" id="linearGradient-1">
            <stop stop-color="#E4D3B4" offset="0%"></stop>
            <stop stop-color="#AA9979" offset="100%"></stop>
        </linearGradient>
    </defs>
    <g id="New-Marketplace" stroke="none" stroke-width="1" fill="none" fill-rule="evenodd">
        <g id="image" fill="url(#linearGradient-1)" fill-rule="nonzero">
            <path d="M17.65625,0 L2.34375,0 C1.05140625,0 0,1.05140625 0,2.34375 L0,17.65625 C0,18.9485938 1.05140625,20 2.34375,20 L17.65625,20 C18.9485938,20 20,18.9485938 20,17.65625 L20,2.34375 C20,1.05140625 18.9485938,0 17.65625,0 Z M2.34375,1.5625 L17.65625,1.5625 C18.0870313,1.5625 18.4375,1.91296875 18.4375,2.34375 L18.4375,13.8169922 L15.7783984,11.1578906 C14.8645313,10.2440625 13.3776563,10.2440625 12.4637891,11.1578906 L11.6015625,12.0201563 L9.17679688,9.59539063 C8.26300781,8.6815625 6.77609375,8.6815625 5.86222656,9.59539063 L1.5625,13.8951172 L1.5625,2.34375 C1.5625,1.91296875 1.91296875,1.5625 2.34375,1.5625 Z M17.65625,18.4375 L2.34375,18.4375 C1.91296875,18.4375 1.5625,18.0870313 1.5625,17.65625 L1.5625,16.1048828 L6.96707031,10.7002734 C7.27175781,10.3956641 7.76730469,10.3956641 8.07191406,10.7002734 L11.6015625,14.2298438 L13.5686719,12.2627344 C13.8732422,11.958125 14.3689063,11.958125 14.6734766,12.2627344 L18.4375,16.0267578 L18.4375,17.65625 C18.4375,18.0870313 18.0870313,18.4375 17.65625,18.4375 Z M12.65625,7.8125 C13.9485938,7.8125 15,6.76109375 15,5.46875 C15,4.17640625 13.9485938,3.125 12.65625,3.125 C11.3639062,3.125 10.3125,4.17640625 10.3125,5.46875 C10.3125,6.76109375 11.3639062,7.8125 12.65625,7.8125 Z M12.65625,4.6875 C13.0870313,4.6875 13.4375,5.03796875 13.4375,5.46875 C13.4375,5.89953125 13.0870313,6.25 12.65625,6.25 C12.2254687,6.25 11.875,5.89953125 11.875,5.46875 C11.875,5.03796875 12.2254687,4.6875 12.65625,4.6875 Z" id="Shape"></path>
        </g>
    </g>
</svg>