<?xml version="1.0" encoding="UTF-8"?>
<svg width="17px" height="20px" viewBox="0 0 17 20" version="1.1" xmlns="http://www.w3.org/2000/svg" xmlns:xlink="http://www.w3.org/1999/xlink">
    <title>avatar copy</title>
    <defs>
        <linearGradient x1="50%" y1="0%" x2="50%" y2="100%" id="linearGradient-1">
            <stop stop-color="#E4D3B4" offset="0%"></stop>
            <stop stop-color="#AA9979" offset="100%"></stop>
        </linearGradient>
    </defs>
    <g id="New-Marketplace" stroke="none" stroke-width="1" fill="none" fill-rule="evenodd">
        <g id="avatar-copy" fill="url(#linearGradient-1)" fill-rule="nonzero">
            <path d="M11.3756933,9.27363281 C12.6441635,8.3403125 13.4701928,6.82984375 13.4701928,5.12820312 C13.4701928,2.30050781 11.18992,0 8.38709677,0 C5.58427357,0 3.30400078,2.30050781 3.30400078,5.12820313 C3.30400078,6.82984375 4.1299913,8.3403125 5.39850024,9.27363281 C2.24523218,10.4910156 0,13.5754297 0,17.1794922 C0,18.7347266 1.25414423,20 2.79569892,20 L13.9784946,20 C15.5200493,20 16.7741935,18.7347266 16.7741935,17.1794922 C16.7741935,13.5754297 14.5289614,10.4910156 11.3756933,9.27363281 Z M4.82894507,5.12820313 C4.82894507,3.14882813 6.42513215,1.53847656 8.38709677,1.53847656 C10.3490614,1.53847656 11.9452485,3.14882813 11.9452485,5.12820313 C11.9452485,7.10757813 10.3490614,8.71796875 8.38709677,8.71796875 C6.42513215,8.71796875 4.82894507,7.10757813 4.82894507,5.12820313 Z M13.9784946,18.4615234 L2.79569892,18.4615234 C2.0950028,18.4615234 1.52494429,17.8864063 1.52494429,17.1794531 C1.52494429,13.3620313 4.60325254,10.2563672 8.38713549,10.2563672 C12.1710184,10.2563672 15.2493267,13.3619922 15.2493267,17.1794531 C15.2493267,17.8864063 14.6792295,18.4615234 13.9784946,18.4615234 Z" id="Shape"></path>
        </g>
    </g>
</svg>