<?xml version="1.0" encoding="UTF-8"?>
<svg width="18px" height="18px" viewBox="0 0 18 18" version="1.1" xmlns="http://www.w3.org/2000/svg" xmlns:xlink="http://www.w3.org/1999/xlink">
    <title>podium</title>
    <defs>
        <linearGradient x1="50%" y1="0%" x2="50%" y2="100%" id="linearGradient-1">
            <stop stop-color="#E4D3B4" offset="0%"></stop>
            <stop stop-color="#AA9979" offset="100%"></stop>
        </linearGradient>
        <linearGradient x1="50%" y1="0%" x2="50%" y2="100%" id="linearGradient-2">
            <stop stop-color="#E4D3B4" offset="0%"></stop>
            <stop stop-color="#AA9979" offset="100%"></stop>
        </linearGradient>
    </defs>
    <g id="Newsfeed---Draft" stroke="none" stroke-width="1" fill="none" fill-rule="evenodd">
        <g id="Profile-Menu-Copy" transform="translate(-47.000000, -484.000000)">
            <g id="podium" transform="translate(47.000000, 484.000000)">
                <path d="M7.00697315,4.63298315 L6.66553567,6.5891618 C6.63133653,6.78520143 6.71330368,6.9832817 6.87709953,7.10014362 C6.96972795,7.16626105 7.0793867,7.2 7.18959929,7.2 C7.27419716,7.2 7.35921037,7.18013754 7.4370238,7.14000454 L9.22493229,6.21640089 L11.0128408,7.14000454 C11.0906542,7.18013754 11.175529,7.2 11.2602653,7.2 C11.2606807,7.2 11.2612345,7.2 11.2617883,7.2 C11.5550424,7.19959186 11.7926364,6.96586805 11.7926364,6.67759051 C11.7926364,6.63745748 11.7880673,6.59841284 11.7793444,6.56086462 L11.4428914,4.63298315 L12.8893624,3.24750965 C13.034328,3.10874462 13.0865267,2.90114125 13.0239437,2.71203991 C12.9613606,2.52293854 12.7950725,2.38512584 12.5947237,2.35655655 L10.5958052,2.07113597 L9.70178174,0.291134457 C9.61219938,0.112916653 9.42735794,0 9.22493229,0 C9.02264512,0 8.83780365,0.112916653 8.74822129,0.291134457 L7.85419782,2.07099993 L5.85514084,2.35642052 C5.65493052,2.38512584 5.48850399,2.52293854 5.42605941,2.71203991 C5.36347638,2.90114125 5.41567505,3.10874462 5.56050216,3.24750965 L7.00697315,4.63298315 Z M8.2836946,3.06561864 C8.45690561,3.04085859 8.60657876,2.93392791 8.68397677,2.77978988 L9.22493229,1.70286448 L9.76588781,2.77978988 C9.84342431,2.93392791 9.99309743,3.04085859 10.1663084,3.06561864 L11.3758778,3.23825864 L10.5005461,4.07656261 C10.3752416,4.19655356 10.3180584,4.36946567 10.3476884,4.53884061 L10.5542678,5.72256065 L9.47235679,5.16369133 C9.39495875,5.12369437 9.30994554,5.10369587 9.22507074,5.10369587 C9.14005753,5.10369587 9.05504428,5.12369437 8.97764627,5.16369133 L7.89573523,5.72256065 L8.10231461,4.53897665 C8.13194461,4.36946567 8.07476145,4.19655356 7.94945695,4.07656261 L7.07412528,3.23825864 L8.2836946,3.06561864 Z" id="Shape" fill="url(#linearGradient-1)"></path>
                <path d="M16.0605014,11.4615438 L13.801163,11.4615438 C13.4824221,11.4615438 13.1818087,11.5386422 12.9163516,11.6743135 L12.9163516,10.0236454 C12.9163516,8.96292974 12.0463717,8.1 10.97699,8.1 L7.02301039,8.1 C5.95362865,8.1 5.08351144,8.96292974 5.08351144,10.0236454 L5.08351144,10.2736022 C4.81805429,10.138067 4.51744089,10.0609686 4.19883737,10.0609686 L1.93949895,10.0609686 C0.869979884,10.0608324 0,10.9238984 0,11.9846141 L0,17.0270659 C0,17.3158443 0.236068739,17.55 0.52734376,17.55 L17.4726566,17.55 C17.7639316,17.55 18,17.3158443 18,17.0270659 L18,13.3853254 C18,12.3246097 17.1300205,11.4615438 16.0605014,11.4615438 Z M1.05468752,11.9846141 C1.05468752,11.5007741 1.45156861,11.106973 1.93949895,11.106973 L4.19883737,11.106973 C4.68663035,11.106973 5.08351144,11.5007741 5.08351144,11.9846141 L5.08351144,16.5039957 L1.05468752,16.5039957 L1.05468752,11.9846141 Z M6.13819896,11.9846141 L6.13819896,10.0236454 C6.13819896,9.53980539 6.53521741,9.14614054 7.02301039,9.14614054 L10.97699,9.14614054 C11.4647829,9.14614054 11.8616641,9.53980539 11.8616641,10.0236454 L11.8616641,16.5039957 L6.13819896,16.5039957 L6.13819896,11.9846141 Z M16.9453128,16.5039957 L12.9163516,16.5039957 L12.9163516,13.3853254 C12.9163516,12.9013492 13.3132327,12.5076843 13.801163,12.5076843 L16.0605014,12.5076843 C16.5484317,12.5076843 16.9453128,12.9013492 16.9453128,13.3853254 L16.9453128,16.5039957 Z" id="Shape" fill="url(#linearGradient-2)"></path>
            </g>
        </g>
    </g>
</svg>