<?xml version="1.0" encoding="UTF-8"?>
<svg width="21px" height="21px" viewBox="0 0 21 21" version="1.1" xmlns="http://www.w3.org/2000/svg" xmlns:xlink="http://www.w3.org/1999/xlink">
    <title>Silver</title>
    <defs>
        <linearGradient x1="50%" y1="0%" x2="50%" y2="100%" id="linearGradient-1">
            <stop stop-color="#CFCFCF" offset="0%"></stop>
            <stop stop-color="#575757" offset="100%"></stop>
        </linearGradient>
        <linearGradient x1="50%" y1="0%" x2="50%" y2="100%" id="linearGradient-2">
            <stop stop-color="#CFCFCF" offset="0%"></stop>
            <stop stop-color="#575757" offset="100%"></stop>
        </linearGradient>
        <linearGradient x1="50%" y1="0%" x2="50%" y2="100%" id="linearGradient-3">
            <stop stop-color="#E6E6E6" offset="0%"></stop>
            <stop stop-color="#969696" offset="100%"></stop>
        </linearGradient>
        <linearGradient x1="50%" y1="0%" x2="50%" y2="100%" id="linearGradient-4">
            <stop stop-color="#CFCFCF" offset="0%"></stop>
            <stop stop-color="#575757" offset="100%"></stop>
        </linearGradient>
        <linearGradient x1="50%" y1="0%" x2="50%" y2="100%" id="linearGradient-5">
            <stop stop-color="#E6E6E6" offset="0%"></stop>
            <stop stop-color="#969696" offset="100%"></stop>
        </linearGradient>
        <linearGradient x1="50%" y1="0%" x2="50%" y2="100%" id="linearGradient-6">
            <stop stop-color="#CFCFCF" offset="0%"></stop>
            <stop stop-color="#575757" offset="100%"></stop>
        </linearGradient>
        <linearGradient x1="50%" y1="0%" x2="50%" y2="100%" id="linearGradient-7">
            <stop stop-color="#E6E6E6" offset="0%"></stop>
            <stop stop-color="#969696" offset="100%"></stop>
        </linearGradient>
        <linearGradient x1="50%" y1="0%" x2="50%" y2="100%" id="linearGradient-8">
            <stop stop-color="#CFCFCF" offset="0%"></stop>
            <stop stop-color="#575757" offset="100%"></stop>
        </linearGradient>
        <linearGradient x1="50%" y1="0%" x2="50%" y2="100%" id="linearGradient-9">
            <stop stop-color="#E6E6E6" offset="0%"></stop>
            <stop stop-color="#969696" offset="100%"></stop>
        </linearGradient>
        <linearGradient x1="50%" y1="0%" x2="50%" y2="100%" id="linearGradient-10">
            <stop stop-color="#CFCFCF" offset="0%"></stop>
            <stop stop-color="#575757" offset="100%"></stop>
        </linearGradient>
        <linearGradient x1="50%" y1="0%" x2="50%" y2="100%" id="linearGradient-11">
            <stop stop-color="#E6E6E6" offset="0%"></stop>
            <stop stop-color="#969696" offset="100%"></stop>
        </linearGradient>
        <linearGradient x1="50%" y1="0%" x2="50%" y2="100%" id="linearGradient-12">
            <stop stop-color="#CFCFCF" offset="0%"></stop>
            <stop stop-color="#575757" offset="100%"></stop>
        </linearGradient>
    </defs>
    <g id="Newsfeed---Draft" stroke="none" stroke-width="1" fill="none" fill-rule="evenodd">
        <g id="Profile-Menu-Copy-6" transform="translate(-47.000000, -210.000000)">
            <g id="Silver" transform="translate(47.000000, 210.000000)">
                <g id="Group">
                    <g>
                        <g transform="translate(0.000000, 1.796369)" id="Shape">
                            <path d="M12.3416008,9.41683501 C12.1692118,9.41683501 12.0003502,9.35755896 11.8645062,9.24632387 C11.6892872,9.10281993 11.5876093,8.88799563 11.5876093,8.66120925 L11.5876093,0.755625763 C11.5876093,0.338309217 11.9251684,0 12.3415597,0 L19.7283219,0 C20.1246155,0 20.4910087,0.180130132 20.7334934,0.494268533 C20.9760602,0.808365827 21.0581326,1.20903411 20.9587106,1.5935063 L20.0875783,4.96180001 C19.6251264,6.7496594 18.2282139,8.14223551 16.4418985,8.59605492 C16.4302501,8.59901461 16.4185606,8.60168655 16.4067891,8.60407075 L12.4917592,9.4017077 C12.4419662,9.41186108 12.3916399,9.41683501 12.3416008,9.41683501 L12.3416008,9.41683501 Z M13.0955922,1.51125153 L13.0955922,7.73651109 L16.0879741,7.12685568 C17.3327593,6.80424927 18.3051184,5.83079841 18.6279529,4.5825895 L19.4223038,1.51125153 L13.0955922,1.51125153 L13.0955922,1.51125153 Z" fill="url(#linearGradient-1)"></path>
                            <path d="M8.65843261,9.41683501 C8.60839347,9.41683501 8.55814924,9.41186108 8.50823315,9.4017077 L4.59320328,8.60407075 C4.5814728,8.60168655 4.56978332,8.5989735 4.55817588,8.59605492 C2.77181944,8.1421944 1.37486597,6.7496594 0.912496073,4.9617589 L0.0413227681,1.5935063 C-0.0581402857,1.20907521 0.0238910989,0.808406934 0.266457903,0.49430964 C0.508983692,0.180171239 0.875376871,0 1.27167049,0 L8.65843261,0 C9.07482392,0 9.41238307,0.338309217 9.41238307,0.755625763 L9.41238307,8.66120925 C9.41238307,8.88799563 9.31074618,9.10281993 9.13548613,9.24632387 C8.99972419,9.35755896 8.83082157,9.41683501 8.65843261,9.41683501 L8.65843261,9.41683501 Z M4.91210029,7.12685568 L7.90452317,7.73651109 L7.90452317,1.51125153 L1.57781162,1.51125153 L2.37216253,4.58254839 C2.69495603,5.83079841 3.66731505,6.80420816 4.91210029,7.12685568 Z" fill="url(#linearGradient-2)"></path>
                        </g>
                        <g transform="translate(2.452102, 0.000000)" id="Path">
                            <g transform="translate(1.365453, 8.295564)">
                                <path d="M9.26409137,8.6807761 C7.30731473,8.03342573 5.94346092,6.01705346 5.87110924,3.69686061 C5.94998242,3.33022879 5.99124421,2.9511416 5.99124421,2.56457296 L5.99124421,0 L5.4413058,0 L5.4413058,2.56457296 C5.4413058,4.95575731 3.86277587,7.05849502 1.57028578,7.72105492 L1.57028578,9.27489312 L9.73905309,9.27489312 L9.73905309,8.83792751 L9.26409137,8.6807761 Z" fill="url(#linearGradient-3)"></path>
                                <path d="M11.3196338,7.58379921 C9.30847035,7.00254862 7.92361652,5.15783849 7.92361652,3.06003359 L7.92361652,0 L5.44126479,0 L5.44126479,2.56457296 C5.44126479,2.9511827 5.400003,3.33022879 5.32112983,3.69686061 C5.39348151,6.01705346 6.75733531,8.03342573 8.71411196,8.6807761 L9.18911469,8.83792751 L9.18911469,9.27489312 L11.7946365,9.27489312 L11.7946365,7.72105492 L11.3196338,7.58379921 Z" fill="url(#linearGradient-4)"></path>
                                <path d="M10.3154876,7.70440665 L0.680368304,7.70440665 C0.304623547,7.70440665 0,8.00966598 0,8.38628676 L0,11.8100336 L10.9958149,11.8100336 L10.9958149,8.38628676 C10.9958149,8.00966598 10.6912324,7.70440665 10.3154876,7.70440665 Z" fill="url(#linearGradient-5)"></path>
                                <path d="M12.684595,7.70440665 L9.96238353,7.70440665 C10.3381283,7.70440665 10.6427518,8.00970708 10.6427518,8.38628676 L10.6427518,11.8100336 L13.3649633,11.8100336 L13.3649633,8.38628676 C13.3649223,8.00970708 13.0603398,7.70440665 12.684595,7.70440665 Z" fill="url(#linearGradient-6)"></path>
                            </g>
                            <path d="M11.4686028,4.75334727 L11.4686028,0.92687682 L2.38580079,0.92687682 L2.38580079,4.62094217 C2.38580079,7.65154327 4.0228191,10.4446702 6.66394258,11.9204054 C6.86040774,12.0302018 7.06667566,12.1148818 7.27819358,12.1745279 C9.87219003,10.6135782 11.4686028,7.79924011 11.4686028,4.75334727 Z" fill="url(#linearGradient-7)"></path>
                            <path d="M10.9817055,0.92687682 L10.9817055,4.62094217 C10.9817055,7.65154327 9.34468721,10.4446702 6.70352272,11.9204054 C6.69691919,11.9240639 6.69035668,11.9277224 6.68375315,11.9313398 C7.54028386,12.4010676 8.57814494,12.3974091 9.43188657,11.9204054 C12.07301,10.4446291 13.7100694,7.65154327 13.7100694,4.62094217 L13.7100694,0.92687682 L10.9817055,0.92687682 Z" fill="url(#linearGradient-8)"></path>
                            <path d="M13.7193389,20.6708576 L13.7193389,20.2439221 C13.7193389,19.8264822 13.3818208,19.4880497 12.9653474,19.4878441 L0.754401629,19.4878441 C0.337764226,19.4878441 0,19.8263589 0,20.2439221 C0,20.6614852 0.337764226,21 0.754401629,21 L13.3661938,21 L13.7193389,20.6708576 Z" fill="url(#linearGradient-9)"></path>
                            <path d="M15.3414685,19.487803 L12.6117922,19.487803 C13.0284296,19.487803 13.3661938,19.8263178 13.3661938,20.243881 L13.3661938,20.9999589 L15.3414685,20.9999589 C15.7581059,20.9999589 16.0958702,20.6614441 16.0958702,20.243881 C16.0958702,19.8263178 15.7581059,19.487803 15.3414685,19.487803 Z" fill="url(#linearGradient-10)"></path>
                            <path d="M12.9584568,0.898184253 L12.9584568,0.295188152 L12.3737781,0 L1.88992107,0 C1.39498471,0 0.993769209,0.402107019 0.993769209,0.898143146 C0.993769209,1.39417927 1.39498471,1.7962863 1.88992107,1.7962863 L12.0623049,1.7962863 C12.5572003,1.79636851 12.9584568,1.39422038 12.9584568,0.898184253 Z" fill="url(#linearGradient-11)"></path>
                            <path d="M14.2059491,4.11068304e-05 L12.3737781,4.11068304e-05 L12.3737781,0.898184253 C12.3737781,1.39422038 11.9725216,1.7963274 11.4776263,1.7963274 L14.2059901,1.7963274 C14.7009265,1.7963274 15.102142,1.39422038 15.102142,0.898184253 C15.102142,0.402148126 14.7008855,4.11068304e-05 14.2059491,4.11068304e-05 L14.2059491,4.11068304e-05 Z" fill="url(#linearGradient-12)"></path>
                        </g>
                    </g>
                    <path d="M14.4602664,18.1410199 L6.53980804,18.1410199 C6.3624972,18.1410199 6.21877822,17.9969816 6.21877822,17.8192768 C6.21877822,17.6415719 6.3624972,17.4975336 6.53980804,17.4975336 L14.4602664,17.4975336 C14.6375772,17.4975336 14.7812962,17.6415719 14.7812962,17.8192768 C14.7812962,17.9969816 14.6375772,18.1410199 14.4602664,18.1410199 Z" id="Path" fill="#F4FBFF" fill-rule="nonzero"></path>
                </g>
                <path d="M10.7619734,3.50747206 L11.2677714,4.95674867 C11.3066755,5.06824558 11.4063455,5.14399749 11.5197722,5.1482594 L12.9937933,5.2035725 C13.253724,5.21333364 13.3605352,5.55712725 13.1557188,5.72480798 L11.9942892,6.6758084 C11.9049147,6.748994 11.866843,6.87153521 11.8980364,6.98564426 L12.3032443,8.46910776 C12.3747001,8.73073369 12.0951421,8.94318733 11.8793291,8.79127106 L10.6557317,7.92977064 C10.5615819,7.86345907 10.4384291,7.86345907 10.3442793,7.92977064 L9.12068189,8.79127106 C8.90491272,8.94318733 8.62531092,8.73073369 8.69676666,8.46910776 L9.10197459,6.98564426 C9.13316803,6.87148938 9.09509627,6.74894818 9.00572183,6.6758084 L7.84429223,5.72480798 C7.63947581,5.55708143 7.74624322,5.21333364 8.00621769,5.2035725 L9.48023876,5.1482594 C9.59366544,5.14399749 9.69329165,5.06829141 9.73223963,4.95674867 L10.2380376,3.50747206 C10.327193,3.25189528 10.6727742,3.25189528 10.7619734,3.50747206 L10.7619734,3.50747206 Z" id="Path" fill="#F4FBFF" fill-rule="nonzero"></path>
            </g>
        </g>
    </g>
</svg>