<?xml version="1.0" encoding="UTF-8"?>
<svg width="19px" height="20px" viewBox="0 0 19 20" version="1.1" xmlns="http://www.w3.org/2000/svg" xmlns:xlink="http://www.w3.org/1999/xlink">
    <title>icn/gift large/selected</title>
    <defs>
        <linearGradient x1="50%" y1="0%" x2="50%" y2="100%" id="linearGradient-1">
            <stop stop-color="#E4D3B4" offset="0%"></stop>
            <stop stop-color="#AA9979" offset="100%"></stop>
        </linearGradient>
    </defs>
    <g id="icn/gift-large/selected" stroke="none" stroke-width="1" fill="none" fill-rule="evenodd">
        <path d="M14.3814964,2.15097507 C15.7952996,3.92657549 15.2837202,5.08215838 13.1175063,5.54289196 L13.6579421,5.54204417 C14.9895209,5.54204417 16.0689787,6.62660014 16.0689787,7.96446773 L16.069642,9.55825845 C16.9038851,9.83802081 17.4876446,10.2497778 17.6517116,10.7206688 L17.8466592,10.8489663 C17.9249756,10.9457712 17.9761239,11.0657267 17.9934505,11.1946944 L18,11.292889 L18,12.9175634 C18,13.3327315 17.8263873,13.7139406 17.5190073,14.0457098 L17.8466592,14.4826017 C17.9249756,14.5794065 17.9761239,14.6993621 17.9934505,14.8283297 L18,14.9265244 L18,16.5511987 C18,17.975415 15.9569202,19 13.4793064,19 C11.7064209,19 10.1560291,18.4753833 9.41748311,17.6551253 L8.09650414,17.6554075 C7.60419108,17.9112102 7.04600981,18.1277678 6.44457104,18.2889229 C4.13115291,18.9088014 1.96214898,18.4987925 1.48715125,17.2281165 L1.44411992,17.0936041 L1.02362324,15.5242891 C0.989228131,15.3959248 0.990703611,15.2637112 1.02533513,15.1429807 L1.05748312,15.0548255 L1.21605966,14.839062 C1.31056639,14.055304 2.42816138,13.1529983 4.0124147,12.5715315 L4.01379575,7.96446773 C4.01379575,6.62660014 5.0932536,5.54204417 6.42483235,5.54204417 L7.27536666,5.54278596 C5.1095726,5.08198115 4.59818012,3.92643933 6.01187486,2.15097507 C6.92561201,1.00340933 7.83958314,0.675449449 8.63546358,1.34181551 C9.08132071,1.71511787 9.45966138,2.40380597 9.7844326,3.41513713 L9.86451744,3.67469586 L9.97057829,4.05171244 C10.0486216,4.34394893 10.1233194,4.6575202 10.1949075,4.99254883 L10.1957957,4.999 L10.2704602,4.66687587 C10.3202221,4.45084321 10.3707641,4.24653676 10.422793,4.05171244 L10.5288538,3.67469586 C10.871122,2.52077749 11.2748958,1.7462264 11.7579077,1.34181551 C12.5537881,0.675449449 13.4677593,1.00340933 14.3814964,2.15097507 Z M17.3971142,15.3018874 C16.7744161,15.9706519 15.2549527,16.4429502 13.4793064,16.4429502 C12.1050397,16.4429502 10.8842274,16.160042 10.1138436,15.7221016 C10.0106213,16.0017513 9.83467791,16.2770968 9.59904769,16.5403107 C9.85219764,17.291257 11.4774078,17.9569649 13.4793064,17.9569649 C15.584257,17.9569649 17.2728046,17.2209554 17.3907302,16.4236708 L17.3973109,16.3348657 L17.3971142,15.3018874 Z M9.22796614,13.7772761 L9.27174082,13.7028171 C8.84334968,14.5099602 7.49790045,15.3594313 5.78275785,15.8190024 C4.0667716,16.2787995 2.47612237,16.2155724 1.70197493,15.730108 L1.97034944,16.7286369 C2.1853144,17.5308971 4.06608282,17.8464075 6.17461369,17.2814283 C8.2078399,16.736627 9.64835827,15.5886682 9.55591326,14.7880289 L9.53928533,14.7005466 L9.3267869,13.9136155 C9.2914732,13.8689577 9.25850429,13.8234999 9.22796614,13.7772761 Z M5.07741733,13.1866357 C4.09407196,13.4501223 3.22775519,13.8600345 2.65831036,14.3096983 C2.41522253,14.5016534 2.2463799,14.6859904 2.16097246,14.8370228 L2.1167218,14.9204057 L2.19673547,14.9704922 C2.34621667,15.0585863 2.5846072,15.1338056 2.89110496,15.1784996 C3.31926634,15.2409348 3.83178838,15.2383411 4.38433064,15.1701966 C4.7566766,15.1096846 5.14602432,15.0268882 5.54207625,14.9207664 C5.93877168,14.8144722 6.31795006,14.6912727 6.67063203,14.557516 C7.18256315,14.3403382 7.62737888,14.0864707 7.96675131,13.8184843 C8.20983914,13.6265292 8.37868178,13.4421922 8.46408921,13.2911598 L8.50833987,13.2077768 L8.4283262,13.1576904 C8.278845,13.0695963 8.04045447,12.994377 7.73395671,12.949683 C7.0159711,12.8449851 6.0607627,12.9231491 5.07741733,13.1866357 Z M9.56058033,11.6672651 L9.56137191,12.7012304 C9.56137191,12.7612303 9.57042639,12.8210266 9.58805012,12.8803355 C9.64572436,12.9399852 9.69207969,13.011708 9.72519175,13.0910524 L9.75487539,13.1834552 C10.2649206,13.8138332 11.7279652,14.3233296 13.4793064,14.3233296 C15.584257,14.3233296 17.2728046,13.5873201 17.3907302,12.7900354 L17.3973109,12.7012304 L17.3971142,11.6682521 C16.7744161,12.3370166 15.2549527,12.8093148 13.4793064,12.8093148 C11.7027867,12.8093148 10.1827019,12.3365518 9.56058033,11.6672651 Z M11.2469055,6.14765006 L8.83586894,6.14765006 L8.83694106,12.3476215 C8.87964469,12.3709919 8.9202607,12.395485 8.95869552,12.4210872 L8.95861276,11.292889 C8.95861276,11.1599965 8.99425737,11.0326698 9.0589562,10.9250164 L9.11282501,10.8481855 L9.3251251,10.6727481 C9.53746671,10.1577741 10.2536289,9.71779772 11.2463897,9.45065988 L11.2469055,6.14765006 Z M13.4793064,10.0840883 C12.4612723,10.0840883 11.5183815,10.2558138 10.8519585,10.5427725 C10.5674721,10.6652711 10.3566727,10.7996273 10.2350854,10.9234083 L10.1707614,10.9924972 L10.2350854,11.061586 C10.3566727,11.185367 10.5674721,11.3197232 10.8519585,11.4422218 C11.2493712,11.6133459 11.7451008,11.743491 12.2964527,11.8206769 C12.671773,11.8585971 13.0692833,11.8793925 13.4793064,11.8793925 C13.8899957,11.8793925 14.2881403,11.8585295 14.6634237,11.8206112 C15.2141209,11.7433311 15.7094857,11.6132408 16.1066543,11.4422218 C16.3911407,11.3197232 16.6019401,11.185367 16.7235274,11.061586 L16.7878514,10.9924972 L16.7235274,10.9234083 C16.6019401,10.7996273 16.3911407,10.6652711 16.1066543,10.5427725 C15.4402312,10.2558138 14.4973404,10.0840883 13.4793064,10.0840883 Z M6.57668585,2.60495787 L6.5430945,2.64755231 L6.51047127,2.68974715 L6.38970558,2.85454321 C5.60911842,3.97143852 5.95138144,4.63396247 7.63551476,4.90264983 L7.82817391,4.93088633 L8.09574637,4.96283034 L8.38231107,4.98934874 L8.45693707,4.99513537 L8.5327616,5.00058607 L8.84809117,5.01904247 L9.18278166,5.03217515 L9.46479348,5.03839314 L9.36924402,4.62451962 C9.05802499,3.33819992 8.69935921,2.47288175 8.31489815,2.03983149 L8.2321267,1.95365546 L8.17241118,1.9001027 C7.76277332,1.55712561 7.27030643,1.7338373 6.57668585,2.60495787 Z M12.2209601,1.9001027 L12.1612446,1.95365546 C11.7454921,2.35141284 11.3575762,3.24631995 11.0241273,4.62451962 L10.9285778,5.03839314 L11.2105896,5.03217515 L11.5452801,5.01904247 L11.8606097,5.00058607 C11.9115594,4.9970641 11.9617085,4.99331861 12.0110602,4.98934874 L12.2976249,4.96283034 L12.5651974,4.93088633 C14.4150968,4.68241504 14.8131635,4.01280501 14.0036657,2.85454321 L13.8829,2.68974715 C13.8614744,2.66175031 13.8394019,2.6334875 13.8166854,2.60495787 C13.1230648,1.7338373 12.630598,1.55712561 12.2209601,1.9001027 Z" id="Combined-Shape" fill="url(#linearGradient-1)" fill-rule="nonzero"></path>
    </g>
</svg>