<?xml version="1.0" encoding="UTF-8"?>
<svg width="25px" height="34px" viewBox="0 0 25 34" version="1.1" xmlns="http://www.w3.org/2000/svg" xmlns:xlink="http://www.w3.org/1999/xlink">
    <title>iconselect/gift small/default</title>
    <defs>
        <linearGradient x1="50%" y1="0%" x2="50%" y2="100%" id="linearGradient-1">
            <stop stop-color="#E4D3B4" offset="0%"></stop>
            <stop stop-color="#AA9979" offset="100%"></stop>
        </linearGradient>
    </defs>
    <g id="iconselect/gift-small/default" stroke="none" stroke-width="1" fill="none" fill-rule="evenodd">
        <path d="M21.2659536,2.34975211 C24.1641595,5.97250952 23.1178361,8.33100847 18.6813297,9.27275392 L19.7818182,9.27272727 C22.5131173,9.27272727 24.7272727,11.4868827 24.7272727,14.2181818 L24.7272727,29.0545455 C24.7272727,31.7858446 22.5131173,34 19.7818182,34 L4.94545455,34 C2.21415542,34 0,31.7858446 0,29.0545455 L0,14.2181818 C0,11.4868827 2.21415542,9.27272727 4.94545455,9.27272727 L6.68303098,9.27275392 C2.24652457,8.33100847 1.20020115,5.97250952 4.09840707,2.34975211 C5.97264056,0.00696025856 7.84735397,-0.662580247 9.47984291,0.6978272 C10.4184398,1.47999131 11.2111641,2.94035918 11.8889418,5.09494766 L12.0008457,5.46047645 L12.2183949,6.23016776 C12.379792,6.83168548 12.5342138,7.47747835 12.6821554,8.16780286 C12.8301469,7.47747835 12.9845686,6.83168548 13.1459657,6.23016776 L13.3635149,5.46047645 C14.0655663,3.1047155 14.8937765,1.52344487 15.8845177,0.6978272 C17.5170067,-0.662580247 19.3917201,0.00696025856 21.2659536,2.34975211 Z M9.89,10.5087273 L4.94545455,10.5090909 C2.97014,10.5090909 1.35547382,12.0532101 1.24266006,14.0002446 L1.23636364,14.2181818 L1.23636364,29.0545455 C1.23636364,31.02986 2.78048287,32.6445262 4.72751728,32.7573399 L4.94545455,32.7636364 L9.89,32.7627273 L9.89,10.5087273 Z M14.836,10.5087273 L14.836,32.7627273 L19.7818182,32.7636364 C21.7571327,32.7636364 23.3717989,31.2195171 23.4846127,29.2724827 L23.4909091,29.0545455 L23.4909091,14.2181818 C23.4909091,12.2428673 21.9467899,10.6282011 19.9997554,10.5153873 L19.7818182,10.5090909 L14.836,10.5087273 Z M5.25693243,3.2765724 L5.18803075,3.36353031 L5.18803075,3.36353031 L5.12111484,3.44967241 L4.87340345,3.78610881 C3.2498812,6.09818972 3.99442105,7.4565176 7.57539365,7.98993644 L7.82395167,8.02502915 L8.37278923,8.09024387 L8.96058317,8.14438203 L9.11365404,8.1561956 L9.11365404,8.1561956 L9.26918331,8.16732339 L9.91597899,8.20500271 L10.6024873,8.23181349 L11.1809425,8.24450771 L10.9849539,7.39957179 C10.3307297,4.70826554 9.57428804,2.91968525 8.7634329,2.05858891 L8.65252896,1.94691788 L8.53004205,1.83758823 C7.68980372,1.13738961 6.67966865,1.49815214 5.25693243,3.2765724 Z M16.8343186,1.83758823 L16.7118317,1.94691788 C15.8590512,2.75895218 15.0633684,4.58593343 14.3794067,7.39957179 L14.1834182,8.24450771 L14.7618734,8.23181349 L15.4483817,8.20500271 L16.0951773,8.16732339 C16.199684,8.16013317 16.3025486,8.15248663 16.4037775,8.14438203 L16.9915714,8.09024387 L17.540409,8.02502915 C21.3348737,7.51776713 22.1513777,6.15073702 20.4909572,3.78610881 L20.2432458,3.44967241 C20.1992982,3.39251599 20.1540235,3.33481656 20.1074282,3.2765724 C18.684692,1.49815214 17.6745569,1.13738961 16.8343186,1.83758823 Z" id="Combined-Shape-Copy-5" fill="url(#linearGradient-1)" fill-rule="nonzero"></path>
    </g>
</svg>