<?xml version="1.0" encoding="UTF-8"?>
<svg width="17px" height="20px" viewBox="0 0 17 20" version="1.1" xmlns="http://www.w3.org/2000/svg" xmlns:xlink="http://www.w3.org/1999/xlink">
    <title>icn/gift medium/default</title>
    <g id="icn/gift-medium/default" stroke="none" stroke-width="1" fill="none" fill-rule="evenodd">
        <path d="M14.3293525,2.17873686 C15.7285088,3.99646053 15.2229677,5.17970371 13.0804648,5.65191874 L13.6130167,5.65159935 C14.9313112,5.65159935 16,6.76231506 16,8.13245233 L16,15.5750113 C16,16.9451486 14.9313112,18.0558643 13.6130167,18.0558643 L8.08312471,18.0561138 C7.58869535,18.3205517 7.02577138,18.5429687 6.41757013,18.7059358 C4.12723141,19.3196302 1.97141711,18.8821793 1.48924178,17.5797077 L1.44539485,17.4418912 L1.0147557,15.834724 C0.979530972,15.7032636 0.979868095,15.5681754 1.0132041,15.4451039 L1.04435334,15.3552977 L1.19985408,15.1363288 C1.28883593,14.3177548 2.43956524,13.3814703 4.06466139,12.8032864 L4.06508344,8.13245233 C4.06508344,6.76231506 5.13377227,5.65159935 6.45206675,5.65159935 L7.29260442,5.6520262 C5.1496906,5.17988324 4.64396672,3.99659843 6.04322907,2.17873686 C6.94785048,1.00349157 7.85270353,0.667621213 8.64064401,1.35006018 C9.08205312,1.73236668 9.45661935,2.4376661 9.77815054,3.47339081 L9.85743643,3.73921015 L9.96243918,4.12532046 C10.0397039,4.42460577 10.1136565,4.74574045 10.1845304,5.08885005 L10.185,5.095 L10.2592263,4.75547557 C10.3085949,4.53407837 10.3586326,4.324844 10.4101424,4.12532046 L10.5151452,3.73921015 C10.8539987,2.55745901 11.2537444,1.76422556 11.7319376,1.35006018 C12.5198781,0.667621213 13.4247311,1.00349157 14.3293525,2.17873686 Z M9.18438531,14.0428322 C8.76671257,14.864239 7.43848315,15.7212778 5.73979385,16.1764402 C4.04028708,16.6318217 2.4607852,16.5534247 1.68877155,16.0502515 L1.96446543,17.0734402 C2.18461541,17.8950511 4.05360586,18.233483 6.14110135,17.6741402 C8.15404342,17.134774 9.57369555,15.9740273 9.47513689,15.1551172 L9.45789116,15.0655828 L9.18438531,14.0428322 Z M13.6130167,6.27181259 L11.2250834,6.27159935 L11.2250834,17.4355993 L13.6130167,17.435651 C14.5664261,17.435651 15.3457642,16.6610543 15.4002151,15.684338 L15.4032542,15.5750113 L15.4032542,8.13245233 C15.4032542,7.14154949 14.6579664,6.33156339 13.7182067,6.27497115 L13.6130167,6.27181259 Z M4.96928345,13.3008563 C3.08388854,13.8060463 1.80008254,14.8460007 1.91503405,15.2750055 C1.9463712,15.3919574 2.0904354,15.4962545 2.32163395,15.5758698 C3.08945641,15.6823121 4.25942688,15.5871558 5.49330695,15.2565386 C6.72634928,14.9261459 7.78663143,14.4240051 8.40007756,13.9484929 C8.5598901,13.7632568 8.63280625,13.6005463 8.60141565,13.483395 C8.48646415,13.0543902 6.85467835,12.7956662 4.96928345,13.3008563 Z M8.83808344,6.27159935 L6.45206675,6.27181259 C5.49865735,6.27181259 4.71931924,7.0464093 4.66486831,8.02312562 L4.66182927,8.13245233 L4.66022052,12.6139483 L4.77665585,12.5819603 L4.77665585,12.5819603 C6.48500645,12.1242091 8.07209996,12.2058062 8.83966458,12.7160388 L8.83808344,6.27159935 Z M6.60240531,2.64366983 L6.56914909,2.68729166 L6.56914909,2.68729166 L6.53685132,2.73050425 L6.41729042,2.89927523 C5.64449065,4.04311032 5.98333915,4.72161451 7.650671,4.99678266 L7.84140812,5.02570023 L8.10631119,5.05841475 L8.39001703,5.08557278 L8.46389853,5.09149898 L8.46389853,5.09149898 L8.53896662,5.09708116 L8.85115036,5.11598273 L9.18250186,5.12943217 L9.46170025,5.13580013 L9.36710401,4.71194389 C9.05898981,3.39459786 8.7039022,2.50840801 8.32327664,2.06491247 L8.24133095,1.97665786 L8.18221117,1.92181339 C7.77666,1.57056361 7.28910611,1.75153763 6.60240531,2.64366983 Z M12.1903704,1.92181339 L12.1312507,1.97665786 C11.7196459,2.38400923 11.3356,3.30050171 11.0054776,4.71194389 L10.9108814,5.13580013 L11.1900798,5.12943217 L11.5214313,5.11598273 L11.833615,5.09708116 C11.8840564,5.09347423 11.9337053,5.08963839 11.9825646,5.08557278 L12.2662704,5.05841475 L12.5311735,5.02570023 C14.3626177,4.77123576 14.7567132,4.08547458 13.9552912,2.89927523 L13.8357303,2.73050425 C13.8145184,2.70183212 13.7926661,2.67288761 13.7701763,2.64366983 C13.0834755,1.75153763 12.5959216,1.57056361 12.1903704,1.92181339 Z" id="Combined-Shape-Copy-4" fill="#767879"></path>
    </g>
</svg>