<?xml version="1.0" encoding="UTF-8"?>
<svg width="17px" height="20px" viewBox="0 0 17 20" version="1.1" xmlns="http://www.w3.org/2000/svg" xmlns:xlink="http://www.w3.org/1999/xlink">
    <title>icn/gift medium/selected</title>
    <defs>
        <linearGradient x1="50%" y1="0%" x2="50%" y2="100%" id="linearGradient-1">
            <stop stop-color="#E4D3B4" offset="0%"></stop>
            <stop stop-color="#AA9979" offset="100%"></stop>
        </linearGradient>
    </defs>
    <g id="icn/gift-medium/selected" stroke="none" stroke-width="1" fill="none" fill-rule="evenodd">
        <g id="Group-29-Copy-3" transform="translate(0.988268, 1.000000)" fill="url(#linearGradient-1)" fill-rule="nonzero">
            <path d="M13.3410849,1.17873686 C14.7402411,2.99646053 14.2347001,4.17970371 12.0921972,4.65191874 L12.6247491,4.65159935 C13.9430436,4.65159935 15.0117324,5.76231506 15.0117324,7.13245233 L15.0117324,14.5750113 C15.0117324,15.9451486 13.9430436,17.0558643 12.6247491,17.0558643 L7.0948571,17.0561138 C6.60042774,17.3205517 6.03750378,17.5429687 5.42930252,17.7059358 C3.13896381,18.3196302 0.983149503,17.8821793 0.500974171,16.5797077 L0.457127246,16.4418912 L0.0264880953,14.834724 C-0.00873663577,14.7032636 -0.00839951328,14.5681754 0.0249364887,14.4451039 L0.0560857336,14.3552977 L0.211586474,14.1363288 C0.300568326,13.3177548 1.45129764,12.3814703 3.07639378,11.8032864 L3.07681583,7.13245233 C3.07681583,5.76231506 4.14550466,4.65159935 5.46379914,4.65159935 L6.30433681,4.6520262 C4.16142299,4.17988324 3.65569911,2.99659843 5.05496146,1.17873686 C5.95958287,0.00349156545 6.86443592,-0.332378787 7.6523764,0.350060177 C8.09378551,0.732366683 8.46835174,1.4376661 8.78988293,2.47339081 L8.86916882,2.73921015 L8.97417157,3.12532046 C9.05143626,3.42460577 9.12538892,3.74574045 9.19626278,4.08885005 L9.19681583,4.095 L9.27095871,3.75547557 C9.32032725,3.53407837 9.37036503,3.324844 9.42187482,3.12532046 L9.52687758,2.73921015 C9.86573114,1.55745901 10.2654768,0.764225559 10.74367,0.350060177 C11.5316105,-0.332378787 12.4364635,0.00349156545 13.3410849,1.17873686 Z M8.19611771,13.0428322 C7.77844496,13.864239 6.45021554,14.7212778 4.75152624,15.1764402 C3.05201947,15.6318217 1.47251759,15.5534247 0.700503945,15.0502515 L0.976197827,16.0734402 C1.1963478,16.8950511 3.06533825,17.233483 5.15283374,16.6741402 C7.16577582,16.134774 8.58542794,14.9740273 8.48686928,14.1551172 L8.46962355,14.0655828 L8.19611771,13.0428322 Z M10.2377658,5.18101111 L7.85078246,5.18101111 L7.85183949,11.716333 C7.98034463,11.8018185 8.08585638,11.8993275 8.16509396,12.00834 L8.40836603,12.1181388 C8.50891849,12.1938329 8.58962667,12.2993898 8.64038037,12.422528 L8.6726712,12.5179863 L9.10331035,14.1251534 C9.30124035,14.8638383 8.93295516,15.637762 8.19629038,16.2984111 L10.2377658,16.2986582 L10.2377658,5.18101111 Z M3.98101584,12.3008563 C2.09562093,12.8060463 0.811814936,13.8460007 0.926766438,14.2750055 C0.958103597,14.3919574 1.10216779,14.4962545 1.33336635,14.5758698 C2.1011888,14.6823121 3.27115927,14.5871558 4.50503934,14.2565386 C5.73808167,13.9261459 6.79836382,13.4240051 7.41180995,12.9484929 C7.57162249,12.7632568 7.64453864,12.6005463 7.61314804,12.483395 C7.49819654,12.0543902 5.86641074,11.7956662 3.98101584,12.3008563 Z M5.61413771,1.64366983 L5.58088148,1.68729166 L5.54858371,1.73050425 L5.42902281,1.89927523 C4.65622304,3.04311032 4.99507154,3.72161451 6.66240339,3.99678266 L6.85314052,4.02570023 L7.11804359,4.05841475 L7.40174943,4.08557278 L7.47563093,4.09149898 L7.55069901,4.09708116 L7.86288275,4.11598273 L8.19423425,4.12943217 L8.47343264,4.13580013 L8.37883641,3.71194389 C8.0707222,2.39459786 7.71563459,1.50840801 7.33500904,1.06491247 L7.25306334,0.976657855 L7.19394356,0.921813394 C6.78839239,0.570563613 6.30083851,0.751537633 5.61413771,1.64366983 Z M11.2021028,0.921813394 L11.1429831,0.976657855 C10.7313783,1.38400923 10.3473324,2.30050171 10.01721,3.71194389 L9.92261376,4.13580013 L10.2018121,4.12943217 L10.5331636,4.11598273 L10.8453474,4.09708116 C10.8957888,4.09347423 10.9454377,4.08963839 10.994297,4.08557278 L11.2780028,4.05841475 L11.5429059,4.02570023 C13.3743501,3.77123576 13.7684456,3.08547458 12.9670236,1.89927523 L12.8474627,1.73050425 C12.8262508,1.70183212 12.8043985,1.67288761 12.7819087,1.64366983 C12.0952079,0.751537633 11.607654,0.570563613 11.2021028,0.921813394 Z" id="Combined-Shape"></path>
        </g>
    </g>
</svg>