<?xml version="1.0" encoding="UTF-8"?>
<svg width="19px" height="20px" viewBox="0 0 19 20" version="1.1" xmlns="http://www.w3.org/2000/svg" xmlns:xlink="http://www.w3.org/1999/xlink">
    <title>icn/gift large/default</title>
    <g id="icn/gift-large/default" stroke="none" stroke-width="1" fill="none" fill-rule="evenodd">
        <g id="Group-41-Copy-5" transform="translate(1.000000, 1.000000)" fill="#767879" fill-rule="nonzero">
            <g id="Group-41-Copy-3">
                <path d="M13.3814964,1.15097507 C14.7952996,2.92657549 14.2837202,4.08215838 12.1175063,4.54289196 L12.6579421,4.54204417 C13.9895209,4.54204417 15.0689787,5.62660014 15.0689787,6.96446773 L15.069642,8.55825845 C15.9038851,8.83802081 16.4876446,9.2497778 16.6517116,9.72066884 L16.8466592,9.84896633 C16.9249756,9.9457712 16.9761239,10.0657267 16.9934505,10.1946944 L17,10.292889 L17,11.9175634 C17,12.3327315 16.8263873,12.7139406 16.5190073,13.0457098 L16.8466592,13.4826017 C16.9249756,13.5794065 16.9761239,13.6993621 16.9934505,13.8283297 L17,13.9265244 L17,15.5511987 C17,16.975415 14.9569202,18 12.4793064,18 C10.7071366,18 9.157281,17.4758068 8.41837799,16.6561186 L7.09650414,16.6554075 C6.60419108,16.9112102 6.04600981,17.1277678 5.44457104,17.2889229 C3.13115291,17.9088014 0.962148979,17.4987925 0.487151247,16.2281165 L0.444119916,16.0936041 L0.0236232441,14.5242891 C-0.0107718687,14.3959248 -0.00929638867,14.2637112 0.0253351326,14.1429807 L0.0574831165,14.0548255 L0.21605966,13.839062 C0.310566391,13.055304 1.42816138,12.1529983 3.0124147,11.5715315 L3.01379575,6.96446773 C3.01379575,5.62660014 4.0932536,4.54204417 5.42483235,4.54204417 L6.27536666,4.54278596 C4.1095726,4.08198115 3.59818012,2.92643933 5.01187486,1.15097507 C5.92561201,0.00340933157 6.83958314,-0.324550551 7.63546358,0.341815506 C8.08132071,0.715117871 8.45966138,1.40380597 8.7844326,2.41513713 L8.86451744,2.67469586 L8.97057829,3.05171244 C9.04862157,3.34394893 9.12331944,3.6575202 9.19490748,3.99254883 L9.19579575,3.999 L9.27046021,3.66687587 C9.32022213,3.45084321 9.37076413,3.24653676 9.42279298,3.05171244 L9.52885383,2.67469586 C9.87112198,1.52077749 10.2748958,0.746226402 10.7579077,0.341815506 C11.5537881,-0.324550551 12.4677593,0.00340933157 13.3814964,1.15097507 Z M16.3971142,14.3018874 C15.7744161,14.9706519 14.2549527,15.4429502 12.4793064,15.4429502 C11.1050397,15.4429502 9.88422741,15.160042 9.11384363,14.7221016 C9.0106213,15.0017513 8.83467791,15.2770968 8.59904769,15.5403107 C8.85219764,16.291257 10.4774078,16.9569649 12.4793064,16.9569649 C14.584257,16.9569649 16.2728046,16.2209554 16.3907302,15.4236708 L16.3973109,15.3348657 L16.3971142,14.3018874 Z M8.22796614,12.7772761 L8.27174082,12.7028171 C7.84334968,13.5099602 6.49790045,14.3594313 4.78275785,14.8190024 C3.0667716,15.2787995 1.47612237,15.2155724 0.701974925,14.730108 L0.970349438,15.7286369 C1.1853144,16.5308971 3.06608282,16.8464075 5.17461369,16.2814283 C7.2078399,15.736627 8.64835827,14.5886682 8.55591326,13.7880289 L8.53928533,13.7005466 L8.3267869,12.9136155 C8.2914732,12.8689577 8.25850429,12.8234999 8.22796614,12.7772761 Z M4.07741733,12.1866357 C3.09407196,12.4501223 2.22775519,12.8600345 1.65831036,13.3096983 C1.41522253,13.5016534 1.2463799,13.6859904 1.16097246,13.8370228 L1.1167218,13.9204057 L1.19673547,13.9704922 C1.34621667,14.0585863 1.5846072,14.1338056 1.89110496,14.1784996 C2.31926634,14.2409348 2.83178838,14.2383411 3.38433064,14.1701966 C3.7566766,14.1096846 4.14602432,14.0268882 4.54207625,13.9207664 C4.93877168,13.8144722 5.31795006,13.6912727 5.67063203,13.557516 C6.18256315,13.3403382 6.62737888,13.0864707 6.96675131,12.8184843 C7.20983914,12.6265292 7.37868178,12.4421922 7.46408921,12.2911598 L7.50833987,12.2077768 L7.4283262,12.1576904 C7.278845,12.0695963 7.04045447,11.994377 6.73395671,11.949683 C6.0159711,11.8449851 5.0607627,11.9231491 4.07741733,12.1866357 Z M8.56058033,10.6672651 L8.56137191,11.7012304 C8.56137191,11.7612303 8.57042639,11.8210266 8.58805012,11.8803355 C8.64572436,11.9399852 8.69207969,12.011708 8.72519175,12.0910524 L8.75487539,12.1834552 C9.26492064,12.8138332 10.7279652,13.3233296 12.4793064,13.3233296 C14.584257,13.3233296 16.2728046,12.5873201 16.3907302,11.7900354 L16.3973109,11.7012304 L16.3971142,10.6682521 C15.7744161,11.3370166 14.2549527,11.8093148 12.4793064,11.8093148 C10.7027867,11.8093148 9.18270189,11.3365518 8.56058033,10.6672651 Z M7.83586894,5.14765006 L5.42483235,5.14765006 C4.46181558,5.14765006 3.67462418,5.90400334 3.61962457,6.85771589 L3.6165549,6.96446773 L3.61518525,11.3729261 C3.69012448,11.3509282 3.76584683,11.3296668 3.84230382,11.3091802 C5.49620804,10.8660179 7.03368023,10.9087198 7.83589055,11.3470471 L7.83586894,5.14765006 Z M12.4793064,9.08408834 C11.4612723,9.08408834 10.5183815,9.25581378 9.8519585,9.54277254 C9.56747206,9.66527112 9.35667266,9.79962734 9.23508536,9.92340834 L9.17076141,9.99249717 L9.23508536,10.061586 C9.35667266,10.185367 9.56747206,10.3197232 9.8519585,10.4422218 C10.2493712,10.6133459 10.7451008,10.743491 11.2964527,10.8206769 C11.671773,10.8585971 12.0692833,10.8793925 12.4793064,10.8793925 C12.8899957,10.8793925 13.2881403,10.8585295 13.6634237,10.8206112 C14.2141209,10.7433311 14.7094857,10.6132408 15.1066543,10.4422218 C15.3911407,10.3197232 15.6019401,10.185367 15.7235274,10.061586 L15.7878514,9.99249717 L15.7235274,9.92340834 C15.6019401,9.79962734 15.3911407,9.66527112 15.1066543,9.54277254 C14.4402312,9.25581378 13.4973404,9.08408834 12.4793064,9.08408834 Z M12.6579421,5.14765006 L10.2469055,5.14765006 L10.2463897,8.45065988 C10.8940135,8.27639348 11.6593454,8.1756795 12.4793064,8.1756795 C13.1976382,8.1756795 13.8740436,8.2529749 14.4661114,8.38930358 L14.4662196,6.96446773 C14.4662196,5.99690277 13.7134217,5.2059936 12.7641922,5.15073422 L12.6579421,5.14765006 Z M5.57668585,1.60495787 L5.5430945,1.64755231 L5.51047127,1.68974715 L5.38970558,1.85454321 C4.60911842,2.97143852 4.95138144,3.63396247 6.63551476,3.90264983 L6.82817391,3.93088633 L7.09574637,3.96283034 L7.38231107,3.98934874 L7.45693707,3.99513537 L7.5327616,4.00058607 L7.84809117,4.01904247 L8.18278166,4.03217515 L8.46479348,4.03839314 L8.36924402,3.62451962 C8.05802499,2.33819992 7.69935921,1.47288175 7.31489815,1.03983149 L7.2321267,0.95365546 L7.17241118,0.900102704 C6.76277332,0.557125612 6.27030643,0.733837304 5.57668585,1.60495787 Z M11.2209601,0.900102704 L11.1612446,0.95365546 C10.7454921,1.35141284 10.3575762,2.24631995 10.0241273,3.62451962 L9.92857779,4.03839314 L10.2105896,4.03217515 L10.5452801,4.01904247 L10.8606097,4.00058607 C10.9115594,3.9970641 10.9617085,3.99331861 11.0110602,3.98934874 L11.2976249,3.96283034 L11.5651974,3.93088633 C13.4150968,3.68241504 13.8131635,3.01280501 13.0036657,1.85454321 L12.8829,1.68974715 C12.8614744,1.66175031 12.8394019,1.6334875 12.8166854,1.60495787 C12.1230648,0.733837304 11.630598,0.557125612 11.2209601,0.900102704 Z" id="Combined-Shape"></path>
            </g>
        </g>
    </g>
</svg>