<?xml version="1.0" encoding="UTF-8"?>
<svg width="25px" height="34px" viewBox="0 0 25 34" version="1.1" xmlns="http://www.w3.org/2000/svg" xmlns:xlink="http://www.w3.org/1999/xlink">
    <title>iconselect/gift small/selected</title>
    <defs>
        <linearGradient x1="50%" y1="0%" x2="50%" y2="100%" id="linearGradient-1">
            <stop stop-color="#E4D3B4" offset="0%"></stop>
            <stop stop-color="#AA9979" offset="100%"></stop>
        </linearGradient>
    </defs>
    <g id="iconselect/gift-small/selected" stroke="none" stroke-width="1" fill="none" fill-rule="evenodd">
        <g id="Rectangle-Copy-6" fill="url(#linearGradient-1)" fill-rule="nonzero">
            <g id="Group-8">
                <path d="M20.9917821,2.30779226 C23.3278625,5.28629473 23.0023735,7.39467825 20.3284331,8.54508456 C22.8932182,8.87814772 24.8917575,11.0629532 24.9957462,13.744515 L25,13.9642857 L25,28.5357143 C25,31.4799501 22.7170974,33.8803214 19.8583186,33.9956612 L19.6428571,34 L5.35714286,34 C2.4706372,34 0.117332009,31.6714393 0.0042537701,28.755485 L0,28.5357143 L0,13.9642857 C0,11.0528789 2.23227664,8.67327567 5.04627035,8.50904691 C2.4445955,7.35259438 2.14859262,5.25662986 4.46140643,2.30779226 C6.26607802,0.00683596823 8.07121174,-0.650748456 9.6431111,0.685366 C10.5468722,1.4535629 11.3101746,2.88785277 11.9627966,5.00396645 L12.0705473,5.36296794 L12.2800222,6.11891477 C12.43526,6.70904863 12.583796,7.34257248 12.7261055,8.01973741 C12.8693925,7.34257248 13.0179285,6.70904863 13.1731663,6.11891477 L13.3826412,5.36296794 C14.0586361,3.04927415 14.8561074,1.4962405 15.8100774,0.685366 C17.3819768,-0.650748456 19.1871105,0.00683596823 20.9917821,2.30779226 Z M14.88,9.714 L10.118,9.714 L10.118,32.785 L14.88,32.785 L14.88,9.714 Z M5.5769333,3.21806218 L5.51058889,3.30346727 L5.51058889,3.30346727 L5.44615656,3.38807112 L5.20763893,3.71849972 C3.64518093,5.98812055 4.36053983,7.32198707 7.80400429,7.84644653 L8.04867801,7.88172505 L8.57714555,7.94577523 L9.14312361,7.99894663 L9.29051327,8.01054925 L9.29051327,8.01054925 L9.4402701,8.02147833 L10.0630601,8.05848481 L10.7240887,8.08481682 L11.2810746,8.09728436 L11.0923602,7.26743658 C10.4624174,4.62418937 9.73405092,2.86754801 8.95329054,2.0218284 L8.84650278,1.91215149 L8.72856196,1.80477415 C7.91950894,1.11707908 6.94686487,1.47139942 5.5769333,3.21806218 Z M16.7246266,1.80477415 L16.6066857,1.91215149 C15.7855561,2.70968517 15.0194049,4.50404177 14.3608283,7.26743658 L14.1721139,8.09728436 L14.7290998,8.08481682 L15.3901284,8.05848481 L16.0129184,8.02147833 C16.1135464,8.01441651 16.2125932,8.00690651 16.3100649,7.99894663 L16.876043,7.94577523 L17.4045105,7.88172505 C21.0581443,7.38352129 21.8443438,6.04090243 20.2455496,3.71849972 L20.007032,3.38807112 C19.9647154,3.33193534 19.9211212,3.27526627 19.8762552,3.21806218 C18.5063236,1.47139942 17.5336796,1.11707908 16.7246266,1.80477415 Z" id="Combined-Shape"></path>
            </g>
        </g>
    </g>
</svg>