<?xml version="1.0" encoding="UTF-8"?>
<svg width="15px" height="20px" viewBox="0 0 15 20" version="1.1" xmlns="http://www.w3.org/2000/svg" xmlns:xlink="http://www.w3.org/1999/xlink">
    <title>icn/gift small/selected</title>
    <defs>
        <linearGradient x1="50%" y1="0%" x2="50%" y2="100%" id="linearGradient-1">
            <stop stop-color="#E4D3B4" offset="0%"></stop>
            <stop stop-color="#AA9979" offset="100%"></stop>
        </linearGradient>
    </defs>
    <g id="icn/gift-small/selected" stroke="none" stroke-width="1" fill="none" fill-rule="evenodd">
        <path d="M12.1802624,2.24398641 C13.376365,3.74957021 13.2945394,4.8427018 12.0757676,5.48432717 C12.4931296,5.57665706 12.8789834,5.75472706 13.2143573,5.9986379 L14,6 L14.0010018,6.83009436 C14.2772094,7.25752085 14.4520992,7.75723248 14.4915059,8.29471245 L14.5,8.52727273 L14.5,16.3818182 C14.5,17.0074133 14.316782,17.5901455 14.0012972,18.0785394 L14,19 L13.084048,19.0002417 C12.6598442,19.2768606 12.1641251,19.4520239 11.6307809,19.4914925 L11.4,19.5 L3.6,19.5 C2.97896848,19.5 2.40075633,19.3163776 1.91595199,19.0002417 L1,19 L0.999995618,18.0805391 C0.723253231,17.6528368 0.548000876,17.1526554 0.508511887,16.614621 L0.5,16.3818182 L0.5,8.52727273 C0.5,7.90105845 0.683580873,7.31779196 0.999639943,6.82910163 L1,6 L1.78564268,5.9986379 C2.18769829,5.7062308 2.66230291,5.50844938 3.17724527,5.43783628 C2.03730496,4.79204541 1.98616853,3.71483654 3.15467725,2.24398641 C4.14002794,1.00368484 5.12563095,0.649222222 5.983888,1.36943793 C6.46468888,1.7729072 6.87268176,2.51724881 7.2229067,3.61030657 L7.30926814,3.89084047 L7.42364144,4.29832411 C7.50780131,4.6141765 7.58835357,4.95308775 7.66555228,5.31519035 L7.667,5.323 C7.74658603,4.95308775 7.8271383,4.6141765 7.91129816,4.29832411 L8.02567146,3.89084047 C8.39476464,2.64367291 8.83018399,1.80652964 9.35105161,1.36943793 C10.2093087,0.649222222 11.1949117,1.00368484 12.1802624,2.24398641 Z M8.8,6.40909091 L6.199,6.40909091 L6.199,18.4990909 L8.8,18.4990909 L8.8,6.40909091 Z M3.76375492,2.73465598 L3.72753087,2.78069252 L3.72753087,2.78069252 L3.69235082,2.82629716 L3.5621202,3.00441054 C2.71927998,4.21310488 3.09038742,4.92945452 4.91253427,5.21913709 L5.11332753,5.24854484 L5.40187081,5.28307028 L5.71089483,5.31173166 L5.79136959,5.31798591 L5.79136959,5.31798591 L5.87313682,5.32387709 L6.21318013,5.34382497 L6.57410177,5.35801891 L6.87821608,5.36473938 L6.77517799,4.91742036 C6.43956738,3.527152 6.05279141,2.59190667 5.63819846,2.12386123 L5.54893986,2.03072123 L5.48454417,1.97284083 C5.04280122,1.60214744 4.51173756,1.79313937 3.76375492,2.73465598 Z M9.85039544,1.97284083 L9.78599975,2.03072123 C9.33766296,2.46062174 8.91934441,3.42784711 8.55976161,4.91742036 L8.45672352,5.36473938 L8.76083784,5.35801891 L9.12175947,5.34382497 L9.46180279,5.32387709 C9.51674565,5.3200705 9.57082521,5.31602233 9.62404478,5.31173166 L9.9330688,5.28307028 L10.2216121,5.24854484 C12.2164961,4.97999436 12.6457611,4.25627254 11.7728194,3.00441054 L11.6425888,2.82629716 C11.619484,2.79603788 11.5956815,2.76549112 11.5711847,2.73465598 C10.823202,1.79313937 10.2921384,1.60214744 9.85039544,1.97284083 Z" id="Combined-Shape" fill="url(#linearGradient-1)" fill-rule="nonzero"></path>
    </g>
</svg>