<?xml version="1.0" encoding="UTF-8"?>
<svg width="15px" height="20px" viewBox="0 0 15 20" version="1.1" xmlns="http://www.w3.org/2000/svg" xmlns:xlink="http://www.w3.org/1999/xlink">
    <title>icn/gift small/default</title>
    <g id="icn/gift-small/default" stroke="none" stroke-width="1" fill="none" fill-rule="evenodd">
        <path d="M12.1802624,2.24398641 C13.7049307,4.16314931 13.1531545,5.4121384 10.8169355,5.91006527 L11.4,5.90909091 C12.8359403,5.90909091 14,7.08129084 14,8.52727273 L14,16.3818182 C14,17.8278001 12.8359403,19 11.4,19 L3.6,19 C2.16405965,19 1,17.8278001 1,16.3818182 L1,8.52727273 C1,7.08129084 2.16405965,5.90909091 3.6,5.90909091 L4.51800409,5.91006527 C2.18178511,5.4121384 1.63000894,4.16314931 3.15467725,2.24398641 C4.14002794,1.00368484 5.12563095,0.649222222 5.983888,1.36943793 C6.46468888,1.7729072 6.87268176,2.51724881 7.2229067,3.61030657 L7.30926814,3.89084047 L7.42364144,4.29832411 C7.50780131,4.6141765 7.58835357,4.95308775 7.66555228,5.31519035 L7.667,5.323 C7.74658603,4.95308775 7.8271383,4.6141765 7.91129816,4.29832411 L8.02567146,3.89084047 C8.39476464,2.64367291 8.83018399,1.80652964 9.35105161,1.36943793 C10.2093087,0.649222222 11.1949117,1.00368484 12.1802624,2.24398641 Z M6.2,6.563 L3.6,6.56363636 C2.56150743,6.56363636 1.71262043,7.38111125 1.65331025,8.41189418 L1.65,8.52727273 L1.65,16.3818182 C1.65,17.4275729 2.46179798,18.2823962 3.48542269,18.3421211 L3.6,18.3454545 L6.2,18.345 L6.2,6.563 Z M11.4,6.56363636 L8.8,6.563 L8.8,18.345 L11.4,18.3454545 C12.4384926,18.3454545 13.2873796,17.5279797 13.3466897,16.4971967 L13.35,16.3818182 L13.35,8.52727273 C13.35,7.48151797 12.538202,6.6266947 11.5145773,6.56696976 L11.4,6.56363636 Z M3.76375492,2.73465598 L3.72753087,2.78069252 L3.72753087,2.78069252 L3.69235082,2.82629716 L3.5621202,3.00441054 C2.71927998,4.21310488 3.09038742,4.92945452 4.91253427,5.21913709 L5.11332753,5.24854484 L5.40187081,5.28307028 L5.71089483,5.31173166 L5.79136959,5.31798591 L5.79136959,5.31798591 L5.87313682,5.32387709 L6.21318013,5.34382497 L6.57410177,5.35801891 L6.87821608,5.36473938 L6.77517799,4.91742036 C6.43956738,3.527152 6.05279141,2.59190667 5.63819846,2.12386123 L5.54893986,2.03072123 L5.48454417,1.97284083 C5.04280122,1.60214744 4.51173756,1.79313937 3.76375492,2.73465598 Z M9.85039544,1.97284083 L9.78599975,2.03072123 C9.33766296,2.46062174 8.91934441,3.42784711 8.55976161,4.91742036 L8.45672352,5.36473938 L8.76083784,5.35801891 L9.12175947,5.34382497 L9.46180279,5.32387709 C9.51674565,5.3200705 9.57082521,5.31602233 9.62404478,5.31173166 L9.9330688,5.28307028 L10.2216121,5.24854484 C12.2164961,4.97999436 12.6457611,4.25627254 11.7728194,3.00441054 L11.6425888,2.82629716 C11.619484,2.79603788 11.5956815,2.76549112 11.5711847,2.73465598 C10.823202,1.79313937 10.2921384,1.60214744 9.85039544,1.97284083 Z" id="Combined-Shape" fill="#767879"></path>
    </g>
</svg>