<?xml version="1.0" encoding="UTF-8"?>
<svg width="33px" height="34px" viewBox="0 0 33 34" version="1.1" xmlns="http://www.w3.org/2000/svg" xmlns:xlink="http://www.w3.org/1999/xlink">
    <title>iconselect/gift large/default</title>
    <defs>
        <linearGradient x1="50%" y1="0%" x2="50%" y2="100%" id="linearGradient-1">
            <stop stop-color="#E4D3B4" offset="0%"></stop>
            <stop stop-color="#AA9979" offset="100%"></stop>
        </linearGradient>
    </defs>
    <g id="iconselect/gift-large/default" stroke="none" stroke-width="1" fill="none" fill-rule="evenodd">
        <g id="Group-41-Copy-4" transform="translate(0.174833, 0.000000)" fill="url(#linearGradient-1)" fill-rule="nonzero">
            <g id="Group-41-Copy-3">
                <path d="M25.3955353,2.17406401 C28.0777268,5.52680336 27.108463,7.70921722 23.0010332,8.5801049 L24.0223669,8.57941676 C26.5494502,8.57941676 28.5980559,10.6280225 28.5980559,13.1551057 L28.5973753,16.1649522 C30.1830221,16.6938637 31.2922142,17.4727925 31.6025926,18.3635846 L31.9717553,18.6036031 C32.1265779,18.7940756 32.2254543,19.0319972 32.2541125,19.2871824 L32.262767,19.4421237 L32.262767,22.5109531 C32.262767,23.2951756 31.9332696,24.0152506 31.3498985,24.6419349 L31.9717553,25.4671365 C32.1265779,25.657609 32.2254543,25.8955306 32.2541125,26.1507158 L32.262767,26.3056571 L32.262767,29.3744865 C32.262767,32.0646728 28.3853901,34 23.6833502,34 C20.3170664,34 17.3734563,33.0080649 15.9726783,31.4573539 L13.4585639,31.4577837 C12.5240239,31.9415446 11.4656955,32.3513703 10.3256136,32.6568543 C5.88042634,33.8479386 1.71845522,33.0438898 0.890594882,30.5729743 L0.841362335,30.4094678 L0.0470908438,27.4452062 C-0.0205847254,27.1926376 -0.014407525,26.9320901 0.0597627587,26.6963155 L0.112377221,26.5580855 L0.413493075,26.1518464 C0.592954809,24.671044 2.71379536,22.9636676 5.71963721,21.8609624 L5.71961118,13.1551057 C5.71961118,10.6280225 7.76821689,8.57941676 10.2953001,8.57941676 L11.9060875,8.5801049 C7.7986577,7.70921722 6.82939387,5.52680336 9.51158535,2.17406401 C11.2456847,0.00643984852 12.9802281,-0.61303993 14.4906578,0.645651512 C15.3563967,1.36710058 16.0880014,2.71217749 16.7138217,4.69556473 L16.8231683,5.05220329 L17.0244516,5.76434572 C17.1739398,6.32147947 17.3169604,6.91966498 17.4539731,7.55914033 C17.5901603,6.91966498 17.7331809,6.32147947 17.8826691,5.76434572 L18.0839524,5.05220329 C18.7335123,2.87257971 19.4997982,1.40953876 20.4164629,0.645651512 C21.9268926,-0.61303993 23.661436,0.00643984852 25.3955353,2.17406401 Z M31.120317,27.012844 C29.9396298,28.2770353 27.0548182,29.170017 23.6833502,29.170017 C21.0728419,29.170017 18.7540994,28.6346463 17.2922884,27.8061186 C17.0935903,28.331513 16.7599994,28.850071 16.3140697,29.3460128 C16.7880673,30.7675904 19.8769074,32.0298226 23.6833502,32.0298226 C27.7297586,32.0298226 30.9653611,30.6034268 31.1136658,29.0751737 L31.1189778,28.9658574 L31.120317,27.012844 Z M15.614,24.134 L15.7007628,23.9829512 C14.8875033,25.5096506 12.33211,27.1188489 9.07552196,27.991449 C5.81893396,28.8640491 2.80129932,28.7481392 1.3336462,27.8326085 L1.84054538,29.7186936 C2.24659032,31.2340739 5.8141035,31.826032 9.81569411,30.7538091 C13.719685,29.7077379 16.4739943,27.4964376 16.2289753,25.9820103 L16.2049463,25.869764 L15.8114166,24.4037786 L15.708939,24.269809 L15.708939,24.269809 L15.614,24.134 Z M7.74321209,23.0192009 C5.87700959,23.5192483 4.23250861,24.2957038 3.15114807,25.1466076 C2.68953076,25.5098462 2.36878932,25.8585251 2.20641645,26.1440892 L2.1222776,26.3017389 L2.27396881,26.396198 C2.55736989,26.5623174 3.00947957,26.7039114 3.59087119,26.7876767 C4.40515549,26.9049964 5.38046853,26.8986162 6.43203077,26.7676421 C7.13477096,26.6525621 7.87148803,26.4955857 8.62090116,26.294781 C9.36923779,26.0942649 10.0847756,25.862227 10.7507696,25.6104671 C11.7280118,25.198129 12.5765308,24.7157014 13.2234827,24.2066262 C13.6851,23.8433876 14.0058414,23.4947087 14.1682143,23.2091446 L14.2523532,23.0514949 L14.100662,22.9570357 C13.8172609,22.7909164 13.3651512,22.6493223 12.7837596,22.5655571 C11.421822,22.3693331 9.60941459,22.5191534 7.74321209,23.0192009 Z M31.120317,20.1493106 C29.9396298,21.4135019 27.0548182,22.3064836 23.6833502,22.3064836 C20.3118822,22.3064836 17.4270707,21.4135019 16.2463834,20.1493106 L16.2478557,22.102324 C16.2478557,22.2087653 16.263013,22.3148673 16.2925647,22.420186 C16.4128432,22.5427397 16.5079683,22.6914115 16.5727899,22.8567515 L16.6212513,23.0041733 L16.6260904,23.0266227 C17.6039575,24.2111349 20.3721423,25.1662892 23.6833502,25.1662892 C27.7297586,25.1662892 30.9653611,23.7398934 31.1136658,22.2116403 L31.1189778,22.102324 L31.120317,20.1493106 Z M14.8709891,9.723339 L10.2953001,9.723339 C8.46767743,9.723339 6.97373787,11.1520063 6.86935906,12.9534633 L6.86353341,13.1551057 L6.86176379,21.4845912 C7.00604778,21.4422003 7.15186152,21.4012396 7.2991088,21.3617848 C10.4351991,20.5214719 13.3496921,20.5978703 14.87177,21.4222919 L14.8709891,9.723339 Z M23.6833502,17.1588335 C21.7513152,17.1588335 19.9618878,17.4832038 18.6971436,18.025237 C18.1572425,18.2566232 17.7571853,18.5104072 17.5264357,18.7442157 L17.4043611,18.8747169 L17.5264357,19.005218 C17.7571853,19.2390266 18.1572425,19.4928105 18.6971436,19.7241967 C19.4533173,20.0482712 20.3970486,20.294538 21.4466784,20.440191 C22.1552581,20.5109149 22.9075007,20.5499637 23.6833502,20.5499637 C24.4580853,20.5499637 25.2092976,20.5110271 25.9177587,20.4402177 C26.968423,20.2948585 27.9128909,20.0484821 28.6695569,19.7241967 C29.209458,19.4928105 29.6095152,19.2390266 29.8402648,19.005218 L29.9623394,18.8747169 L29.8402648,18.7442157 C29.6095152,18.5104072 29.209458,18.2566232 28.6695569,18.025237 C27.4048127,17.4832038 25.6153852,17.1588335 23.6833502,17.1588335 Z M24.0223669,9.723339 L19.446678,9.723339 L19.4460822,15.9622549 C20.6750678,15.6331482 22.127382,15.4429502 23.6833502,15.4429502 C25.0467382,15.4429502 26.3305426,15.5889806 27.4542519,15.8465365 L27.4541336,13.1551057 C27.4541336,11.327483 26.0254663,9.83354346 24.2240093,9.72916464 L24.0223669,9.723339 Z M10.5834892,3.03158708 L10.5197392,3.11204325 L10.4578265,3.19174461 L10.2286362,3.50302607 C8.7280906,5.63997419 9.41392029,6.89634487 12.7181036,7.39097095 L12.9585755,7.42500751 L13.4663772,7.4853462 L14.0102225,7.53543651 L14.1518484,7.5463668 L14.295749,7.55666258 L14.8941845,7.59152467 L15.5293634,7.61633084 L16.0645682,7.62807593 L15.8832335,6.84631483 C15.2791755,4.36137906 14.5809331,2.70822573 13.8324624,1.90962003 L13.7252011,1.8013492 L13.6118724,1.700194 C12.8344576,1.05234838 11.8998491,1.38613713 10.5834892,3.03158708 Z M21.2952483,1.700194 L21.1819196,1.8013492 C20.3929005,2.55266869 19.6567099,4.24304879 19.0238872,6.84631483 L18.8425525,7.62807593 L19.3777573,7.61633084 L20.0129362,7.59152467 L20.6113717,7.55666258 C20.7080646,7.55000997 20.8032381,7.54293514 20.8968982,7.53543651 L21.4407435,7.4853462 L21.9485452,7.42500751 C25.4593024,6.95567285 26.2147574,5.69085391 24.6784845,3.50302607 L24.4492942,3.19174461 C24.4086325,3.1388617 24.366743,3.08547639 24.3236315,3.03158708 C23.0072715,1.38613713 22.072663,1.05234838 21.2952483,1.700194 Z" id="Combined-Shape"></path>
            </g>
        </g>
    </g>
</svg>