<?xml version="1.0" encoding="UTF-8"?>
<svg width="30px" height="34px" viewBox="0 0 30 34" version="1.1" xmlns="http://www.w3.org/2000/svg" xmlns:xlink="http://www.w3.org/1999/xlink">
    <title>iconselect/gift medium/default</title>
    <defs>
        <linearGradient x1="50%" y1="0%" x2="50%" y2="100%" id="linearGradient-1">
            <stop stop-color="#E4D3B4" offset="0%"></stop>
            <stop stop-color="#AA9979" offset="100%"></stop>
        </linearGradient>
    </defs>
    <g id="iconselect/gift-medium/default" stroke="none" stroke-width="1" fill="none" fill-rule="evenodd">
        <path d="M26.167794,2.22650295 C28.9143401,5.65968559 27.9222839,7.8946113 23.7170999,8.78672736 L24.7615045,8.78635432 C27.3495416,8.78635432 29.4475601,10.8843729 29.4475601,13.47241 L29.4475601,27.5305769 C29.4475601,30.118614 27.3495416,32.2166325 24.7615045,32.2166325 L13.7828768,32.2169631 C12.8256952,32.7121414 11.7420294,33.1317523 10.5746698,33.4445454 C6.02020184,34.6649114 1.75604399,33.8401699 0.910926402,31.3069624 L0.861656193,31.1429514 L0.048226686,28.1071911 C-0.0210812338,27.8485304 -0.0147550379,27.5816985 0.0612042506,27.340237 L0.115087787,27.1986728 L0.423562741,26.7818436 C0.611187202,25.2394112 2.85512821,23.4571213 6.0173003,22.3305135 L6.01728193,13.47241 C6.01728193,10.8843729 8.1153005,8.78635432 10.7033376,8.78635432 L12.3514136,8.78672736 C8.14622954,7.8946113 7.1541733,5.65968559 9.90071942,2.22650295 C11.6766456,0.00659517918 13.4530266,-0.627826598 14.9998883,0.661224779 C15.886509,1.40007537 16.6357602,2.77759585 17.2766754,4.80882286 L17.3886595,5.17406362 L17.5947978,5.9033831 C17.7095345,6.33100008 17.8205508,6.78223117 17.9280451,7.25717903 L18.034,7.738 L18.1405661,7.25717903 C18.2479626,6.78223117 18.358979,6.33100008 18.4737157,5.9033831 L18.679854,5.17406362 C19.3450814,2.94186701 20.1298503,1.44353717 21.0686252,0.661224779 C22.6154868,-0.627826598 24.3918678,0.00659517918 26.167794,2.22650295 Z M16.0795207,24.5613284 C15.2467019,26.1248811 12.6296325,27.7729434 9.2944257,28.6666094 C5.96007166,29.5600468 2.8703196,29.4416069 1.3668738,28.5045984 L1.88493977,30.4355155 C2.30077861,31.9874472 5.95434105,32.5936835 10.052451,31.4955982 C14.0529869,30.4236579 16.8747085,28.1569617 16.6199707,26.6059337 L16.5958134,26.4937488 L16.0795207,24.5613284 Z M24.7615045,9.95786823 L20.0752819,9.95735432 L20.0752819,31.0443543 L24.7615045,31.0451186 C26.6332099,31.0451186 28.1631836,29.5819915 28.2700801,27.7370829 L28.2760462,27.5305769 L28.2760462,13.47241 C28.2760462,11.6007046 26.8129191,10.0707309 24.9680105,9.9638344 L24.7615045,9.95786823 Z M7.83901716,23.2349508 C4.13766517,24.226725 1.60441061,26.2200989 1.82154122,27.0304414 C1.88112272,27.2528026 2.16459534,27.4487601 2.62107665,27.5955693 C4.12489366,27.7790291 6.41242152,27.5764946 8.82883933,26.9290174 C11.2440314,26.2818686 13.3256305,25.314117 14.5369208,24.4039705 C14.8597668,24.0477409 15.0077013,23.7358277 14.9480495,23.5132041 C14.7309189,22.7028616 11.5403692,22.2431765 7.83901716,23.2349508 Z M15.3892819,9.95735432 L10.7033376,9.95786823 C8.83163219,9.95786823 7.30165846,11.4209953 7.194762,13.2659039 L7.18879584,13.47241 L7.18831437,21.9562485 C7.28331643,21.9292299 7.37894185,21.902819 7.47516503,21.8770361 C10.8013666,20.9857831 13.8841607,21.1014655 15.3916607,22.0321888 L15.3892819,9.95735432 Z M10.9984778,3.10470968 L10.9331902,3.18710647 L10.9331902,3.18710647 L10.8697841,3.26873025 L10.6350657,3.58751989 C9.09749501,5.77719595 9.80145945,7.06407858 13.1900753,7.57006456 L13.4308518,7.60410044 L13.9509017,7.66589452 L14.5078647,7.71719303 L14.6529067,7.72838696 L14.6529067,7.72838696 L14.8002782,7.73893107 L15.4131481,7.77463404 L16.0636477,7.80003854 L16.6117618,7.81206692 L16.4260532,7.01144956 C15.8074252,4.46657655 15.092341,2.77354878 14.3258171,1.95568051 L14.2159686,1.84479817 L14.0999063,1.74120308 C13.3037402,1.07773127 12.3465887,1.41957108 10.9984778,3.10470968 Z M21.9686071,1.74120308 L21.8525449,1.84479817 C21.0444944,2.61423966 20.2905468,4.34539213 19.6424602,7.01144956 L19.4567517,7.81206692 L20.0048657,7.80003854 L20.6553653,7.77463404 L21.2682353,7.73893107 C21.3672604,7.73211799 21.4647295,7.72487252 21.5606487,7.71719303 L22.1176117,7.66589452 L22.6376616,7.60410044 C26.2330992,7.12344533 27.0067759,5.82811865 25.4334478,3.58751989 L25.1987293,3.26873025 C25.1570868,3.21457179 25.1141869,3.15989881 25.0700356,3.10470968 C23.7219248,1.41957108 22.7647733,1.07773127 21.9686071,1.74120308 Z" id="Combined-Shape" fill="url(#linearGradient-1)" fill-rule="nonzero"></path>
    </g>
</svg>