<?xml version="1.0" encoding="UTF-8"?>
<svg width="33px" height="34px" viewBox="0 0 33 34" version="1.1" xmlns="http://www.w3.org/2000/svg" xmlns:xlink="http://www.w3.org/1999/xlink">
    <title>iconselect/gift large/selected</title>
    <defs>
        <linearGradient x1="50%" y1="0%" x2="50%" y2="100%" id="linearGradient-1">
            <stop stop-color="#E4D3B4" offset="0%"></stop>
            <stop stop-color="#AA9979" offset="100%"></stop>
        </linearGradient>
    </defs>
    <g id="iconselect/gift-large/selected" stroke="none" stroke-width="1" fill="none" fill-rule="evenodd">
        <path d="M25.5703682,2.17406401 C28.2525597,5.52680336 27.2832958,7.70921722 23.1758661,8.5801049 L24.1971998,8.57941676 C26.724283,8.57941676 28.7728887,10.6280225 28.7728887,13.1551057 L28.7722081,16.1649522 C30.3578549,16.6938637 31.4670471,17.4727925 31.7774255,18.3635846 L32.1465881,18.6036031 C32.3014107,18.7940756 32.4002871,19.0319972 32.4289453,19.2871824 L32.4375998,19.4421237 L32.4375998,22.5109531 C32.4375998,23.2951756 32.1081025,24.0152506 31.5247313,24.6419349 L32.1465881,25.4671365 C32.3014107,25.657609 32.4002871,25.8955306 32.4289453,26.1507158 L32.4375998,26.3056571 L32.4375998,29.3744865 C32.4375998,32.0646728 28.5602229,34 23.8581831,34 C20.4918992,34 17.5482891,33.0080649 16.1475112,31.4573539 L13.6333968,31.4577837 C12.6988568,31.9415446 11.6405284,32.3513703 10.5004464,32.6568543 C6.0552592,33.8479386 1.89328807,33.0438898 1.06542774,30.5729743 L1.01619519,30.4094678 L0.221923697,27.4452062 C0.154248128,27.1926376 0.160425328,26.9320901 0.234595612,26.6963155 L0.287210075,26.5580855 L0.588325929,26.1518464 C0.767787662,24.671044 2.88862821,22.9636676 5.89447006,21.8609624 L5.89444403,13.1551057 C5.89444403,10.6280225 7.94304975,8.57941676 10.470133,8.57941676 L12.0809203,8.5801049 C7.97349056,7.70921722 7.00422673,5.52680336 9.6864182,2.17406401 C11.4205175,0.00643984852 13.1550609,-0.61303993 14.6654906,0.645651512 C15.5312295,1.36710058 16.2628343,2.71217749 16.8886546,4.69556473 L16.9980011,5.05220329 L17.1992845,5.76434572 C17.3487726,6.32147947 17.4917932,6.91966498 17.628806,7.55914033 C17.7649932,6.91966498 17.9080138,6.32147947 18.0575019,5.76434572 L18.2587853,5.05220329 C18.9083451,2.87257971 19.6746311,1.40953876 20.5912958,0.645651512 C22.1017255,-0.61303993 23.8362689,0.00643984852 25.5703682,2.17406401 Z M31.2951499,27.012844 C30.1144626,28.2770353 27.2296511,29.170017 23.8581831,29.170017 C21.2476747,29.170017 18.9289323,28.6346463 17.4671213,27.8061186 C17.2684232,28.331513 16.9348322,28.850071 16.4889026,29.3460128 C16.9629002,30.7675904 20.0517403,32.0298226 23.8581831,32.0298226 C27.9045915,32.0298226 31.140194,30.6034268 31.2884987,29.0751737 L31.2938106,28.9658574 L31.2951499,27.012844 Z M15.7888329,24.134 L15.8755957,23.9829512 C15.0623361,25.5096506 12.5069428,27.1188489 9.25035482,27.991449 C5.99376681,28.8640491 2.97613217,28.7481392 1.50847905,27.8326085 L2.01537824,29.7186936 C2.42142317,31.2340739 5.98893635,31.826032 9.99052697,30.7538091 C13.8945178,29.7077379 16.6488271,27.4964376 16.4038082,25.9820103 L16.3797791,25.869764 L15.9862495,24.4037786 L15.8837718,24.269809 L15.8837718,24.269809 L15.7888329,24.134 Z M7.91804494,23.0192009 C6.05184245,23.5192483 4.40734146,24.2957038 3.32598092,25.1466076 C2.86436361,25.5098462 2.54362218,25.8585251 2.3812493,26.1440892 L2.29711045,26.3017389 L2.44880166,26.396198 C2.73220275,26.5623174 3.18431242,26.7039114 3.76570405,26.7876767 C4.57998834,26.9049964 5.55530138,26.8986162 6.60686362,26.7676421 C7.30960381,26.6525621 8.04632089,26.4955857 8.79573401,26.294781 C9.54407064,26.0942649 10.2596084,25.862227 10.9256025,25.6104671 C11.9028446,25.198129 12.7513636,24.7157014 13.3983155,24.2066262 C13.8599329,23.8433876 14.1806743,23.4947087 14.3430472,23.2091446 L14.427186,23.0514949 L14.2754948,22.9570357 C13.9920937,22.7909164 13.539984,22.6493223 12.9585924,22.5655571 C11.5966548,22.3693331 9.78424744,22.5191534 7.91804494,23.0192009 Z M31.2951499,20.1493106 C30.1144626,21.4135019 27.2296511,22.3064836 23.8581831,22.3064836 C20.4867151,22.3064836 17.6019035,21.4135019 16.4212163,20.1493106 L16.4226886,22.102324 C16.4226886,22.2087653 16.4378459,22.3148673 16.4673976,22.420186 C16.5876761,22.5427397 16.6828012,22.6914115 16.7476228,22.8567515 L16.7960842,23.0041733 L16.8009233,23.0266227 C17.7787903,24.2111349 20.5469751,25.1662892 23.8581831,25.1662892 C27.9045915,25.1662892 31.140194,23.7398934 31.2884987,22.2116403 L31.2938106,22.102324 L31.2951499,20.1493106 Z M19.6215109,9.723339 L15.0458219,9.723339 L15.0485887,21.4233684 C15.1293134,21.4671617 15.2061138,21.5130621 15.2788149,21.5610445 L15.2787663,19.4421237 C15.2787663,19.1806454 15.3521677,18.9305746 15.4848336,18.7220305 L15.5714319,18.6021282 L15.9735092,18.2727481 C16.3754841,17.2990919 17.7353528,16.4671846 19.6209151,15.9622549 L19.6215109,9.723339 Z M23.8581831,17.1588335 C21.9261481,17.1588335 20.1367206,17.4832038 18.8719765,18.025237 C18.3320753,18.2566232 17.9320181,18.5104072 17.7012686,18.7442157 L17.5791939,18.8747169 L17.7012686,19.005218 C17.9320181,19.2390266 18.3320753,19.4928105 18.8719765,19.7241967 C19.6281501,20.0482712 20.5718815,20.294538 21.6215112,20.440191 C22.330091,20.5109149 23.0823335,20.5499637 23.8581831,20.5499637 C24.6329182,20.5499637 25.3841304,20.5110271 26.0925915,20.4402177 C27.1432559,20.2948585 28.0877238,20.0484821 28.8443897,19.7241967 C29.3842909,19.4928105 29.784348,19.2390266 30.0150976,19.005218 L30.1371722,18.8747169 L30.0150976,18.7442157 C29.784348,18.5104072 29.3842909,18.2566232 28.8443897,18.025237 C27.5796455,17.4832038 25.7902181,17.1588335 23.8581831,17.1588335 Z M10.758322,3.03158708 L10.6945721,3.11204325 L10.6326594,3.19174461 L10.403469,3.50302607 C8.90292345,5.63997419 9.58875315,6.89634487 12.8929365,7.39097095 L13.1334084,7.42500751 L13.64121,7.4853462 L14.1850553,7.53543651 L14.3266813,7.5463668 L14.4705818,7.55666258 L15.0690174,7.59152467 L15.7041963,7.61633084 L16.2394011,7.62807593 L16.0580664,6.84631483 C15.4540083,4.36137906 14.7557659,2.70822573 14.0072953,1.90962003 L13.900034,1.8013492 L13.7867052,1.700194 C13.0092905,1.05234838 12.074682,1.38613713 10.758322,3.03158708 Z M21.4700812,1.700194 L21.3567524,1.8013492 C20.5677333,2.55266869 19.8315427,4.24304879 19.19872,6.84631483 L19.0173853,7.62807593 L19.5525901,7.61633084 L20.187769,7.59152467 L20.7862046,7.55666258 C20.8828974,7.55000997 20.978071,7.54293514 21.0717311,7.53543651 L21.6155764,7.4853462 L22.123378,7.42500751 C25.6341353,6.95567285 26.3895902,5.69085391 24.8533173,3.50302607 L24.624127,3.19174461 C24.5834653,3.1388617 24.5415758,3.08547639 24.4984644,3.03158708 C23.1821044,1.38613713 22.2474959,1.05234838 21.4700812,1.700194 Z" id="Combined-Shape" fill="url(#linearGradient-1)" fill-rule="nonzero"></path>
    </g>
</svg>