<?xml version="1.0" encoding="UTF-8"?>
<svg width="15px" height="17px" viewBox="0 0 15 17" version="1.1" xmlns="http://www.w3.org/2000/svg" xmlns:xlink="http://www.w3.org/1999/xlink">
	<g stroke="none" stroke-width="1" fill="none" fill-rule="evenodd">
		<path d="M9.95812709,4.43478261 C10.5718928,4.43478261 12.4328531,4.56322754 13.5516698,6.16540898 L13.8137425,6.54095414 L13.4365678,6.81235304 C12.897742,7.20004753 11.9145932,7.90725994 11.9145932,9.30813235 C11.9145932,10.9672977 13.028026,11.6053769 13.5629392,11.9122671 C13.7990621,12.0477274 14.0434783,12.1873969 14.0434783,12.4928841 C14.0434783,12.6923437 12.3740648,16.9752549 9.94980042,16.9752549 C9.35660053,16.9752549 8.9372909,16.805228 8.56743968,16.6552906 C8.19320776,16.5034717 7.87037379,16.372699 7.33693196,16.372699 C7.06653259,16.372699 6.72460414,16.4946068 6.36261142,16.6240084 C5.86792705,16.8000621 5.30800039,17 4.67266555,17 L4.65601221,17 C2.10781756,16.9860012 0,12.0257566 0,9.49961988 C0,5.37318313 3.24623032,4.46979565 4.4973039,4.46979565 C5.06110965,4.46979565 5.66313782,4.6809262 6.1941385,4.86775808 C6.5654611,4.9980844 6.94949107,5.13261994 7.16307513,5.13261994 C7.29091792,5.13261994 7.59218281,5.01817385 7.85816803,4.91775849 C8.42541815,4.70241872 9.13127887,4.43478261 9.95324478,4.43478261 L9.95812709,4.43478261 Z M9.60706148,0 C9.66506029,2.23683264 8.16947113,3.78864432 6.67563299,3.6913193 C6.42947595,1.90624957 8.16928681,0 9.60706148,0 Z" id="Combined-Shape" fill="#161F27" fill-rule="nonzero">
		</path>
	</g>
</svg>
