<?xml version="1.0" encoding="UTF-8"?>
<svg width="17px" height="13px" viewBox="0 0 17 13" version="1.1" xmlns="http://www.w3.org/2000/svg" xmlns:xlink="http://www.w3.org/1999/xlink">
	<g stroke="none" stroke-width="1" fill="none" fill-rule="evenodd">
		<path d="M15.2291777,0 C15.1525449,0 15.0779707,0.0253567708 15.0166777,0.0722109375 L8.5,4.96816667 L1.98332227,0.0722109375 C1.9220293,0.0253567708 1.84745508,0 1.77082227,0 C0.792824219,0 0,0.808369792 0,1.80554427 L0,11.1944219 C0,12.1916302 0.792824219,13 1.77082227,13 L2.47914453,13 C2.67474414,13 2.83332227,12.8383125 2.83332227,12.6388776 L2.83332227,4.30804427 L8.29526953,8.23983333 C8.41775586,8.32805729 8.58148047,8.32805729 8.7039668,8.23983333 L14.1666445,4.30804427 L14.1666445,12.6388776 C14.1666445,12.8383125 14.3252227,13 14.5208223,13 L15.2291445,13 C16.2071758,13 17,12.1916302 17,11.1944557 L17,1.80554427 C17,0.808369792 16.2071758,0 15.2291777,0 Z" id="Path" fill="#293139" fill-rule="nonzero">
		</path>
	</g>
</svg>
