<?xml version="1.0" encoding="UTF-8"?>
<svg width="12px" height="12px" viewBox="0 0 12 12" version="1.1" xmlns="http://www.w3.org/2000/svg" xmlns:xlink="http://www.w3.org/1999/xlink">
    <!-- Generator: Sketch 64 (93537) - https://sketch.com -->
    <title>Path</title>
    <desc>Created with Sketch.</desc>
    <g id="Edit-Profile" stroke="none" stroke-width="1" fill="none" fill-rule="evenodd">
        <g id="Edit-Profile-Copy" transform="translate(-21.000000, -658.000000)" fill="#293139" fill-rule="nonzero">
            <g id="Group-5-Copy" transform="translate(14.000000, 651.000000)">
                <g id="icon">
                    <path d="M18.6853276,15.8067801 L17.0071682,14.1321462 C16.4078256,13.5340627 15.3889431,13.7733194 15.149206,14.5508047 C14.9694033,15.0891032 14.3700606,15.388145 13.8306523,15.2685049 C12.631967,14.9694631 11.0137419,13.4144459 10.7140706,12.1584705 C10.5342678,11.620172 10.8938734,11.0220884 11.4332817,10.8426867 C12.2124272,10.6034533 12.4521642,9.5867113 11.8528216,8.98862776 L10.1746622,7.31399386 C9.69518812,6.89533538 8.97597697,6.89533538 8.55643713,7.31399386 L7.41768613,8.45035258 C6.27893514,9.64651966 7.53755466,12.8163624 10.354465,15.627355 C13.1713754,18.4383477 16.3478913,19.7541548 17.5465766,18.5579644 L18.6853276,17.4216057 C19.1048908,16.9431388 19.1048908,16.2254386 18.6853276,15.8067801 Z" id="Path"></path>
                </g>
            </g>
        </g>
    </g>
</svg>