<?xml version="1.0" encoding="UTF-8"?>
<svg width="19px" height="15px" viewBox="0 0 19 15" version="1.1" xmlns="http://www.w3.org/2000/svg" xmlns:xlink="http://www.w3.org/1999/xlink">
	<g stroke="none" stroke-width="1" fill="none" fill-rule="evenodd">
		<path d="M16.5675662,3.73653203 C16.5748666,3.89890244 16.5783909,4.062028 16.5783909,4.22590873 C16.5783909,9.22968485 12.7696103,14.9997483 5.80429966,15 L5.80455138,15 L5.80429966,15 C3.66579395,15 1.6758131,14.3731749 0,13.2990132 C0.296294416,13.3340047 0.597875293,13.3513745 0.90323224,13.3513745 C2.67747452,13.3513745 4.31024064,12.7461988 5.60643436,11.73044 C3.94874633,11.6997281 2.55110258,10.604924 2.06877452,9.100292 C2.29961732,9.14459771 2.53700531,9.16876446 2.78043499,9.16876446 C3.12606986,9.16876446 3.46088002,9.12219314 3.77907557,9.03534389 C2.04636994,8.68845029 0.741113686,7.15713426 0.741113686,5.32348199 C0.741113686,5.30636394 0.741113686,5.29100793 0.741617128,5.27514849 C1.25188801,5.55885609 1.83541431,5.7295338 2.4567012,5.74866581 C1.43993556,5.07023461 0.771573845,3.9104823 0.771573845,2.59666696 C0.771573845,1.90287989 0.959117883,1.25289496 1.28436207,0.693283627 C3.15174706,2.9845937 5.94250325,4.49149127 9.08971902,4.64983388 C9.02477091,4.37241969 8.9912899,4.08342563 8.9912899,3.78637599 C8.9912899,1.69595206 10.687242,0 12.7784211,0 C13.8676871,0 14.8514751,0.460426931 15.5424932,1.19650588 C16.4051959,1.02633167 17.2152855,0.711156969 17.9470849,0.277414126 C17.6638808,1.1612627 17.0637398,1.90287989 16.2818447,2.37186585 C17.0478804,2.28023358 17.7779177,2.07708182 18.4563488,1.77550094 C17.9496022,2.53499141 17.3069177,3.20209446 16.5675662,3.73653203 Z" id="Path" fill="#161F27">
		</path>
	</g>
</svg>
